G04 EAGLE Gerber RS-274X export*
G75*
%MOMM*%
%FSLAX34Y34*%
%LPD*%
%INTop Copper*%
%IPNEG*%
%AMOC8*
5,1,8,0,0,1.08239X$1,22.5*%
G01*
%ADD10C,1.981200*%
%ADD11C,1.800000*%
%ADD12C,1.879600*%
%ADD13R,2.032000X2.032000*%
%ADD14C,2.032000*%
%ADD15R,0.800000X0.850000*%
%ADD16R,1.000000X0.300000*%
%ADD17R,1.000000X1.250000*%
%ADD18C,1.500000*%
%ADD19C,0.508000*%
%ADD20C,0.200000*%
%ADD21C,0.906400*%
%ADD22C,0.406400*%
%ADD23C,0.152400*%
%ADD24C,0.254000*%

G36*
X30096Y299009D02*
X30096Y299009D01*
X30128Y299009D01*
X30233Y299038D01*
X30340Y299060D01*
X30369Y299076D01*
X30400Y299084D01*
X30493Y299142D01*
X30589Y299193D01*
X30612Y299215D01*
X30640Y299232D01*
X30666Y299261D01*
X30690Y299267D01*
X30693Y299270D01*
X30697Y299271D01*
X30833Y299367D01*
X34643Y303177D01*
X34648Y303184D01*
X34655Y303189D01*
X34702Y303266D01*
X34753Y303343D01*
X34754Y303351D01*
X34759Y303358D01*
X34772Y303448D01*
X34789Y303538D01*
X34787Y303547D01*
X34789Y303555D01*
X34766Y303643D01*
X34746Y303732D01*
X34741Y303739D01*
X34739Y303747D01*
X34643Y303883D01*
X30833Y307693D01*
X30829Y307695D01*
X30827Y307699D01*
X30747Y307750D01*
X30667Y307803D01*
X30663Y307804D01*
X30660Y307806D01*
X30566Y307822D01*
X30472Y307839D01*
X30468Y307838D01*
X30463Y307839D01*
X30372Y307817D01*
X30278Y307796D01*
X30274Y307794D01*
X30270Y307793D01*
X30194Y307737D01*
X30116Y307681D01*
X30113Y307678D01*
X30110Y307675D01*
X30061Y307593D01*
X30011Y307512D01*
X30011Y307508D01*
X30008Y307504D01*
X29981Y307340D01*
X29981Y305999D01*
X25000Y305999D01*
X24968Y305995D01*
X24936Y305997D01*
X24829Y305975D01*
X24721Y305959D01*
X24691Y305946D01*
X24660Y305940D01*
X24563Y305888D01*
X24464Y305843D01*
X24439Y305822D01*
X24411Y305807D01*
X24333Y305731D01*
X24250Y305660D01*
X24232Y305633D01*
X24209Y305610D01*
X24155Y305515D01*
X24095Y305424D01*
X24086Y305393D01*
X24070Y305365D01*
X24045Y305258D01*
X24013Y305154D01*
X24012Y305122D01*
X24005Y305091D01*
X24010Y304981D01*
X24009Y304872D01*
X24018Y304841D01*
X24019Y304809D01*
X24055Y304706D01*
X24084Y304600D01*
X24101Y304573D01*
X24112Y304542D01*
X24165Y304469D01*
X24232Y304360D01*
X24236Y304357D01*
X24269Y304327D01*
X24293Y304293D01*
X29293Y299293D01*
X29319Y299274D01*
X29340Y299250D01*
X29432Y299190D01*
X29519Y299124D01*
X29549Y299113D01*
X29576Y299095D01*
X29681Y299063D01*
X29783Y299025D01*
X29815Y299022D01*
X29846Y299013D01*
X29955Y299011D01*
X30064Y299003D01*
X30096Y299009D01*
G37*
D10*
X647700Y228600D03*
X647700Y127000D03*
X596900Y266700D03*
X596900Y165100D03*
X596900Y304800D03*
X596900Y406400D03*
X647700Y342900D03*
X647700Y444500D03*
X546100Y127000D03*
X546100Y228600D03*
X495300Y165100D03*
X495300Y266700D03*
X495300Y406400D03*
X495300Y304800D03*
X546100Y444500D03*
X546100Y342900D03*
D11*
X301100Y254000D02*
X283100Y254000D01*
X333900Y266700D02*
X351900Y266700D01*
X301100Y279400D02*
X283100Y279400D01*
X333900Y292100D02*
X351900Y292100D01*
X301100Y304800D02*
X283100Y304800D01*
X333900Y317500D02*
X351900Y317500D01*
X351900Y241300D02*
X333900Y241300D01*
X301100Y228600D02*
X283100Y228600D01*
X333900Y215900D02*
X351900Y215900D01*
X301100Y203200D02*
X283100Y203200D01*
X333900Y190500D02*
X351900Y190500D01*
X301100Y330200D02*
X283100Y330200D01*
X333900Y342900D02*
X351900Y342900D01*
X301100Y177800D02*
X283100Y177800D01*
X333900Y165100D02*
X351900Y165100D01*
D12*
X142100Y108100D03*
X116700Y108100D03*
X91300Y108100D03*
D13*
X723900Y228600D03*
D14*
X723900Y263600D03*
D13*
X723900Y304800D03*
D14*
X723900Y339800D03*
D15*
X214400Y196300D03*
X214400Y182300D03*
X231000Y252900D03*
X231000Y266900D03*
D16*
X44900Y329550D03*
X44900Y323050D03*
X44900Y316550D03*
X44900Y310050D03*
X44900Y303550D03*
X44900Y297050D03*
X44900Y290550D03*
X44900Y284050D03*
X44900Y277550D03*
X44900Y271050D03*
X44900Y264550D03*
X44900Y258050D03*
X44900Y251550D03*
X44900Y245050D03*
X108900Y245050D03*
X108900Y251550D03*
X108900Y258050D03*
X108900Y264550D03*
X108900Y271050D03*
X108900Y277550D03*
X108900Y284050D03*
X108900Y290550D03*
X108900Y297050D03*
X108900Y303550D03*
X108900Y310050D03*
X108900Y316550D03*
X108900Y323050D03*
X108900Y329550D03*
D17*
X88100Y192700D03*
X68100Y192700D03*
D12*
X430000Y290000D03*
X430000Y264600D03*
X235000Y405000D03*
X209600Y405000D03*
X184200Y405000D03*
D18*
X575000Y445000D03*
X575310Y127000D03*
D19*
X142100Y142500D02*
X142100Y108100D01*
X142100Y142500D02*
X181900Y182300D01*
X214400Y182300D01*
X231600Y165100D01*
X277325Y165100D01*
X277689Y164736D01*
X306511Y164736D01*
X306875Y165100D01*
X342900Y165100D01*
X495300Y165100D01*
X533400Y127000D01*
X546100Y127000D01*
X575310Y127000D01*
X574500Y444500D02*
X575000Y445000D01*
X574500Y444500D02*
X546100Y444500D01*
X533400Y444500D01*
X495300Y406400D01*
X493650Y408050D01*
X495300Y406400D02*
X406400Y406400D01*
X342900Y342900D01*
D20*
X68100Y236900D02*
X68100Y192700D01*
X59950Y245050D02*
X44900Y245050D01*
X59950Y245050D02*
X68100Y236900D01*
X44900Y245050D02*
X34950Y245050D01*
X30000Y250000D01*
X30000Y300000D01*
X34550Y329550D02*
X44900Y329550D01*
X34550Y329550D02*
X30000Y325000D01*
X30000Y307340D01*
X33790Y303550D02*
X44900Y303550D01*
X33790Y303550D02*
X33550Y303550D01*
X30000Y300000D01*
X33790Y303550D02*
X30000Y307340D01*
D18*
X205000Y145000D03*
D19*
X168100Y108100D01*
X142100Y108100D01*
D20*
X119950Y310050D02*
X108900Y310050D01*
X119950Y310050D02*
X125000Y305000D01*
D21*
X125000Y305000D03*
X15000Y305000D03*
D20*
X30000Y307340D02*
X30000Y300000D01*
X25000Y305000D02*
X15000Y305000D01*
X25000Y305000D02*
X30000Y300000D01*
X27660Y305000D02*
X25000Y305000D01*
X27660Y305000D02*
X30000Y307340D01*
X68100Y192700D02*
X68100Y141450D01*
X68580Y140970D01*
D21*
X68580Y140970D03*
D22*
X232100Y254000D02*
X292100Y254000D01*
X232100Y254000D02*
X231000Y252900D01*
D19*
X205170Y252900D01*
X205000Y252730D01*
D18*
X205000Y252730D03*
D20*
X123550Y303550D02*
X108900Y303550D01*
X123550Y303550D02*
X125000Y305000D01*
X133050Y323050D02*
X108900Y323050D01*
X184200Y374200D02*
X184200Y405000D01*
X184200Y374200D02*
X133050Y323050D01*
X136550Y316550D02*
X108900Y316550D01*
X209600Y389600D02*
X209600Y405000D01*
X209600Y389600D02*
X136550Y316550D01*
X108900Y329550D02*
X99550Y329550D01*
X88100Y318100D02*
X88100Y313690D01*
X88100Y192700D01*
X88100Y318100D02*
X99550Y329550D01*
D23*
X44900Y323050D02*
X44900Y316550D01*
X44900Y310050D01*
D20*
X85895Y315895D02*
X88100Y318100D01*
X85895Y315895D02*
X88100Y313690D01*
X85895Y315895D02*
X58755Y315895D01*
X58420Y316230D01*
X45220Y316230D01*
X44900Y316550D01*
D19*
X88100Y111300D02*
X91300Y108100D01*
X88100Y111300D02*
X88100Y192700D01*
X112700Y192700D01*
X130000Y210000D01*
D18*
X130000Y210000D03*
D22*
X342700Y266900D02*
X342900Y266700D01*
X277843Y266900D02*
X231000Y266900D01*
X277843Y266900D02*
X277899Y266844D01*
X306301Y266844D01*
X306357Y266900D01*
X342700Y266900D01*
D18*
X185000Y265000D03*
D19*
X186900Y266900D01*
X231000Y266900D01*
D22*
X704500Y444500D02*
X705000Y445000D01*
D18*
X705000Y445000D03*
X704850Y125730D03*
D19*
X596900Y406400D02*
X635000Y444500D01*
X647700Y444500D01*
X704500Y444500D01*
X703580Y127000D02*
X704850Y125730D01*
X703580Y127000D02*
X647700Y127000D01*
X635000Y127000D01*
X596900Y165100D01*
X116700Y137100D02*
X116700Y108100D01*
X175900Y196300D02*
X214400Y196300D01*
X175900Y196300D02*
X116700Y137100D01*
X214400Y196300D02*
X245900Y196300D01*
X252800Y203200D01*
X292100Y203200D01*
X647700Y127000D02*
X647700Y112700D01*
X607300Y72300D01*
X152500Y72300D02*
X116700Y108100D01*
X152500Y72300D02*
X607300Y72300D01*
D20*
X342900Y215900D02*
X184100Y215900D01*
X128950Y271050D02*
X108900Y271050D01*
X128950Y271050D02*
X184100Y215900D01*
X168700Y241300D02*
X342900Y241300D01*
X132450Y277550D02*
X108900Y277550D01*
X132450Y277550D02*
X168700Y241300D01*
X108900Y284050D02*
X287450Y284050D01*
X292100Y279400D01*
X130550Y290550D02*
X108900Y290550D01*
X130550Y290550D02*
X145000Y305000D01*
X291900Y305000D01*
X292100Y304800D01*
D22*
X647700Y228600D02*
X723900Y228600D01*
X647700Y228600D02*
X546100Y228600D01*
X478600Y228600D01*
X427800Y177800D02*
X292100Y177800D01*
X427800Y177800D02*
X478600Y228600D01*
X600000Y263600D02*
X723900Y263600D01*
X600000Y263600D02*
X596900Y266700D01*
X495300Y266700D01*
X419100Y190500D01*
X342900Y190500D01*
X596900Y304800D02*
X723900Y304800D01*
X596900Y304800D02*
X495300Y304800D01*
X470200Y304800D01*
X457500Y317500D02*
X342900Y317500D01*
X457500Y317500D02*
X470200Y304800D01*
X650800Y339800D02*
X723900Y339800D01*
X650800Y339800D02*
X647700Y342900D01*
X546100Y342900D01*
X544100Y340900D02*
X533400Y330200D01*
X292100Y330200D01*
D20*
X544100Y340900D02*
X546100Y342900D01*
X430000Y264600D02*
X430000Y240000D01*
X418600Y228600D02*
X292100Y228600D01*
X418600Y228600D02*
X430000Y240000D01*
X430000Y290000D02*
X345000Y290000D01*
X342900Y292100D01*
X127050Y297050D02*
X108900Y297050D01*
X127050Y297050D02*
X235000Y405000D01*
D24*
X0Y0D02*
X761800Y0D01*
X761800Y504700D01*
X0Y504700D01*
X0Y0D01*
M02*
