G04 EAGLE Gerber RS-274X export*
G75*
%MOMM*%
%FSLAX34Y34*%
%LPD*%
%INSilkscreen Top*%
%IPPOS*%
%AMOC8*
5,1,8,0,0,1.08239X$1,22.5*%
G01*
%ADD10C,0.254000*%
%ADD11C,0.127000*%
%ADD12C,0.152400*%
%ADD13C,0.101600*%
%ADD14R,1.675000X18.950000*%
%ADD15C,0.203200*%
%ADD16C,0.025400*%


D10*
X660400Y146050D02*
X660400Y158750D01*
X660400Y209550D01*
X647700Y209550D01*
X635000Y209550D01*
X635000Y158750D01*
X635000Y146050D01*
X647700Y146050D01*
X660400Y146050D01*
X660400Y158750D02*
X635000Y158750D01*
X647700Y209550D02*
X647700Y215900D01*
X647700Y146050D02*
X647700Y139700D01*
D11*
X663575Y173625D02*
X668401Y173625D01*
X663575Y173625D02*
X663575Y174965D01*
X663577Y175035D01*
X663582Y175105D01*
X663592Y175175D01*
X663604Y175244D01*
X663621Y175312D01*
X663641Y175379D01*
X663664Y175446D01*
X663691Y175510D01*
X663721Y175574D01*
X663755Y175636D01*
X663791Y175695D01*
X663831Y175753D01*
X663874Y175809D01*
X663919Y175862D01*
X663968Y175913D01*
X664019Y175962D01*
X664072Y176007D01*
X664128Y176050D01*
X664186Y176090D01*
X664246Y176126D01*
X664307Y176160D01*
X664371Y176190D01*
X664435Y176217D01*
X664502Y176240D01*
X664569Y176260D01*
X664637Y176277D01*
X664706Y176289D01*
X664776Y176299D01*
X664846Y176304D01*
X664916Y176306D01*
X667060Y176306D01*
X667130Y176304D01*
X667200Y176299D01*
X667270Y176289D01*
X667339Y176277D01*
X667407Y176260D01*
X667474Y176240D01*
X667541Y176217D01*
X667605Y176190D01*
X667669Y176160D01*
X667731Y176126D01*
X667790Y176090D01*
X667848Y176050D01*
X667904Y176007D01*
X667957Y175962D01*
X668008Y175913D01*
X668057Y175862D01*
X668102Y175809D01*
X668145Y175753D01*
X668185Y175695D01*
X668221Y175635D01*
X668255Y175574D01*
X668285Y175510D01*
X668312Y175446D01*
X668335Y175379D01*
X668355Y175312D01*
X668372Y175244D01*
X668384Y175175D01*
X668394Y175105D01*
X668399Y175035D01*
X668401Y174965D01*
X668401Y173625D01*
X664647Y179294D02*
X663575Y180635D01*
X668401Y180635D01*
X668401Y181975D02*
X668401Y179294D01*
D10*
X609600Y184150D02*
X609600Y196850D01*
X609600Y247650D01*
X596900Y247650D01*
X584200Y247650D01*
X584200Y196850D01*
X584200Y184150D01*
X596900Y184150D01*
X609600Y184150D01*
X609600Y196850D02*
X584200Y196850D01*
X596900Y247650D02*
X596900Y254000D01*
X596900Y184150D02*
X596900Y177800D01*
D11*
X612775Y211725D02*
X617601Y211725D01*
X612775Y211725D02*
X612775Y213065D01*
X612777Y213135D01*
X612782Y213205D01*
X612792Y213275D01*
X612804Y213344D01*
X612821Y213412D01*
X612841Y213479D01*
X612864Y213546D01*
X612891Y213610D01*
X612921Y213674D01*
X612955Y213736D01*
X612991Y213795D01*
X613031Y213853D01*
X613074Y213909D01*
X613119Y213962D01*
X613168Y214013D01*
X613219Y214062D01*
X613272Y214107D01*
X613328Y214150D01*
X613386Y214190D01*
X613446Y214226D01*
X613507Y214260D01*
X613571Y214290D01*
X613635Y214317D01*
X613702Y214340D01*
X613769Y214360D01*
X613837Y214377D01*
X613906Y214389D01*
X613976Y214399D01*
X614046Y214404D01*
X614116Y214406D01*
X616260Y214406D01*
X616330Y214404D01*
X616400Y214399D01*
X616470Y214389D01*
X616539Y214377D01*
X616607Y214360D01*
X616674Y214340D01*
X616741Y214317D01*
X616805Y214290D01*
X616869Y214260D01*
X616931Y214226D01*
X616990Y214190D01*
X617048Y214150D01*
X617104Y214107D01*
X617157Y214062D01*
X617208Y214013D01*
X617257Y213962D01*
X617302Y213909D01*
X617345Y213853D01*
X617385Y213795D01*
X617421Y213735D01*
X617455Y213674D01*
X617485Y213610D01*
X617512Y213546D01*
X617535Y213479D01*
X617555Y213412D01*
X617572Y213344D01*
X617584Y213275D01*
X617594Y213205D01*
X617599Y213135D01*
X617601Y213065D01*
X617601Y211725D01*
X612775Y218869D02*
X612777Y218937D01*
X612783Y219004D01*
X612792Y219071D01*
X612805Y219138D01*
X612822Y219203D01*
X612843Y219268D01*
X612867Y219331D01*
X612895Y219393D01*
X612926Y219453D01*
X612960Y219511D01*
X612998Y219567D01*
X613038Y219622D01*
X613082Y219673D01*
X613129Y219722D01*
X613178Y219769D01*
X613229Y219813D01*
X613284Y219853D01*
X613340Y219891D01*
X613398Y219925D01*
X613458Y219956D01*
X613520Y219984D01*
X613583Y220008D01*
X613648Y220029D01*
X613713Y220046D01*
X613780Y220059D01*
X613847Y220068D01*
X613914Y220074D01*
X613982Y220076D01*
X612775Y218869D02*
X612777Y218791D01*
X612783Y218713D01*
X612793Y218636D01*
X612806Y218559D01*
X612824Y218483D01*
X612845Y218408D01*
X612870Y218334D01*
X612899Y218262D01*
X612931Y218191D01*
X612967Y218122D01*
X613006Y218054D01*
X613049Y217989D01*
X613095Y217926D01*
X613144Y217865D01*
X613196Y217807D01*
X613251Y217752D01*
X613308Y217699D01*
X613368Y217650D01*
X613431Y217603D01*
X613496Y217560D01*
X613562Y217520D01*
X613631Y217483D01*
X613702Y217450D01*
X613774Y217420D01*
X613848Y217394D01*
X614920Y219673D02*
X614871Y219722D01*
X614819Y219769D01*
X614764Y219812D01*
X614707Y219853D01*
X614648Y219891D01*
X614587Y219925D01*
X614524Y219956D01*
X614460Y219984D01*
X614394Y220008D01*
X614328Y220028D01*
X614260Y220045D01*
X614191Y220058D01*
X614122Y220067D01*
X614052Y220073D01*
X613982Y220075D01*
X614920Y219673D02*
X617601Y217394D01*
X617601Y220075D01*
D10*
X584200Y374650D02*
X584200Y387350D01*
X584200Y374650D02*
X584200Y323850D01*
X596900Y323850D01*
X609600Y323850D01*
X609600Y374650D01*
X609600Y387350D01*
X596900Y387350D01*
X584200Y387350D01*
X584200Y374650D02*
X609600Y374650D01*
X596900Y323850D02*
X596900Y317500D01*
X596900Y387350D02*
X596900Y393700D01*
D11*
X581025Y351425D02*
X576199Y351425D01*
X576199Y352765D01*
X576201Y352835D01*
X576206Y352905D01*
X576216Y352975D01*
X576228Y353044D01*
X576245Y353112D01*
X576265Y353179D01*
X576288Y353246D01*
X576315Y353310D01*
X576345Y353374D01*
X576379Y353436D01*
X576415Y353495D01*
X576455Y353553D01*
X576498Y353609D01*
X576543Y353662D01*
X576592Y353713D01*
X576643Y353762D01*
X576696Y353807D01*
X576752Y353850D01*
X576810Y353890D01*
X576870Y353926D01*
X576931Y353960D01*
X576995Y353990D01*
X577059Y354017D01*
X577126Y354040D01*
X577193Y354060D01*
X577261Y354077D01*
X577330Y354089D01*
X577400Y354099D01*
X577470Y354104D01*
X577540Y354106D01*
X579684Y354106D01*
X579754Y354104D01*
X579824Y354099D01*
X579894Y354089D01*
X579963Y354077D01*
X580031Y354060D01*
X580098Y354040D01*
X580165Y354017D01*
X580229Y353990D01*
X580293Y353960D01*
X580355Y353926D01*
X580414Y353890D01*
X580472Y353850D01*
X580528Y353807D01*
X580581Y353762D01*
X580632Y353713D01*
X580681Y353662D01*
X580726Y353609D01*
X580769Y353553D01*
X580809Y353495D01*
X580845Y353435D01*
X580879Y353374D01*
X580909Y353310D01*
X580936Y353246D01*
X580959Y353179D01*
X580979Y353112D01*
X580996Y353044D01*
X581008Y352975D01*
X581018Y352905D01*
X581023Y352835D01*
X581025Y352765D01*
X581025Y351425D01*
X581025Y357094D02*
X581025Y358435D01*
X581023Y358506D01*
X581017Y358578D01*
X581008Y358648D01*
X580995Y358718D01*
X580978Y358788D01*
X580957Y358856D01*
X580933Y358923D01*
X580905Y358989D01*
X580874Y359053D01*
X580839Y359116D01*
X580801Y359176D01*
X580760Y359235D01*
X580716Y359291D01*
X580669Y359345D01*
X580620Y359396D01*
X580567Y359444D01*
X580512Y359490D01*
X580455Y359532D01*
X580395Y359572D01*
X580334Y359608D01*
X580270Y359641D01*
X580205Y359670D01*
X580139Y359696D01*
X580071Y359719D01*
X580002Y359738D01*
X579932Y359753D01*
X579862Y359764D01*
X579791Y359772D01*
X579720Y359776D01*
X579648Y359776D01*
X579577Y359772D01*
X579506Y359764D01*
X579436Y359753D01*
X579366Y359738D01*
X579297Y359719D01*
X579229Y359696D01*
X579163Y359670D01*
X579098Y359641D01*
X579034Y359608D01*
X578973Y359572D01*
X578913Y359532D01*
X578856Y359490D01*
X578801Y359444D01*
X578748Y359396D01*
X578699Y359345D01*
X578652Y359291D01*
X578608Y359235D01*
X578567Y359176D01*
X578529Y359116D01*
X578494Y359053D01*
X578463Y358989D01*
X578435Y358923D01*
X578411Y358856D01*
X578390Y358788D01*
X578373Y358718D01*
X578360Y358648D01*
X578351Y358578D01*
X578345Y358506D01*
X578343Y358435D01*
X576199Y358703D02*
X576199Y357094D01*
X576199Y358703D02*
X576201Y358768D01*
X576207Y358832D01*
X576217Y358896D01*
X576230Y358960D01*
X576248Y359022D01*
X576269Y359083D01*
X576293Y359143D01*
X576322Y359201D01*
X576354Y359258D01*
X576389Y359312D01*
X576427Y359364D01*
X576469Y359414D01*
X576513Y359461D01*
X576560Y359505D01*
X576610Y359547D01*
X576662Y359585D01*
X576716Y359620D01*
X576773Y359652D01*
X576831Y359681D01*
X576891Y359705D01*
X576952Y359726D01*
X577014Y359744D01*
X577078Y359757D01*
X577142Y359767D01*
X577206Y359773D01*
X577271Y359775D01*
X577336Y359773D01*
X577400Y359767D01*
X577464Y359757D01*
X577528Y359744D01*
X577590Y359726D01*
X577651Y359705D01*
X577711Y359681D01*
X577769Y359652D01*
X577826Y359620D01*
X577880Y359585D01*
X577932Y359547D01*
X577982Y359505D01*
X578029Y359461D01*
X578073Y359414D01*
X578115Y359364D01*
X578153Y359312D01*
X578188Y359258D01*
X578220Y359201D01*
X578249Y359143D01*
X578273Y359083D01*
X578294Y359022D01*
X578312Y358960D01*
X578325Y358896D01*
X578335Y358832D01*
X578341Y358768D01*
X578343Y358703D01*
X578344Y358703D02*
X578344Y357630D01*
D10*
X635000Y412750D02*
X635000Y425450D01*
X635000Y412750D02*
X635000Y361950D01*
X647700Y361950D01*
X660400Y361950D01*
X660400Y412750D01*
X660400Y425450D01*
X647700Y425450D01*
X635000Y425450D01*
X635000Y412750D02*
X660400Y412750D01*
X647700Y361950D02*
X647700Y355600D01*
X647700Y425450D02*
X647700Y431800D01*
D11*
X631825Y389525D02*
X626999Y389525D01*
X626999Y390865D01*
X627001Y390935D01*
X627006Y391005D01*
X627016Y391075D01*
X627028Y391144D01*
X627045Y391212D01*
X627065Y391279D01*
X627088Y391346D01*
X627115Y391410D01*
X627145Y391474D01*
X627179Y391536D01*
X627215Y391595D01*
X627255Y391653D01*
X627298Y391709D01*
X627343Y391762D01*
X627392Y391813D01*
X627443Y391862D01*
X627496Y391907D01*
X627552Y391950D01*
X627610Y391990D01*
X627670Y392026D01*
X627731Y392060D01*
X627795Y392090D01*
X627859Y392117D01*
X627926Y392140D01*
X627993Y392160D01*
X628061Y392177D01*
X628130Y392189D01*
X628200Y392199D01*
X628270Y392204D01*
X628340Y392206D01*
X630484Y392206D01*
X630554Y392204D01*
X630624Y392199D01*
X630694Y392189D01*
X630763Y392177D01*
X630831Y392160D01*
X630898Y392140D01*
X630965Y392117D01*
X631029Y392090D01*
X631093Y392060D01*
X631155Y392026D01*
X631214Y391990D01*
X631272Y391950D01*
X631328Y391907D01*
X631381Y391862D01*
X631432Y391813D01*
X631481Y391762D01*
X631526Y391709D01*
X631569Y391653D01*
X631609Y391595D01*
X631645Y391535D01*
X631679Y391474D01*
X631709Y391410D01*
X631736Y391346D01*
X631759Y391279D01*
X631779Y391212D01*
X631796Y391144D01*
X631808Y391075D01*
X631818Y391005D01*
X631823Y390935D01*
X631825Y390865D01*
X631825Y389525D01*
X630753Y395194D02*
X626999Y396267D01*
X630753Y395194D02*
X630753Y397875D01*
X629680Y397071D02*
X631825Y397071D01*
D10*
X533400Y209550D02*
X533400Y196850D01*
X533400Y146050D01*
X546100Y146050D01*
X558800Y146050D01*
X558800Y196850D01*
X558800Y209550D01*
X546100Y209550D01*
X533400Y209550D01*
X533400Y196850D02*
X558800Y196850D01*
X546100Y146050D02*
X546100Y139700D01*
X546100Y209550D02*
X546100Y215900D01*
D11*
X530225Y173625D02*
X525399Y173625D01*
X525399Y174965D01*
X525401Y175035D01*
X525406Y175105D01*
X525416Y175175D01*
X525428Y175244D01*
X525445Y175312D01*
X525465Y175379D01*
X525488Y175446D01*
X525515Y175510D01*
X525545Y175574D01*
X525579Y175636D01*
X525615Y175695D01*
X525655Y175753D01*
X525698Y175809D01*
X525743Y175862D01*
X525792Y175913D01*
X525843Y175962D01*
X525896Y176007D01*
X525952Y176050D01*
X526010Y176090D01*
X526070Y176126D01*
X526131Y176160D01*
X526195Y176190D01*
X526259Y176217D01*
X526326Y176240D01*
X526393Y176260D01*
X526461Y176277D01*
X526530Y176289D01*
X526600Y176299D01*
X526670Y176304D01*
X526740Y176306D01*
X528884Y176306D01*
X528954Y176304D01*
X529024Y176299D01*
X529094Y176289D01*
X529163Y176277D01*
X529231Y176260D01*
X529298Y176240D01*
X529365Y176217D01*
X529429Y176190D01*
X529493Y176160D01*
X529555Y176126D01*
X529614Y176090D01*
X529672Y176050D01*
X529728Y176007D01*
X529781Y175962D01*
X529832Y175913D01*
X529881Y175862D01*
X529926Y175809D01*
X529969Y175753D01*
X530009Y175695D01*
X530045Y175635D01*
X530079Y175574D01*
X530109Y175510D01*
X530136Y175446D01*
X530159Y175379D01*
X530179Y175312D01*
X530196Y175244D01*
X530208Y175175D01*
X530218Y175105D01*
X530223Y175035D01*
X530225Y174965D01*
X530225Y173625D01*
X530225Y179294D02*
X530225Y180903D01*
X530223Y180968D01*
X530217Y181032D01*
X530207Y181096D01*
X530194Y181160D01*
X530176Y181222D01*
X530155Y181283D01*
X530131Y181343D01*
X530102Y181401D01*
X530070Y181458D01*
X530035Y181512D01*
X529997Y181564D01*
X529955Y181614D01*
X529911Y181661D01*
X529864Y181705D01*
X529814Y181747D01*
X529762Y181785D01*
X529708Y181820D01*
X529651Y181852D01*
X529593Y181881D01*
X529533Y181905D01*
X529472Y181926D01*
X529410Y181944D01*
X529346Y181957D01*
X529282Y181967D01*
X529218Y181973D01*
X529153Y181975D01*
X528616Y181975D01*
X528551Y181973D01*
X528487Y181967D01*
X528423Y181957D01*
X528359Y181944D01*
X528297Y181926D01*
X528236Y181905D01*
X528176Y181881D01*
X528118Y181852D01*
X528061Y181820D01*
X528007Y181785D01*
X527955Y181747D01*
X527905Y181705D01*
X527858Y181661D01*
X527814Y181614D01*
X527772Y181564D01*
X527734Y181512D01*
X527699Y181458D01*
X527667Y181401D01*
X527638Y181343D01*
X527614Y181283D01*
X527593Y181222D01*
X527575Y181160D01*
X527562Y181096D01*
X527552Y181032D01*
X527546Y180968D01*
X527544Y180903D01*
X527544Y179294D01*
X525399Y179294D01*
X525399Y181975D01*
D10*
X482600Y234950D02*
X482600Y247650D01*
X482600Y234950D02*
X482600Y184150D01*
X495300Y184150D01*
X508000Y184150D01*
X508000Y234950D01*
X508000Y247650D01*
X495300Y247650D01*
X482600Y247650D01*
X482600Y234950D02*
X508000Y234950D01*
X495300Y184150D02*
X495300Y177800D01*
X495300Y247650D02*
X495300Y254000D01*
D11*
X479425Y211725D02*
X474599Y211725D01*
X474599Y213065D01*
X474601Y213135D01*
X474606Y213205D01*
X474616Y213275D01*
X474628Y213344D01*
X474645Y213412D01*
X474665Y213479D01*
X474688Y213546D01*
X474715Y213610D01*
X474745Y213674D01*
X474779Y213736D01*
X474815Y213795D01*
X474855Y213853D01*
X474898Y213909D01*
X474943Y213962D01*
X474992Y214013D01*
X475043Y214062D01*
X475096Y214107D01*
X475152Y214150D01*
X475210Y214190D01*
X475270Y214226D01*
X475331Y214260D01*
X475395Y214290D01*
X475459Y214317D01*
X475526Y214340D01*
X475593Y214360D01*
X475661Y214377D01*
X475730Y214389D01*
X475800Y214399D01*
X475870Y214404D01*
X475940Y214406D01*
X478084Y214406D01*
X478154Y214404D01*
X478224Y214399D01*
X478294Y214389D01*
X478363Y214377D01*
X478431Y214360D01*
X478498Y214340D01*
X478565Y214317D01*
X478629Y214290D01*
X478693Y214260D01*
X478755Y214226D01*
X478814Y214190D01*
X478872Y214150D01*
X478928Y214107D01*
X478981Y214062D01*
X479032Y214013D01*
X479081Y213962D01*
X479126Y213909D01*
X479169Y213853D01*
X479209Y213795D01*
X479245Y213735D01*
X479279Y213674D01*
X479309Y213610D01*
X479336Y213546D01*
X479359Y213479D01*
X479379Y213412D01*
X479396Y213344D01*
X479408Y213275D01*
X479418Y213205D01*
X479423Y213135D01*
X479425Y213065D01*
X479425Y211725D01*
X476744Y217394D02*
X476744Y219003D01*
X476746Y219068D01*
X476752Y219132D01*
X476762Y219196D01*
X476775Y219260D01*
X476793Y219322D01*
X476814Y219383D01*
X476838Y219443D01*
X476867Y219501D01*
X476899Y219558D01*
X476934Y219612D01*
X476972Y219664D01*
X477014Y219714D01*
X477058Y219761D01*
X477105Y219805D01*
X477155Y219847D01*
X477207Y219885D01*
X477261Y219920D01*
X477318Y219952D01*
X477376Y219981D01*
X477436Y220005D01*
X477497Y220026D01*
X477559Y220044D01*
X477623Y220057D01*
X477687Y220067D01*
X477751Y220073D01*
X477816Y220075D01*
X478084Y220075D01*
X478084Y220076D02*
X478155Y220074D01*
X478227Y220068D01*
X478297Y220059D01*
X478367Y220046D01*
X478437Y220029D01*
X478505Y220008D01*
X478572Y219984D01*
X478638Y219956D01*
X478702Y219925D01*
X478765Y219890D01*
X478825Y219852D01*
X478884Y219811D01*
X478940Y219767D01*
X478994Y219720D01*
X479045Y219671D01*
X479093Y219618D01*
X479139Y219563D01*
X479181Y219506D01*
X479221Y219446D01*
X479257Y219385D01*
X479290Y219321D01*
X479319Y219256D01*
X479345Y219190D01*
X479368Y219122D01*
X479387Y219053D01*
X479402Y218983D01*
X479413Y218913D01*
X479421Y218842D01*
X479425Y218771D01*
X479425Y218699D01*
X479421Y218628D01*
X479413Y218557D01*
X479402Y218487D01*
X479387Y218417D01*
X479368Y218348D01*
X479345Y218280D01*
X479319Y218214D01*
X479290Y218149D01*
X479257Y218085D01*
X479221Y218024D01*
X479181Y217964D01*
X479139Y217907D01*
X479093Y217852D01*
X479045Y217799D01*
X478994Y217750D01*
X478940Y217703D01*
X478884Y217659D01*
X478825Y217618D01*
X478765Y217580D01*
X478702Y217545D01*
X478638Y217514D01*
X478572Y217486D01*
X478505Y217462D01*
X478437Y217441D01*
X478367Y217424D01*
X478297Y217411D01*
X478227Y217402D01*
X478155Y217396D01*
X478084Y217394D01*
X476744Y217394D01*
X476653Y217396D01*
X476562Y217402D01*
X476472Y217411D01*
X476381Y217425D01*
X476292Y217442D01*
X476204Y217463D01*
X476116Y217488D01*
X476029Y217517D01*
X475944Y217549D01*
X475860Y217584D01*
X475778Y217624D01*
X475698Y217666D01*
X475619Y217712D01*
X475543Y217762D01*
X475469Y217814D01*
X475396Y217870D01*
X475327Y217929D01*
X475260Y217990D01*
X475195Y218055D01*
X475134Y218122D01*
X475075Y218191D01*
X475019Y218263D01*
X474967Y218338D01*
X474917Y218414D01*
X474871Y218493D01*
X474829Y218573D01*
X474789Y218655D01*
X474754Y218739D01*
X474722Y218824D01*
X474693Y218911D01*
X474668Y218998D01*
X474647Y219087D01*
X474630Y219176D01*
X474616Y219266D01*
X474607Y219357D01*
X474601Y219448D01*
X474599Y219539D01*
D10*
X508000Y323850D02*
X508000Y336550D01*
X508000Y387350D01*
X495300Y387350D01*
X482600Y387350D01*
X482600Y336550D01*
X482600Y323850D01*
X495300Y323850D01*
X508000Y323850D01*
X508000Y336550D02*
X482600Y336550D01*
X495300Y387350D02*
X495300Y393700D01*
X495300Y323850D02*
X495300Y317500D01*
D11*
X511175Y351425D02*
X516001Y351425D01*
X511175Y351425D02*
X511175Y352765D01*
X511177Y352835D01*
X511182Y352905D01*
X511192Y352975D01*
X511204Y353044D01*
X511221Y353112D01*
X511241Y353179D01*
X511264Y353246D01*
X511291Y353310D01*
X511321Y353374D01*
X511355Y353436D01*
X511391Y353495D01*
X511431Y353553D01*
X511474Y353609D01*
X511519Y353662D01*
X511568Y353713D01*
X511619Y353762D01*
X511672Y353807D01*
X511728Y353850D01*
X511786Y353890D01*
X511846Y353926D01*
X511907Y353960D01*
X511971Y353990D01*
X512035Y354017D01*
X512102Y354040D01*
X512169Y354060D01*
X512237Y354077D01*
X512306Y354089D01*
X512376Y354099D01*
X512446Y354104D01*
X512516Y354106D01*
X514660Y354106D01*
X514730Y354104D01*
X514800Y354099D01*
X514870Y354089D01*
X514939Y354077D01*
X515007Y354060D01*
X515074Y354040D01*
X515141Y354017D01*
X515205Y353990D01*
X515269Y353960D01*
X515331Y353926D01*
X515390Y353890D01*
X515448Y353850D01*
X515504Y353807D01*
X515557Y353762D01*
X515608Y353713D01*
X515657Y353662D01*
X515702Y353609D01*
X515745Y353553D01*
X515785Y353495D01*
X515821Y353435D01*
X515855Y353374D01*
X515885Y353310D01*
X515912Y353246D01*
X515935Y353179D01*
X515955Y353112D01*
X515972Y353044D01*
X515984Y352975D01*
X515994Y352905D01*
X515999Y352835D01*
X516001Y352765D01*
X516001Y351425D01*
X511711Y357094D02*
X511175Y357094D01*
X511175Y359775D01*
X516001Y358435D01*
D10*
X558800Y361950D02*
X558800Y374650D01*
X558800Y425450D01*
X546100Y425450D01*
X533400Y425450D01*
X533400Y374650D01*
X533400Y361950D01*
X546100Y361950D01*
X558800Y361950D01*
X558800Y374650D02*
X533400Y374650D01*
X546100Y425450D02*
X546100Y431800D01*
X546100Y361950D02*
X546100Y355600D01*
D11*
X561975Y389525D02*
X566801Y389525D01*
X561975Y389525D02*
X561975Y390865D01*
X561977Y390935D01*
X561982Y391005D01*
X561992Y391075D01*
X562004Y391144D01*
X562021Y391212D01*
X562041Y391279D01*
X562064Y391346D01*
X562091Y391410D01*
X562121Y391474D01*
X562155Y391536D01*
X562191Y391595D01*
X562231Y391653D01*
X562274Y391709D01*
X562319Y391762D01*
X562368Y391813D01*
X562419Y391862D01*
X562472Y391907D01*
X562528Y391950D01*
X562586Y391990D01*
X562646Y392026D01*
X562707Y392060D01*
X562771Y392090D01*
X562835Y392117D01*
X562902Y392140D01*
X562969Y392160D01*
X563037Y392177D01*
X563106Y392189D01*
X563176Y392199D01*
X563246Y392204D01*
X563316Y392206D01*
X565460Y392206D01*
X565530Y392204D01*
X565600Y392199D01*
X565670Y392189D01*
X565739Y392177D01*
X565807Y392160D01*
X565874Y392140D01*
X565941Y392117D01*
X566005Y392090D01*
X566069Y392060D01*
X566131Y392026D01*
X566190Y391990D01*
X566248Y391950D01*
X566304Y391907D01*
X566357Y391862D01*
X566408Y391813D01*
X566457Y391762D01*
X566502Y391709D01*
X566545Y391653D01*
X566585Y391595D01*
X566621Y391535D01*
X566655Y391474D01*
X566685Y391410D01*
X566712Y391346D01*
X566735Y391279D01*
X566755Y391212D01*
X566772Y391144D01*
X566784Y391075D01*
X566794Y391005D01*
X566799Y390935D01*
X566801Y390865D01*
X566801Y389525D01*
X565460Y395194D02*
X565389Y395196D01*
X565317Y395202D01*
X565247Y395211D01*
X565177Y395224D01*
X565107Y395241D01*
X565039Y395262D01*
X564972Y395286D01*
X564906Y395314D01*
X564842Y395345D01*
X564779Y395380D01*
X564719Y395418D01*
X564660Y395459D01*
X564604Y395503D01*
X564550Y395550D01*
X564499Y395599D01*
X564451Y395652D01*
X564405Y395707D01*
X564363Y395764D01*
X564323Y395824D01*
X564287Y395885D01*
X564254Y395949D01*
X564225Y396014D01*
X564199Y396080D01*
X564176Y396148D01*
X564157Y396217D01*
X564142Y396287D01*
X564131Y396357D01*
X564123Y396428D01*
X564119Y396499D01*
X564119Y396571D01*
X564123Y396642D01*
X564131Y396713D01*
X564142Y396783D01*
X564157Y396853D01*
X564176Y396922D01*
X564199Y396990D01*
X564225Y397056D01*
X564254Y397121D01*
X564287Y397185D01*
X564323Y397246D01*
X564363Y397306D01*
X564405Y397363D01*
X564451Y397418D01*
X564499Y397471D01*
X564550Y397520D01*
X564604Y397567D01*
X564660Y397611D01*
X564719Y397652D01*
X564779Y397690D01*
X564842Y397725D01*
X564906Y397756D01*
X564972Y397784D01*
X565039Y397808D01*
X565107Y397829D01*
X565177Y397846D01*
X565247Y397859D01*
X565317Y397868D01*
X565389Y397874D01*
X565460Y397876D01*
X565531Y397874D01*
X565603Y397868D01*
X565673Y397859D01*
X565743Y397846D01*
X565813Y397829D01*
X565881Y397808D01*
X565948Y397784D01*
X566014Y397756D01*
X566078Y397725D01*
X566141Y397690D01*
X566201Y397652D01*
X566260Y397611D01*
X566316Y397567D01*
X566370Y397520D01*
X566421Y397471D01*
X566469Y397418D01*
X566515Y397363D01*
X566557Y397306D01*
X566597Y397246D01*
X566633Y397185D01*
X566666Y397121D01*
X566695Y397056D01*
X566721Y396990D01*
X566744Y396922D01*
X566763Y396853D01*
X566778Y396783D01*
X566789Y396713D01*
X566797Y396642D01*
X566801Y396571D01*
X566801Y396499D01*
X566797Y396428D01*
X566789Y396357D01*
X566778Y396287D01*
X566763Y396217D01*
X566744Y396148D01*
X566721Y396080D01*
X566695Y396014D01*
X566666Y395949D01*
X566633Y395885D01*
X566597Y395824D01*
X566557Y395764D01*
X566515Y395707D01*
X566469Y395652D01*
X566421Y395599D01*
X566370Y395550D01*
X566316Y395503D01*
X566260Y395459D01*
X566201Y395418D01*
X566141Y395380D01*
X566078Y395345D01*
X566014Y395314D01*
X565948Y395286D01*
X565881Y395262D01*
X565813Y395241D01*
X565743Y395224D01*
X565673Y395211D01*
X565603Y395202D01*
X565531Y395196D01*
X565460Y395194D01*
X563047Y395463D02*
X562982Y395465D01*
X562918Y395471D01*
X562854Y395481D01*
X562790Y395494D01*
X562728Y395512D01*
X562667Y395533D01*
X562607Y395557D01*
X562549Y395586D01*
X562492Y395618D01*
X562438Y395653D01*
X562386Y395691D01*
X562336Y395733D01*
X562289Y395777D01*
X562245Y395824D01*
X562203Y395874D01*
X562165Y395926D01*
X562130Y395980D01*
X562098Y396037D01*
X562069Y396095D01*
X562045Y396155D01*
X562024Y396216D01*
X562006Y396278D01*
X561993Y396342D01*
X561983Y396406D01*
X561977Y396470D01*
X561975Y396535D01*
X561977Y396600D01*
X561983Y396664D01*
X561993Y396728D01*
X562006Y396792D01*
X562024Y396854D01*
X562045Y396915D01*
X562069Y396975D01*
X562098Y397033D01*
X562130Y397090D01*
X562165Y397144D01*
X562203Y397196D01*
X562245Y397246D01*
X562289Y397293D01*
X562336Y397337D01*
X562386Y397379D01*
X562438Y397417D01*
X562492Y397452D01*
X562549Y397484D01*
X562607Y397513D01*
X562667Y397537D01*
X562728Y397558D01*
X562790Y397576D01*
X562854Y397589D01*
X562918Y397599D01*
X562982Y397605D01*
X563047Y397607D01*
X563112Y397605D01*
X563176Y397599D01*
X563240Y397589D01*
X563304Y397576D01*
X563366Y397558D01*
X563427Y397537D01*
X563487Y397513D01*
X563545Y397484D01*
X563602Y397452D01*
X563656Y397417D01*
X563708Y397379D01*
X563758Y397337D01*
X563805Y397293D01*
X563849Y397246D01*
X563891Y397196D01*
X563929Y397144D01*
X563964Y397090D01*
X563996Y397033D01*
X564025Y396975D01*
X564049Y396915D01*
X564070Y396854D01*
X564088Y396792D01*
X564101Y396728D01*
X564111Y396664D01*
X564117Y396600D01*
X564119Y396535D01*
X564117Y396470D01*
X564111Y396406D01*
X564101Y396342D01*
X564088Y396278D01*
X564070Y396216D01*
X564049Y396155D01*
X564025Y396095D01*
X563996Y396037D01*
X563964Y395980D01*
X563929Y395926D01*
X563891Y395874D01*
X563849Y395824D01*
X563805Y395777D01*
X563758Y395733D01*
X563708Y395691D01*
X563656Y395653D01*
X563602Y395618D01*
X563545Y395586D01*
X563487Y395557D01*
X563427Y395533D01*
X563366Y395512D01*
X563304Y395494D01*
X563240Y395481D01*
X563176Y395471D01*
X563112Y395465D01*
X563047Y395463D01*
D12*
X299720Y162560D02*
X299720Y160020D01*
X299720Y345440D02*
X299720Y347980D01*
X299720Y160020D02*
X264160Y160020D01*
X264160Y347980D02*
X299720Y347980D01*
D13*
X357891Y164480D02*
X360487Y161234D01*
X357891Y164480D02*
X369575Y164480D01*
X369575Y167725D02*
X369575Y161234D01*
X359895Y335084D02*
X357299Y338330D01*
X368983Y338330D01*
X368983Y341575D02*
X368983Y335084D01*
X368983Y346514D02*
X368983Y350409D01*
X368981Y350508D01*
X368975Y350608D01*
X368966Y350707D01*
X368953Y350805D01*
X368936Y350903D01*
X368915Y351001D01*
X368890Y351097D01*
X368862Y351192D01*
X368830Y351286D01*
X368795Y351379D01*
X368756Y351471D01*
X368713Y351561D01*
X368668Y351649D01*
X368618Y351736D01*
X368566Y351820D01*
X368510Y351903D01*
X368452Y351983D01*
X368390Y352061D01*
X368325Y352136D01*
X368257Y352209D01*
X368187Y352279D01*
X368114Y352347D01*
X368039Y352412D01*
X367961Y352474D01*
X367881Y352532D01*
X367798Y352588D01*
X367714Y352640D01*
X367627Y352690D01*
X367539Y352735D01*
X367449Y352778D01*
X367357Y352817D01*
X367264Y352852D01*
X367170Y352884D01*
X367075Y352912D01*
X366979Y352937D01*
X366881Y352958D01*
X366783Y352975D01*
X366685Y352988D01*
X366586Y352997D01*
X366486Y353003D01*
X366387Y353005D01*
X365088Y353005D01*
X364989Y353003D01*
X364889Y352997D01*
X364790Y352988D01*
X364692Y352975D01*
X364594Y352958D01*
X364496Y352937D01*
X364400Y352912D01*
X364305Y352884D01*
X364211Y352852D01*
X364118Y352817D01*
X364026Y352778D01*
X363936Y352735D01*
X363848Y352690D01*
X363761Y352640D01*
X363677Y352588D01*
X363594Y352532D01*
X363514Y352474D01*
X363436Y352412D01*
X363361Y352347D01*
X363288Y352279D01*
X363218Y352209D01*
X363150Y352136D01*
X363085Y352061D01*
X363023Y351983D01*
X362965Y351903D01*
X362909Y351820D01*
X362857Y351736D01*
X362807Y351649D01*
X362762Y351561D01*
X362719Y351471D01*
X362680Y351379D01*
X362645Y351286D01*
X362613Y351192D01*
X362585Y351097D01*
X362560Y351001D01*
X362539Y350903D01*
X362522Y350805D01*
X362509Y350707D01*
X362500Y350608D01*
X362494Y350508D01*
X362492Y350409D01*
X362492Y346514D01*
X357299Y346514D01*
X357299Y353005D01*
X270129Y179234D02*
X270022Y179232D01*
X269916Y179226D01*
X269810Y179216D01*
X269704Y179203D01*
X269598Y179185D01*
X269494Y179164D01*
X269390Y179139D01*
X269287Y179110D01*
X269186Y179078D01*
X269086Y179041D01*
X268987Y179001D01*
X268889Y178958D01*
X268793Y178911D01*
X268699Y178860D01*
X268607Y178806D01*
X268517Y178749D01*
X268429Y178689D01*
X268344Y178625D01*
X268261Y178558D01*
X268180Y178488D01*
X268102Y178416D01*
X268026Y178340D01*
X267954Y178262D01*
X267884Y178181D01*
X267817Y178098D01*
X267753Y178013D01*
X267693Y177925D01*
X267636Y177835D01*
X267582Y177743D01*
X267531Y177649D01*
X267484Y177553D01*
X267441Y177455D01*
X267401Y177356D01*
X267364Y177256D01*
X267332Y177155D01*
X267303Y177052D01*
X267278Y176948D01*
X267257Y176844D01*
X267239Y176738D01*
X267226Y176632D01*
X267216Y176526D01*
X267210Y176420D01*
X267208Y176313D01*
X267210Y176192D01*
X267216Y176071D01*
X267226Y175951D01*
X267239Y175830D01*
X267257Y175711D01*
X267278Y175591D01*
X267303Y175473D01*
X267332Y175356D01*
X267365Y175239D01*
X267401Y175124D01*
X267442Y175010D01*
X267485Y174897D01*
X267533Y174785D01*
X267584Y174676D01*
X267639Y174568D01*
X267697Y174461D01*
X267758Y174357D01*
X267823Y174255D01*
X267891Y174155D01*
X267962Y174057D01*
X268036Y173961D01*
X268113Y173868D01*
X268194Y173778D01*
X268277Y173690D01*
X268363Y173605D01*
X268452Y173522D01*
X268543Y173443D01*
X268637Y173366D01*
X268733Y173293D01*
X268831Y173223D01*
X268932Y173156D01*
X269035Y173092D01*
X269140Y173032D01*
X269247Y172974D01*
X269355Y172921D01*
X269465Y172871D01*
X269577Y172825D01*
X269690Y172782D01*
X269805Y172743D01*
X272401Y178260D02*
X272323Y178339D01*
X272243Y178415D01*
X272160Y178488D01*
X272074Y178558D01*
X271987Y178625D01*
X271896Y178689D01*
X271804Y178749D01*
X271710Y178807D01*
X271613Y178861D01*
X271515Y178911D01*
X271415Y178958D01*
X271314Y179002D01*
X271211Y179042D01*
X271106Y179078D01*
X271001Y179110D01*
X270894Y179139D01*
X270787Y179164D01*
X270678Y179186D01*
X270569Y179203D01*
X270460Y179217D01*
X270350Y179226D01*
X270239Y179232D01*
X270129Y179234D01*
X272401Y178260D02*
X278892Y172743D01*
X278892Y179234D01*
X269804Y321193D02*
X267208Y324439D01*
X278892Y324439D01*
X278892Y327684D02*
X278892Y321193D01*
X276296Y332623D02*
X267208Y335219D01*
X276296Y332623D02*
X276296Y339114D01*
X273699Y337167D02*
X278892Y337167D01*
D14*
X256575Y254000D03*
D13*
X381508Y166906D02*
X393192Y166906D01*
X393192Y165608D02*
X393192Y168204D01*
X381508Y168204D02*
X381508Y165608D01*
X393192Y175368D02*
X393192Y177964D01*
X393192Y175368D02*
X393190Y175269D01*
X393184Y175169D01*
X393175Y175070D01*
X393162Y174972D01*
X393145Y174874D01*
X393124Y174776D01*
X393099Y174680D01*
X393071Y174585D01*
X393039Y174491D01*
X393004Y174398D01*
X392965Y174306D01*
X392922Y174216D01*
X392877Y174128D01*
X392827Y174041D01*
X392775Y173957D01*
X392719Y173874D01*
X392661Y173794D01*
X392599Y173716D01*
X392534Y173641D01*
X392466Y173568D01*
X392396Y173498D01*
X392323Y173430D01*
X392248Y173365D01*
X392170Y173303D01*
X392090Y173245D01*
X392007Y173189D01*
X391923Y173137D01*
X391836Y173087D01*
X391748Y173042D01*
X391658Y172999D01*
X391566Y172960D01*
X391473Y172925D01*
X391379Y172893D01*
X391284Y172865D01*
X391188Y172840D01*
X391090Y172819D01*
X390992Y172802D01*
X390894Y172789D01*
X390795Y172780D01*
X390695Y172774D01*
X390596Y172772D01*
X390596Y172771D02*
X384104Y172771D01*
X384005Y172773D01*
X383905Y172779D01*
X383806Y172788D01*
X383708Y172801D01*
X383610Y172819D01*
X383512Y172839D01*
X383416Y172864D01*
X383320Y172892D01*
X383226Y172924D01*
X383133Y172959D01*
X383042Y172998D01*
X382952Y173041D01*
X382863Y173086D01*
X382777Y173136D01*
X382692Y173188D01*
X382610Y173244D01*
X382530Y173303D01*
X382452Y173364D01*
X382376Y173429D01*
X382303Y173497D01*
X382233Y173567D01*
X382165Y173640D01*
X382100Y173716D01*
X382039Y173794D01*
X381980Y173874D01*
X381924Y173956D01*
X381872Y174041D01*
X381823Y174127D01*
X381777Y174216D01*
X381734Y174306D01*
X381695Y174397D01*
X381660Y174490D01*
X381628Y174584D01*
X381600Y174680D01*
X381575Y174776D01*
X381555Y174874D01*
X381537Y174972D01*
X381524Y175070D01*
X381515Y175169D01*
X381509Y175268D01*
X381507Y175368D01*
X381508Y175368D02*
X381508Y177964D01*
X384104Y182330D02*
X381508Y185575D01*
X393192Y185575D01*
X393192Y182330D02*
X393192Y188821D01*
D15*
X104000Y101750D02*
X97650Y95400D01*
X84950Y95400D01*
X78600Y101750D01*
X78600Y114450D02*
X84950Y120800D01*
X97650Y120800D01*
X104000Y114450D01*
X135750Y95400D02*
X148450Y95400D01*
X135750Y95400D02*
X129400Y101750D01*
X129400Y114450D02*
X135750Y120800D01*
X129400Y101750D02*
X123050Y95400D01*
X110350Y95400D01*
X104000Y101750D01*
X104000Y114450D02*
X110350Y120800D01*
X123050Y120800D01*
X129400Y114450D01*
X154800Y114450D02*
X154800Y101750D01*
X148450Y95400D01*
X154800Y114450D02*
X148450Y120800D01*
X135750Y120800D01*
X78600Y114450D02*
X78600Y101750D01*
D11*
X148536Y93495D02*
X148536Y89741D01*
X148534Y89676D01*
X148528Y89612D01*
X148518Y89548D01*
X148505Y89484D01*
X148487Y89422D01*
X148466Y89361D01*
X148442Y89301D01*
X148413Y89243D01*
X148381Y89186D01*
X148346Y89132D01*
X148308Y89080D01*
X148266Y89030D01*
X148222Y88983D01*
X148175Y88939D01*
X148125Y88897D01*
X148073Y88859D01*
X148019Y88824D01*
X147962Y88792D01*
X147904Y88763D01*
X147844Y88739D01*
X147783Y88718D01*
X147721Y88700D01*
X147657Y88687D01*
X147593Y88677D01*
X147529Y88671D01*
X147464Y88669D01*
X146927Y88669D01*
X151484Y92423D02*
X152824Y93495D01*
X152824Y88669D01*
X151484Y88669D02*
X154165Y88669D01*
D15*
X689900Y211100D02*
X689900Y281100D01*
X751900Y281100D01*
X759900Y281100D01*
X759900Y211100D01*
X751900Y211100D01*
X689900Y211100D01*
X751900Y211100D02*
X751900Y281100D01*
D11*
X696793Y218144D02*
X693039Y218144D01*
X696793Y218143D02*
X696858Y218141D01*
X696922Y218135D01*
X696986Y218125D01*
X697050Y218112D01*
X697112Y218094D01*
X697173Y218073D01*
X697233Y218049D01*
X697291Y218020D01*
X697348Y217988D01*
X697402Y217953D01*
X697454Y217915D01*
X697504Y217873D01*
X697551Y217829D01*
X697595Y217782D01*
X697637Y217732D01*
X697675Y217680D01*
X697710Y217626D01*
X697742Y217569D01*
X697771Y217511D01*
X697795Y217451D01*
X697816Y217390D01*
X697834Y217328D01*
X697847Y217264D01*
X697857Y217200D01*
X697863Y217136D01*
X697865Y217071D01*
X697865Y216535D01*
X697865Y221092D02*
X697865Y222432D01*
X697863Y222503D01*
X697857Y222575D01*
X697848Y222645D01*
X697835Y222715D01*
X697818Y222785D01*
X697797Y222853D01*
X697773Y222920D01*
X697745Y222986D01*
X697714Y223050D01*
X697679Y223113D01*
X697641Y223173D01*
X697600Y223232D01*
X697556Y223288D01*
X697509Y223342D01*
X697460Y223393D01*
X697407Y223441D01*
X697352Y223487D01*
X697295Y223529D01*
X697235Y223569D01*
X697174Y223605D01*
X697110Y223638D01*
X697045Y223667D01*
X696979Y223693D01*
X696911Y223716D01*
X696842Y223735D01*
X696772Y223750D01*
X696702Y223761D01*
X696631Y223769D01*
X696560Y223773D01*
X696488Y223773D01*
X696417Y223769D01*
X696346Y223761D01*
X696276Y223750D01*
X696206Y223735D01*
X696137Y223716D01*
X696069Y223693D01*
X696003Y223667D01*
X695938Y223638D01*
X695874Y223605D01*
X695813Y223569D01*
X695753Y223529D01*
X695696Y223487D01*
X695641Y223441D01*
X695588Y223393D01*
X695539Y223342D01*
X695492Y223288D01*
X695448Y223232D01*
X695407Y223173D01*
X695369Y223113D01*
X695334Y223050D01*
X695303Y222986D01*
X695275Y222920D01*
X695251Y222853D01*
X695230Y222785D01*
X695213Y222715D01*
X695200Y222645D01*
X695191Y222575D01*
X695185Y222503D01*
X695183Y222432D01*
X693039Y222700D02*
X693039Y221092D01*
X693039Y222700D02*
X693041Y222765D01*
X693047Y222829D01*
X693057Y222893D01*
X693070Y222957D01*
X693088Y223019D01*
X693109Y223080D01*
X693133Y223140D01*
X693162Y223198D01*
X693194Y223255D01*
X693229Y223309D01*
X693267Y223361D01*
X693309Y223411D01*
X693353Y223458D01*
X693400Y223502D01*
X693450Y223544D01*
X693502Y223582D01*
X693556Y223617D01*
X693613Y223649D01*
X693671Y223678D01*
X693731Y223702D01*
X693792Y223723D01*
X693854Y223741D01*
X693918Y223754D01*
X693982Y223764D01*
X694046Y223770D01*
X694111Y223772D01*
X694176Y223770D01*
X694240Y223764D01*
X694304Y223754D01*
X694368Y223741D01*
X694430Y223723D01*
X694491Y223702D01*
X694551Y223678D01*
X694609Y223649D01*
X694666Y223617D01*
X694720Y223582D01*
X694772Y223544D01*
X694822Y223502D01*
X694869Y223458D01*
X694913Y223411D01*
X694955Y223361D01*
X694993Y223309D01*
X695028Y223255D01*
X695060Y223198D01*
X695089Y223140D01*
X695113Y223080D01*
X695134Y223019D01*
X695152Y222957D01*
X695165Y222893D01*
X695175Y222829D01*
X695181Y222765D01*
X695183Y222700D01*
X695184Y222700D02*
X695184Y221628D01*
D15*
X689900Y287300D02*
X689900Y357300D01*
X751900Y357300D01*
X759900Y357300D01*
X759900Y287300D01*
X751900Y287300D01*
X689900Y287300D01*
X751900Y287300D02*
X751900Y357300D01*
D11*
X696793Y294344D02*
X693039Y294344D01*
X696793Y294343D02*
X696858Y294341D01*
X696922Y294335D01*
X696986Y294325D01*
X697050Y294312D01*
X697112Y294294D01*
X697173Y294273D01*
X697233Y294249D01*
X697291Y294220D01*
X697348Y294188D01*
X697402Y294153D01*
X697454Y294115D01*
X697504Y294073D01*
X697551Y294029D01*
X697595Y293982D01*
X697637Y293932D01*
X697675Y293880D01*
X697710Y293826D01*
X697742Y293769D01*
X697771Y293711D01*
X697795Y293651D01*
X697816Y293590D01*
X697834Y293528D01*
X697847Y293464D01*
X697857Y293400D01*
X697863Y293336D01*
X697865Y293271D01*
X697865Y292735D01*
X696793Y297292D02*
X693039Y298364D01*
X696793Y297292D02*
X696793Y299973D01*
X697865Y299168D02*
X695720Y299168D01*
D13*
X233346Y170584D02*
X224908Y170584D01*
X233346Y170583D02*
X233459Y170585D01*
X233572Y170591D01*
X233685Y170601D01*
X233798Y170615D01*
X233910Y170632D01*
X234021Y170654D01*
X234131Y170679D01*
X234241Y170709D01*
X234349Y170742D01*
X234456Y170779D01*
X234562Y170819D01*
X234666Y170864D01*
X234769Y170912D01*
X234870Y170963D01*
X234969Y171018D01*
X235066Y171076D01*
X235161Y171138D01*
X235254Y171203D01*
X235344Y171271D01*
X235432Y171342D01*
X235518Y171417D01*
X235601Y171494D01*
X235681Y171574D01*
X235758Y171657D01*
X235833Y171743D01*
X235904Y171831D01*
X235972Y171921D01*
X236037Y172014D01*
X236099Y172109D01*
X236157Y172206D01*
X236212Y172305D01*
X236263Y172406D01*
X236311Y172509D01*
X236356Y172613D01*
X236396Y172719D01*
X236433Y172826D01*
X236466Y172934D01*
X236496Y173044D01*
X236521Y173154D01*
X236543Y173265D01*
X236560Y173377D01*
X236574Y173490D01*
X236584Y173603D01*
X236590Y173716D01*
X236592Y173829D01*
X236590Y173942D01*
X236584Y174055D01*
X236574Y174168D01*
X236560Y174281D01*
X236543Y174393D01*
X236521Y174504D01*
X236496Y174614D01*
X236466Y174724D01*
X236433Y174832D01*
X236396Y174939D01*
X236356Y175045D01*
X236311Y175149D01*
X236263Y175252D01*
X236212Y175353D01*
X236157Y175452D01*
X236099Y175549D01*
X236037Y175644D01*
X235972Y175737D01*
X235904Y175827D01*
X235833Y175915D01*
X235758Y176001D01*
X235681Y176084D01*
X235601Y176164D01*
X235518Y176241D01*
X235432Y176316D01*
X235344Y176387D01*
X235254Y176455D01*
X235161Y176520D01*
X235066Y176582D01*
X234969Y176640D01*
X234870Y176695D01*
X234769Y176746D01*
X234666Y176794D01*
X234562Y176839D01*
X234456Y176879D01*
X234349Y176916D01*
X234241Y176949D01*
X234131Y176979D01*
X234021Y177004D01*
X233910Y177026D01*
X233798Y177043D01*
X233685Y177057D01*
X233572Y177067D01*
X233459Y177073D01*
X233346Y177075D01*
X224908Y177075D01*
X224908Y184878D02*
X236592Y184878D01*
X230750Y184878D02*
X229776Y183256D01*
X229777Y183255D02*
X229730Y183182D01*
X229681Y183111D01*
X229628Y183042D01*
X229572Y182975D01*
X229513Y182911D01*
X229452Y182849D01*
X229388Y182791D01*
X229321Y182735D01*
X229252Y182683D01*
X229180Y182633D01*
X229106Y182587D01*
X229031Y182544D01*
X228953Y182505D01*
X228874Y182469D01*
X228793Y182437D01*
X228711Y182408D01*
X228628Y182383D01*
X228544Y182362D01*
X228459Y182345D01*
X228373Y182331D01*
X228287Y182322D01*
X228200Y182316D01*
X228113Y182314D01*
X228026Y182316D01*
X227939Y182322D01*
X227853Y182332D01*
X227767Y182345D01*
X227682Y182363D01*
X227598Y182384D01*
X227515Y182409D01*
X227432Y182438D01*
X227352Y182470D01*
X227273Y182506D01*
X227195Y182545D01*
X227120Y182588D01*
X227046Y182635D01*
X226975Y182684D01*
X226905Y182737D01*
X226839Y182792D01*
X226775Y182851D01*
X226713Y182912D01*
X226654Y182976D01*
X226599Y183043D01*
X226546Y183112D01*
X226496Y183184D01*
X226450Y183257D01*
X226407Y183333D01*
X226368Y183410D01*
X226332Y183489D01*
X226299Y183570D01*
X226271Y183652D01*
X226245Y183735D01*
X226224Y183819D01*
X226207Y183904D01*
X226206Y183905D02*
X226182Y184045D01*
X226162Y184187D01*
X226146Y184328D01*
X226135Y184470D01*
X226127Y184613D01*
X226123Y184755D01*
X226122Y184898D01*
X226126Y185041D01*
X226134Y185183D01*
X226146Y185325D01*
X226162Y185467D01*
X226181Y185608D01*
X226205Y185749D01*
X226232Y185889D01*
X226264Y186028D01*
X226299Y186166D01*
X226338Y186304D01*
X226381Y186440D01*
X226427Y186574D01*
X226478Y186708D01*
X226531Y186840D01*
X226589Y186970D01*
X226650Y187099D01*
X226715Y187226D01*
X226783Y187352D01*
X226855Y187475D01*
X230750Y184878D02*
X231724Y186501D01*
X231723Y186502D02*
X231770Y186575D01*
X231819Y186646D01*
X231872Y186716D01*
X231928Y186782D01*
X231987Y186846D01*
X232048Y186908D01*
X232112Y186966D01*
X232179Y187022D01*
X232248Y187074D01*
X232320Y187124D01*
X232394Y187170D01*
X232469Y187213D01*
X232547Y187252D01*
X232626Y187288D01*
X232707Y187320D01*
X232789Y187349D01*
X232872Y187374D01*
X232956Y187395D01*
X233041Y187412D01*
X233127Y187426D01*
X233214Y187435D01*
X233300Y187441D01*
X233387Y187443D01*
X233474Y187441D01*
X233561Y187435D01*
X233647Y187425D01*
X233733Y187412D01*
X233818Y187394D01*
X233902Y187373D01*
X233985Y187348D01*
X234068Y187319D01*
X234148Y187287D01*
X234227Y187251D01*
X234305Y187212D01*
X234380Y187169D01*
X234454Y187122D01*
X234525Y187073D01*
X234595Y187020D01*
X234661Y186965D01*
X234725Y186906D01*
X234787Y186845D01*
X234846Y186780D01*
X234901Y186714D01*
X234954Y186645D01*
X235004Y186573D01*
X235050Y186500D01*
X235093Y186424D01*
X235132Y186347D01*
X235168Y186268D01*
X235201Y186187D01*
X235229Y186105D01*
X235255Y186022D01*
X235276Y185938D01*
X235293Y185852D01*
X235294Y185852D02*
X235318Y185712D01*
X235338Y185570D01*
X235354Y185429D01*
X235365Y185287D01*
X235373Y185144D01*
X235377Y185002D01*
X235378Y184859D01*
X235374Y184716D01*
X235366Y184574D01*
X235354Y184432D01*
X235338Y184290D01*
X235319Y184149D01*
X235295Y184008D01*
X235268Y183868D01*
X235236Y183729D01*
X235201Y183591D01*
X235162Y183453D01*
X235119Y183317D01*
X235073Y183183D01*
X235022Y183049D01*
X234969Y182917D01*
X234911Y182787D01*
X234850Y182658D01*
X234785Y182531D01*
X234717Y182405D01*
X234645Y182282D01*
X236592Y192301D02*
X236592Y195546D01*
X236590Y195659D01*
X236584Y195772D01*
X236574Y195885D01*
X236560Y195998D01*
X236543Y196110D01*
X236521Y196221D01*
X236496Y196331D01*
X236466Y196441D01*
X236433Y196549D01*
X236396Y196656D01*
X236356Y196762D01*
X236311Y196866D01*
X236263Y196969D01*
X236212Y197070D01*
X236157Y197169D01*
X236099Y197266D01*
X236037Y197361D01*
X235972Y197454D01*
X235904Y197544D01*
X235833Y197632D01*
X235758Y197718D01*
X235681Y197801D01*
X235601Y197881D01*
X235518Y197958D01*
X235432Y198033D01*
X235344Y198104D01*
X235254Y198172D01*
X235161Y198237D01*
X235066Y198299D01*
X234969Y198357D01*
X234870Y198412D01*
X234769Y198463D01*
X234666Y198511D01*
X234562Y198556D01*
X234456Y198596D01*
X234349Y198633D01*
X234241Y198666D01*
X234131Y198696D01*
X234021Y198721D01*
X233910Y198743D01*
X233798Y198760D01*
X233685Y198774D01*
X233572Y198784D01*
X233459Y198790D01*
X233346Y198792D01*
X233233Y198790D01*
X233120Y198784D01*
X233007Y198774D01*
X232894Y198760D01*
X232782Y198743D01*
X232671Y198721D01*
X232561Y198696D01*
X232451Y198666D01*
X232343Y198633D01*
X232236Y198596D01*
X232130Y198556D01*
X232026Y198511D01*
X231923Y198463D01*
X231822Y198412D01*
X231723Y198357D01*
X231626Y198299D01*
X231531Y198237D01*
X231438Y198172D01*
X231348Y198104D01*
X231260Y198033D01*
X231174Y197958D01*
X231091Y197881D01*
X231011Y197801D01*
X230934Y197718D01*
X230859Y197632D01*
X230788Y197544D01*
X230720Y197454D01*
X230655Y197361D01*
X230593Y197266D01*
X230535Y197169D01*
X230480Y197070D01*
X230429Y196969D01*
X230381Y196866D01*
X230336Y196762D01*
X230296Y196656D01*
X230259Y196549D01*
X230226Y196441D01*
X230196Y196331D01*
X230171Y196221D01*
X230149Y196110D01*
X230132Y195998D01*
X230118Y195885D01*
X230108Y195772D01*
X230102Y195659D01*
X230100Y195546D01*
X224908Y196196D02*
X224908Y192301D01*
X224908Y196196D02*
X224910Y196297D01*
X224916Y196397D01*
X224926Y196497D01*
X224939Y196597D01*
X224957Y196696D01*
X224978Y196795D01*
X225003Y196892D01*
X225032Y196989D01*
X225065Y197084D01*
X225101Y197178D01*
X225141Y197270D01*
X225184Y197361D01*
X225231Y197450D01*
X225281Y197537D01*
X225335Y197623D01*
X225392Y197706D01*
X225452Y197786D01*
X225515Y197865D01*
X225582Y197941D01*
X225651Y198014D01*
X225723Y198084D01*
X225797Y198152D01*
X225874Y198217D01*
X225954Y198278D01*
X226036Y198337D01*
X226120Y198392D01*
X226206Y198444D01*
X226294Y198493D01*
X226384Y198538D01*
X226476Y198580D01*
X226569Y198618D01*
X226664Y198652D01*
X226759Y198683D01*
X226856Y198710D01*
X226954Y198733D01*
X227053Y198753D01*
X227153Y198768D01*
X227253Y198780D01*
X227353Y198788D01*
X227454Y198792D01*
X227554Y198792D01*
X227655Y198788D01*
X227755Y198780D01*
X227855Y198768D01*
X227955Y198753D01*
X228054Y198733D01*
X228152Y198710D01*
X228249Y198683D01*
X228344Y198652D01*
X228439Y198618D01*
X228532Y198580D01*
X228624Y198538D01*
X228714Y198493D01*
X228802Y198444D01*
X228888Y198392D01*
X228972Y198337D01*
X229054Y198278D01*
X229134Y198217D01*
X229211Y198152D01*
X229285Y198084D01*
X229357Y198014D01*
X229426Y197941D01*
X229493Y197865D01*
X229556Y197786D01*
X229616Y197706D01*
X229673Y197623D01*
X229727Y197537D01*
X229777Y197450D01*
X229824Y197361D01*
X229867Y197270D01*
X229907Y197178D01*
X229943Y197084D01*
X229976Y196989D01*
X230005Y196892D01*
X230030Y196795D01*
X230051Y196696D01*
X230069Y196597D01*
X230082Y196497D01*
X230092Y196397D01*
X230098Y196297D01*
X230100Y196196D01*
X230101Y196196D02*
X230101Y193599D01*
X217246Y250408D02*
X208808Y250408D01*
X217246Y250408D02*
X217359Y250410D01*
X217472Y250416D01*
X217585Y250426D01*
X217698Y250440D01*
X217810Y250457D01*
X217921Y250479D01*
X218031Y250504D01*
X218141Y250534D01*
X218249Y250567D01*
X218356Y250604D01*
X218462Y250644D01*
X218566Y250689D01*
X218669Y250737D01*
X218770Y250788D01*
X218869Y250843D01*
X218966Y250901D01*
X219061Y250963D01*
X219154Y251028D01*
X219244Y251096D01*
X219332Y251167D01*
X219418Y251242D01*
X219501Y251319D01*
X219581Y251399D01*
X219658Y251482D01*
X219733Y251568D01*
X219804Y251656D01*
X219872Y251746D01*
X219937Y251839D01*
X219999Y251934D01*
X220057Y252031D01*
X220112Y252130D01*
X220163Y252231D01*
X220211Y252334D01*
X220256Y252438D01*
X220296Y252544D01*
X220333Y252651D01*
X220366Y252759D01*
X220396Y252869D01*
X220421Y252979D01*
X220443Y253090D01*
X220460Y253202D01*
X220474Y253315D01*
X220484Y253428D01*
X220490Y253541D01*
X220492Y253654D01*
X220490Y253767D01*
X220484Y253880D01*
X220474Y253993D01*
X220460Y254106D01*
X220443Y254218D01*
X220421Y254329D01*
X220396Y254439D01*
X220366Y254549D01*
X220333Y254657D01*
X220296Y254764D01*
X220256Y254870D01*
X220211Y254974D01*
X220163Y255077D01*
X220112Y255178D01*
X220057Y255277D01*
X219999Y255374D01*
X219937Y255469D01*
X219872Y255562D01*
X219804Y255652D01*
X219733Y255740D01*
X219658Y255826D01*
X219581Y255909D01*
X219501Y255989D01*
X219418Y256066D01*
X219332Y256141D01*
X219244Y256212D01*
X219154Y256280D01*
X219061Y256345D01*
X218966Y256407D01*
X218869Y256465D01*
X218770Y256520D01*
X218669Y256571D01*
X218566Y256619D01*
X218462Y256664D01*
X218356Y256704D01*
X218249Y256741D01*
X218141Y256774D01*
X218031Y256804D01*
X217921Y256829D01*
X217810Y256851D01*
X217698Y256868D01*
X217585Y256882D01*
X217472Y256892D01*
X217359Y256898D01*
X217246Y256900D01*
X217246Y256899D02*
X208808Y256899D01*
X208808Y264703D02*
X220492Y264703D01*
X214650Y264703D02*
X213676Y263080D01*
X213677Y263079D02*
X213630Y263006D01*
X213581Y262935D01*
X213528Y262866D01*
X213472Y262799D01*
X213413Y262735D01*
X213352Y262673D01*
X213288Y262615D01*
X213221Y262559D01*
X213152Y262507D01*
X213080Y262457D01*
X213006Y262411D01*
X212931Y262368D01*
X212853Y262329D01*
X212774Y262293D01*
X212693Y262261D01*
X212611Y262232D01*
X212528Y262207D01*
X212444Y262186D01*
X212359Y262169D01*
X212273Y262155D01*
X212187Y262146D01*
X212100Y262140D01*
X212013Y262138D01*
X211926Y262140D01*
X211839Y262146D01*
X211753Y262156D01*
X211667Y262169D01*
X211582Y262187D01*
X211498Y262208D01*
X211415Y262233D01*
X211332Y262262D01*
X211252Y262294D01*
X211173Y262330D01*
X211095Y262369D01*
X211020Y262412D01*
X210946Y262459D01*
X210875Y262508D01*
X210805Y262561D01*
X210739Y262616D01*
X210675Y262675D01*
X210613Y262736D01*
X210554Y262800D01*
X210499Y262867D01*
X210446Y262936D01*
X210396Y263008D01*
X210350Y263081D01*
X210307Y263157D01*
X210268Y263234D01*
X210232Y263313D01*
X210199Y263394D01*
X210171Y263476D01*
X210145Y263559D01*
X210124Y263643D01*
X210107Y263728D01*
X210106Y263729D02*
X210082Y263869D01*
X210062Y264011D01*
X210046Y264152D01*
X210035Y264294D01*
X210027Y264437D01*
X210023Y264579D01*
X210022Y264722D01*
X210026Y264865D01*
X210034Y265007D01*
X210046Y265149D01*
X210062Y265291D01*
X210081Y265432D01*
X210105Y265573D01*
X210132Y265713D01*
X210164Y265852D01*
X210199Y265990D01*
X210238Y266128D01*
X210281Y266264D01*
X210327Y266398D01*
X210378Y266532D01*
X210431Y266664D01*
X210489Y266794D01*
X210550Y266923D01*
X210615Y267050D01*
X210683Y267176D01*
X210755Y267299D01*
X214650Y264703D02*
X215624Y266325D01*
X215623Y266326D02*
X215670Y266399D01*
X215719Y266470D01*
X215772Y266540D01*
X215828Y266606D01*
X215887Y266670D01*
X215948Y266732D01*
X216012Y266790D01*
X216079Y266846D01*
X216148Y266898D01*
X216220Y266948D01*
X216294Y266994D01*
X216369Y267037D01*
X216447Y267076D01*
X216526Y267112D01*
X216607Y267144D01*
X216689Y267173D01*
X216772Y267198D01*
X216856Y267219D01*
X216941Y267236D01*
X217027Y267250D01*
X217114Y267259D01*
X217200Y267265D01*
X217287Y267267D01*
X217374Y267265D01*
X217461Y267259D01*
X217547Y267249D01*
X217633Y267236D01*
X217718Y267218D01*
X217802Y267197D01*
X217885Y267172D01*
X217968Y267143D01*
X218048Y267111D01*
X218127Y267075D01*
X218205Y267036D01*
X218280Y266993D01*
X218354Y266946D01*
X218425Y266897D01*
X218495Y266844D01*
X218561Y266789D01*
X218625Y266730D01*
X218687Y266669D01*
X218746Y266604D01*
X218801Y266538D01*
X218854Y266469D01*
X218904Y266397D01*
X218950Y266324D01*
X218993Y266248D01*
X219032Y266171D01*
X219068Y266092D01*
X219101Y266011D01*
X219129Y265929D01*
X219155Y265846D01*
X219176Y265762D01*
X219193Y265676D01*
X219194Y265676D02*
X219218Y265536D01*
X219238Y265394D01*
X219254Y265253D01*
X219265Y265111D01*
X219273Y264968D01*
X219277Y264826D01*
X219278Y264683D01*
X219274Y264540D01*
X219266Y264398D01*
X219254Y264256D01*
X219238Y264114D01*
X219219Y263973D01*
X219195Y263832D01*
X219168Y263692D01*
X219136Y263553D01*
X219101Y263415D01*
X219062Y263277D01*
X219019Y263141D01*
X218973Y263007D01*
X218922Y262873D01*
X218869Y262741D01*
X218811Y262611D01*
X218750Y262482D01*
X218685Y262355D01*
X218617Y262229D01*
X218545Y262106D01*
X217896Y272125D02*
X208808Y274721D01*
X217896Y272125D02*
X217896Y278616D01*
X215299Y276669D02*
X220492Y276669D01*
D11*
X98900Y335800D02*
X54900Y335800D01*
X54900Y238800D02*
X98900Y238800D01*
X98900Y335800D01*
X54900Y335800D02*
X54900Y238800D01*
X58664Y328800D02*
X58666Y328894D01*
X58672Y328988D01*
X58682Y329082D01*
X58696Y329175D01*
X58714Y329268D01*
X58735Y329360D01*
X58761Y329450D01*
X58790Y329540D01*
X58823Y329628D01*
X58860Y329715D01*
X58900Y329800D01*
X58944Y329884D01*
X58992Y329965D01*
X59042Y330045D01*
X59097Y330122D01*
X59154Y330197D01*
X59214Y330269D01*
X59278Y330339D01*
X59344Y330406D01*
X59413Y330470D01*
X59485Y330531D01*
X59559Y330589D01*
X59636Y330644D01*
X59715Y330696D01*
X59796Y330744D01*
X59879Y330789D01*
X59963Y330830D01*
X60050Y330868D01*
X60138Y330902D01*
X60227Y330932D01*
X60317Y330959D01*
X60409Y330981D01*
X60501Y331000D01*
X60595Y331015D01*
X60688Y331026D01*
X60782Y331033D01*
X60876Y331036D01*
X60971Y331035D01*
X61065Y331030D01*
X61159Y331021D01*
X61252Y331008D01*
X61345Y330991D01*
X61437Y330971D01*
X61528Y330946D01*
X61618Y330918D01*
X61706Y330886D01*
X61794Y330850D01*
X61879Y330810D01*
X61963Y330767D01*
X62045Y330721D01*
X62125Y330671D01*
X62203Y330617D01*
X62278Y330561D01*
X62351Y330501D01*
X62422Y330438D01*
X62489Y330373D01*
X62554Y330304D01*
X62616Y330233D01*
X62675Y330160D01*
X62731Y330084D01*
X62783Y330005D01*
X62832Y329925D01*
X62878Y329842D01*
X62920Y329758D01*
X62959Y329672D01*
X62994Y329584D01*
X63025Y329495D01*
X63053Y329405D01*
X63076Y329314D01*
X63096Y329222D01*
X63112Y329129D01*
X63124Y329035D01*
X63132Y328941D01*
X63136Y328847D01*
X63136Y328753D01*
X63132Y328659D01*
X63124Y328565D01*
X63112Y328471D01*
X63096Y328378D01*
X63076Y328286D01*
X63053Y328195D01*
X63025Y328105D01*
X62994Y328016D01*
X62959Y327928D01*
X62920Y327842D01*
X62878Y327758D01*
X62832Y327675D01*
X62783Y327595D01*
X62731Y327516D01*
X62675Y327440D01*
X62616Y327367D01*
X62554Y327296D01*
X62489Y327227D01*
X62422Y327162D01*
X62351Y327099D01*
X62278Y327039D01*
X62203Y326983D01*
X62125Y326929D01*
X62045Y326879D01*
X61963Y326833D01*
X61879Y326790D01*
X61794Y326750D01*
X61706Y326714D01*
X61618Y326682D01*
X61528Y326654D01*
X61437Y326629D01*
X61345Y326609D01*
X61252Y326592D01*
X61159Y326579D01*
X61065Y326570D01*
X60971Y326565D01*
X60876Y326564D01*
X60782Y326567D01*
X60688Y326574D01*
X60595Y326585D01*
X60501Y326600D01*
X60409Y326619D01*
X60317Y326641D01*
X60227Y326668D01*
X60138Y326698D01*
X60050Y326732D01*
X59963Y326770D01*
X59879Y326811D01*
X59796Y326856D01*
X59715Y326904D01*
X59636Y326956D01*
X59559Y327011D01*
X59485Y327069D01*
X59413Y327130D01*
X59344Y327194D01*
X59278Y327261D01*
X59214Y327331D01*
X59154Y327403D01*
X59097Y327478D01*
X59042Y327555D01*
X58992Y327635D01*
X58944Y327716D01*
X58900Y327800D01*
X58860Y327885D01*
X58823Y327972D01*
X58790Y328060D01*
X58761Y328150D01*
X58735Y328240D01*
X58714Y328332D01*
X58696Y328425D01*
X58682Y328518D01*
X58672Y328612D01*
X58666Y328706D01*
X58664Y328800D01*
D16*
X64327Y303937D02*
X64327Y301185D01*
X64329Y301121D01*
X64335Y301057D01*
X64344Y300994D01*
X64358Y300932D01*
X64375Y300870D01*
X64396Y300810D01*
X64420Y300751D01*
X64448Y300693D01*
X64480Y300638D01*
X64514Y300584D01*
X64552Y300533D01*
X64593Y300483D01*
X64637Y300437D01*
X64683Y300393D01*
X64733Y300352D01*
X64784Y300314D01*
X64838Y300280D01*
X64893Y300248D01*
X64951Y300220D01*
X65010Y300196D01*
X65070Y300175D01*
X65132Y300158D01*
X65194Y300144D01*
X65257Y300135D01*
X65321Y300129D01*
X65385Y300127D01*
X65449Y300129D01*
X65513Y300135D01*
X65576Y300144D01*
X65638Y300158D01*
X65700Y300175D01*
X65760Y300196D01*
X65819Y300220D01*
X65877Y300248D01*
X65932Y300280D01*
X65986Y300314D01*
X66037Y300352D01*
X66087Y300393D01*
X66133Y300437D01*
X66177Y300483D01*
X66218Y300533D01*
X66256Y300584D01*
X66290Y300638D01*
X66322Y300693D01*
X66350Y300751D01*
X66374Y300810D01*
X66395Y300870D01*
X66412Y300932D01*
X66426Y300994D01*
X66435Y301057D01*
X66441Y301121D01*
X66443Y301185D01*
X66444Y301185D02*
X66444Y303937D01*
X68107Y303090D02*
X69165Y303937D01*
X69165Y300127D01*
X68107Y300127D02*
X70223Y300127D01*
D13*
X59384Y182192D02*
X59384Y173754D01*
X59383Y173754D02*
X59385Y173641D01*
X59391Y173528D01*
X59401Y173415D01*
X59415Y173302D01*
X59432Y173190D01*
X59454Y173079D01*
X59479Y172969D01*
X59509Y172859D01*
X59542Y172751D01*
X59579Y172644D01*
X59619Y172538D01*
X59664Y172434D01*
X59712Y172331D01*
X59763Y172230D01*
X59818Y172131D01*
X59876Y172034D01*
X59938Y171939D01*
X60003Y171846D01*
X60071Y171756D01*
X60142Y171668D01*
X60217Y171582D01*
X60294Y171499D01*
X60374Y171419D01*
X60457Y171342D01*
X60543Y171267D01*
X60631Y171196D01*
X60721Y171128D01*
X60814Y171063D01*
X60909Y171001D01*
X61006Y170943D01*
X61105Y170888D01*
X61206Y170837D01*
X61309Y170789D01*
X61413Y170744D01*
X61519Y170704D01*
X61626Y170667D01*
X61734Y170634D01*
X61844Y170604D01*
X61954Y170579D01*
X62065Y170557D01*
X62177Y170540D01*
X62290Y170526D01*
X62403Y170516D01*
X62516Y170510D01*
X62629Y170508D01*
X62742Y170510D01*
X62855Y170516D01*
X62968Y170526D01*
X63081Y170540D01*
X63193Y170557D01*
X63304Y170579D01*
X63414Y170604D01*
X63524Y170634D01*
X63632Y170667D01*
X63739Y170704D01*
X63845Y170744D01*
X63949Y170789D01*
X64052Y170837D01*
X64153Y170888D01*
X64252Y170943D01*
X64349Y171001D01*
X64444Y171063D01*
X64537Y171128D01*
X64627Y171196D01*
X64715Y171267D01*
X64801Y171342D01*
X64884Y171419D01*
X64964Y171499D01*
X65041Y171582D01*
X65116Y171668D01*
X65187Y171756D01*
X65255Y171846D01*
X65320Y171939D01*
X65382Y172034D01*
X65440Y172131D01*
X65495Y172230D01*
X65546Y172331D01*
X65594Y172434D01*
X65639Y172538D01*
X65679Y172644D01*
X65716Y172751D01*
X65749Y172859D01*
X65779Y172969D01*
X65804Y173079D01*
X65826Y173190D01*
X65843Y173302D01*
X65857Y173415D01*
X65867Y173528D01*
X65873Y173641D01*
X65875Y173754D01*
X65875Y182192D01*
X73678Y182192D02*
X73678Y170508D01*
X73678Y176350D02*
X72056Y177324D01*
X72055Y177323D02*
X71982Y177370D01*
X71911Y177419D01*
X71841Y177472D01*
X71775Y177528D01*
X71711Y177587D01*
X71649Y177648D01*
X71591Y177712D01*
X71535Y177779D01*
X71483Y177848D01*
X71433Y177920D01*
X71387Y177994D01*
X71344Y178069D01*
X71305Y178147D01*
X71269Y178226D01*
X71237Y178307D01*
X71208Y178389D01*
X71183Y178472D01*
X71162Y178556D01*
X71145Y178641D01*
X71131Y178727D01*
X71122Y178813D01*
X71116Y178900D01*
X71114Y178987D01*
X71116Y179074D01*
X71122Y179161D01*
X71132Y179247D01*
X71145Y179333D01*
X71163Y179418D01*
X71184Y179502D01*
X71209Y179585D01*
X71238Y179668D01*
X71270Y179748D01*
X71306Y179827D01*
X71345Y179905D01*
X71388Y179980D01*
X71435Y180054D01*
X71484Y180125D01*
X71537Y180195D01*
X71592Y180261D01*
X71651Y180325D01*
X71712Y180387D01*
X71777Y180446D01*
X71843Y180501D01*
X71912Y180554D01*
X71984Y180604D01*
X72057Y180650D01*
X72133Y180693D01*
X72210Y180732D01*
X72289Y180768D01*
X72370Y180801D01*
X72452Y180829D01*
X72535Y180855D01*
X72619Y180876D01*
X72705Y180893D01*
X72705Y180894D02*
X72845Y180918D01*
X72987Y180938D01*
X73128Y180954D01*
X73270Y180965D01*
X73413Y180973D01*
X73555Y180977D01*
X73698Y180978D01*
X73841Y180974D01*
X73983Y180966D01*
X74125Y180954D01*
X74267Y180938D01*
X74408Y180919D01*
X74549Y180895D01*
X74689Y180868D01*
X74828Y180836D01*
X74966Y180801D01*
X75104Y180762D01*
X75240Y180719D01*
X75374Y180673D01*
X75508Y180622D01*
X75640Y180569D01*
X75770Y180511D01*
X75899Y180450D01*
X76026Y180385D01*
X76152Y180317D01*
X76275Y180245D01*
X73678Y176350D02*
X75301Y175376D01*
X75302Y175377D02*
X75375Y175330D01*
X75446Y175281D01*
X75516Y175228D01*
X75582Y175172D01*
X75646Y175113D01*
X75708Y175052D01*
X75766Y174988D01*
X75822Y174921D01*
X75874Y174852D01*
X75924Y174780D01*
X75970Y174706D01*
X76013Y174631D01*
X76052Y174553D01*
X76088Y174474D01*
X76120Y174393D01*
X76149Y174311D01*
X76174Y174228D01*
X76195Y174144D01*
X76212Y174059D01*
X76226Y173973D01*
X76235Y173887D01*
X76241Y173800D01*
X76243Y173713D01*
X76241Y173626D01*
X76235Y173539D01*
X76225Y173453D01*
X76212Y173367D01*
X76194Y173282D01*
X76173Y173198D01*
X76148Y173115D01*
X76119Y173032D01*
X76087Y172952D01*
X76051Y172873D01*
X76012Y172795D01*
X75969Y172720D01*
X75922Y172646D01*
X75873Y172575D01*
X75820Y172505D01*
X75765Y172439D01*
X75706Y172375D01*
X75645Y172313D01*
X75580Y172254D01*
X75514Y172199D01*
X75445Y172146D01*
X75373Y172096D01*
X75300Y172050D01*
X75224Y172007D01*
X75147Y171968D01*
X75068Y171932D01*
X74987Y171899D01*
X74905Y171871D01*
X74822Y171845D01*
X74738Y171824D01*
X74653Y171807D01*
X74652Y171806D02*
X74512Y171782D01*
X74370Y171762D01*
X74229Y171746D01*
X74087Y171735D01*
X73944Y171727D01*
X73802Y171723D01*
X73659Y171722D01*
X73516Y171726D01*
X73374Y171734D01*
X73232Y171746D01*
X73090Y171762D01*
X72949Y171781D01*
X72808Y171805D01*
X72668Y171832D01*
X72529Y171864D01*
X72391Y171899D01*
X72253Y171938D01*
X72117Y171981D01*
X71983Y172027D01*
X71849Y172078D01*
X71717Y172131D01*
X71587Y172189D01*
X71458Y172250D01*
X71331Y172315D01*
X71205Y172383D01*
X71082Y172455D01*
X81101Y179596D02*
X84346Y182192D01*
X84346Y170508D01*
X81101Y170508D02*
X87592Y170508D01*
D15*
X442700Y283650D02*
X442700Y296350D01*
X442700Y283650D02*
X436350Y277300D01*
X423650Y277300D02*
X417300Y283650D01*
X436350Y277300D02*
X442700Y270950D01*
X442700Y258250D01*
X436350Y251900D01*
X423650Y251900D02*
X417300Y258250D01*
X417300Y270950D01*
X423650Y277300D01*
X423650Y302700D02*
X436350Y302700D01*
X442700Y296350D01*
X423650Y302700D02*
X417300Y296350D01*
X417300Y283650D01*
X423650Y251900D02*
X436350Y251900D01*
D11*
X444605Y296436D02*
X448359Y296436D01*
X448424Y296434D01*
X448488Y296428D01*
X448552Y296418D01*
X448616Y296405D01*
X448678Y296387D01*
X448739Y296366D01*
X448799Y296342D01*
X448857Y296313D01*
X448914Y296281D01*
X448968Y296246D01*
X449020Y296208D01*
X449070Y296166D01*
X449117Y296122D01*
X449161Y296075D01*
X449203Y296025D01*
X449241Y295973D01*
X449276Y295919D01*
X449308Y295862D01*
X449337Y295804D01*
X449361Y295744D01*
X449382Y295683D01*
X449400Y295621D01*
X449413Y295557D01*
X449423Y295493D01*
X449429Y295429D01*
X449431Y295364D01*
X449431Y294827D01*
X449431Y299384D02*
X449431Y300993D01*
X449429Y301058D01*
X449423Y301122D01*
X449413Y301186D01*
X449400Y301250D01*
X449382Y301312D01*
X449361Y301373D01*
X449337Y301433D01*
X449308Y301491D01*
X449276Y301548D01*
X449241Y301602D01*
X449203Y301654D01*
X449161Y301704D01*
X449117Y301751D01*
X449070Y301795D01*
X449020Y301837D01*
X448968Y301875D01*
X448914Y301910D01*
X448857Y301942D01*
X448799Y301971D01*
X448739Y301995D01*
X448678Y302016D01*
X448616Y302034D01*
X448552Y302047D01*
X448488Y302057D01*
X448424Y302063D01*
X448359Y302065D01*
X447822Y302065D01*
X447757Y302063D01*
X447693Y302057D01*
X447629Y302047D01*
X447565Y302034D01*
X447503Y302016D01*
X447442Y301995D01*
X447382Y301971D01*
X447324Y301942D01*
X447267Y301910D01*
X447213Y301875D01*
X447161Y301837D01*
X447111Y301795D01*
X447064Y301751D01*
X447020Y301704D01*
X446978Y301654D01*
X446940Y301602D01*
X446905Y301548D01*
X446873Y301491D01*
X446844Y301433D01*
X446820Y301373D01*
X446799Y301312D01*
X446781Y301250D01*
X446768Y301186D01*
X446758Y301122D01*
X446752Y301058D01*
X446750Y300993D01*
X446750Y299384D01*
X444605Y299384D01*
X444605Y302065D01*
D15*
X196900Y398650D02*
X190550Y392300D01*
X177850Y392300D01*
X171500Y398650D01*
X171500Y411350D02*
X177850Y417700D01*
X190550Y417700D01*
X196900Y411350D01*
X228650Y392300D02*
X241350Y392300D01*
X228650Y392300D02*
X222300Y398650D01*
X222300Y411350D02*
X228650Y417700D01*
X222300Y398650D02*
X215950Y392300D01*
X203250Y392300D01*
X196900Y398650D01*
X196900Y411350D02*
X203250Y417700D01*
X215950Y417700D01*
X222300Y411350D01*
X247700Y411350D02*
X247700Y398650D01*
X241350Y392300D01*
X247700Y411350D02*
X241350Y417700D01*
X228650Y417700D01*
X171500Y411350D02*
X171500Y398650D01*
D11*
X241436Y390395D02*
X241436Y386641D01*
X241434Y386576D01*
X241428Y386512D01*
X241418Y386448D01*
X241405Y386384D01*
X241387Y386322D01*
X241366Y386261D01*
X241342Y386201D01*
X241313Y386143D01*
X241281Y386086D01*
X241246Y386032D01*
X241208Y385980D01*
X241166Y385930D01*
X241122Y385883D01*
X241075Y385839D01*
X241025Y385797D01*
X240973Y385759D01*
X240919Y385724D01*
X240862Y385692D01*
X240804Y385663D01*
X240744Y385639D01*
X240683Y385618D01*
X240621Y385600D01*
X240557Y385587D01*
X240493Y385577D01*
X240429Y385571D01*
X240364Y385569D01*
X239827Y385569D01*
X244384Y388250D02*
X245993Y388250D01*
X246058Y388248D01*
X246122Y388242D01*
X246186Y388232D01*
X246250Y388219D01*
X246312Y388201D01*
X246373Y388180D01*
X246433Y388156D01*
X246491Y388127D01*
X246548Y388095D01*
X246602Y388060D01*
X246654Y388022D01*
X246704Y387980D01*
X246751Y387936D01*
X246795Y387889D01*
X246837Y387839D01*
X246875Y387787D01*
X246910Y387733D01*
X246942Y387676D01*
X246971Y387618D01*
X246995Y387558D01*
X247016Y387497D01*
X247034Y387435D01*
X247047Y387371D01*
X247057Y387307D01*
X247063Y387243D01*
X247065Y387178D01*
X247065Y386910D01*
X247063Y386839D01*
X247057Y386767D01*
X247048Y386697D01*
X247035Y386627D01*
X247018Y386557D01*
X246997Y386489D01*
X246973Y386422D01*
X246945Y386356D01*
X246914Y386292D01*
X246879Y386229D01*
X246841Y386169D01*
X246800Y386110D01*
X246756Y386054D01*
X246709Y386000D01*
X246660Y385949D01*
X246607Y385901D01*
X246552Y385855D01*
X246495Y385813D01*
X246435Y385773D01*
X246374Y385737D01*
X246310Y385704D01*
X246245Y385675D01*
X246179Y385649D01*
X246111Y385626D01*
X246042Y385607D01*
X245972Y385592D01*
X245902Y385581D01*
X245831Y385573D01*
X245760Y385569D01*
X245688Y385569D01*
X245617Y385573D01*
X245546Y385581D01*
X245476Y385592D01*
X245406Y385607D01*
X245337Y385626D01*
X245269Y385649D01*
X245203Y385675D01*
X245138Y385704D01*
X245074Y385737D01*
X245013Y385773D01*
X244953Y385813D01*
X244896Y385855D01*
X244841Y385901D01*
X244788Y385949D01*
X244739Y386000D01*
X244692Y386054D01*
X244648Y386110D01*
X244607Y386169D01*
X244569Y386229D01*
X244534Y386292D01*
X244503Y386356D01*
X244475Y386422D01*
X244451Y386489D01*
X244430Y386557D01*
X244413Y386627D01*
X244400Y386697D01*
X244391Y386767D01*
X244385Y386839D01*
X244383Y386910D01*
X244384Y386910D02*
X244384Y388250D01*
X244386Y388341D01*
X244392Y388432D01*
X244401Y388522D01*
X244415Y388613D01*
X244432Y388702D01*
X244453Y388790D01*
X244478Y388878D01*
X244507Y388965D01*
X244539Y389050D01*
X244574Y389134D01*
X244614Y389216D01*
X244656Y389296D01*
X244702Y389375D01*
X244752Y389451D01*
X244804Y389525D01*
X244860Y389598D01*
X244919Y389667D01*
X244980Y389734D01*
X245045Y389799D01*
X245112Y389860D01*
X245181Y389919D01*
X245253Y389975D01*
X245328Y390027D01*
X245404Y390077D01*
X245483Y390123D01*
X245563Y390165D01*
X245645Y390205D01*
X245729Y390240D01*
X245814Y390272D01*
X245901Y390301D01*
X245988Y390326D01*
X246077Y390347D01*
X246166Y390364D01*
X246257Y390378D01*
X246347Y390387D01*
X246438Y390393D01*
X246529Y390395D01*
M02*
