G04 EAGLE Gerber RS-274X export*
G75*
%MOMM*%
%FSLAX34Y34*%
%LPD*%
%INSoldermask Bottom*%
%IPPOS*%
%AMOC8*
5,1,8,0,0,1.08239X$1,22.5*%
G01*
%ADD10C,2.184400*%
%ADD11C,2.003200*%
%ADD12C,2.082800*%
%ADD13R,2.235200X2.235200*%
%ADD14C,2.235200*%
%ADD15C,1.703200*%
%ADD16C,1.109600*%


D10*
X647700Y228600D03*
X647700Y127000D03*
X596900Y266700D03*
X596900Y165100D03*
X596900Y304800D03*
X596900Y406400D03*
X647700Y342900D03*
X647700Y444500D03*
X546100Y127000D03*
X546100Y228600D03*
X495300Y165100D03*
X495300Y266700D03*
X495300Y406400D03*
X495300Y304800D03*
X546100Y444500D03*
X546100Y342900D03*
D11*
X301100Y254000D02*
X283100Y254000D01*
X333900Y266700D02*
X351900Y266700D01*
X301100Y279400D02*
X283100Y279400D01*
X333900Y292100D02*
X351900Y292100D01*
X301100Y304800D02*
X283100Y304800D01*
X333900Y317500D02*
X351900Y317500D01*
X351900Y241300D02*
X333900Y241300D01*
X301100Y228600D02*
X283100Y228600D01*
X333900Y215900D02*
X351900Y215900D01*
X301100Y203200D02*
X283100Y203200D01*
X333900Y190500D02*
X351900Y190500D01*
X301100Y330200D02*
X283100Y330200D01*
X333900Y342900D02*
X351900Y342900D01*
X301100Y177800D02*
X283100Y177800D01*
X333900Y165100D02*
X351900Y165100D01*
D12*
X142100Y108100D03*
X116700Y108100D03*
X91300Y108100D03*
D13*
X723900Y228600D03*
D14*
X723900Y263600D03*
D13*
X723900Y304800D03*
D14*
X723900Y339800D03*
D12*
X430000Y290000D03*
X430000Y264600D03*
X235000Y405000D03*
X209600Y405000D03*
X184200Y405000D03*
D15*
X575000Y445000D03*
X575310Y127000D03*
X205000Y145000D03*
D16*
X125000Y305000D03*
X15000Y305000D03*
X68580Y140970D03*
D15*
X205000Y252730D03*
X130000Y210000D03*
X185000Y265000D03*
X705000Y445000D03*
X704850Y125730D03*
M02*
