M48
;GenerationSoftware,Autodesk,EAGLE,9.2.2*%
;CreationDate,2019-04-09T09:00:12Z*%
FMAT,2
ICI,OFF
METRIC,TZ,000.000
T4C0.350
T3C1.016
T2C1.105
%
G90
M71
T2
X10630Y11170
X18250Y11170
X18250Y13710
X18250Y16250
X18250Y18790
X18250Y21330
X18250Y23870
X18250Y26410
X18250Y28950
X18250Y31490
X18250Y34030
X10630Y34030
X10630Y31490
X10630Y28950
X10630Y26410
X10630Y23870
X10630Y21330
X10630Y18790
X10630Y16250
X10630Y13710
T3
X47470Y16860
X25870Y6680
X18250Y6680
X54515Y8255
X62135Y8255
X47470Y24480
X56170Y27520
X52550Y13050
X50010Y13050
X47470Y13050
X44930Y13050
X21660Y47115
X21660Y49655
X15750Y40150
X13210Y40150
X60360Y27520
X60360Y19900
X56170Y19900
T4
X40800Y28100
X38000Y28100
X26000Y33500
X31420Y28080
X41000Y47000
X31500Y32000
X30500Y46000
X30500Y49375
X21600Y11200
X30500Y38000
X23200Y13700
X52250Y34350
X22000Y35000
X50400Y38850
M30