G04 EAGLE Gerber RS-274X export*
G75*
%MOMM*%
%FSLAX34Y34*%
%LPD*%
%INTop Copper*%
%IPNEG*%
%AMOC8*
5,1,8,0,0,1.08239X$1,22.5*%
G01*
%ADD10C,1.879600*%
%ADD11R,1.469200X0.401500*%
%ADD12R,1.050000X0.900000*%
%ADD13C,0.200000*%
%ADD14C,0.254000*%


D10*
X183300Y299800D03*
X208700Y299800D03*
X223200Y40200D03*
X197800Y40200D03*
X172400Y40200D03*
X42620Y56570D03*
X42620Y81970D03*
X42620Y107370D03*
X42620Y132770D03*
X42620Y158170D03*
X42620Y183570D03*
X42620Y208970D03*
X42620Y234370D03*
X356700Y230200D03*
X356700Y204800D03*
X356700Y179400D03*
X356700Y154000D03*
X356700Y128600D03*
X356700Y103200D03*
X356700Y77800D03*
X356700Y52400D03*
D11*
X159187Y186950D03*
X159187Y180450D03*
X159187Y173950D03*
X159187Y167450D03*
X159187Y160950D03*
X159187Y154450D03*
X159187Y147950D03*
X159187Y141450D03*
X159187Y134950D03*
X159187Y128450D03*
X159187Y121950D03*
X159187Y115450D03*
X233613Y115450D03*
X233613Y121950D03*
X233613Y128450D03*
X233613Y134950D03*
X233613Y141450D03*
X233613Y147950D03*
X233613Y154450D03*
X233613Y160950D03*
X233613Y167450D03*
X233613Y173950D03*
X233613Y180450D03*
X233613Y186950D03*
D12*
X203100Y242200D03*
X187100Y242200D03*
D13*
X218950Y173950D02*
X233613Y173950D01*
X218950Y173950D02*
X210000Y165000D01*
X223200Y81800D02*
X223200Y40200D01*
X210000Y95000D02*
X210000Y165000D01*
X210000Y95000D02*
X223200Y81800D01*
X215450Y180450D02*
X233613Y180450D01*
X200000Y42400D02*
X197800Y40200D01*
X200000Y165000D02*
X215450Y180450D01*
X200000Y165000D02*
X200000Y42400D01*
X187100Y296000D02*
X183300Y299800D01*
X187100Y296000D02*
X187100Y242200D01*
X159187Y115450D02*
X159187Y79187D01*
X115000Y35000D02*
X30000Y35000D01*
X15000Y240000D02*
X35000Y260000D01*
X150000Y260000D01*
X170000Y240000D01*
X184900Y240000D01*
X187100Y242200D01*
X159187Y79187D02*
X115000Y35000D01*
X30000Y35000D02*
X15000Y50000D01*
X15000Y240000D01*
X203100Y294200D02*
X208700Y299800D01*
X203100Y294200D02*
X203100Y242200D01*
X217800Y242200D01*
X233613Y226387D02*
X233613Y186950D01*
X233613Y226387D02*
X217800Y242200D01*
X159187Y180000D02*
X159187Y173950D01*
X159187Y180000D02*
X159187Y180450D01*
X233613Y186950D02*
X246120Y186950D01*
X251460Y181610D01*
X251460Y171450D01*
X247460Y167450D02*
X233613Y167450D01*
X247460Y167450D02*
X251460Y171450D01*
X203100Y228100D02*
X203100Y242200D01*
X203100Y228100D02*
X185000Y210000D01*
X150000Y210000D01*
X140000Y200000D01*
X140000Y185000D02*
X145000Y180000D01*
X159187Y180000D01*
X140000Y185000D02*
X140000Y200000D01*
X159187Y186950D02*
X173050Y186950D01*
X175000Y185000D01*
X175000Y42800D01*
X172400Y40200D01*
X159187Y167450D02*
X142550Y167450D01*
X75630Y234370D02*
X42620Y234370D01*
X75630Y234370D02*
X142550Y167450D01*
X129050Y160950D02*
X159187Y160950D01*
X81030Y208970D02*
X42620Y208970D01*
X81030Y208970D02*
X129050Y160950D01*
X115550Y154450D02*
X159187Y154450D01*
X86430Y183570D02*
X42620Y183570D01*
X86430Y183570D02*
X115550Y154450D01*
X102050Y147950D02*
X159187Y147950D01*
X91830Y158170D02*
X42620Y158170D01*
X91830Y158170D02*
X102050Y147950D01*
X101450Y141450D02*
X159187Y141450D01*
X92770Y132770D02*
X42620Y132770D01*
X92770Y132770D02*
X101450Y141450D01*
X114950Y134950D02*
X159187Y134950D01*
X87370Y107370D02*
X42620Y107370D01*
X87370Y107370D02*
X114950Y134950D01*
X128450Y128450D02*
X159187Y128450D01*
X81970Y81970D02*
X42620Y81970D01*
X81970Y81970D02*
X128450Y128450D01*
X141950Y121950D02*
X159187Y121950D01*
X76570Y56570D02*
X42620Y56570D01*
X76570Y56570D02*
X141950Y121950D01*
X233613Y115450D02*
X254550Y115450D01*
X317600Y52400D02*
X356700Y52400D01*
X317600Y52400D02*
X254550Y115450D01*
X268050Y121950D02*
X233613Y121950D01*
X312200Y77800D02*
X356700Y77800D01*
X312200Y77800D02*
X268050Y121950D01*
X281550Y128450D02*
X233613Y128450D01*
X306800Y103200D02*
X356700Y103200D01*
X306800Y103200D02*
X281550Y128450D01*
X295050Y134950D02*
X233613Y134950D01*
X301400Y128600D02*
X356700Y128600D01*
X301400Y128600D02*
X295050Y134950D01*
X296450Y141450D02*
X233613Y141450D01*
X309000Y154000D02*
X356700Y154000D01*
X309000Y154000D02*
X296450Y141450D01*
X282950Y147950D02*
X233613Y147950D01*
X314400Y179400D02*
X356700Y179400D01*
X314400Y179400D02*
X282950Y147950D01*
X269450Y154450D02*
X233613Y154450D01*
X319800Y204800D02*
X356700Y204800D01*
X319800Y204800D02*
X269450Y154450D01*
X255950Y160950D02*
X233613Y160950D01*
X325200Y230200D02*
X356700Y230200D01*
X325200Y230200D02*
X255950Y160950D01*
D14*
X0Y0D02*
X405000Y0D01*
X405000Y345000D01*
X0Y345000D01*
X0Y0D01*
M02*
