G04 EAGLE Gerber RS-274X export*
G75*
%MOMM*%
%FSLAX34Y34*%
%LPD*%
%INSilkscreen Top*%
%IPPOS*%
%AMOC8*
5,1,8,0,0,1.08239X$1,22.5*%
G01*
%ADD10C,0.203200*%
%ADD11C,0.127000*%
%ADD12C,0.500000*%
%ADD13C,0.120000*%
%ADD14C,0.101600*%


D10*
X176950Y312500D02*
X189650Y312500D01*
X196000Y306150D01*
X196000Y293450D02*
X189650Y287100D01*
X196000Y306150D02*
X202350Y312500D01*
X215050Y312500D01*
X221400Y306150D01*
X221400Y293450D02*
X215050Y287100D01*
X202350Y287100D01*
X196000Y293450D01*
X170600Y293450D02*
X170600Y306150D01*
X176950Y312500D01*
X170600Y293450D02*
X176950Y287100D01*
X189650Y287100D01*
X221400Y293450D02*
X221400Y306150D01*
D11*
X172844Y315477D02*
X172844Y319231D01*
X172843Y315477D02*
X172841Y315412D01*
X172835Y315348D01*
X172825Y315284D01*
X172812Y315220D01*
X172794Y315158D01*
X172773Y315097D01*
X172749Y315037D01*
X172720Y314979D01*
X172688Y314922D01*
X172653Y314868D01*
X172615Y314816D01*
X172573Y314766D01*
X172529Y314719D01*
X172482Y314675D01*
X172432Y314633D01*
X172380Y314595D01*
X172326Y314560D01*
X172269Y314528D01*
X172211Y314499D01*
X172151Y314475D01*
X172090Y314454D01*
X172028Y314436D01*
X171964Y314423D01*
X171900Y314413D01*
X171836Y314407D01*
X171771Y314405D01*
X171235Y314405D01*
X175792Y318159D02*
X177132Y319231D01*
X177132Y314405D01*
X175792Y314405D02*
X178473Y314405D01*
D10*
X185100Y33850D02*
X178750Y27500D01*
X166050Y27500D01*
X159700Y33850D01*
X159700Y46550D02*
X166050Y52900D01*
X178750Y52900D01*
X185100Y46550D01*
X216850Y27500D02*
X229550Y27500D01*
X216850Y27500D02*
X210500Y33850D01*
X210500Y46550D02*
X216850Y52900D01*
X210500Y33850D02*
X204150Y27500D01*
X191450Y27500D01*
X185100Y33850D01*
X185100Y46550D02*
X191450Y52900D01*
X204150Y52900D01*
X210500Y46550D01*
X235900Y46550D02*
X235900Y33850D01*
X229550Y27500D01*
X235900Y46550D02*
X229550Y52900D01*
X216850Y52900D01*
X159700Y46550D02*
X159700Y33850D01*
D11*
X229636Y25595D02*
X229636Y21841D01*
X229634Y21776D01*
X229628Y21712D01*
X229618Y21648D01*
X229605Y21584D01*
X229587Y21522D01*
X229566Y21461D01*
X229542Y21401D01*
X229513Y21343D01*
X229481Y21286D01*
X229446Y21232D01*
X229408Y21180D01*
X229366Y21130D01*
X229322Y21083D01*
X229275Y21039D01*
X229225Y20997D01*
X229173Y20959D01*
X229119Y20924D01*
X229062Y20892D01*
X229004Y20863D01*
X228944Y20839D01*
X228883Y20818D01*
X228821Y20800D01*
X228757Y20787D01*
X228693Y20777D01*
X228629Y20771D01*
X228564Y20769D01*
X228027Y20769D01*
X234059Y25595D02*
X234127Y25593D01*
X234194Y25587D01*
X234261Y25578D01*
X234328Y25565D01*
X234393Y25548D01*
X234458Y25527D01*
X234521Y25503D01*
X234583Y25475D01*
X234643Y25444D01*
X234701Y25410D01*
X234757Y25372D01*
X234812Y25332D01*
X234863Y25288D01*
X234912Y25241D01*
X234959Y25192D01*
X235003Y25141D01*
X235043Y25086D01*
X235081Y25030D01*
X235115Y24972D01*
X235146Y24912D01*
X235174Y24850D01*
X235198Y24787D01*
X235219Y24722D01*
X235236Y24657D01*
X235249Y24590D01*
X235258Y24523D01*
X235264Y24456D01*
X235266Y24388D01*
X234059Y25595D02*
X233981Y25593D01*
X233903Y25587D01*
X233826Y25577D01*
X233749Y25564D01*
X233673Y25546D01*
X233598Y25525D01*
X233524Y25500D01*
X233452Y25471D01*
X233381Y25439D01*
X233312Y25403D01*
X233244Y25364D01*
X233179Y25321D01*
X233116Y25275D01*
X233055Y25226D01*
X232997Y25174D01*
X232942Y25119D01*
X232889Y25062D01*
X232840Y25002D01*
X232793Y24939D01*
X232750Y24875D01*
X232710Y24808D01*
X232673Y24739D01*
X232640Y24668D01*
X232610Y24596D01*
X232584Y24523D01*
X234863Y23450D02*
X234912Y23499D01*
X234959Y23551D01*
X235002Y23606D01*
X235043Y23663D01*
X235081Y23722D01*
X235115Y23783D01*
X235146Y23846D01*
X235174Y23910D01*
X235198Y23976D01*
X235218Y24042D01*
X235235Y24110D01*
X235248Y24179D01*
X235257Y24248D01*
X235263Y24318D01*
X235265Y24388D01*
X234863Y23450D02*
X232584Y20769D01*
X235265Y20769D01*
D10*
X29920Y202620D02*
X29920Y215320D01*
X36270Y221670D01*
X48970Y221670D02*
X55320Y215320D01*
X29920Y177220D02*
X36270Y170870D01*
X29920Y177220D02*
X29920Y189920D01*
X36270Y196270D01*
X48970Y196270D02*
X55320Y189920D01*
X55320Y177220D01*
X48970Y170870D01*
X36270Y196270D02*
X29920Y202620D01*
X48970Y196270D02*
X55320Y202620D01*
X55320Y215320D01*
X29920Y139120D02*
X29920Y126420D01*
X29920Y139120D02*
X36270Y145470D01*
X48970Y145470D02*
X55320Y139120D01*
X36270Y145470D02*
X29920Y151820D01*
X29920Y164520D01*
X36270Y170870D01*
X48970Y170870D02*
X55320Y164520D01*
X55320Y151820D01*
X48970Y145470D01*
X29920Y101020D02*
X36270Y94670D01*
X29920Y101020D02*
X29920Y113720D01*
X36270Y120070D01*
X48970Y120070D02*
X55320Y113720D01*
X55320Y101020D01*
X48970Y94670D01*
X36270Y120070D02*
X29920Y126420D01*
X48970Y120070D02*
X55320Y126420D01*
X55320Y139120D01*
X29920Y62920D02*
X29920Y50220D01*
X29920Y62920D02*
X36270Y69270D01*
X48970Y69270D02*
X55320Y62920D01*
X36270Y69270D02*
X29920Y75620D01*
X29920Y88320D01*
X36270Y94670D01*
X48970Y94670D02*
X55320Y88320D01*
X55320Y75620D01*
X48970Y69270D01*
X48970Y43870D02*
X36270Y43870D01*
X29920Y50220D01*
X48970Y43870D02*
X55320Y50220D01*
X55320Y62920D01*
X29920Y228020D02*
X29920Y240720D01*
X36270Y247070D01*
X48970Y247070D01*
X55320Y240720D01*
X36270Y221670D02*
X29920Y228020D01*
X48970Y221670D02*
X55320Y228020D01*
X55320Y240720D01*
D11*
X26943Y46114D02*
X23189Y46114D01*
X26943Y46113D02*
X27008Y46111D01*
X27072Y46105D01*
X27136Y46095D01*
X27200Y46082D01*
X27262Y46064D01*
X27323Y46043D01*
X27383Y46019D01*
X27441Y45990D01*
X27498Y45958D01*
X27552Y45923D01*
X27604Y45885D01*
X27654Y45843D01*
X27701Y45799D01*
X27745Y45752D01*
X27787Y45702D01*
X27825Y45650D01*
X27860Y45596D01*
X27892Y45539D01*
X27921Y45481D01*
X27945Y45421D01*
X27966Y45360D01*
X27984Y45298D01*
X27997Y45234D01*
X28007Y45170D01*
X28013Y45106D01*
X28015Y45041D01*
X28015Y44505D01*
X28015Y49062D02*
X28015Y50402D01*
X28013Y50473D01*
X28007Y50545D01*
X27998Y50615D01*
X27985Y50685D01*
X27968Y50755D01*
X27947Y50823D01*
X27923Y50890D01*
X27895Y50956D01*
X27864Y51020D01*
X27829Y51083D01*
X27791Y51143D01*
X27750Y51202D01*
X27706Y51258D01*
X27659Y51312D01*
X27610Y51363D01*
X27557Y51411D01*
X27502Y51457D01*
X27445Y51499D01*
X27385Y51539D01*
X27324Y51575D01*
X27260Y51608D01*
X27195Y51637D01*
X27129Y51663D01*
X27061Y51686D01*
X26992Y51705D01*
X26922Y51720D01*
X26852Y51731D01*
X26781Y51739D01*
X26710Y51743D01*
X26638Y51743D01*
X26567Y51739D01*
X26496Y51731D01*
X26426Y51720D01*
X26356Y51705D01*
X26287Y51686D01*
X26219Y51663D01*
X26153Y51637D01*
X26088Y51608D01*
X26024Y51575D01*
X25963Y51539D01*
X25903Y51499D01*
X25846Y51457D01*
X25791Y51411D01*
X25738Y51363D01*
X25689Y51312D01*
X25642Y51258D01*
X25598Y51202D01*
X25557Y51143D01*
X25519Y51083D01*
X25484Y51020D01*
X25453Y50956D01*
X25425Y50890D01*
X25401Y50823D01*
X25380Y50755D01*
X25363Y50685D01*
X25350Y50615D01*
X25341Y50545D01*
X25335Y50473D01*
X25333Y50402D01*
X23189Y50670D02*
X23189Y49062D01*
X23189Y50670D02*
X23191Y50735D01*
X23197Y50799D01*
X23207Y50863D01*
X23220Y50927D01*
X23238Y50989D01*
X23259Y51050D01*
X23283Y51110D01*
X23312Y51168D01*
X23344Y51225D01*
X23379Y51279D01*
X23417Y51331D01*
X23459Y51381D01*
X23503Y51428D01*
X23550Y51472D01*
X23600Y51514D01*
X23652Y51552D01*
X23706Y51587D01*
X23763Y51619D01*
X23821Y51648D01*
X23881Y51672D01*
X23942Y51693D01*
X24004Y51711D01*
X24068Y51724D01*
X24132Y51734D01*
X24196Y51740D01*
X24261Y51742D01*
X24326Y51740D01*
X24390Y51734D01*
X24454Y51724D01*
X24518Y51711D01*
X24580Y51693D01*
X24641Y51672D01*
X24701Y51648D01*
X24759Y51619D01*
X24816Y51587D01*
X24870Y51552D01*
X24922Y51514D01*
X24972Y51472D01*
X25019Y51428D01*
X25063Y51381D01*
X25105Y51331D01*
X25143Y51279D01*
X25178Y51225D01*
X25210Y51168D01*
X25239Y51110D01*
X25263Y51050D01*
X25284Y50989D01*
X25302Y50927D01*
X25315Y50863D01*
X25325Y50799D01*
X25331Y50735D01*
X25333Y50670D01*
X25334Y50670D02*
X25334Y49598D01*
D10*
X369400Y71450D02*
X369400Y84150D01*
X369400Y71450D02*
X363050Y65100D01*
X350350Y65100D02*
X344000Y71450D01*
X369400Y109550D02*
X363050Y115900D01*
X369400Y109550D02*
X369400Y96850D01*
X363050Y90500D01*
X350350Y90500D02*
X344000Y96850D01*
X344000Y109550D01*
X350350Y115900D01*
X363050Y90500D02*
X369400Y84150D01*
X350350Y90500D02*
X344000Y84150D01*
X344000Y71450D01*
X369400Y147650D02*
X369400Y160350D01*
X369400Y147650D02*
X363050Y141300D01*
X350350Y141300D02*
X344000Y147650D01*
X363050Y141300D02*
X369400Y134950D01*
X369400Y122250D01*
X363050Y115900D01*
X350350Y115900D02*
X344000Y122250D01*
X344000Y134950D01*
X350350Y141300D01*
X369400Y185750D02*
X363050Y192100D01*
X369400Y185750D02*
X369400Y173050D01*
X363050Y166700D01*
X350350Y166700D02*
X344000Y173050D01*
X344000Y185750D01*
X350350Y192100D01*
X363050Y166700D02*
X369400Y160350D01*
X350350Y166700D02*
X344000Y160350D01*
X344000Y147650D01*
X369400Y223850D02*
X369400Y236550D01*
X369400Y223850D02*
X363050Y217500D01*
X350350Y217500D02*
X344000Y223850D01*
X363050Y217500D02*
X369400Y211150D01*
X369400Y198450D01*
X363050Y192100D01*
X350350Y192100D02*
X344000Y198450D01*
X344000Y211150D01*
X350350Y217500D01*
X350350Y242900D02*
X363050Y242900D01*
X369400Y236550D01*
X350350Y242900D02*
X344000Y236550D01*
X344000Y223850D01*
X369400Y58750D02*
X369400Y46050D01*
X363050Y39700D01*
X350350Y39700D01*
X344000Y46050D01*
X363050Y65100D02*
X369400Y58750D01*
X350350Y65100D02*
X344000Y58750D01*
X344000Y46050D01*
D11*
X371305Y236636D02*
X375059Y236636D01*
X375124Y236634D01*
X375188Y236628D01*
X375252Y236618D01*
X375316Y236605D01*
X375378Y236587D01*
X375439Y236566D01*
X375499Y236542D01*
X375557Y236513D01*
X375614Y236481D01*
X375668Y236446D01*
X375720Y236408D01*
X375770Y236366D01*
X375817Y236322D01*
X375861Y236275D01*
X375903Y236225D01*
X375941Y236173D01*
X375976Y236119D01*
X376008Y236062D01*
X376037Y236004D01*
X376061Y235944D01*
X376082Y235883D01*
X376100Y235821D01*
X376113Y235757D01*
X376123Y235693D01*
X376129Y235629D01*
X376131Y235564D01*
X376131Y235027D01*
X375059Y239584D02*
X371305Y240656D01*
X375059Y239584D02*
X375059Y242265D01*
X373986Y241461D02*
X376131Y241461D01*
D12*
X158620Y193997D03*
D13*
X165400Y192097D02*
X227400Y192097D01*
X227400Y110303D02*
X165400Y110303D01*
D14*
X176581Y206601D02*
X176581Y215039D01*
X176581Y206601D02*
X176583Y206488D01*
X176589Y206375D01*
X176599Y206262D01*
X176613Y206149D01*
X176630Y206037D01*
X176652Y205926D01*
X176677Y205816D01*
X176707Y205706D01*
X176740Y205598D01*
X176777Y205491D01*
X176817Y205385D01*
X176862Y205281D01*
X176910Y205178D01*
X176961Y205077D01*
X177016Y204978D01*
X177074Y204881D01*
X177136Y204786D01*
X177201Y204693D01*
X177269Y204603D01*
X177340Y204515D01*
X177415Y204429D01*
X177492Y204346D01*
X177572Y204266D01*
X177655Y204189D01*
X177741Y204114D01*
X177829Y204043D01*
X177919Y203975D01*
X178012Y203910D01*
X178107Y203848D01*
X178204Y203790D01*
X178303Y203735D01*
X178404Y203684D01*
X178507Y203636D01*
X178611Y203591D01*
X178717Y203551D01*
X178824Y203514D01*
X178932Y203481D01*
X179042Y203451D01*
X179152Y203426D01*
X179263Y203404D01*
X179375Y203387D01*
X179488Y203373D01*
X179601Y203363D01*
X179714Y203357D01*
X179827Y203355D01*
X179940Y203357D01*
X180053Y203363D01*
X180166Y203373D01*
X180279Y203387D01*
X180391Y203404D01*
X180502Y203426D01*
X180612Y203451D01*
X180722Y203481D01*
X180830Y203514D01*
X180937Y203551D01*
X181043Y203591D01*
X181147Y203636D01*
X181250Y203684D01*
X181351Y203735D01*
X181450Y203790D01*
X181547Y203848D01*
X181642Y203910D01*
X181735Y203975D01*
X181825Y204043D01*
X181913Y204114D01*
X181999Y204189D01*
X182082Y204266D01*
X182162Y204346D01*
X182239Y204429D01*
X182314Y204515D01*
X182385Y204603D01*
X182453Y204693D01*
X182518Y204786D01*
X182580Y204881D01*
X182638Y204978D01*
X182693Y205077D01*
X182744Y205178D01*
X182792Y205281D01*
X182837Y205385D01*
X182877Y205491D01*
X182914Y205598D01*
X182947Y205706D01*
X182977Y205816D01*
X183002Y205926D01*
X183024Y206037D01*
X183041Y206149D01*
X183055Y206262D01*
X183065Y206375D01*
X183071Y206488D01*
X183073Y206601D01*
X183072Y206601D02*
X183072Y215039D01*
X190876Y215039D02*
X190876Y203355D01*
X190876Y209197D02*
X189253Y210171D01*
X189252Y210170D02*
X189179Y210217D01*
X189108Y210266D01*
X189038Y210319D01*
X188972Y210375D01*
X188908Y210434D01*
X188846Y210495D01*
X188788Y210559D01*
X188732Y210626D01*
X188680Y210695D01*
X188630Y210767D01*
X188584Y210841D01*
X188541Y210916D01*
X188502Y210994D01*
X188466Y211073D01*
X188434Y211154D01*
X188405Y211236D01*
X188380Y211319D01*
X188359Y211403D01*
X188342Y211488D01*
X188328Y211574D01*
X188319Y211660D01*
X188313Y211747D01*
X188311Y211834D01*
X188313Y211921D01*
X188319Y212008D01*
X188329Y212094D01*
X188342Y212180D01*
X188360Y212265D01*
X188381Y212349D01*
X188406Y212432D01*
X188435Y212515D01*
X188467Y212595D01*
X188503Y212674D01*
X188542Y212752D01*
X188585Y212827D01*
X188632Y212901D01*
X188681Y212972D01*
X188734Y213042D01*
X188789Y213108D01*
X188848Y213172D01*
X188909Y213234D01*
X188974Y213293D01*
X189040Y213348D01*
X189109Y213401D01*
X189181Y213451D01*
X189254Y213497D01*
X189330Y213540D01*
X189407Y213579D01*
X189486Y213615D01*
X189567Y213648D01*
X189649Y213676D01*
X189732Y213702D01*
X189816Y213723D01*
X189902Y213740D01*
X189902Y213741D02*
X190042Y213765D01*
X190184Y213785D01*
X190325Y213801D01*
X190467Y213812D01*
X190610Y213820D01*
X190752Y213824D01*
X190895Y213825D01*
X191038Y213821D01*
X191180Y213813D01*
X191322Y213801D01*
X191464Y213785D01*
X191605Y213766D01*
X191746Y213742D01*
X191886Y213715D01*
X192025Y213683D01*
X192163Y213648D01*
X192301Y213609D01*
X192437Y213566D01*
X192571Y213520D01*
X192705Y213469D01*
X192837Y213416D01*
X192967Y213358D01*
X193096Y213297D01*
X193223Y213232D01*
X193349Y213164D01*
X193472Y213092D01*
X190876Y209197D02*
X192498Y208223D01*
X192499Y208224D02*
X192572Y208177D01*
X192643Y208128D01*
X192713Y208075D01*
X192779Y208019D01*
X192843Y207960D01*
X192905Y207899D01*
X192963Y207835D01*
X193019Y207768D01*
X193071Y207699D01*
X193121Y207627D01*
X193167Y207553D01*
X193210Y207478D01*
X193249Y207400D01*
X193285Y207321D01*
X193317Y207240D01*
X193346Y207158D01*
X193371Y207075D01*
X193392Y206991D01*
X193409Y206906D01*
X193423Y206820D01*
X193432Y206734D01*
X193438Y206647D01*
X193440Y206560D01*
X193438Y206473D01*
X193432Y206386D01*
X193422Y206300D01*
X193409Y206214D01*
X193391Y206129D01*
X193370Y206045D01*
X193345Y205962D01*
X193316Y205879D01*
X193284Y205799D01*
X193248Y205720D01*
X193209Y205642D01*
X193166Y205567D01*
X193119Y205493D01*
X193070Y205422D01*
X193017Y205352D01*
X192962Y205286D01*
X192903Y205222D01*
X192842Y205160D01*
X192777Y205101D01*
X192711Y205046D01*
X192642Y204993D01*
X192570Y204943D01*
X192497Y204897D01*
X192421Y204854D01*
X192344Y204815D01*
X192265Y204779D01*
X192184Y204746D01*
X192102Y204718D01*
X192019Y204692D01*
X191935Y204671D01*
X191850Y204654D01*
X191849Y204653D02*
X191709Y204629D01*
X191567Y204609D01*
X191426Y204593D01*
X191284Y204582D01*
X191141Y204574D01*
X190999Y204570D01*
X190856Y204569D01*
X190713Y204573D01*
X190571Y204581D01*
X190429Y204593D01*
X190287Y204609D01*
X190146Y204628D01*
X190005Y204652D01*
X189865Y204679D01*
X189726Y204711D01*
X189588Y204746D01*
X189450Y204785D01*
X189314Y204828D01*
X189180Y204874D01*
X189046Y204925D01*
X188914Y204978D01*
X188784Y205036D01*
X188655Y205097D01*
X188528Y205162D01*
X188402Y205230D01*
X188279Y205302D01*
X198298Y213741D02*
X198298Y215039D01*
X204789Y215039D01*
X201544Y203355D01*
X209728Y209197D02*
X209731Y209427D01*
X209739Y209657D01*
X209753Y209886D01*
X209772Y210115D01*
X209797Y210344D01*
X209827Y210571D01*
X209862Y210799D01*
X209903Y211025D01*
X209949Y211250D01*
X210001Y211474D01*
X210058Y211696D01*
X210120Y211918D01*
X210188Y212137D01*
X210261Y212355D01*
X210339Y212572D01*
X210422Y212786D01*
X210510Y212998D01*
X210603Y213208D01*
X210702Y213416D01*
X210701Y213416D02*
X210734Y213506D01*
X210770Y213595D01*
X210810Y213683D01*
X210854Y213768D01*
X210901Y213852D01*
X210951Y213934D01*
X211005Y214014D01*
X211061Y214091D01*
X211121Y214167D01*
X211184Y214240D01*
X211249Y214310D01*
X211318Y214378D01*
X211389Y214442D01*
X211462Y214504D01*
X211538Y214563D01*
X211616Y214619D01*
X211697Y214672D01*
X211779Y214721D01*
X211863Y214767D01*
X211950Y214810D01*
X212037Y214849D01*
X212127Y214885D01*
X212217Y214917D01*
X212309Y214945D01*
X212402Y214970D01*
X212496Y214991D01*
X212590Y215008D01*
X212685Y215022D01*
X212781Y215031D01*
X212877Y215037D01*
X212973Y215039D01*
X213069Y215037D01*
X213165Y215031D01*
X213261Y215022D01*
X213356Y215008D01*
X213450Y214991D01*
X213544Y214970D01*
X213637Y214945D01*
X213729Y214917D01*
X213819Y214885D01*
X213909Y214849D01*
X213996Y214810D01*
X214083Y214767D01*
X214167Y214721D01*
X214249Y214672D01*
X214330Y214619D01*
X214408Y214563D01*
X214484Y214504D01*
X214557Y214442D01*
X214628Y214378D01*
X214697Y214310D01*
X214762Y214240D01*
X214825Y214167D01*
X214885Y214091D01*
X214941Y214014D01*
X214995Y213934D01*
X215045Y213852D01*
X215092Y213768D01*
X215136Y213683D01*
X215176Y213595D01*
X215212Y213506D01*
X215245Y213416D01*
X215246Y213416D02*
X215345Y213209D01*
X215438Y212999D01*
X215526Y212786D01*
X215609Y212572D01*
X215687Y212356D01*
X215760Y212138D01*
X215828Y211918D01*
X215890Y211697D01*
X215947Y211474D01*
X215999Y211250D01*
X216045Y211025D01*
X216086Y210799D01*
X216121Y210572D01*
X216151Y210344D01*
X216176Y210115D01*
X216195Y209886D01*
X216209Y209657D01*
X216217Y209427D01*
X216220Y209197D01*
X209728Y209197D02*
X209731Y208967D01*
X209739Y208737D01*
X209753Y208508D01*
X209772Y208279D01*
X209797Y208050D01*
X209827Y207822D01*
X209862Y207595D01*
X209903Y207369D01*
X209949Y207144D01*
X210001Y206920D01*
X210058Y206697D01*
X210120Y206476D01*
X210188Y206256D01*
X210261Y206038D01*
X210339Y205822D01*
X210422Y205608D01*
X210510Y205396D01*
X210603Y205185D01*
X210702Y204978D01*
X210701Y204978D02*
X210734Y204888D01*
X210770Y204799D01*
X210811Y204711D01*
X210854Y204626D01*
X210901Y204542D01*
X210951Y204460D01*
X211005Y204380D01*
X211061Y204303D01*
X211121Y204227D01*
X211184Y204154D01*
X211249Y204084D01*
X211318Y204016D01*
X211389Y203952D01*
X211462Y203890D01*
X211538Y203831D01*
X211616Y203775D01*
X211697Y203722D01*
X211779Y203673D01*
X211863Y203627D01*
X211950Y203584D01*
X212037Y203545D01*
X212127Y203509D01*
X212217Y203477D01*
X212309Y203449D01*
X212402Y203424D01*
X212496Y203403D01*
X212590Y203386D01*
X212685Y203372D01*
X212781Y203363D01*
X212877Y203357D01*
X212973Y203355D01*
X215245Y204978D02*
X215344Y205185D01*
X215437Y205396D01*
X215525Y205608D01*
X215608Y205822D01*
X215686Y206038D01*
X215759Y206256D01*
X215827Y206476D01*
X215889Y206697D01*
X215946Y206920D01*
X215998Y207144D01*
X216044Y207369D01*
X216085Y207595D01*
X216120Y207822D01*
X216150Y208050D01*
X216175Y208279D01*
X216194Y208508D01*
X216208Y208737D01*
X216216Y208967D01*
X216219Y209197D01*
X215245Y204978D02*
X215212Y204888D01*
X215176Y204799D01*
X215136Y204711D01*
X215092Y204626D01*
X215045Y204542D01*
X214995Y204460D01*
X214941Y204380D01*
X214885Y204303D01*
X214825Y204227D01*
X214762Y204154D01*
X214697Y204084D01*
X214628Y204016D01*
X214557Y203952D01*
X214484Y203890D01*
X214408Y203831D01*
X214330Y203775D01*
X214249Y203722D01*
X214167Y203673D01*
X214083Y203627D01*
X213996Y203584D01*
X213909Y203545D01*
X213819Y203509D01*
X213729Y203477D01*
X213637Y203449D01*
X213544Y203424D01*
X213450Y203403D01*
X213356Y203386D01*
X213261Y203372D01*
X213165Y203363D01*
X213069Y203357D01*
X212973Y203355D01*
X210377Y205951D02*
X215570Y212443D01*
X164954Y223254D02*
X164954Y231692D01*
X164954Y223254D02*
X164956Y223141D01*
X164962Y223028D01*
X164972Y222915D01*
X164986Y222802D01*
X165003Y222690D01*
X165025Y222579D01*
X165050Y222469D01*
X165080Y222359D01*
X165113Y222251D01*
X165150Y222144D01*
X165190Y222038D01*
X165235Y221934D01*
X165283Y221831D01*
X165334Y221730D01*
X165389Y221631D01*
X165447Y221534D01*
X165509Y221439D01*
X165574Y221346D01*
X165642Y221256D01*
X165713Y221168D01*
X165788Y221082D01*
X165865Y220999D01*
X165945Y220919D01*
X166028Y220842D01*
X166114Y220767D01*
X166202Y220696D01*
X166292Y220628D01*
X166385Y220563D01*
X166480Y220501D01*
X166577Y220443D01*
X166676Y220388D01*
X166777Y220337D01*
X166880Y220289D01*
X166984Y220244D01*
X167090Y220204D01*
X167197Y220167D01*
X167305Y220134D01*
X167415Y220104D01*
X167525Y220079D01*
X167636Y220057D01*
X167748Y220040D01*
X167861Y220026D01*
X167974Y220016D01*
X168087Y220010D01*
X168200Y220008D01*
X168313Y220010D01*
X168426Y220016D01*
X168539Y220026D01*
X168652Y220040D01*
X168764Y220057D01*
X168875Y220079D01*
X168985Y220104D01*
X169095Y220134D01*
X169203Y220167D01*
X169310Y220204D01*
X169416Y220244D01*
X169520Y220289D01*
X169623Y220337D01*
X169724Y220388D01*
X169823Y220443D01*
X169920Y220501D01*
X170015Y220563D01*
X170108Y220628D01*
X170198Y220696D01*
X170286Y220767D01*
X170372Y220842D01*
X170455Y220919D01*
X170535Y220999D01*
X170612Y221082D01*
X170687Y221168D01*
X170758Y221256D01*
X170826Y221346D01*
X170891Y221439D01*
X170953Y221534D01*
X171011Y221631D01*
X171066Y221730D01*
X171117Y221831D01*
X171165Y221934D01*
X171210Y222038D01*
X171250Y222144D01*
X171287Y222251D01*
X171320Y222359D01*
X171350Y222469D01*
X171375Y222579D01*
X171397Y222690D01*
X171414Y222802D01*
X171428Y222915D01*
X171438Y223028D01*
X171444Y223141D01*
X171446Y223254D01*
X171445Y223254D02*
X171445Y231692D01*
X179249Y231692D02*
X179249Y220008D01*
X179249Y225850D02*
X177626Y226824D01*
X177625Y226823D02*
X177552Y226870D01*
X177481Y226919D01*
X177411Y226972D01*
X177345Y227028D01*
X177281Y227087D01*
X177219Y227148D01*
X177161Y227212D01*
X177105Y227279D01*
X177053Y227348D01*
X177003Y227420D01*
X176957Y227494D01*
X176914Y227569D01*
X176875Y227647D01*
X176839Y227726D01*
X176807Y227807D01*
X176778Y227889D01*
X176753Y227972D01*
X176732Y228056D01*
X176715Y228141D01*
X176701Y228227D01*
X176692Y228313D01*
X176686Y228400D01*
X176684Y228487D01*
X176686Y228574D01*
X176692Y228661D01*
X176702Y228747D01*
X176715Y228833D01*
X176733Y228918D01*
X176754Y229002D01*
X176779Y229085D01*
X176808Y229168D01*
X176840Y229248D01*
X176876Y229327D01*
X176915Y229405D01*
X176958Y229480D01*
X177005Y229554D01*
X177054Y229625D01*
X177107Y229695D01*
X177162Y229761D01*
X177221Y229825D01*
X177282Y229887D01*
X177347Y229946D01*
X177413Y230001D01*
X177482Y230054D01*
X177554Y230104D01*
X177627Y230150D01*
X177703Y230193D01*
X177780Y230232D01*
X177859Y230268D01*
X177940Y230301D01*
X178022Y230329D01*
X178105Y230355D01*
X178189Y230376D01*
X178275Y230393D01*
X178275Y230394D02*
X178415Y230418D01*
X178557Y230438D01*
X178698Y230454D01*
X178840Y230465D01*
X178983Y230473D01*
X179125Y230477D01*
X179268Y230478D01*
X179411Y230474D01*
X179553Y230466D01*
X179695Y230454D01*
X179837Y230438D01*
X179978Y230419D01*
X180119Y230395D01*
X180259Y230368D01*
X180398Y230336D01*
X180536Y230301D01*
X180674Y230262D01*
X180810Y230219D01*
X180944Y230173D01*
X181078Y230122D01*
X181210Y230069D01*
X181340Y230011D01*
X181469Y229950D01*
X181596Y229885D01*
X181722Y229817D01*
X181845Y229745D01*
X179249Y225850D02*
X180871Y224876D01*
X180872Y224877D02*
X180945Y224830D01*
X181016Y224781D01*
X181086Y224728D01*
X181152Y224672D01*
X181216Y224613D01*
X181278Y224552D01*
X181336Y224488D01*
X181392Y224421D01*
X181444Y224352D01*
X181494Y224280D01*
X181540Y224206D01*
X181583Y224131D01*
X181622Y224053D01*
X181658Y223974D01*
X181690Y223893D01*
X181719Y223811D01*
X181744Y223728D01*
X181765Y223644D01*
X181782Y223559D01*
X181796Y223473D01*
X181805Y223387D01*
X181811Y223300D01*
X181813Y223213D01*
X181811Y223126D01*
X181805Y223039D01*
X181795Y222953D01*
X181782Y222867D01*
X181764Y222782D01*
X181743Y222698D01*
X181718Y222615D01*
X181689Y222532D01*
X181657Y222452D01*
X181621Y222373D01*
X181582Y222295D01*
X181539Y222220D01*
X181492Y222146D01*
X181443Y222075D01*
X181390Y222005D01*
X181335Y221939D01*
X181276Y221875D01*
X181215Y221813D01*
X181150Y221754D01*
X181084Y221699D01*
X181015Y221646D01*
X180943Y221596D01*
X180870Y221550D01*
X180794Y221507D01*
X180717Y221468D01*
X180638Y221432D01*
X180557Y221399D01*
X180475Y221371D01*
X180392Y221345D01*
X180308Y221324D01*
X180223Y221307D01*
X180222Y221306D02*
X180082Y221282D01*
X179940Y221262D01*
X179799Y221246D01*
X179657Y221235D01*
X179514Y221227D01*
X179372Y221223D01*
X179229Y221222D01*
X179086Y221226D01*
X178944Y221234D01*
X178802Y221246D01*
X178660Y221262D01*
X178519Y221281D01*
X178378Y221305D01*
X178238Y221332D01*
X178099Y221364D01*
X177961Y221399D01*
X177823Y221438D01*
X177687Y221481D01*
X177553Y221527D01*
X177419Y221578D01*
X177287Y221631D01*
X177157Y221689D01*
X177028Y221750D01*
X176901Y221815D01*
X176775Y221883D01*
X176652Y221955D01*
X186671Y230394D02*
X186671Y231692D01*
X193162Y231692D01*
X189916Y220008D01*
X198101Y229096D02*
X201346Y231692D01*
X201346Y220008D01*
X198101Y220008D02*
X204592Y220008D01*
M02*
