G04 EAGLE Gerber RS-274X export*
G75*
%MOMM*%
%FSLAX34Y34*%
%LPD*%
%INSoldermask Top*%
%IPPOS*%
%AMOC8*
5,1,8,0,0,1.08239X$1,22.5*%
G01*
%ADD10C,2.082800*%
%ADD11R,1.672400X0.604700*%
%ADD12R,1.253200X1.103200*%


D10*
X183300Y299800D03*
X208700Y299800D03*
X223200Y40200D03*
X197800Y40200D03*
X172400Y40200D03*
X42620Y56570D03*
X42620Y81970D03*
X42620Y107370D03*
X42620Y132770D03*
X42620Y158170D03*
X42620Y183570D03*
X42620Y208970D03*
X42620Y234370D03*
X356700Y230200D03*
X356700Y204800D03*
X356700Y179400D03*
X356700Y154000D03*
X356700Y128600D03*
X356700Y103200D03*
X356700Y77800D03*
X356700Y52400D03*
D11*
X159187Y186950D03*
X159187Y180450D03*
X159187Y173950D03*
X159187Y167450D03*
X159187Y160950D03*
X159187Y154450D03*
X159187Y147950D03*
X159187Y141450D03*
X159187Y134950D03*
X159187Y128450D03*
X159187Y121950D03*
X159187Y115450D03*
X233613Y115450D03*
X233613Y121950D03*
X233613Y128450D03*
X233613Y134950D03*
X233613Y141450D03*
X233613Y147950D03*
X233613Y154450D03*
X233613Y160950D03*
X233613Y167450D03*
X233613Y173950D03*
X233613Y180450D03*
X233613Y186950D03*
D12*
X203100Y242200D03*
X187100Y242200D03*
M02*
