G04 EAGLE Gerber RS-274X export*
G75*
%MOMM*%
%FSLAX34Y34*%
%LPD*%
%INBottom Copper*%
%IPPOS*%
%AMOC8*
5,1,8,0,0,1.08239X$1,22.5*%
G01*
%ADD10C,1.879600*%
%ADD11C,1.208000*%
%ADD12P,1.814519X8X22.500000*%
%ADD13P,1.814519X8X202.500000*%
%ADD14C,0.756400*%
%ADD15C,0.152400*%


D10*
X38100Y20320D03*
X38100Y121920D03*
D11*
X89210Y262490D02*
X101290Y262490D01*
X101290Y212490D02*
X89210Y212490D01*
D12*
X82550Y59690D03*
X184150Y59690D03*
D13*
X184150Y97790D03*
X82550Y97790D03*
D12*
X82550Y135890D03*
X184150Y135890D03*
D14*
X260350Y212090D03*
D15*
X257329Y206529D02*
X224790Y173990D01*
X146050Y173990D01*
X257329Y206529D02*
X260350Y212090D01*
X146050Y173990D02*
X104140Y127000D01*
X91440Y125730D01*
X82550Y135890D01*
D14*
X238760Y214630D03*
D15*
X260350Y236220D01*
X283210Y236220D01*
X367030Y152400D01*
D14*
X367030Y60960D03*
D15*
X367030Y152400D01*
D14*
X259080Y185420D03*
D15*
X240030Y201930D02*
X267970Y229870D01*
X240030Y201930D02*
X224790Y201930D01*
X217170Y209550D01*
X217170Y242570D02*
X242570Y267970D01*
X217170Y242570D02*
X217170Y209550D01*
D14*
X247650Y271780D03*
D15*
X242570Y267970D01*
X276860Y229870D02*
X280670Y226060D01*
X280670Y207010D02*
X259080Y185420D01*
X267970Y229870D02*
X276860Y229870D01*
X280670Y226060D02*
X280670Y207010D01*
X158750Y34290D02*
X83820Y34290D01*
X158750Y34290D02*
X184150Y59690D01*
X63500Y180740D02*
X95250Y212490D01*
X63500Y54610D02*
X83820Y34290D01*
X63500Y54610D02*
X63500Y180740D01*
D14*
X302260Y185420D03*
M02*
