G04 EAGLE Gerber RS-274X export*
G75*
%MOMM*%
%FSLAX34Y34*%
%LPD*%
%INSilkscreen Top*%
%IPPOS*%
%AMOC8*
5,1,8,0,0,1.08239X$1,22.5*%
G01*
%ADD10C,0.101600*%
%ADD11C,0.025400*%
%ADD12C,0.254000*%
%ADD13C,0.050800*%
%ADD14C,0.127000*%
%ADD15C,0.203200*%
%ADD16C,0.152400*%
%ADD17R,0.863600X0.609600*%
%ADD18R,0.650000X1.400000*%
%ADD19C,0.000000*%


D10*
X252081Y171958D02*
X249484Y171958D01*
X249385Y171960D01*
X249285Y171966D01*
X249186Y171975D01*
X249088Y171988D01*
X248990Y172005D01*
X248892Y172026D01*
X248796Y172051D01*
X248701Y172079D01*
X248607Y172111D01*
X248514Y172146D01*
X248422Y172185D01*
X248332Y172228D01*
X248244Y172273D01*
X248157Y172323D01*
X248073Y172375D01*
X247990Y172431D01*
X247910Y172489D01*
X247832Y172551D01*
X247757Y172616D01*
X247684Y172684D01*
X247614Y172754D01*
X247546Y172827D01*
X247481Y172902D01*
X247419Y172980D01*
X247361Y173060D01*
X247305Y173143D01*
X247253Y173227D01*
X247203Y173314D01*
X247158Y173402D01*
X247115Y173492D01*
X247076Y173584D01*
X247041Y173677D01*
X247009Y173771D01*
X246981Y173866D01*
X246956Y173962D01*
X246935Y174060D01*
X246918Y174158D01*
X246905Y174256D01*
X246896Y174355D01*
X246890Y174455D01*
X246888Y174554D01*
X246888Y181046D01*
X246890Y181145D01*
X246896Y181245D01*
X246905Y181344D01*
X246918Y181442D01*
X246935Y181540D01*
X246956Y181638D01*
X246981Y181734D01*
X247009Y181829D01*
X247041Y181923D01*
X247076Y182016D01*
X247115Y182108D01*
X247158Y182198D01*
X247203Y182286D01*
X247253Y182373D01*
X247305Y182457D01*
X247361Y182540D01*
X247419Y182620D01*
X247481Y182698D01*
X247546Y182773D01*
X247614Y182846D01*
X247684Y182916D01*
X247757Y182984D01*
X247832Y183049D01*
X247910Y183111D01*
X247990Y183169D01*
X248073Y183225D01*
X248157Y183277D01*
X248244Y183327D01*
X248332Y183372D01*
X248422Y183415D01*
X248514Y183454D01*
X248606Y183489D01*
X248701Y183521D01*
X248796Y183549D01*
X248892Y183574D01*
X248990Y183595D01*
X249088Y183612D01*
X249186Y183625D01*
X249285Y183634D01*
X249385Y183640D01*
X249484Y183642D01*
X252081Y183642D01*
X256446Y181046D02*
X259692Y183642D01*
X259692Y171958D01*
X262937Y171958D02*
X256446Y171958D01*
X253351Y117348D02*
X250754Y117348D01*
X250655Y117350D01*
X250555Y117356D01*
X250456Y117365D01*
X250358Y117378D01*
X250260Y117395D01*
X250162Y117416D01*
X250066Y117441D01*
X249971Y117469D01*
X249877Y117501D01*
X249784Y117536D01*
X249692Y117575D01*
X249602Y117618D01*
X249514Y117663D01*
X249427Y117713D01*
X249343Y117765D01*
X249260Y117821D01*
X249180Y117879D01*
X249102Y117941D01*
X249027Y118006D01*
X248954Y118074D01*
X248884Y118144D01*
X248816Y118217D01*
X248751Y118292D01*
X248689Y118370D01*
X248631Y118450D01*
X248575Y118533D01*
X248523Y118617D01*
X248473Y118704D01*
X248428Y118792D01*
X248385Y118882D01*
X248346Y118974D01*
X248311Y119067D01*
X248279Y119161D01*
X248251Y119256D01*
X248226Y119352D01*
X248205Y119450D01*
X248188Y119548D01*
X248175Y119646D01*
X248166Y119745D01*
X248160Y119845D01*
X248158Y119944D01*
X248158Y126436D01*
X248160Y126535D01*
X248166Y126635D01*
X248175Y126734D01*
X248188Y126832D01*
X248205Y126930D01*
X248226Y127028D01*
X248251Y127124D01*
X248279Y127219D01*
X248311Y127313D01*
X248346Y127406D01*
X248385Y127498D01*
X248428Y127588D01*
X248473Y127676D01*
X248523Y127763D01*
X248575Y127847D01*
X248631Y127930D01*
X248689Y128010D01*
X248751Y128088D01*
X248816Y128163D01*
X248884Y128236D01*
X248954Y128306D01*
X249027Y128374D01*
X249102Y128439D01*
X249180Y128501D01*
X249260Y128559D01*
X249343Y128615D01*
X249427Y128667D01*
X249514Y128717D01*
X249602Y128762D01*
X249692Y128805D01*
X249784Y128844D01*
X249876Y128879D01*
X249971Y128911D01*
X250066Y128939D01*
X250162Y128964D01*
X250260Y128985D01*
X250358Y129002D01*
X250456Y129015D01*
X250555Y129024D01*
X250655Y129030D01*
X250754Y129032D01*
X253351Y129032D01*
X257716Y117348D02*
X260962Y117348D01*
X261075Y117350D01*
X261188Y117356D01*
X261301Y117366D01*
X261414Y117380D01*
X261526Y117397D01*
X261637Y117419D01*
X261747Y117444D01*
X261857Y117474D01*
X261965Y117507D01*
X262072Y117544D01*
X262178Y117584D01*
X262282Y117629D01*
X262385Y117677D01*
X262486Y117728D01*
X262585Y117783D01*
X262682Y117841D01*
X262777Y117903D01*
X262870Y117968D01*
X262960Y118036D01*
X263048Y118107D01*
X263134Y118182D01*
X263217Y118259D01*
X263297Y118339D01*
X263374Y118422D01*
X263449Y118508D01*
X263520Y118596D01*
X263588Y118686D01*
X263653Y118779D01*
X263715Y118874D01*
X263773Y118971D01*
X263828Y119070D01*
X263879Y119171D01*
X263927Y119274D01*
X263972Y119378D01*
X264012Y119484D01*
X264049Y119591D01*
X264082Y119699D01*
X264112Y119809D01*
X264137Y119919D01*
X264159Y120030D01*
X264176Y120142D01*
X264190Y120255D01*
X264200Y120368D01*
X264206Y120481D01*
X264208Y120594D01*
X264206Y120707D01*
X264200Y120820D01*
X264190Y120933D01*
X264176Y121046D01*
X264159Y121158D01*
X264137Y121269D01*
X264112Y121379D01*
X264082Y121489D01*
X264049Y121597D01*
X264012Y121704D01*
X263972Y121810D01*
X263927Y121914D01*
X263879Y122017D01*
X263828Y122118D01*
X263773Y122217D01*
X263715Y122314D01*
X263653Y122409D01*
X263588Y122502D01*
X263520Y122592D01*
X263449Y122680D01*
X263374Y122766D01*
X263297Y122849D01*
X263217Y122929D01*
X263134Y123006D01*
X263048Y123081D01*
X262960Y123152D01*
X262870Y123220D01*
X262777Y123285D01*
X262682Y123347D01*
X262585Y123405D01*
X262486Y123460D01*
X262385Y123511D01*
X262282Y123559D01*
X262178Y123604D01*
X262072Y123644D01*
X261965Y123681D01*
X261857Y123714D01*
X261747Y123744D01*
X261637Y123769D01*
X261526Y123791D01*
X261414Y123808D01*
X261301Y123822D01*
X261188Y123832D01*
X261075Y123838D01*
X260962Y123840D01*
X261611Y129032D02*
X257716Y129032D01*
X261611Y129032D02*
X261712Y129030D01*
X261812Y129024D01*
X261912Y129014D01*
X262012Y129001D01*
X262111Y128983D01*
X262210Y128962D01*
X262307Y128937D01*
X262404Y128908D01*
X262499Y128875D01*
X262593Y128839D01*
X262685Y128799D01*
X262776Y128756D01*
X262865Y128709D01*
X262952Y128659D01*
X263038Y128605D01*
X263121Y128548D01*
X263201Y128488D01*
X263280Y128425D01*
X263356Y128358D01*
X263429Y128289D01*
X263499Y128217D01*
X263567Y128143D01*
X263632Y128066D01*
X263693Y127986D01*
X263752Y127904D01*
X263807Y127820D01*
X263859Y127734D01*
X263908Y127646D01*
X263953Y127556D01*
X263995Y127464D01*
X264033Y127371D01*
X264067Y127276D01*
X264098Y127181D01*
X264125Y127084D01*
X264148Y126986D01*
X264168Y126887D01*
X264183Y126787D01*
X264195Y126687D01*
X264203Y126587D01*
X264207Y126486D01*
X264207Y126386D01*
X264203Y126285D01*
X264195Y126185D01*
X264183Y126085D01*
X264168Y125985D01*
X264148Y125886D01*
X264125Y125788D01*
X264098Y125691D01*
X264067Y125596D01*
X264033Y125501D01*
X263995Y125408D01*
X263953Y125316D01*
X263908Y125226D01*
X263859Y125138D01*
X263807Y125052D01*
X263752Y124968D01*
X263693Y124886D01*
X263632Y124806D01*
X263567Y124729D01*
X263499Y124655D01*
X263429Y124583D01*
X263356Y124514D01*
X263280Y124447D01*
X263201Y124384D01*
X263121Y124324D01*
X263038Y124267D01*
X262952Y124213D01*
X262865Y124163D01*
X262776Y124116D01*
X262685Y124073D01*
X262593Y124033D01*
X262499Y123997D01*
X262404Y123964D01*
X262307Y123935D01*
X262210Y123910D01*
X262111Y123889D01*
X262012Y123871D01*
X261912Y123858D01*
X261812Y123848D01*
X261712Y123842D01*
X261611Y123840D01*
X261611Y123839D02*
X259014Y123839D01*
X24892Y151694D02*
X24892Y154291D01*
X24892Y151694D02*
X24890Y151595D01*
X24884Y151495D01*
X24875Y151396D01*
X24862Y151298D01*
X24845Y151200D01*
X24824Y151102D01*
X24799Y151006D01*
X24771Y150911D01*
X24739Y150817D01*
X24704Y150724D01*
X24665Y150632D01*
X24622Y150542D01*
X24577Y150454D01*
X24527Y150367D01*
X24475Y150283D01*
X24419Y150200D01*
X24361Y150120D01*
X24299Y150042D01*
X24234Y149967D01*
X24166Y149894D01*
X24096Y149824D01*
X24023Y149756D01*
X23948Y149691D01*
X23870Y149629D01*
X23790Y149571D01*
X23707Y149515D01*
X23623Y149463D01*
X23536Y149413D01*
X23448Y149368D01*
X23358Y149325D01*
X23266Y149286D01*
X23173Y149251D01*
X23079Y149219D01*
X22984Y149191D01*
X22888Y149166D01*
X22790Y149145D01*
X22692Y149128D01*
X22594Y149115D01*
X22495Y149106D01*
X22395Y149100D01*
X22296Y149098D01*
X15804Y149098D01*
X15705Y149100D01*
X15605Y149106D01*
X15506Y149115D01*
X15408Y149128D01*
X15310Y149146D01*
X15212Y149166D01*
X15116Y149191D01*
X15020Y149219D01*
X14926Y149251D01*
X14833Y149286D01*
X14742Y149325D01*
X14652Y149368D01*
X14563Y149413D01*
X14477Y149463D01*
X14392Y149515D01*
X14310Y149571D01*
X14230Y149630D01*
X14152Y149691D01*
X14076Y149756D01*
X14003Y149824D01*
X13933Y149894D01*
X13865Y149967D01*
X13800Y150043D01*
X13739Y150121D01*
X13680Y150201D01*
X13624Y150283D01*
X13572Y150368D01*
X13523Y150454D01*
X13477Y150543D01*
X13434Y150633D01*
X13395Y150724D01*
X13360Y150817D01*
X13328Y150911D01*
X13300Y151007D01*
X13275Y151103D01*
X13255Y151201D01*
X13237Y151299D01*
X13224Y151397D01*
X13215Y151496D01*
X13209Y151595D01*
X13207Y151695D01*
X13208Y151694D02*
X13208Y154291D01*
X13208Y161253D02*
X22296Y158656D01*
X22296Y165147D01*
X19699Y163200D02*
X24892Y163200D01*
D11*
X198963Y108660D02*
X198963Y107814D01*
X198961Y107756D01*
X198955Y107699D01*
X198945Y107642D01*
X198932Y107585D01*
X198914Y107530D01*
X198893Y107477D01*
X198868Y107424D01*
X198840Y107374D01*
X198808Y107326D01*
X198773Y107279D01*
X198735Y107236D01*
X198694Y107195D01*
X198651Y107157D01*
X198604Y107122D01*
X198556Y107090D01*
X198506Y107062D01*
X198453Y107037D01*
X198400Y107016D01*
X198345Y106998D01*
X198288Y106985D01*
X198231Y106975D01*
X198174Y106969D01*
X198116Y106967D01*
X196000Y106967D01*
X195942Y106969D01*
X195885Y106975D01*
X195828Y106985D01*
X195771Y106998D01*
X195716Y107016D01*
X195663Y107037D01*
X195610Y107062D01*
X195560Y107090D01*
X195512Y107122D01*
X195465Y107157D01*
X195422Y107195D01*
X195381Y107236D01*
X195343Y107279D01*
X195308Y107326D01*
X195276Y107374D01*
X195248Y107424D01*
X195223Y107477D01*
X195202Y107530D01*
X195184Y107585D01*
X195171Y107642D01*
X195161Y107699D01*
X195155Y107756D01*
X195153Y107814D01*
X195153Y108660D01*
X198963Y110024D02*
X198963Y111294D01*
X198961Y111349D01*
X198956Y111405D01*
X198947Y111459D01*
X198934Y111513D01*
X198918Y111566D01*
X198899Y111618D01*
X198876Y111669D01*
X198850Y111718D01*
X198820Y111765D01*
X198788Y111810D01*
X198753Y111852D01*
X198715Y111893D01*
X198674Y111931D01*
X198632Y111966D01*
X198587Y111998D01*
X198540Y112028D01*
X198491Y112054D01*
X198440Y112077D01*
X198388Y112096D01*
X198335Y112112D01*
X198281Y112125D01*
X198227Y112134D01*
X198171Y112139D01*
X198116Y112141D01*
X197693Y112141D01*
X197635Y112139D01*
X197578Y112133D01*
X197521Y112123D01*
X197464Y112110D01*
X197409Y112092D01*
X197356Y112071D01*
X197303Y112046D01*
X197253Y112018D01*
X197205Y111986D01*
X197158Y111951D01*
X197115Y111913D01*
X197074Y111872D01*
X197036Y111829D01*
X197001Y111782D01*
X196969Y111734D01*
X196941Y111684D01*
X196916Y111631D01*
X196895Y111578D01*
X196877Y111523D01*
X196864Y111466D01*
X196854Y111409D01*
X196848Y111352D01*
X196846Y111294D01*
X196846Y110024D01*
X195153Y110024D01*
X195153Y112141D01*
D10*
X334019Y28448D02*
X336616Y28448D01*
X334019Y28448D02*
X333920Y28450D01*
X333820Y28456D01*
X333721Y28465D01*
X333623Y28478D01*
X333525Y28495D01*
X333427Y28516D01*
X333331Y28541D01*
X333236Y28569D01*
X333142Y28601D01*
X333049Y28636D01*
X332957Y28675D01*
X332867Y28718D01*
X332779Y28763D01*
X332692Y28813D01*
X332608Y28865D01*
X332525Y28921D01*
X332445Y28979D01*
X332367Y29041D01*
X332292Y29106D01*
X332219Y29174D01*
X332149Y29244D01*
X332081Y29317D01*
X332016Y29392D01*
X331954Y29470D01*
X331896Y29550D01*
X331840Y29633D01*
X331788Y29717D01*
X331738Y29804D01*
X331693Y29892D01*
X331650Y29982D01*
X331611Y30074D01*
X331576Y30167D01*
X331544Y30261D01*
X331516Y30356D01*
X331491Y30452D01*
X331470Y30550D01*
X331453Y30648D01*
X331440Y30746D01*
X331431Y30845D01*
X331425Y30945D01*
X331423Y31044D01*
X331423Y37536D01*
X331425Y37635D01*
X331431Y37735D01*
X331440Y37834D01*
X331453Y37932D01*
X331470Y38030D01*
X331491Y38128D01*
X331516Y38224D01*
X331544Y38319D01*
X331576Y38413D01*
X331611Y38506D01*
X331650Y38598D01*
X331693Y38688D01*
X331738Y38776D01*
X331788Y38863D01*
X331840Y38947D01*
X331896Y39030D01*
X331954Y39110D01*
X332016Y39188D01*
X332081Y39263D01*
X332149Y39336D01*
X332219Y39406D01*
X332292Y39474D01*
X332367Y39539D01*
X332445Y39601D01*
X332525Y39659D01*
X332608Y39715D01*
X332692Y39767D01*
X332779Y39817D01*
X332867Y39862D01*
X332957Y39905D01*
X333049Y39944D01*
X333141Y39979D01*
X333236Y40011D01*
X333331Y40039D01*
X333427Y40064D01*
X333525Y40085D01*
X333623Y40102D01*
X333721Y40115D01*
X333820Y40124D01*
X333920Y40130D01*
X334019Y40132D01*
X336616Y40132D01*
X340981Y34939D02*
X344876Y34939D01*
X344975Y34937D01*
X345075Y34931D01*
X345174Y34922D01*
X345272Y34909D01*
X345370Y34892D01*
X345468Y34871D01*
X345564Y34846D01*
X345659Y34818D01*
X345753Y34786D01*
X345846Y34751D01*
X345938Y34712D01*
X346028Y34669D01*
X346116Y34624D01*
X346203Y34574D01*
X346287Y34522D01*
X346370Y34466D01*
X346450Y34408D01*
X346528Y34346D01*
X346603Y34281D01*
X346676Y34213D01*
X346746Y34143D01*
X346814Y34070D01*
X346879Y33995D01*
X346941Y33917D01*
X346999Y33837D01*
X347055Y33754D01*
X347107Y33670D01*
X347157Y33583D01*
X347202Y33495D01*
X347245Y33405D01*
X347284Y33313D01*
X347319Y33220D01*
X347351Y33126D01*
X347379Y33031D01*
X347404Y32935D01*
X347425Y32837D01*
X347442Y32739D01*
X347455Y32641D01*
X347464Y32542D01*
X347470Y32442D01*
X347472Y32343D01*
X347472Y31694D01*
X347470Y31581D01*
X347464Y31468D01*
X347454Y31355D01*
X347440Y31242D01*
X347423Y31130D01*
X347401Y31019D01*
X347376Y30909D01*
X347346Y30799D01*
X347313Y30691D01*
X347276Y30584D01*
X347236Y30478D01*
X347191Y30374D01*
X347143Y30271D01*
X347092Y30170D01*
X347037Y30071D01*
X346979Y29974D01*
X346917Y29879D01*
X346852Y29786D01*
X346784Y29696D01*
X346713Y29608D01*
X346638Y29522D01*
X346561Y29439D01*
X346481Y29359D01*
X346398Y29282D01*
X346312Y29207D01*
X346224Y29136D01*
X346134Y29068D01*
X346041Y29003D01*
X345946Y28941D01*
X345849Y28883D01*
X345750Y28828D01*
X345649Y28777D01*
X345546Y28729D01*
X345442Y28684D01*
X345336Y28644D01*
X345229Y28607D01*
X345121Y28574D01*
X345011Y28544D01*
X344901Y28519D01*
X344790Y28497D01*
X344678Y28480D01*
X344565Y28466D01*
X344452Y28456D01*
X344339Y28450D01*
X344226Y28448D01*
X344113Y28450D01*
X344000Y28456D01*
X343887Y28466D01*
X343774Y28480D01*
X343662Y28497D01*
X343551Y28519D01*
X343441Y28544D01*
X343331Y28574D01*
X343223Y28607D01*
X343116Y28644D01*
X343010Y28684D01*
X342906Y28729D01*
X342803Y28777D01*
X342702Y28828D01*
X342603Y28883D01*
X342506Y28941D01*
X342411Y29003D01*
X342318Y29068D01*
X342228Y29136D01*
X342140Y29207D01*
X342054Y29282D01*
X341971Y29359D01*
X341891Y29439D01*
X341814Y29522D01*
X341739Y29608D01*
X341668Y29696D01*
X341600Y29786D01*
X341535Y29879D01*
X341473Y29974D01*
X341415Y30071D01*
X341360Y30170D01*
X341309Y30271D01*
X341261Y30374D01*
X341216Y30478D01*
X341176Y30584D01*
X341139Y30691D01*
X341106Y30799D01*
X341076Y30909D01*
X341051Y31019D01*
X341029Y31130D01*
X341012Y31242D01*
X340998Y31355D01*
X340988Y31468D01*
X340982Y31581D01*
X340980Y31694D01*
X340981Y31694D02*
X340981Y34939D01*
X340983Y35082D01*
X340989Y35225D01*
X340999Y35368D01*
X341013Y35510D01*
X341030Y35652D01*
X341052Y35794D01*
X341077Y35935D01*
X341107Y36075D01*
X341140Y36214D01*
X341177Y36352D01*
X341218Y36489D01*
X341262Y36625D01*
X341311Y36760D01*
X341363Y36893D01*
X341418Y37025D01*
X341478Y37155D01*
X341541Y37284D01*
X341607Y37411D01*
X341677Y37535D01*
X341750Y37658D01*
X341827Y37779D01*
X341907Y37898D01*
X341990Y38014D01*
X342076Y38129D01*
X342165Y38240D01*
X342258Y38350D01*
X342353Y38456D01*
X342452Y38560D01*
X342553Y38661D01*
X342657Y38760D01*
X342763Y38855D01*
X342873Y38948D01*
X342984Y39037D01*
X343099Y39123D01*
X343215Y39206D01*
X343334Y39286D01*
X343455Y39363D01*
X343577Y39436D01*
X343702Y39506D01*
X343829Y39572D01*
X343958Y39635D01*
X344088Y39695D01*
X344220Y39750D01*
X344353Y39802D01*
X344488Y39851D01*
X344624Y39895D01*
X344761Y39936D01*
X344899Y39973D01*
X345038Y40006D01*
X345178Y40036D01*
X345319Y40061D01*
X345461Y40083D01*
X345603Y40100D01*
X345745Y40114D01*
X345888Y40124D01*
X346031Y40130D01*
X346174Y40132D01*
X345506Y85598D02*
X342909Y85598D01*
X342810Y85600D01*
X342710Y85606D01*
X342611Y85615D01*
X342513Y85628D01*
X342415Y85645D01*
X342317Y85666D01*
X342221Y85691D01*
X342126Y85719D01*
X342032Y85751D01*
X341939Y85786D01*
X341847Y85825D01*
X341757Y85868D01*
X341669Y85913D01*
X341582Y85963D01*
X341498Y86015D01*
X341415Y86071D01*
X341335Y86129D01*
X341257Y86191D01*
X341182Y86256D01*
X341109Y86324D01*
X341039Y86394D01*
X340971Y86467D01*
X340906Y86542D01*
X340844Y86620D01*
X340786Y86700D01*
X340730Y86783D01*
X340678Y86867D01*
X340628Y86954D01*
X340583Y87042D01*
X340540Y87132D01*
X340501Y87224D01*
X340466Y87317D01*
X340434Y87411D01*
X340406Y87506D01*
X340381Y87602D01*
X340360Y87700D01*
X340343Y87798D01*
X340330Y87896D01*
X340321Y87995D01*
X340315Y88095D01*
X340313Y88194D01*
X340313Y94686D01*
X340315Y94785D01*
X340321Y94885D01*
X340330Y94984D01*
X340343Y95082D01*
X340360Y95180D01*
X340381Y95278D01*
X340406Y95374D01*
X340434Y95469D01*
X340466Y95563D01*
X340501Y95656D01*
X340540Y95748D01*
X340583Y95838D01*
X340628Y95926D01*
X340678Y96013D01*
X340730Y96097D01*
X340786Y96180D01*
X340844Y96260D01*
X340906Y96338D01*
X340971Y96413D01*
X341039Y96486D01*
X341109Y96556D01*
X341182Y96624D01*
X341257Y96689D01*
X341335Y96751D01*
X341415Y96809D01*
X341498Y96865D01*
X341582Y96917D01*
X341669Y96967D01*
X341757Y97012D01*
X341847Y97055D01*
X341939Y97094D01*
X342031Y97129D01*
X342126Y97161D01*
X342221Y97189D01*
X342317Y97214D01*
X342415Y97235D01*
X342513Y97252D01*
X342611Y97265D01*
X342710Y97274D01*
X342810Y97280D01*
X342909Y97282D01*
X345506Y97282D01*
X349871Y94036D02*
X349871Y88844D01*
X349870Y94036D02*
X349872Y94149D01*
X349878Y94262D01*
X349888Y94375D01*
X349902Y94488D01*
X349919Y94600D01*
X349941Y94711D01*
X349966Y94821D01*
X349996Y94931D01*
X350029Y95039D01*
X350066Y95146D01*
X350106Y95252D01*
X350151Y95356D01*
X350199Y95459D01*
X350250Y95560D01*
X350305Y95659D01*
X350363Y95756D01*
X350425Y95851D01*
X350490Y95944D01*
X350558Y96034D01*
X350629Y96122D01*
X350704Y96208D01*
X350781Y96291D01*
X350861Y96371D01*
X350944Y96448D01*
X351030Y96523D01*
X351118Y96594D01*
X351208Y96662D01*
X351301Y96727D01*
X351396Y96789D01*
X351493Y96847D01*
X351592Y96902D01*
X351693Y96953D01*
X351796Y97001D01*
X351900Y97046D01*
X352006Y97086D01*
X352113Y97123D01*
X352221Y97156D01*
X352331Y97186D01*
X352441Y97211D01*
X352552Y97233D01*
X352664Y97250D01*
X352777Y97264D01*
X352890Y97274D01*
X353003Y97280D01*
X353116Y97282D01*
X353229Y97280D01*
X353342Y97274D01*
X353455Y97264D01*
X353568Y97250D01*
X353680Y97233D01*
X353791Y97211D01*
X353901Y97186D01*
X354011Y97156D01*
X354119Y97123D01*
X354226Y97086D01*
X354332Y97046D01*
X354436Y97001D01*
X354539Y96953D01*
X354640Y96902D01*
X354739Y96847D01*
X354836Y96789D01*
X354931Y96727D01*
X355024Y96662D01*
X355114Y96594D01*
X355202Y96523D01*
X355288Y96448D01*
X355371Y96371D01*
X355451Y96291D01*
X355528Y96208D01*
X355603Y96122D01*
X355674Y96034D01*
X355742Y95944D01*
X355807Y95851D01*
X355869Y95756D01*
X355927Y95659D01*
X355982Y95560D01*
X356033Y95459D01*
X356081Y95356D01*
X356126Y95252D01*
X356166Y95146D01*
X356203Y95039D01*
X356236Y94931D01*
X356266Y94821D01*
X356291Y94711D01*
X356313Y94600D01*
X356330Y94488D01*
X356344Y94375D01*
X356354Y94262D01*
X356360Y94149D01*
X356362Y94036D01*
X356362Y88844D01*
X356360Y88731D01*
X356354Y88618D01*
X356344Y88505D01*
X356330Y88392D01*
X356313Y88280D01*
X356291Y88169D01*
X356266Y88059D01*
X356236Y87949D01*
X356203Y87841D01*
X356166Y87734D01*
X356126Y87628D01*
X356081Y87524D01*
X356033Y87421D01*
X355982Y87320D01*
X355927Y87221D01*
X355869Y87124D01*
X355807Y87029D01*
X355742Y86936D01*
X355674Y86846D01*
X355603Y86758D01*
X355528Y86672D01*
X355451Y86589D01*
X355371Y86509D01*
X355288Y86432D01*
X355202Y86357D01*
X355114Y86286D01*
X355024Y86218D01*
X354931Y86153D01*
X354836Y86091D01*
X354739Y86033D01*
X354640Y85978D01*
X354539Y85927D01*
X354436Y85879D01*
X354332Y85834D01*
X354226Y85794D01*
X354119Y85757D01*
X354011Y85724D01*
X353901Y85694D01*
X353791Y85669D01*
X353680Y85647D01*
X353568Y85630D01*
X353455Y85616D01*
X353342Y85606D01*
X353229Y85600D01*
X353116Y85598D01*
X353003Y85600D01*
X352890Y85606D01*
X352777Y85616D01*
X352664Y85630D01*
X352552Y85647D01*
X352441Y85669D01*
X352331Y85694D01*
X352221Y85724D01*
X352113Y85757D01*
X352006Y85794D01*
X351900Y85834D01*
X351796Y85879D01*
X351693Y85927D01*
X351592Y85978D01*
X351493Y86033D01*
X351396Y86091D01*
X351301Y86153D01*
X351208Y86218D01*
X351118Y86286D01*
X351030Y86357D01*
X350944Y86432D01*
X350861Y86509D01*
X350781Y86589D01*
X350704Y86672D01*
X350629Y86758D01*
X350558Y86846D01*
X350490Y86936D01*
X350425Y87029D01*
X350363Y87124D01*
X350305Y87221D01*
X350250Y87320D01*
X350199Y87421D01*
X350151Y87524D01*
X350106Y87628D01*
X350066Y87734D01*
X350029Y87841D01*
X349996Y87949D01*
X349966Y88059D01*
X349941Y88169D01*
X349919Y88280D01*
X349902Y88392D01*
X349888Y88505D01*
X349878Y88618D01*
X349872Y88731D01*
X349870Y88844D01*
X361301Y94686D02*
X364546Y97282D01*
X364546Y85598D01*
X361301Y85598D02*
X367792Y85598D01*
X345506Y149098D02*
X342909Y149098D01*
X342810Y149100D01*
X342710Y149106D01*
X342611Y149115D01*
X342513Y149128D01*
X342415Y149145D01*
X342317Y149166D01*
X342221Y149191D01*
X342126Y149219D01*
X342032Y149251D01*
X341939Y149286D01*
X341847Y149325D01*
X341757Y149368D01*
X341669Y149413D01*
X341582Y149463D01*
X341498Y149515D01*
X341415Y149571D01*
X341335Y149629D01*
X341257Y149691D01*
X341182Y149756D01*
X341109Y149824D01*
X341039Y149894D01*
X340971Y149967D01*
X340906Y150042D01*
X340844Y150120D01*
X340786Y150200D01*
X340730Y150283D01*
X340678Y150367D01*
X340628Y150454D01*
X340583Y150542D01*
X340540Y150632D01*
X340501Y150724D01*
X340466Y150817D01*
X340434Y150911D01*
X340406Y151006D01*
X340381Y151102D01*
X340360Y151200D01*
X340343Y151298D01*
X340330Y151396D01*
X340321Y151495D01*
X340315Y151595D01*
X340313Y151694D01*
X340313Y158186D01*
X340315Y158285D01*
X340321Y158385D01*
X340330Y158484D01*
X340343Y158582D01*
X340360Y158680D01*
X340381Y158778D01*
X340406Y158874D01*
X340434Y158969D01*
X340466Y159063D01*
X340501Y159156D01*
X340540Y159248D01*
X340583Y159338D01*
X340628Y159426D01*
X340678Y159513D01*
X340730Y159597D01*
X340786Y159680D01*
X340844Y159760D01*
X340906Y159838D01*
X340971Y159913D01*
X341039Y159986D01*
X341109Y160056D01*
X341182Y160124D01*
X341257Y160189D01*
X341335Y160251D01*
X341415Y160309D01*
X341498Y160365D01*
X341582Y160417D01*
X341669Y160467D01*
X341757Y160512D01*
X341847Y160555D01*
X341939Y160594D01*
X342031Y160629D01*
X342126Y160661D01*
X342221Y160689D01*
X342317Y160714D01*
X342415Y160735D01*
X342513Y160752D01*
X342611Y160765D01*
X342710Y160774D01*
X342810Y160780D01*
X342909Y160782D01*
X345506Y160782D01*
X349871Y157536D02*
X349871Y152344D01*
X349870Y157536D02*
X349872Y157649D01*
X349878Y157762D01*
X349888Y157875D01*
X349902Y157988D01*
X349919Y158100D01*
X349941Y158211D01*
X349966Y158321D01*
X349996Y158431D01*
X350029Y158539D01*
X350066Y158646D01*
X350106Y158752D01*
X350151Y158856D01*
X350199Y158959D01*
X350250Y159060D01*
X350305Y159159D01*
X350363Y159256D01*
X350425Y159351D01*
X350490Y159444D01*
X350558Y159534D01*
X350629Y159622D01*
X350704Y159708D01*
X350781Y159791D01*
X350861Y159871D01*
X350944Y159948D01*
X351030Y160023D01*
X351118Y160094D01*
X351208Y160162D01*
X351301Y160227D01*
X351396Y160289D01*
X351493Y160347D01*
X351592Y160402D01*
X351693Y160453D01*
X351796Y160501D01*
X351900Y160546D01*
X352006Y160586D01*
X352113Y160623D01*
X352221Y160656D01*
X352331Y160686D01*
X352441Y160711D01*
X352552Y160733D01*
X352664Y160750D01*
X352777Y160764D01*
X352890Y160774D01*
X353003Y160780D01*
X353116Y160782D01*
X353229Y160780D01*
X353342Y160774D01*
X353455Y160764D01*
X353568Y160750D01*
X353680Y160733D01*
X353791Y160711D01*
X353901Y160686D01*
X354011Y160656D01*
X354119Y160623D01*
X354226Y160586D01*
X354332Y160546D01*
X354436Y160501D01*
X354539Y160453D01*
X354640Y160402D01*
X354739Y160347D01*
X354836Y160289D01*
X354931Y160227D01*
X355024Y160162D01*
X355114Y160094D01*
X355202Y160023D01*
X355288Y159948D01*
X355371Y159871D01*
X355451Y159791D01*
X355528Y159708D01*
X355603Y159622D01*
X355674Y159534D01*
X355742Y159444D01*
X355807Y159351D01*
X355869Y159256D01*
X355927Y159159D01*
X355982Y159060D01*
X356033Y158959D01*
X356081Y158856D01*
X356126Y158752D01*
X356166Y158646D01*
X356203Y158539D01*
X356236Y158431D01*
X356266Y158321D01*
X356291Y158211D01*
X356313Y158100D01*
X356330Y157988D01*
X356344Y157875D01*
X356354Y157762D01*
X356360Y157649D01*
X356362Y157536D01*
X356362Y152344D01*
X356360Y152231D01*
X356354Y152118D01*
X356344Y152005D01*
X356330Y151892D01*
X356313Y151780D01*
X356291Y151669D01*
X356266Y151559D01*
X356236Y151449D01*
X356203Y151341D01*
X356166Y151234D01*
X356126Y151128D01*
X356081Y151024D01*
X356033Y150921D01*
X355982Y150820D01*
X355927Y150721D01*
X355869Y150624D01*
X355807Y150529D01*
X355742Y150436D01*
X355674Y150346D01*
X355603Y150258D01*
X355528Y150172D01*
X355451Y150089D01*
X355371Y150009D01*
X355288Y149932D01*
X355202Y149857D01*
X355114Y149786D01*
X355024Y149718D01*
X354931Y149653D01*
X354836Y149591D01*
X354739Y149533D01*
X354640Y149478D01*
X354539Y149427D01*
X354436Y149379D01*
X354332Y149334D01*
X354226Y149294D01*
X354119Y149257D01*
X354011Y149224D01*
X353901Y149194D01*
X353791Y149169D01*
X353680Y149147D01*
X353568Y149130D01*
X353455Y149116D01*
X353342Y149106D01*
X353229Y149100D01*
X353116Y149098D01*
X353003Y149100D01*
X352890Y149106D01*
X352777Y149116D01*
X352664Y149130D01*
X352552Y149147D01*
X352441Y149169D01*
X352331Y149194D01*
X352221Y149224D01*
X352113Y149257D01*
X352006Y149294D01*
X351900Y149334D01*
X351796Y149379D01*
X351693Y149427D01*
X351592Y149478D01*
X351493Y149533D01*
X351396Y149591D01*
X351301Y149653D01*
X351208Y149718D01*
X351118Y149786D01*
X351030Y149857D01*
X350944Y149932D01*
X350861Y150009D01*
X350781Y150089D01*
X350704Y150172D01*
X350629Y150258D01*
X350558Y150346D01*
X350490Y150436D01*
X350425Y150529D01*
X350363Y150624D01*
X350305Y150721D01*
X350250Y150820D01*
X350199Y150921D01*
X350151Y151024D01*
X350106Y151128D01*
X350066Y151234D01*
X350029Y151341D01*
X349996Y151449D01*
X349966Y151559D01*
X349941Y151669D01*
X349919Y151780D01*
X349902Y151892D01*
X349888Y152005D01*
X349878Y152118D01*
X349872Y152231D01*
X349870Y152344D01*
X364871Y160782D02*
X364978Y160780D01*
X365084Y160774D01*
X365190Y160764D01*
X365296Y160751D01*
X365402Y160733D01*
X365506Y160712D01*
X365610Y160687D01*
X365713Y160658D01*
X365814Y160626D01*
X365914Y160589D01*
X366013Y160549D01*
X366111Y160506D01*
X366207Y160459D01*
X366301Y160408D01*
X366393Y160354D01*
X366483Y160297D01*
X366571Y160237D01*
X366656Y160173D01*
X366739Y160106D01*
X366820Y160036D01*
X366898Y159964D01*
X366974Y159888D01*
X367046Y159810D01*
X367116Y159729D01*
X367183Y159646D01*
X367247Y159561D01*
X367307Y159473D01*
X367364Y159383D01*
X367418Y159291D01*
X367469Y159197D01*
X367516Y159101D01*
X367559Y159003D01*
X367599Y158904D01*
X367636Y158804D01*
X367668Y158703D01*
X367697Y158600D01*
X367722Y158496D01*
X367743Y158392D01*
X367761Y158286D01*
X367774Y158180D01*
X367784Y158074D01*
X367790Y157968D01*
X367792Y157861D01*
X364871Y160782D02*
X364750Y160780D01*
X364629Y160774D01*
X364509Y160764D01*
X364388Y160751D01*
X364269Y160733D01*
X364149Y160712D01*
X364031Y160687D01*
X363914Y160658D01*
X363797Y160625D01*
X363682Y160589D01*
X363568Y160548D01*
X363455Y160505D01*
X363343Y160457D01*
X363234Y160406D01*
X363126Y160351D01*
X363019Y160293D01*
X362915Y160232D01*
X362813Y160167D01*
X362713Y160099D01*
X362615Y160028D01*
X362519Y159954D01*
X362426Y159877D01*
X362336Y159796D01*
X362248Y159713D01*
X362163Y159627D01*
X362080Y159538D01*
X362001Y159447D01*
X361924Y159353D01*
X361851Y159257D01*
X361781Y159159D01*
X361714Y159058D01*
X361650Y158955D01*
X361590Y158850D01*
X361533Y158743D01*
X361479Y158635D01*
X361429Y158525D01*
X361383Y158413D01*
X361340Y158300D01*
X361301Y158185D01*
X366819Y155589D02*
X366898Y155666D01*
X366974Y155747D01*
X367047Y155830D01*
X367117Y155915D01*
X367184Y156003D01*
X367248Y156093D01*
X367308Y156185D01*
X367365Y156280D01*
X367419Y156376D01*
X367470Y156474D01*
X367517Y156574D01*
X367561Y156676D01*
X367601Y156779D01*
X367637Y156883D01*
X367669Y156989D01*
X367698Y157095D01*
X367723Y157203D01*
X367745Y157311D01*
X367762Y157421D01*
X367776Y157530D01*
X367785Y157640D01*
X367791Y157751D01*
X367793Y157861D01*
X366818Y155589D02*
X361301Y149098D01*
X367792Y149098D01*
X345506Y212598D02*
X342909Y212598D01*
X342810Y212600D01*
X342710Y212606D01*
X342611Y212615D01*
X342513Y212628D01*
X342415Y212645D01*
X342317Y212666D01*
X342221Y212691D01*
X342126Y212719D01*
X342032Y212751D01*
X341939Y212786D01*
X341847Y212825D01*
X341757Y212868D01*
X341669Y212913D01*
X341582Y212963D01*
X341498Y213015D01*
X341415Y213071D01*
X341335Y213129D01*
X341257Y213191D01*
X341182Y213256D01*
X341109Y213324D01*
X341039Y213394D01*
X340971Y213467D01*
X340906Y213542D01*
X340844Y213620D01*
X340786Y213700D01*
X340730Y213783D01*
X340678Y213867D01*
X340628Y213954D01*
X340583Y214042D01*
X340540Y214132D01*
X340501Y214224D01*
X340466Y214317D01*
X340434Y214411D01*
X340406Y214506D01*
X340381Y214602D01*
X340360Y214700D01*
X340343Y214798D01*
X340330Y214896D01*
X340321Y214995D01*
X340315Y215095D01*
X340313Y215194D01*
X340313Y221686D01*
X340315Y221785D01*
X340321Y221885D01*
X340330Y221984D01*
X340343Y222082D01*
X340360Y222180D01*
X340381Y222278D01*
X340406Y222374D01*
X340434Y222469D01*
X340466Y222563D01*
X340501Y222656D01*
X340540Y222748D01*
X340583Y222838D01*
X340628Y222926D01*
X340678Y223013D01*
X340730Y223097D01*
X340786Y223180D01*
X340844Y223260D01*
X340906Y223338D01*
X340971Y223413D01*
X341039Y223486D01*
X341109Y223556D01*
X341182Y223624D01*
X341257Y223689D01*
X341335Y223751D01*
X341415Y223809D01*
X341498Y223865D01*
X341582Y223917D01*
X341669Y223967D01*
X341757Y224012D01*
X341847Y224055D01*
X341939Y224094D01*
X342031Y224129D01*
X342126Y224161D01*
X342221Y224189D01*
X342317Y224214D01*
X342415Y224235D01*
X342513Y224252D01*
X342611Y224265D01*
X342710Y224274D01*
X342810Y224280D01*
X342909Y224282D01*
X345506Y224282D01*
X349871Y221036D02*
X349871Y215844D01*
X349870Y221036D02*
X349872Y221149D01*
X349878Y221262D01*
X349888Y221375D01*
X349902Y221488D01*
X349919Y221600D01*
X349941Y221711D01*
X349966Y221821D01*
X349996Y221931D01*
X350029Y222039D01*
X350066Y222146D01*
X350106Y222252D01*
X350151Y222356D01*
X350199Y222459D01*
X350250Y222560D01*
X350305Y222659D01*
X350363Y222756D01*
X350425Y222851D01*
X350490Y222944D01*
X350558Y223034D01*
X350629Y223122D01*
X350704Y223208D01*
X350781Y223291D01*
X350861Y223371D01*
X350944Y223448D01*
X351030Y223523D01*
X351118Y223594D01*
X351208Y223662D01*
X351301Y223727D01*
X351396Y223789D01*
X351493Y223847D01*
X351592Y223902D01*
X351693Y223953D01*
X351796Y224001D01*
X351900Y224046D01*
X352006Y224086D01*
X352113Y224123D01*
X352221Y224156D01*
X352331Y224186D01*
X352441Y224211D01*
X352552Y224233D01*
X352664Y224250D01*
X352777Y224264D01*
X352890Y224274D01*
X353003Y224280D01*
X353116Y224282D01*
X353229Y224280D01*
X353342Y224274D01*
X353455Y224264D01*
X353568Y224250D01*
X353680Y224233D01*
X353791Y224211D01*
X353901Y224186D01*
X354011Y224156D01*
X354119Y224123D01*
X354226Y224086D01*
X354332Y224046D01*
X354436Y224001D01*
X354539Y223953D01*
X354640Y223902D01*
X354739Y223847D01*
X354836Y223789D01*
X354931Y223727D01*
X355024Y223662D01*
X355114Y223594D01*
X355202Y223523D01*
X355288Y223448D01*
X355371Y223371D01*
X355451Y223291D01*
X355528Y223208D01*
X355603Y223122D01*
X355674Y223034D01*
X355742Y222944D01*
X355807Y222851D01*
X355869Y222756D01*
X355927Y222659D01*
X355982Y222560D01*
X356033Y222459D01*
X356081Y222356D01*
X356126Y222252D01*
X356166Y222146D01*
X356203Y222039D01*
X356236Y221931D01*
X356266Y221821D01*
X356291Y221711D01*
X356313Y221600D01*
X356330Y221488D01*
X356344Y221375D01*
X356354Y221262D01*
X356360Y221149D01*
X356362Y221036D01*
X356362Y215844D01*
X356360Y215731D01*
X356354Y215618D01*
X356344Y215505D01*
X356330Y215392D01*
X356313Y215280D01*
X356291Y215169D01*
X356266Y215059D01*
X356236Y214949D01*
X356203Y214841D01*
X356166Y214734D01*
X356126Y214628D01*
X356081Y214524D01*
X356033Y214421D01*
X355982Y214320D01*
X355927Y214221D01*
X355869Y214124D01*
X355807Y214029D01*
X355742Y213936D01*
X355674Y213846D01*
X355603Y213758D01*
X355528Y213672D01*
X355451Y213589D01*
X355371Y213509D01*
X355288Y213432D01*
X355202Y213357D01*
X355114Y213286D01*
X355024Y213218D01*
X354931Y213153D01*
X354836Y213091D01*
X354739Y213033D01*
X354640Y212978D01*
X354539Y212927D01*
X354436Y212879D01*
X354332Y212834D01*
X354226Y212794D01*
X354119Y212757D01*
X354011Y212724D01*
X353901Y212694D01*
X353791Y212669D01*
X353680Y212647D01*
X353568Y212630D01*
X353455Y212616D01*
X353342Y212606D01*
X353229Y212600D01*
X353116Y212598D01*
X353003Y212600D01*
X352890Y212606D01*
X352777Y212616D01*
X352664Y212630D01*
X352552Y212647D01*
X352441Y212669D01*
X352331Y212694D01*
X352221Y212724D01*
X352113Y212757D01*
X352006Y212794D01*
X351900Y212834D01*
X351796Y212879D01*
X351693Y212927D01*
X351592Y212978D01*
X351493Y213033D01*
X351396Y213091D01*
X351301Y213153D01*
X351208Y213218D01*
X351118Y213286D01*
X351030Y213357D01*
X350944Y213432D01*
X350861Y213509D01*
X350781Y213589D01*
X350704Y213672D01*
X350629Y213758D01*
X350558Y213846D01*
X350490Y213936D01*
X350425Y214029D01*
X350363Y214124D01*
X350305Y214221D01*
X350250Y214320D01*
X350199Y214421D01*
X350151Y214524D01*
X350106Y214628D01*
X350066Y214734D01*
X350029Y214841D01*
X349996Y214949D01*
X349966Y215059D01*
X349941Y215169D01*
X349919Y215280D01*
X349902Y215392D01*
X349888Y215505D01*
X349878Y215618D01*
X349872Y215731D01*
X349870Y215844D01*
X361301Y212598D02*
X364546Y212598D01*
X364659Y212600D01*
X364772Y212606D01*
X364885Y212616D01*
X364998Y212630D01*
X365110Y212647D01*
X365221Y212669D01*
X365331Y212694D01*
X365441Y212724D01*
X365549Y212757D01*
X365656Y212794D01*
X365762Y212834D01*
X365866Y212879D01*
X365969Y212927D01*
X366070Y212978D01*
X366169Y213033D01*
X366266Y213091D01*
X366361Y213153D01*
X366454Y213218D01*
X366544Y213286D01*
X366632Y213357D01*
X366718Y213432D01*
X366801Y213509D01*
X366881Y213589D01*
X366958Y213672D01*
X367033Y213758D01*
X367104Y213846D01*
X367172Y213936D01*
X367237Y214029D01*
X367299Y214124D01*
X367357Y214221D01*
X367412Y214320D01*
X367463Y214421D01*
X367511Y214524D01*
X367556Y214628D01*
X367596Y214734D01*
X367633Y214841D01*
X367666Y214949D01*
X367696Y215059D01*
X367721Y215169D01*
X367743Y215280D01*
X367760Y215392D01*
X367774Y215505D01*
X367784Y215618D01*
X367790Y215731D01*
X367792Y215844D01*
X367790Y215957D01*
X367784Y216070D01*
X367774Y216183D01*
X367760Y216296D01*
X367743Y216408D01*
X367721Y216519D01*
X367696Y216629D01*
X367666Y216739D01*
X367633Y216847D01*
X367596Y216954D01*
X367556Y217060D01*
X367511Y217164D01*
X367463Y217267D01*
X367412Y217368D01*
X367357Y217467D01*
X367299Y217564D01*
X367237Y217659D01*
X367172Y217752D01*
X367104Y217842D01*
X367033Y217930D01*
X366958Y218016D01*
X366881Y218099D01*
X366801Y218179D01*
X366718Y218256D01*
X366632Y218331D01*
X366544Y218402D01*
X366454Y218470D01*
X366361Y218535D01*
X366266Y218597D01*
X366169Y218655D01*
X366070Y218710D01*
X365969Y218761D01*
X365866Y218809D01*
X365762Y218854D01*
X365656Y218894D01*
X365549Y218931D01*
X365441Y218964D01*
X365331Y218994D01*
X365221Y219019D01*
X365110Y219041D01*
X364998Y219058D01*
X364885Y219072D01*
X364772Y219082D01*
X364659Y219088D01*
X364546Y219090D01*
X365196Y224282D02*
X361301Y224282D01*
X365196Y224282D02*
X365297Y224280D01*
X365397Y224274D01*
X365497Y224264D01*
X365597Y224251D01*
X365696Y224233D01*
X365795Y224212D01*
X365892Y224187D01*
X365989Y224158D01*
X366084Y224125D01*
X366178Y224089D01*
X366270Y224049D01*
X366361Y224006D01*
X366450Y223959D01*
X366537Y223909D01*
X366623Y223855D01*
X366706Y223798D01*
X366786Y223738D01*
X366865Y223675D01*
X366941Y223608D01*
X367014Y223539D01*
X367084Y223467D01*
X367152Y223393D01*
X367217Y223316D01*
X367278Y223236D01*
X367337Y223154D01*
X367392Y223070D01*
X367444Y222984D01*
X367493Y222896D01*
X367538Y222806D01*
X367580Y222714D01*
X367618Y222621D01*
X367652Y222526D01*
X367683Y222431D01*
X367710Y222334D01*
X367733Y222236D01*
X367753Y222137D01*
X367768Y222037D01*
X367780Y221937D01*
X367788Y221837D01*
X367792Y221736D01*
X367792Y221636D01*
X367788Y221535D01*
X367780Y221435D01*
X367768Y221335D01*
X367753Y221235D01*
X367733Y221136D01*
X367710Y221038D01*
X367683Y220941D01*
X367652Y220846D01*
X367618Y220751D01*
X367580Y220658D01*
X367538Y220566D01*
X367493Y220476D01*
X367444Y220388D01*
X367392Y220302D01*
X367337Y220218D01*
X367278Y220136D01*
X367217Y220056D01*
X367152Y219979D01*
X367084Y219905D01*
X367014Y219833D01*
X366941Y219764D01*
X366865Y219697D01*
X366786Y219634D01*
X366706Y219574D01*
X366623Y219517D01*
X366537Y219463D01*
X366450Y219413D01*
X366361Y219366D01*
X366270Y219323D01*
X366178Y219283D01*
X366084Y219247D01*
X365989Y219214D01*
X365892Y219185D01*
X365795Y219160D01*
X365696Y219139D01*
X365597Y219121D01*
X365497Y219108D01*
X365397Y219098D01*
X365297Y219092D01*
X365196Y219090D01*
X365196Y219089D02*
X362599Y219089D01*
D12*
X25400Y102870D02*
X25400Y90170D01*
X25400Y39370D01*
X38100Y39370D01*
X50800Y39370D01*
X50800Y90170D01*
X50800Y102870D01*
X38100Y102870D01*
X25400Y102870D01*
X25400Y90170D02*
X50800Y90170D01*
X38100Y39370D02*
X38100Y33020D01*
X38100Y102870D02*
X38100Y109220D01*
D13*
X21336Y42164D02*
X15748Y42164D01*
X15748Y43716D01*
X15750Y43792D01*
X15755Y43868D01*
X15765Y43944D01*
X15778Y44019D01*
X15795Y44093D01*
X15815Y44167D01*
X15839Y44239D01*
X15866Y44310D01*
X15897Y44380D01*
X15931Y44448D01*
X15969Y44514D01*
X16010Y44578D01*
X16053Y44641D01*
X16100Y44701D01*
X16150Y44758D01*
X16203Y44813D01*
X16258Y44866D01*
X16315Y44916D01*
X16375Y44963D01*
X16438Y45006D01*
X16502Y45047D01*
X16568Y45085D01*
X16636Y45119D01*
X16706Y45150D01*
X16777Y45177D01*
X16850Y45201D01*
X16923Y45221D01*
X16997Y45238D01*
X17072Y45251D01*
X17148Y45261D01*
X17224Y45266D01*
X17300Y45268D01*
X19784Y45268D01*
X19860Y45266D01*
X19936Y45261D01*
X20012Y45251D01*
X20087Y45238D01*
X20161Y45221D01*
X20235Y45201D01*
X20307Y45177D01*
X20378Y45150D01*
X20448Y45119D01*
X20516Y45085D01*
X20582Y45047D01*
X20646Y45006D01*
X20709Y44963D01*
X20769Y44916D01*
X20826Y44866D01*
X20881Y44813D01*
X20934Y44758D01*
X20984Y44701D01*
X21031Y44641D01*
X21074Y44578D01*
X21115Y44514D01*
X21153Y44448D01*
X21187Y44380D01*
X21218Y44310D01*
X21245Y44239D01*
X21269Y44167D01*
X21289Y44093D01*
X21306Y44019D01*
X21319Y43944D01*
X21329Y43868D01*
X21334Y43792D01*
X21336Y43716D01*
X21336Y42164D01*
X21336Y47833D02*
X21336Y49385D01*
X21334Y49462D01*
X21328Y49540D01*
X21319Y49616D01*
X21305Y49693D01*
X21288Y49768D01*
X21267Y49842D01*
X21242Y49916D01*
X21214Y49988D01*
X21182Y50058D01*
X21147Y50127D01*
X21108Y50194D01*
X21066Y50259D01*
X21021Y50322D01*
X20973Y50383D01*
X20922Y50441D01*
X20868Y50496D01*
X20811Y50549D01*
X20752Y50598D01*
X20690Y50645D01*
X20626Y50689D01*
X20560Y50729D01*
X20492Y50766D01*
X20422Y50800D01*
X20351Y50830D01*
X20278Y50856D01*
X20204Y50879D01*
X20129Y50898D01*
X20054Y50913D01*
X19977Y50925D01*
X19900Y50933D01*
X19823Y50937D01*
X19745Y50937D01*
X19668Y50933D01*
X19591Y50925D01*
X19514Y50913D01*
X19439Y50898D01*
X19364Y50879D01*
X19290Y50856D01*
X19217Y50830D01*
X19146Y50800D01*
X19076Y50766D01*
X19008Y50729D01*
X18942Y50689D01*
X18878Y50645D01*
X18816Y50598D01*
X18757Y50549D01*
X18700Y50496D01*
X18646Y50441D01*
X18595Y50383D01*
X18547Y50322D01*
X18502Y50259D01*
X18460Y50194D01*
X18421Y50127D01*
X18386Y50058D01*
X18354Y49988D01*
X18326Y49916D01*
X18301Y49842D01*
X18280Y49768D01*
X18263Y49693D01*
X18249Y49616D01*
X18240Y49540D01*
X18234Y49462D01*
X18232Y49385D01*
X15748Y49696D02*
X15748Y47833D01*
X15748Y49696D02*
X15750Y49766D01*
X15756Y49835D01*
X15766Y49904D01*
X15779Y49972D01*
X15797Y50040D01*
X15818Y50106D01*
X15843Y50171D01*
X15871Y50235D01*
X15903Y50297D01*
X15938Y50357D01*
X15977Y50415D01*
X16019Y50470D01*
X16064Y50524D01*
X16112Y50574D01*
X16162Y50622D01*
X16216Y50667D01*
X16271Y50709D01*
X16329Y50748D01*
X16389Y50783D01*
X16451Y50815D01*
X16515Y50843D01*
X16580Y50868D01*
X16646Y50889D01*
X16714Y50907D01*
X16782Y50920D01*
X16851Y50930D01*
X16920Y50936D01*
X16990Y50938D01*
X17060Y50936D01*
X17129Y50930D01*
X17198Y50920D01*
X17266Y50907D01*
X17334Y50889D01*
X17400Y50868D01*
X17465Y50843D01*
X17529Y50815D01*
X17591Y50783D01*
X17651Y50748D01*
X17709Y50709D01*
X17764Y50667D01*
X17818Y50622D01*
X17868Y50574D01*
X17916Y50524D01*
X17961Y50470D01*
X18003Y50415D01*
X18042Y50357D01*
X18077Y50297D01*
X18109Y50235D01*
X18137Y50171D01*
X18162Y50106D01*
X18183Y50040D01*
X18201Y49972D01*
X18214Y49904D01*
X18224Y49835D01*
X18230Y49766D01*
X18232Y49696D01*
X18232Y48454D01*
D14*
X34890Y43286D02*
X35048Y43211D01*
X35208Y43140D01*
X35369Y43073D01*
X35532Y43010D01*
X35697Y42950D01*
X35863Y42895D01*
X36030Y42844D01*
X36198Y42796D01*
X36368Y42753D01*
X36538Y42713D01*
X36709Y42678D01*
X36881Y42647D01*
X37054Y42620D01*
X37228Y42597D01*
X37401Y42578D01*
X37576Y42564D01*
X37750Y42553D01*
X37925Y42547D01*
X38100Y42545D01*
X34889Y43286D02*
X34811Y43315D01*
X34733Y43347D01*
X34658Y43384D01*
X34584Y43423D01*
X34512Y43466D01*
X34441Y43512D01*
X34374Y43562D01*
X34308Y43614D01*
X34245Y43669D01*
X34185Y43728D01*
X34127Y43789D01*
X34072Y43852D01*
X34020Y43918D01*
X33971Y43987D01*
X33926Y44057D01*
X33883Y44129D01*
X33844Y44204D01*
X33809Y44280D01*
X33777Y44357D01*
X33749Y44436D01*
X33724Y44517D01*
X33703Y44598D01*
X33686Y44680D01*
X33672Y44763D01*
X33663Y44846D01*
X33657Y44930D01*
X33655Y45014D01*
X33657Y45098D01*
X33663Y45182D01*
X33672Y45265D01*
X33686Y45348D01*
X33703Y45430D01*
X33724Y45511D01*
X33749Y45592D01*
X33777Y45671D01*
X33809Y45748D01*
X33844Y45824D01*
X33883Y45899D01*
X33926Y45971D01*
X33971Y46042D01*
X34020Y46110D01*
X34072Y46176D01*
X34127Y46239D01*
X34185Y46300D01*
X34245Y46359D01*
X34308Y46414D01*
X34374Y46466D01*
X34441Y46516D01*
X34512Y46562D01*
X34584Y46605D01*
X34658Y46644D01*
X34733Y46681D01*
X34811Y46713D01*
X34890Y46742D01*
X34890Y46743D02*
X35048Y46818D01*
X35208Y46889D01*
X35369Y46956D01*
X35532Y47019D01*
X35697Y47079D01*
X35863Y47134D01*
X36030Y47185D01*
X36198Y47233D01*
X36368Y47276D01*
X36538Y47316D01*
X36709Y47351D01*
X36881Y47382D01*
X37054Y47409D01*
X37228Y47432D01*
X37401Y47451D01*
X37576Y47465D01*
X37750Y47476D01*
X37925Y47482D01*
X38100Y47484D01*
X38100Y42545D02*
X38275Y42547D01*
X38450Y42553D01*
X38624Y42564D01*
X38799Y42578D01*
X38972Y42597D01*
X39146Y42620D01*
X39319Y42647D01*
X39491Y42678D01*
X39662Y42713D01*
X39832Y42753D01*
X40002Y42796D01*
X40170Y42844D01*
X40337Y42895D01*
X40503Y42950D01*
X40668Y43010D01*
X40831Y43073D01*
X40992Y43140D01*
X41152Y43211D01*
X41310Y43286D01*
X41311Y43286D02*
X41389Y43315D01*
X41467Y43347D01*
X41542Y43384D01*
X41616Y43423D01*
X41689Y43466D01*
X41759Y43512D01*
X41826Y43562D01*
X41892Y43614D01*
X41955Y43670D01*
X42016Y43728D01*
X42073Y43789D01*
X42128Y43852D01*
X42180Y43918D01*
X42229Y43987D01*
X42274Y44057D01*
X42317Y44129D01*
X42356Y44204D01*
X42391Y44280D01*
X42423Y44358D01*
X42451Y44437D01*
X42476Y44517D01*
X42497Y44598D01*
X42514Y44680D01*
X42528Y44763D01*
X42537Y44846D01*
X42543Y44930D01*
X42545Y45014D01*
X41310Y46743D02*
X41152Y46818D01*
X40992Y46889D01*
X40831Y46956D01*
X40668Y47019D01*
X40503Y47079D01*
X40337Y47134D01*
X40170Y47185D01*
X40002Y47233D01*
X39832Y47276D01*
X39662Y47316D01*
X39491Y47351D01*
X39319Y47382D01*
X39146Y47409D01*
X38972Y47432D01*
X38799Y47451D01*
X38624Y47465D01*
X38450Y47476D01*
X38275Y47482D01*
X38100Y47484D01*
X41311Y46742D02*
X41389Y46713D01*
X41467Y46681D01*
X41542Y46644D01*
X41616Y46605D01*
X41689Y46562D01*
X41759Y46516D01*
X41826Y46466D01*
X41892Y46414D01*
X41955Y46358D01*
X42015Y46300D01*
X42073Y46239D01*
X42128Y46176D01*
X42180Y46110D01*
X42229Y46041D01*
X42274Y45971D01*
X42317Y45899D01*
X42356Y45824D01*
X42391Y45748D01*
X42423Y45671D01*
X42451Y45592D01*
X42476Y45511D01*
X42497Y45430D01*
X42514Y45348D01*
X42528Y45265D01*
X42537Y45182D01*
X42543Y45098D01*
X42545Y45014D01*
X40569Y43039D02*
X35631Y46990D01*
X42051Y51168D02*
X42545Y51168D01*
X42051Y51168D02*
X42051Y51662D01*
X42545Y51662D01*
X42545Y51168D01*
X34643Y55347D02*
X33655Y55347D01*
X33655Y60285D01*
X42545Y57816D01*
X42545Y64491D02*
X42545Y67454D01*
X42543Y67543D01*
X42537Y67631D01*
X42527Y67719D01*
X42513Y67807D01*
X42495Y67894D01*
X42474Y67980D01*
X42448Y68065D01*
X42419Y68148D01*
X42386Y68231D01*
X42349Y68311D01*
X42309Y68390D01*
X42265Y68467D01*
X42218Y68543D01*
X42168Y68615D01*
X42114Y68686D01*
X42057Y68754D01*
X41997Y68820D01*
X41935Y68882D01*
X41869Y68942D01*
X41801Y68999D01*
X41730Y69053D01*
X41658Y69103D01*
X41583Y69150D01*
X41505Y69194D01*
X41426Y69234D01*
X41346Y69271D01*
X41263Y69304D01*
X41180Y69333D01*
X41095Y69359D01*
X41009Y69380D01*
X40922Y69398D01*
X40834Y69412D01*
X40746Y69422D01*
X40658Y69428D01*
X40569Y69430D01*
X40569Y69429D02*
X39582Y69429D01*
X39582Y69430D02*
X39496Y69428D01*
X39410Y69422D01*
X39324Y69413D01*
X39239Y69400D01*
X39154Y69383D01*
X39071Y69363D01*
X38988Y69339D01*
X38906Y69311D01*
X38826Y69280D01*
X38747Y69245D01*
X38670Y69207D01*
X38594Y69165D01*
X38520Y69121D01*
X38449Y69073D01*
X38379Y69022D01*
X38312Y68968D01*
X38247Y68911D01*
X38185Y68851D01*
X38125Y68789D01*
X38068Y68724D01*
X38014Y68657D01*
X37963Y68587D01*
X37915Y68516D01*
X37871Y68442D01*
X37829Y68366D01*
X37791Y68289D01*
X37756Y68210D01*
X37725Y68130D01*
X37697Y68048D01*
X37673Y67965D01*
X37653Y67882D01*
X37636Y67797D01*
X37623Y67712D01*
X37614Y67626D01*
X37608Y67540D01*
X37606Y67454D01*
X37606Y64491D01*
X33655Y64491D01*
X33655Y69429D01*
D15*
X43750Y237490D02*
X43766Y238754D01*
X43812Y240017D01*
X43890Y241279D01*
X43998Y242538D01*
X44137Y243794D01*
X44307Y245047D01*
X44508Y246295D01*
X44740Y247537D01*
X45001Y248774D01*
X45293Y250003D01*
X45616Y251226D01*
X45968Y252440D01*
X46349Y253645D01*
X46760Y254840D01*
X47201Y256025D01*
X47670Y257198D01*
X48168Y258360D01*
X48695Y259509D01*
X49249Y260645D01*
X49831Y261767D01*
X50441Y262874D01*
X51077Y263966D01*
X51740Y265042D01*
X52429Y266102D01*
X53144Y267144D01*
X53885Y268169D01*
X54650Y269174D01*
X55440Y270161D01*
X56254Y271128D01*
X57091Y272075D01*
X57951Y273001D01*
X58834Y273906D01*
X59739Y274789D01*
X60665Y275649D01*
X61612Y276486D01*
X62579Y277300D01*
X63566Y278090D01*
X64571Y278855D01*
X65596Y279596D01*
X66638Y280311D01*
X67698Y281000D01*
X68774Y281663D01*
X69866Y282299D01*
X70973Y282909D01*
X72095Y283491D01*
X73231Y284045D01*
X74380Y284572D01*
X75542Y285070D01*
X76715Y285539D01*
X77900Y285980D01*
X79095Y286391D01*
X80300Y286772D01*
X81514Y287124D01*
X82737Y287447D01*
X83966Y287739D01*
X85203Y288000D01*
X86445Y288232D01*
X87693Y288433D01*
X88946Y288603D01*
X90202Y288742D01*
X91461Y288850D01*
X92723Y288928D01*
X93986Y288974D01*
X95250Y288990D01*
X96514Y288974D01*
X97777Y288928D01*
X99039Y288850D01*
X100298Y288742D01*
X101554Y288603D01*
X102807Y288433D01*
X104055Y288232D01*
X105297Y288000D01*
X106534Y287739D01*
X107763Y287447D01*
X108986Y287124D01*
X110200Y286772D01*
X111405Y286391D01*
X112600Y285980D01*
X113785Y285539D01*
X114958Y285070D01*
X116120Y284572D01*
X117269Y284045D01*
X118405Y283491D01*
X119527Y282909D01*
X120634Y282299D01*
X121726Y281663D01*
X122802Y281000D01*
X123862Y280311D01*
X124904Y279596D01*
X125929Y278855D01*
X126934Y278090D01*
X127921Y277300D01*
X128888Y276486D01*
X129835Y275649D01*
X130761Y274789D01*
X131666Y273906D01*
X132549Y273001D01*
X133409Y272075D01*
X134246Y271128D01*
X135060Y270161D01*
X135850Y269174D01*
X136615Y268169D01*
X137356Y267144D01*
X138071Y266102D01*
X138760Y265042D01*
X139423Y263966D01*
X140059Y262874D01*
X140669Y261767D01*
X141251Y260645D01*
X141805Y259509D01*
X142332Y258360D01*
X142830Y257198D01*
X143299Y256025D01*
X143740Y254840D01*
X144151Y253645D01*
X144532Y252440D01*
X144884Y251226D01*
X145207Y250003D01*
X145499Y248774D01*
X145760Y247537D01*
X145992Y246295D01*
X146193Y245047D01*
X146363Y243794D01*
X146502Y242538D01*
X146610Y241279D01*
X146688Y240017D01*
X146734Y238754D01*
X146750Y237490D01*
X146734Y236226D01*
X146688Y234963D01*
X146610Y233701D01*
X146502Y232442D01*
X146363Y231186D01*
X146193Y229933D01*
X145992Y228685D01*
X145760Y227443D01*
X145499Y226206D01*
X145207Y224977D01*
X144884Y223754D01*
X144532Y222540D01*
X144151Y221335D01*
X143740Y220140D01*
X143299Y218955D01*
X142830Y217782D01*
X142332Y216620D01*
X141805Y215471D01*
X141251Y214335D01*
X140669Y213213D01*
X140059Y212106D01*
X139423Y211014D01*
X138760Y209938D01*
X138071Y208878D01*
X137356Y207836D01*
X136615Y206811D01*
X135850Y205806D01*
X135060Y204819D01*
X134246Y203852D01*
X133409Y202905D01*
X132549Y201979D01*
X131666Y201074D01*
X130761Y200191D01*
X129835Y199331D01*
X128888Y198494D01*
X127921Y197680D01*
X126934Y196890D01*
X125929Y196125D01*
X124904Y195384D01*
X123862Y194669D01*
X122802Y193980D01*
X121726Y193317D01*
X120634Y192681D01*
X119527Y192071D01*
X118405Y191489D01*
X117269Y190935D01*
X116120Y190408D01*
X114958Y189910D01*
X113785Y189441D01*
X112600Y189000D01*
X111405Y188589D01*
X110200Y188208D01*
X108986Y187856D01*
X107763Y187533D01*
X106534Y187241D01*
X105297Y186980D01*
X104055Y186748D01*
X102807Y186547D01*
X101554Y186377D01*
X100298Y186238D01*
X99039Y186130D01*
X97777Y186052D01*
X96514Y186006D01*
X95250Y185990D01*
X93986Y186006D01*
X92723Y186052D01*
X91461Y186130D01*
X90202Y186238D01*
X88946Y186377D01*
X87693Y186547D01*
X86445Y186748D01*
X85203Y186980D01*
X83966Y187241D01*
X82737Y187533D01*
X81514Y187856D01*
X80300Y188208D01*
X79095Y188589D01*
X77900Y189000D01*
X76715Y189441D01*
X75542Y189910D01*
X74380Y190408D01*
X73231Y190935D01*
X72095Y191489D01*
X70973Y192071D01*
X69866Y192681D01*
X68774Y193317D01*
X67698Y193980D01*
X66638Y194669D01*
X65596Y195384D01*
X64571Y196125D01*
X63566Y196890D01*
X62579Y197680D01*
X61612Y198494D01*
X60665Y199331D01*
X59739Y200191D01*
X58834Y201074D01*
X57951Y201979D01*
X57091Y202905D01*
X56254Y203852D01*
X55440Y204819D01*
X54650Y205806D01*
X53885Y206811D01*
X53144Y207836D01*
X52429Y208878D01*
X51740Y209938D01*
X51077Y211014D01*
X50441Y212106D01*
X49831Y213213D01*
X49249Y214335D01*
X48695Y215471D01*
X48168Y216620D01*
X47670Y217782D01*
X47201Y218955D01*
X46760Y220140D01*
X46349Y221335D01*
X45968Y222540D01*
X45616Y223754D01*
X45293Y224977D01*
X45001Y226206D01*
X44740Y227443D01*
X44508Y228685D01*
X44307Y229933D01*
X44137Y231186D01*
X43998Y232442D01*
X43890Y233701D01*
X43812Y234963D01*
X43766Y236226D01*
X43750Y237490D01*
D10*
X136078Y182449D02*
X147762Y182449D01*
X147762Y187641D01*
X138674Y191951D02*
X136078Y195196D01*
X147762Y195196D01*
X147762Y191951D02*
X147762Y198442D01*
D16*
X104140Y71120D02*
X104040Y71118D01*
X103941Y71112D01*
X103841Y71102D01*
X103743Y71089D01*
X103644Y71071D01*
X103547Y71050D01*
X103451Y71025D01*
X103355Y70996D01*
X103261Y70963D01*
X103168Y70927D01*
X103077Y70887D01*
X102987Y70843D01*
X102899Y70796D01*
X102813Y70746D01*
X102729Y70692D01*
X102647Y70635D01*
X102568Y70575D01*
X102490Y70511D01*
X102416Y70445D01*
X102344Y70376D01*
X102275Y70304D01*
X102209Y70230D01*
X102145Y70152D01*
X102085Y70073D01*
X102028Y69991D01*
X101974Y69907D01*
X101924Y69821D01*
X101877Y69733D01*
X101833Y69643D01*
X101793Y69552D01*
X101757Y69459D01*
X101724Y69365D01*
X101695Y69269D01*
X101670Y69173D01*
X101649Y69076D01*
X101631Y68977D01*
X101618Y68879D01*
X101608Y68779D01*
X101602Y68680D01*
X101600Y68580D01*
X101600Y50800D02*
X101602Y50700D01*
X101608Y50601D01*
X101618Y50501D01*
X101631Y50403D01*
X101649Y50304D01*
X101670Y50207D01*
X101695Y50111D01*
X101724Y50015D01*
X101757Y49921D01*
X101793Y49828D01*
X101833Y49737D01*
X101877Y49647D01*
X101924Y49559D01*
X101974Y49473D01*
X102028Y49389D01*
X102085Y49307D01*
X102145Y49228D01*
X102209Y49150D01*
X102275Y49076D01*
X102344Y49004D01*
X102416Y48935D01*
X102490Y48869D01*
X102568Y48805D01*
X102647Y48745D01*
X102729Y48688D01*
X102813Y48634D01*
X102899Y48584D01*
X102987Y48537D01*
X103077Y48493D01*
X103168Y48453D01*
X103261Y48417D01*
X103355Y48384D01*
X103451Y48355D01*
X103547Y48330D01*
X103644Y48309D01*
X103743Y48291D01*
X103841Y48278D01*
X103941Y48268D01*
X104040Y48262D01*
X104140Y48260D01*
X162560Y48260D02*
X162660Y48262D01*
X162759Y48268D01*
X162859Y48278D01*
X162957Y48291D01*
X163056Y48309D01*
X163153Y48330D01*
X163249Y48355D01*
X163345Y48384D01*
X163439Y48417D01*
X163532Y48453D01*
X163623Y48493D01*
X163713Y48537D01*
X163801Y48584D01*
X163887Y48634D01*
X163971Y48688D01*
X164053Y48745D01*
X164132Y48805D01*
X164210Y48869D01*
X164284Y48935D01*
X164356Y49004D01*
X164425Y49076D01*
X164491Y49150D01*
X164555Y49228D01*
X164615Y49307D01*
X164672Y49389D01*
X164726Y49473D01*
X164776Y49559D01*
X164823Y49647D01*
X164867Y49737D01*
X164907Y49828D01*
X164943Y49921D01*
X164976Y50015D01*
X165005Y50111D01*
X165030Y50207D01*
X165051Y50304D01*
X165069Y50403D01*
X165082Y50501D01*
X165092Y50601D01*
X165098Y50700D01*
X165100Y50800D01*
X165100Y68580D02*
X165098Y68680D01*
X165092Y68779D01*
X165082Y68879D01*
X165069Y68977D01*
X165051Y69076D01*
X165030Y69173D01*
X165005Y69269D01*
X164976Y69365D01*
X164943Y69459D01*
X164907Y69552D01*
X164867Y69643D01*
X164823Y69733D01*
X164776Y69821D01*
X164726Y69907D01*
X164672Y69991D01*
X164615Y70073D01*
X164555Y70152D01*
X164491Y70230D01*
X164425Y70304D01*
X164356Y70376D01*
X164284Y70445D01*
X164210Y70511D01*
X164132Y70575D01*
X164053Y70635D01*
X163971Y70692D01*
X163887Y70746D01*
X163801Y70796D01*
X163713Y70843D01*
X163623Y70887D01*
X163532Y70927D01*
X163439Y70963D01*
X163345Y70996D01*
X163249Y71025D01*
X163153Y71050D01*
X163056Y71071D01*
X162957Y71089D01*
X162859Y71102D01*
X162759Y71112D01*
X162660Y71118D01*
X162560Y71120D01*
X101600Y68580D02*
X101600Y50800D01*
X104140Y71120D02*
X107950Y71120D01*
X109220Y69850D01*
X107950Y48260D02*
X104140Y48260D01*
X107950Y48260D02*
X109220Y49530D01*
X157480Y69850D02*
X158750Y71120D01*
X157480Y69850D02*
X109220Y69850D01*
X157480Y49530D02*
X158750Y48260D01*
X157480Y49530D02*
X109220Y49530D01*
X158750Y71120D02*
X162560Y71120D01*
X162560Y48260D02*
X158750Y48260D01*
X165100Y50800D02*
X165100Y68580D01*
D17*
X169418Y59690D03*
X97282Y59690D03*
D18*
X140664Y59705D03*
X125932Y59705D03*
D14*
X103505Y75565D02*
X103505Y86995D01*
X106680Y86995D01*
X106791Y86993D01*
X106901Y86987D01*
X107012Y86978D01*
X107122Y86964D01*
X107231Y86947D01*
X107340Y86926D01*
X107448Y86901D01*
X107555Y86872D01*
X107661Y86840D01*
X107766Y86804D01*
X107869Y86764D01*
X107971Y86721D01*
X108072Y86674D01*
X108171Y86623D01*
X108268Y86570D01*
X108362Y86513D01*
X108455Y86452D01*
X108546Y86389D01*
X108635Y86322D01*
X108721Y86252D01*
X108804Y86179D01*
X108886Y86104D01*
X108964Y86026D01*
X109039Y85944D01*
X109112Y85861D01*
X109182Y85775D01*
X109249Y85686D01*
X109312Y85595D01*
X109373Y85502D01*
X109430Y85407D01*
X109483Y85311D01*
X109534Y85212D01*
X109581Y85111D01*
X109624Y85009D01*
X109664Y84906D01*
X109700Y84801D01*
X109732Y84695D01*
X109761Y84588D01*
X109786Y84480D01*
X109807Y84371D01*
X109824Y84262D01*
X109838Y84152D01*
X109847Y84041D01*
X109853Y83931D01*
X109855Y83820D01*
X109853Y83709D01*
X109847Y83599D01*
X109838Y83488D01*
X109824Y83378D01*
X109807Y83269D01*
X109786Y83160D01*
X109761Y83052D01*
X109732Y82945D01*
X109700Y82839D01*
X109664Y82734D01*
X109624Y82631D01*
X109581Y82529D01*
X109534Y82428D01*
X109483Y82329D01*
X109430Y82232D01*
X109373Y82138D01*
X109312Y82045D01*
X109249Y81954D01*
X109182Y81865D01*
X109112Y81779D01*
X109039Y81696D01*
X108964Y81614D01*
X108886Y81536D01*
X108804Y81461D01*
X108721Y81388D01*
X108635Y81318D01*
X108546Y81251D01*
X108455Y81188D01*
X108362Y81127D01*
X108267Y81070D01*
X108171Y81017D01*
X108072Y80966D01*
X107971Y80919D01*
X107869Y80876D01*
X107766Y80836D01*
X107661Y80800D01*
X107555Y80768D01*
X107448Y80739D01*
X107340Y80714D01*
X107231Y80693D01*
X107122Y80676D01*
X107012Y80662D01*
X106901Y80653D01*
X106791Y80647D01*
X106680Y80645D01*
X103505Y80645D01*
X107315Y80645D02*
X109855Y75565D01*
X114852Y84455D02*
X118027Y86995D01*
X118027Y75565D01*
X114852Y75565D02*
X121202Y75565D01*
D16*
X162560Y86360D02*
X162660Y86362D01*
X162759Y86368D01*
X162859Y86378D01*
X162957Y86391D01*
X163056Y86409D01*
X163153Y86430D01*
X163249Y86455D01*
X163345Y86484D01*
X163439Y86517D01*
X163532Y86553D01*
X163623Y86593D01*
X163713Y86637D01*
X163801Y86684D01*
X163887Y86734D01*
X163971Y86788D01*
X164053Y86845D01*
X164132Y86905D01*
X164210Y86969D01*
X164284Y87035D01*
X164356Y87104D01*
X164425Y87176D01*
X164491Y87250D01*
X164555Y87328D01*
X164615Y87407D01*
X164672Y87489D01*
X164726Y87573D01*
X164776Y87659D01*
X164823Y87747D01*
X164867Y87837D01*
X164907Y87928D01*
X164943Y88021D01*
X164976Y88115D01*
X165005Y88211D01*
X165030Y88307D01*
X165051Y88404D01*
X165069Y88503D01*
X165082Y88601D01*
X165092Y88701D01*
X165098Y88800D01*
X165100Y88900D01*
X165100Y106680D02*
X165098Y106780D01*
X165092Y106879D01*
X165082Y106979D01*
X165069Y107077D01*
X165051Y107176D01*
X165030Y107273D01*
X165005Y107369D01*
X164976Y107465D01*
X164943Y107559D01*
X164907Y107652D01*
X164867Y107743D01*
X164823Y107833D01*
X164776Y107921D01*
X164726Y108007D01*
X164672Y108091D01*
X164615Y108173D01*
X164555Y108252D01*
X164491Y108330D01*
X164425Y108404D01*
X164356Y108476D01*
X164284Y108545D01*
X164210Y108611D01*
X164132Y108675D01*
X164053Y108735D01*
X163971Y108792D01*
X163887Y108846D01*
X163801Y108896D01*
X163713Y108943D01*
X163623Y108987D01*
X163532Y109027D01*
X163439Y109063D01*
X163345Y109096D01*
X163249Y109125D01*
X163153Y109150D01*
X163056Y109171D01*
X162957Y109189D01*
X162859Y109202D01*
X162759Y109212D01*
X162660Y109218D01*
X162560Y109220D01*
X104140Y109220D02*
X104040Y109218D01*
X103941Y109212D01*
X103841Y109202D01*
X103743Y109189D01*
X103644Y109171D01*
X103547Y109150D01*
X103451Y109125D01*
X103355Y109096D01*
X103261Y109063D01*
X103168Y109027D01*
X103077Y108987D01*
X102987Y108943D01*
X102899Y108896D01*
X102813Y108846D01*
X102729Y108792D01*
X102647Y108735D01*
X102568Y108675D01*
X102490Y108611D01*
X102416Y108545D01*
X102344Y108476D01*
X102275Y108404D01*
X102209Y108330D01*
X102145Y108252D01*
X102085Y108173D01*
X102028Y108091D01*
X101974Y108007D01*
X101924Y107921D01*
X101877Y107833D01*
X101833Y107743D01*
X101793Y107652D01*
X101757Y107559D01*
X101724Y107465D01*
X101695Y107369D01*
X101670Y107273D01*
X101649Y107176D01*
X101631Y107077D01*
X101618Y106979D01*
X101608Y106879D01*
X101602Y106780D01*
X101600Y106680D01*
X101600Y88900D02*
X101602Y88800D01*
X101608Y88701D01*
X101618Y88601D01*
X101631Y88503D01*
X101649Y88404D01*
X101670Y88307D01*
X101695Y88211D01*
X101724Y88115D01*
X101757Y88021D01*
X101793Y87928D01*
X101833Y87837D01*
X101877Y87747D01*
X101924Y87659D01*
X101974Y87573D01*
X102028Y87489D01*
X102085Y87407D01*
X102145Y87328D01*
X102209Y87250D01*
X102275Y87176D01*
X102344Y87104D01*
X102416Y87035D01*
X102490Y86969D01*
X102568Y86905D01*
X102647Y86845D01*
X102729Y86788D01*
X102813Y86734D01*
X102899Y86684D01*
X102987Y86637D01*
X103077Y86593D01*
X103168Y86553D01*
X103261Y86517D01*
X103355Y86484D01*
X103451Y86455D01*
X103547Y86430D01*
X103644Y86409D01*
X103743Y86391D01*
X103841Y86378D01*
X103941Y86368D01*
X104040Y86362D01*
X104140Y86360D01*
X165100Y88900D02*
X165100Y106680D01*
X162560Y86360D02*
X158750Y86360D01*
X157480Y87630D01*
X158750Y109220D02*
X162560Y109220D01*
X158750Y109220D02*
X157480Y107950D01*
X109220Y87630D02*
X107950Y86360D01*
X109220Y87630D02*
X157480Y87630D01*
X109220Y107950D02*
X107950Y109220D01*
X109220Y107950D02*
X157480Y107950D01*
X107950Y86360D02*
X104140Y86360D01*
X104140Y109220D02*
X107950Y109220D01*
X101600Y106680D02*
X101600Y88900D01*
D17*
X97282Y97790D03*
X169418Y97790D03*
D18*
X126036Y97775D03*
X140768Y97775D03*
D14*
X145498Y81915D02*
X145498Y70485D01*
X145498Y81915D02*
X148673Y81915D01*
X148784Y81913D01*
X148894Y81907D01*
X149005Y81898D01*
X149115Y81884D01*
X149224Y81867D01*
X149333Y81846D01*
X149441Y81821D01*
X149548Y81792D01*
X149654Y81760D01*
X149759Y81724D01*
X149862Y81684D01*
X149964Y81641D01*
X150065Y81594D01*
X150164Y81543D01*
X150261Y81490D01*
X150355Y81433D01*
X150448Y81372D01*
X150539Y81309D01*
X150628Y81242D01*
X150714Y81172D01*
X150797Y81099D01*
X150879Y81024D01*
X150957Y80946D01*
X151032Y80864D01*
X151105Y80781D01*
X151175Y80695D01*
X151242Y80606D01*
X151305Y80515D01*
X151366Y80422D01*
X151423Y80327D01*
X151476Y80231D01*
X151527Y80132D01*
X151574Y80031D01*
X151617Y79929D01*
X151657Y79826D01*
X151693Y79721D01*
X151725Y79615D01*
X151754Y79508D01*
X151779Y79400D01*
X151800Y79291D01*
X151817Y79182D01*
X151831Y79072D01*
X151840Y78961D01*
X151846Y78851D01*
X151848Y78740D01*
X151846Y78629D01*
X151840Y78519D01*
X151831Y78408D01*
X151817Y78298D01*
X151800Y78189D01*
X151779Y78080D01*
X151754Y77972D01*
X151725Y77865D01*
X151693Y77759D01*
X151657Y77654D01*
X151617Y77551D01*
X151574Y77449D01*
X151527Y77348D01*
X151476Y77249D01*
X151423Y77152D01*
X151366Y77058D01*
X151305Y76965D01*
X151242Y76874D01*
X151175Y76785D01*
X151105Y76699D01*
X151032Y76616D01*
X150957Y76534D01*
X150879Y76456D01*
X150797Y76381D01*
X150714Y76308D01*
X150628Y76238D01*
X150539Y76171D01*
X150448Y76108D01*
X150355Y76047D01*
X150260Y75990D01*
X150164Y75937D01*
X150065Y75886D01*
X149964Y75839D01*
X149862Y75796D01*
X149759Y75756D01*
X149654Y75720D01*
X149548Y75688D01*
X149441Y75659D01*
X149333Y75634D01*
X149224Y75613D01*
X149115Y75596D01*
X149005Y75582D01*
X148894Y75573D01*
X148784Y75567D01*
X148673Y75565D01*
X145498Y75565D01*
X149308Y75565D02*
X151848Y70485D01*
X163196Y79058D02*
X163194Y79162D01*
X163188Y79267D01*
X163179Y79371D01*
X163166Y79474D01*
X163148Y79577D01*
X163128Y79679D01*
X163103Y79781D01*
X163075Y79881D01*
X163043Y79981D01*
X163007Y80079D01*
X162968Y80176D01*
X162926Y80271D01*
X162880Y80365D01*
X162830Y80457D01*
X162778Y80547D01*
X162722Y80635D01*
X162662Y80721D01*
X162600Y80805D01*
X162535Y80886D01*
X162467Y80965D01*
X162395Y81042D01*
X162322Y81115D01*
X162245Y81187D01*
X162166Y81255D01*
X162085Y81320D01*
X162001Y81382D01*
X161915Y81442D01*
X161827Y81498D01*
X161737Y81550D01*
X161645Y81600D01*
X161551Y81646D01*
X161456Y81688D01*
X161359Y81727D01*
X161261Y81763D01*
X161161Y81795D01*
X161061Y81823D01*
X160959Y81848D01*
X160857Y81868D01*
X160754Y81886D01*
X160651Y81899D01*
X160547Y81908D01*
X160442Y81914D01*
X160338Y81916D01*
X160338Y81915D02*
X160220Y81913D01*
X160101Y81907D01*
X159983Y81898D01*
X159866Y81885D01*
X159749Y81867D01*
X159632Y81847D01*
X159516Y81822D01*
X159401Y81794D01*
X159288Y81761D01*
X159175Y81726D01*
X159063Y81686D01*
X158953Y81644D01*
X158844Y81597D01*
X158736Y81547D01*
X158631Y81494D01*
X158527Y81437D01*
X158425Y81377D01*
X158325Y81314D01*
X158227Y81247D01*
X158131Y81178D01*
X158038Y81105D01*
X157947Y81029D01*
X157858Y80951D01*
X157772Y80869D01*
X157689Y80785D01*
X157608Y80699D01*
X157531Y80609D01*
X157456Y80518D01*
X157384Y80424D01*
X157315Y80327D01*
X157250Y80229D01*
X157187Y80128D01*
X157128Y80025D01*
X157072Y79921D01*
X157020Y79815D01*
X156971Y79707D01*
X156926Y79598D01*
X156884Y79487D01*
X156846Y79375D01*
X162243Y76836D02*
X162319Y76911D01*
X162394Y76990D01*
X162465Y77071D01*
X162534Y77155D01*
X162599Y77241D01*
X162661Y77329D01*
X162721Y77419D01*
X162777Y77511D01*
X162830Y77606D01*
X162879Y77702D01*
X162925Y77800D01*
X162968Y77899D01*
X163007Y78000D01*
X163042Y78102D01*
X163074Y78205D01*
X163102Y78309D01*
X163127Y78414D01*
X163148Y78521D01*
X163165Y78627D01*
X163178Y78734D01*
X163187Y78842D01*
X163193Y78950D01*
X163195Y79058D01*
X162243Y76835D02*
X156845Y70485D01*
X163195Y70485D01*
D16*
X101600Y144780D02*
X101602Y144880D01*
X101608Y144979D01*
X101618Y145079D01*
X101631Y145177D01*
X101649Y145276D01*
X101670Y145373D01*
X101695Y145469D01*
X101724Y145565D01*
X101757Y145659D01*
X101793Y145752D01*
X101833Y145843D01*
X101877Y145933D01*
X101924Y146021D01*
X101974Y146107D01*
X102028Y146191D01*
X102085Y146273D01*
X102145Y146352D01*
X102209Y146430D01*
X102275Y146504D01*
X102344Y146576D01*
X102416Y146645D01*
X102490Y146711D01*
X102568Y146775D01*
X102647Y146835D01*
X102729Y146892D01*
X102813Y146946D01*
X102899Y146996D01*
X102987Y147043D01*
X103077Y147087D01*
X103168Y147127D01*
X103261Y147163D01*
X103355Y147196D01*
X103451Y147225D01*
X103547Y147250D01*
X103644Y147271D01*
X103743Y147289D01*
X103841Y147302D01*
X103941Y147312D01*
X104040Y147318D01*
X104140Y147320D01*
X101600Y127000D02*
X101602Y126900D01*
X101608Y126801D01*
X101618Y126701D01*
X101631Y126603D01*
X101649Y126504D01*
X101670Y126407D01*
X101695Y126311D01*
X101724Y126215D01*
X101757Y126121D01*
X101793Y126028D01*
X101833Y125937D01*
X101877Y125847D01*
X101924Y125759D01*
X101974Y125673D01*
X102028Y125589D01*
X102085Y125507D01*
X102145Y125428D01*
X102209Y125350D01*
X102275Y125276D01*
X102344Y125204D01*
X102416Y125135D01*
X102490Y125069D01*
X102568Y125005D01*
X102647Y124945D01*
X102729Y124888D01*
X102813Y124834D01*
X102899Y124784D01*
X102987Y124737D01*
X103077Y124693D01*
X103168Y124653D01*
X103261Y124617D01*
X103355Y124584D01*
X103451Y124555D01*
X103547Y124530D01*
X103644Y124509D01*
X103743Y124491D01*
X103841Y124478D01*
X103941Y124468D01*
X104040Y124462D01*
X104140Y124460D01*
X162560Y124460D02*
X162660Y124462D01*
X162759Y124468D01*
X162859Y124478D01*
X162957Y124491D01*
X163056Y124509D01*
X163153Y124530D01*
X163249Y124555D01*
X163345Y124584D01*
X163439Y124617D01*
X163532Y124653D01*
X163623Y124693D01*
X163713Y124737D01*
X163801Y124784D01*
X163887Y124834D01*
X163971Y124888D01*
X164053Y124945D01*
X164132Y125005D01*
X164210Y125069D01*
X164284Y125135D01*
X164356Y125204D01*
X164425Y125276D01*
X164491Y125350D01*
X164555Y125428D01*
X164615Y125507D01*
X164672Y125589D01*
X164726Y125673D01*
X164776Y125759D01*
X164823Y125847D01*
X164867Y125937D01*
X164907Y126028D01*
X164943Y126121D01*
X164976Y126215D01*
X165005Y126311D01*
X165030Y126407D01*
X165051Y126504D01*
X165069Y126603D01*
X165082Y126701D01*
X165092Y126801D01*
X165098Y126900D01*
X165100Y127000D01*
X165100Y144780D02*
X165098Y144880D01*
X165092Y144979D01*
X165082Y145079D01*
X165069Y145177D01*
X165051Y145276D01*
X165030Y145373D01*
X165005Y145469D01*
X164976Y145565D01*
X164943Y145659D01*
X164907Y145752D01*
X164867Y145843D01*
X164823Y145933D01*
X164776Y146021D01*
X164726Y146107D01*
X164672Y146191D01*
X164615Y146273D01*
X164555Y146352D01*
X164491Y146430D01*
X164425Y146504D01*
X164356Y146576D01*
X164284Y146645D01*
X164210Y146711D01*
X164132Y146775D01*
X164053Y146835D01*
X163971Y146892D01*
X163887Y146946D01*
X163801Y146996D01*
X163713Y147043D01*
X163623Y147087D01*
X163532Y147127D01*
X163439Y147163D01*
X163345Y147196D01*
X163249Y147225D01*
X163153Y147250D01*
X163056Y147271D01*
X162957Y147289D01*
X162859Y147302D01*
X162759Y147312D01*
X162660Y147318D01*
X162560Y147320D01*
X101600Y144780D02*
X101600Y127000D01*
X104140Y147320D02*
X107950Y147320D01*
X109220Y146050D01*
X107950Y124460D02*
X104140Y124460D01*
X107950Y124460D02*
X109220Y125730D01*
X157480Y146050D02*
X158750Y147320D01*
X157480Y146050D02*
X109220Y146050D01*
X157480Y125730D02*
X158750Y124460D01*
X157480Y125730D02*
X109220Y125730D01*
X158750Y147320D02*
X162560Y147320D01*
X162560Y124460D02*
X158750Y124460D01*
X165100Y127000D02*
X165100Y144780D01*
D17*
X169418Y135890D03*
X97282Y135890D03*
D18*
X140664Y135905D03*
X125932Y135905D03*
D14*
X103505Y151765D02*
X103505Y163195D01*
X106680Y163195D01*
X106791Y163193D01*
X106901Y163187D01*
X107012Y163178D01*
X107122Y163164D01*
X107231Y163147D01*
X107340Y163126D01*
X107448Y163101D01*
X107555Y163072D01*
X107661Y163040D01*
X107766Y163004D01*
X107869Y162964D01*
X107971Y162921D01*
X108072Y162874D01*
X108171Y162823D01*
X108268Y162770D01*
X108362Y162713D01*
X108455Y162652D01*
X108546Y162589D01*
X108635Y162522D01*
X108721Y162452D01*
X108804Y162379D01*
X108886Y162304D01*
X108964Y162226D01*
X109039Y162144D01*
X109112Y162061D01*
X109182Y161975D01*
X109249Y161886D01*
X109312Y161795D01*
X109373Y161702D01*
X109430Y161607D01*
X109483Y161511D01*
X109534Y161412D01*
X109581Y161311D01*
X109624Y161209D01*
X109664Y161106D01*
X109700Y161001D01*
X109732Y160895D01*
X109761Y160788D01*
X109786Y160680D01*
X109807Y160571D01*
X109824Y160462D01*
X109838Y160352D01*
X109847Y160241D01*
X109853Y160131D01*
X109855Y160020D01*
X109853Y159909D01*
X109847Y159799D01*
X109838Y159688D01*
X109824Y159578D01*
X109807Y159469D01*
X109786Y159360D01*
X109761Y159252D01*
X109732Y159145D01*
X109700Y159039D01*
X109664Y158934D01*
X109624Y158831D01*
X109581Y158729D01*
X109534Y158628D01*
X109483Y158529D01*
X109430Y158432D01*
X109373Y158338D01*
X109312Y158245D01*
X109249Y158154D01*
X109182Y158065D01*
X109112Y157979D01*
X109039Y157896D01*
X108964Y157814D01*
X108886Y157736D01*
X108804Y157661D01*
X108721Y157588D01*
X108635Y157518D01*
X108546Y157451D01*
X108455Y157388D01*
X108362Y157327D01*
X108267Y157270D01*
X108171Y157217D01*
X108072Y157166D01*
X107971Y157119D01*
X107869Y157076D01*
X107766Y157036D01*
X107661Y157000D01*
X107555Y156968D01*
X107448Y156939D01*
X107340Y156914D01*
X107231Y156893D01*
X107122Y156876D01*
X107012Y156862D01*
X106901Y156853D01*
X106791Y156847D01*
X106680Y156845D01*
X103505Y156845D01*
X107315Y156845D02*
X109855Y151765D01*
X114852Y154940D02*
X114852Y160020D01*
X114854Y160131D01*
X114860Y160241D01*
X114869Y160352D01*
X114883Y160462D01*
X114900Y160571D01*
X114921Y160680D01*
X114946Y160788D01*
X114975Y160895D01*
X115007Y161001D01*
X115043Y161106D01*
X115083Y161209D01*
X115126Y161311D01*
X115173Y161412D01*
X115224Y161511D01*
X115277Y161608D01*
X115334Y161702D01*
X115395Y161795D01*
X115458Y161886D01*
X115525Y161975D01*
X115595Y162061D01*
X115668Y162144D01*
X115743Y162226D01*
X115821Y162304D01*
X115903Y162379D01*
X115986Y162452D01*
X116072Y162522D01*
X116161Y162589D01*
X116252Y162652D01*
X116345Y162713D01*
X116440Y162770D01*
X116536Y162823D01*
X116635Y162874D01*
X116736Y162921D01*
X116838Y162964D01*
X116941Y163004D01*
X117046Y163040D01*
X117152Y163072D01*
X117259Y163101D01*
X117367Y163126D01*
X117476Y163147D01*
X117585Y163164D01*
X117695Y163178D01*
X117806Y163187D01*
X117916Y163193D01*
X118027Y163195D01*
X118138Y163193D01*
X118248Y163187D01*
X118359Y163178D01*
X118469Y163164D01*
X118578Y163147D01*
X118687Y163126D01*
X118795Y163101D01*
X118902Y163072D01*
X119008Y163040D01*
X119113Y163004D01*
X119216Y162964D01*
X119318Y162921D01*
X119419Y162874D01*
X119518Y162823D01*
X119615Y162770D01*
X119709Y162713D01*
X119802Y162652D01*
X119893Y162589D01*
X119982Y162522D01*
X120068Y162452D01*
X120151Y162379D01*
X120233Y162304D01*
X120311Y162226D01*
X120386Y162144D01*
X120459Y162061D01*
X120529Y161975D01*
X120596Y161886D01*
X120659Y161795D01*
X120720Y161702D01*
X120777Y161608D01*
X120830Y161511D01*
X120881Y161412D01*
X120928Y161311D01*
X120971Y161209D01*
X121011Y161106D01*
X121047Y161001D01*
X121079Y160895D01*
X121108Y160788D01*
X121133Y160680D01*
X121154Y160571D01*
X121171Y160462D01*
X121185Y160352D01*
X121194Y160241D01*
X121200Y160131D01*
X121202Y160020D01*
X121202Y154940D01*
X121200Y154829D01*
X121194Y154719D01*
X121185Y154608D01*
X121171Y154498D01*
X121154Y154389D01*
X121133Y154280D01*
X121108Y154172D01*
X121079Y154065D01*
X121047Y153959D01*
X121011Y153854D01*
X120971Y153751D01*
X120928Y153649D01*
X120881Y153548D01*
X120830Y153449D01*
X120777Y153352D01*
X120720Y153258D01*
X120659Y153165D01*
X120596Y153074D01*
X120529Y152985D01*
X120459Y152899D01*
X120386Y152816D01*
X120311Y152734D01*
X120233Y152656D01*
X120151Y152581D01*
X120068Y152508D01*
X119982Y152438D01*
X119893Y152371D01*
X119802Y152308D01*
X119709Y152247D01*
X119614Y152190D01*
X119518Y152137D01*
X119419Y152086D01*
X119318Y152039D01*
X119216Y151996D01*
X119113Y151956D01*
X119008Y151920D01*
X118902Y151888D01*
X118795Y151859D01*
X118687Y151834D01*
X118578Y151813D01*
X118469Y151796D01*
X118359Y151782D01*
X118248Y151773D01*
X118138Y151767D01*
X118027Y151765D01*
X117916Y151767D01*
X117806Y151773D01*
X117695Y151782D01*
X117585Y151796D01*
X117476Y151813D01*
X117367Y151834D01*
X117259Y151859D01*
X117152Y151888D01*
X117046Y151920D01*
X116941Y151956D01*
X116838Y151996D01*
X116736Y152039D01*
X116635Y152086D01*
X116536Y152137D01*
X116440Y152190D01*
X116345Y152247D01*
X116252Y152308D01*
X116161Y152371D01*
X116072Y152438D01*
X115986Y152508D01*
X115903Y152581D01*
X115821Y152656D01*
X115743Y152734D01*
X115668Y152816D01*
X115595Y152899D01*
X115525Y152985D01*
X115458Y153074D01*
X115395Y153165D01*
X115334Y153258D01*
X115277Y153353D01*
X115224Y153449D01*
X115173Y153548D01*
X115126Y153649D01*
X115083Y153751D01*
X115043Y153854D01*
X115007Y153959D01*
X114975Y154065D01*
X114946Y154172D01*
X114921Y154280D01*
X114900Y154389D01*
X114883Y154498D01*
X114869Y154608D01*
X114860Y154719D01*
X114854Y154829D01*
X114852Y154940D01*
X126663Y151765D02*
X126663Y163195D01*
X133013Y151765D01*
X133013Y163195D01*
D16*
X174752Y212598D02*
X218948Y212598D01*
X218948Y262382D02*
X199898Y262382D01*
X193802Y262382D01*
X174752Y262382D01*
D19*
X157988Y258826D02*
X157908Y258866D01*
X157828Y258901D01*
X157745Y258933D01*
X157661Y258961D01*
X157576Y258986D01*
X157490Y259007D01*
X157404Y259024D01*
X157316Y259037D01*
X157228Y259046D01*
X157140Y259051D01*
X157052Y259053D01*
X156963Y259051D01*
X156875Y259044D01*
X156787Y259034D01*
X156700Y259020D01*
X156613Y259002D01*
X156528Y258980D01*
X156443Y258955D01*
X156359Y258926D01*
X156277Y258893D01*
X156197Y258857D01*
X156118Y258817D01*
X156041Y258773D01*
X155966Y258727D01*
X155893Y258677D01*
X155822Y258624D01*
X155754Y258567D01*
X155688Y258508D01*
X155625Y258446D01*
X155565Y258382D01*
X155507Y258314D01*
X155453Y258245D01*
X155402Y258172D01*
X155354Y258098D01*
X155309Y258022D01*
X155268Y257944D01*
X155230Y257864D01*
X155196Y257782D01*
X155166Y257699D01*
X155139Y257615D01*
X155116Y257530D01*
X155096Y257443D01*
X155081Y257356D01*
X155069Y257269D01*
X155061Y257181D01*
X155057Y257092D01*
X155057Y257004D01*
X155061Y256915D01*
X155069Y256827D01*
X155081Y256740D01*
X155096Y256653D01*
X155116Y256566D01*
X155139Y256481D01*
X155166Y256397D01*
X155196Y256314D01*
X155230Y256232D01*
X155268Y256152D01*
X155309Y256074D01*
X155354Y255998D01*
X155402Y255924D01*
X155453Y255851D01*
X155507Y255782D01*
X155565Y255714D01*
X155625Y255650D01*
X155688Y255588D01*
X155754Y255529D01*
X155822Y255472D01*
X155893Y255419D01*
X155966Y255369D01*
X156041Y255323D01*
X156118Y255279D01*
X156197Y255239D01*
X156277Y255203D01*
X156359Y255170D01*
X156443Y255141D01*
X156528Y255116D01*
X156613Y255094D01*
X156700Y255076D01*
X156787Y255062D01*
X156875Y255052D01*
X156963Y255045D01*
X157052Y255043D01*
X157140Y255045D01*
X157228Y255050D01*
X157316Y255059D01*
X157404Y255072D01*
X157490Y255089D01*
X157576Y255110D01*
X157661Y255135D01*
X157745Y255163D01*
X157828Y255195D01*
X157908Y255230D01*
X157988Y255270D01*
X193802Y262382D02*
X193804Y262273D01*
X193810Y262165D01*
X193819Y262056D01*
X193833Y261948D01*
X193850Y261841D01*
X193872Y261734D01*
X193897Y261628D01*
X193925Y261523D01*
X193958Y261419D01*
X193994Y261317D01*
X194034Y261216D01*
X194077Y261116D01*
X194124Y261018D01*
X194175Y260921D01*
X194229Y260827D01*
X194286Y260734D01*
X194346Y260644D01*
X194410Y260555D01*
X194477Y260469D01*
X194546Y260386D01*
X194619Y260305D01*
X194695Y260227D01*
X194773Y260151D01*
X194854Y260078D01*
X194937Y260009D01*
X195023Y259942D01*
X195112Y259878D01*
X195202Y259818D01*
X195295Y259761D01*
X195389Y259707D01*
X195486Y259656D01*
X195584Y259609D01*
X195684Y259566D01*
X195785Y259526D01*
X195887Y259490D01*
X195991Y259457D01*
X196096Y259429D01*
X196202Y259404D01*
X196309Y259382D01*
X196416Y259365D01*
X196524Y259351D01*
X196633Y259342D01*
X196741Y259336D01*
X196850Y259334D01*
X196959Y259336D01*
X197067Y259342D01*
X197176Y259351D01*
X197284Y259365D01*
X197391Y259382D01*
X197498Y259404D01*
X197604Y259429D01*
X197709Y259457D01*
X197813Y259490D01*
X197915Y259526D01*
X198016Y259566D01*
X198116Y259609D01*
X198214Y259656D01*
X198311Y259707D01*
X198405Y259761D01*
X198498Y259818D01*
X198588Y259878D01*
X198677Y259942D01*
X198763Y260009D01*
X198846Y260078D01*
X198927Y260151D01*
X199005Y260227D01*
X199081Y260305D01*
X199154Y260386D01*
X199223Y260469D01*
X199290Y260555D01*
X199354Y260644D01*
X199414Y260734D01*
X199471Y260827D01*
X199525Y260921D01*
X199576Y261018D01*
X199623Y261116D01*
X199666Y261216D01*
X199706Y261317D01*
X199742Y261419D01*
X199775Y261523D01*
X199803Y261628D01*
X199828Y261734D01*
X199850Y261841D01*
X199867Y261948D01*
X199881Y262056D01*
X199890Y262165D01*
X199896Y262273D01*
X199898Y262382D01*
D15*
X150549Y272228D02*
X150549Y285826D01*
X150549Y272228D02*
X150551Y272085D01*
X150557Y271942D01*
X150567Y271800D01*
X150580Y271658D01*
X150598Y271516D01*
X150619Y271375D01*
X150644Y271234D01*
X150673Y271094D01*
X150706Y270955D01*
X150743Y270817D01*
X150783Y270680D01*
X150828Y270544D01*
X150875Y270409D01*
X150927Y270276D01*
X150982Y270144D01*
X151041Y270014D01*
X151103Y269886D01*
X151169Y269759D01*
X151238Y269634D01*
X151310Y269511D01*
X151386Y269390D01*
X151465Y269271D01*
X151548Y269154D01*
X151633Y269039D01*
X151722Y268927D01*
X151814Y268818D01*
X151908Y268711D01*
X152006Y268606D01*
X152106Y268505D01*
X152209Y268406D01*
X152315Y268310D01*
X152423Y268216D01*
X152534Y268126D01*
X152647Y268039D01*
X152763Y267955D01*
X152881Y267874D01*
X153001Y267797D01*
X153123Y267723D01*
X153247Y267652D01*
X153373Y267584D01*
X153501Y267520D01*
X153630Y267460D01*
X153761Y267403D01*
X153894Y267350D01*
X154028Y267300D01*
X154163Y267254D01*
X154299Y267212D01*
X154437Y267173D01*
X154575Y267138D01*
X154715Y267107D01*
X154855Y267080D01*
X154996Y267057D01*
X155138Y267037D01*
X155280Y267022D01*
X155422Y267010D01*
X155565Y267002D01*
X155708Y266998D01*
X155850Y266998D01*
X155993Y267002D01*
X156136Y267010D01*
X156278Y267022D01*
X156420Y267037D01*
X156562Y267057D01*
X156703Y267080D01*
X156843Y267107D01*
X156983Y267138D01*
X157121Y267173D01*
X157259Y267212D01*
X157395Y267254D01*
X157530Y267300D01*
X157664Y267350D01*
X157797Y267403D01*
X157928Y267460D01*
X158057Y267520D01*
X158185Y267584D01*
X158311Y267652D01*
X158435Y267723D01*
X158557Y267797D01*
X158677Y267874D01*
X158795Y267955D01*
X158911Y268039D01*
X159024Y268126D01*
X159135Y268216D01*
X159243Y268310D01*
X159349Y268406D01*
X159452Y268505D01*
X159552Y268606D01*
X159650Y268711D01*
X159744Y268818D01*
X159836Y268927D01*
X159925Y269039D01*
X160010Y269154D01*
X160093Y269271D01*
X160172Y269390D01*
X160248Y269511D01*
X160320Y269634D01*
X160389Y269759D01*
X160455Y269886D01*
X160517Y270014D01*
X160576Y270144D01*
X160631Y270276D01*
X160683Y270409D01*
X160730Y270544D01*
X160775Y270680D01*
X160815Y270817D01*
X160852Y270955D01*
X160885Y271094D01*
X160914Y271234D01*
X160939Y271375D01*
X160960Y271516D01*
X160978Y271658D01*
X160991Y271800D01*
X161001Y271942D01*
X161007Y272085D01*
X161009Y272228D01*
X161009Y285826D01*
X169002Y281642D02*
X174232Y285826D01*
X174232Y266998D01*
X169002Y266998D02*
X179462Y266998D01*
M02*
