G04 EAGLE Gerber RS-274X export*
G75*
%MOMM*%
%FSLAX34Y34*%
%LPD*%
%INSoldermask Top*%
%IPPOS*%
%AMOC8*
5,1,8,0,0,1.08239X$1,22.5*%
G01*
%ADD10R,1.803200X2.903200*%
%ADD11R,2.003200X1.803200*%
%ADD12R,1.503200X1.103200*%
%ADD13R,2.103200X3.603200*%
%ADD14C,1.016000*%
%ADD15C,1.411200*%
%ADD16P,2.034460X8X22.500000*%
%ADD17R,1.400000X1.600000*%
%ADD18P,2.034460X8X202.500000*%
%ADD19R,1.625600X0.558800*%
%ADD20R,3.200400X3.302000*%
%ADD21C,0.959600*%


D10*
X251430Y152400D03*
X279430Y152400D03*
X252700Y97790D03*
X280700Y97790D03*
D11*
X38100Y147290D03*
X38100Y175290D03*
D12*
X212090Y107340D03*
X212090Y126340D03*
D10*
X342930Y59690D03*
X314930Y59690D03*
D13*
X368750Y123190D03*
X329750Y123190D03*
X368750Y186690D03*
X329750Y186690D03*
X368750Y250190D03*
X329750Y250190D03*
D14*
X38100Y20320D03*
X38100Y121920D03*
D15*
X89210Y262490D02*
X101290Y262490D01*
X101290Y212490D02*
X89210Y212490D01*
D16*
X82550Y59690D03*
X184150Y59690D03*
D17*
X123096Y59690D03*
X143604Y59690D03*
D18*
X184150Y97790D03*
X82550Y97790D03*
D17*
X143604Y97790D03*
X123096Y97790D03*
D16*
X82550Y135890D03*
X184150Y135890D03*
D17*
X123096Y135890D03*
X143604Y135890D03*
D19*
X168402Y257048D03*
X168402Y250444D03*
X168402Y244094D03*
X168402Y237490D03*
X168402Y230886D03*
X168402Y224536D03*
X168402Y217932D03*
X225298Y217932D03*
X225298Y224536D03*
X225298Y230886D03*
X225298Y237490D03*
X225298Y244094D03*
X225298Y250444D03*
X225298Y257048D03*
D20*
X196850Y237490D03*
D21*
X260350Y212090D03*
X238760Y214630D03*
X367030Y60960D03*
X259080Y185420D03*
X247650Y271780D03*
X302260Y185420D03*
M02*
