M48
;GenerationSoftware,Autodesk,EAGLE,9.2.2*%
;CreationDate,2019-04-09T09:00:38Z*%
FMAT,2
ICI,OFF
METRIC,TZ,000.000
T2C1.016
%
G90
M71
T2
X4262Y18357
X35670Y5240
X35670Y7780
X35670Y10320
X35670Y12860
X35670Y15400
X35670Y17940
X35670Y20480
X35670Y23020
X4262Y23437
X4262Y20897
X18330Y29980
X4262Y15817
X4262Y13277
X4262Y10737
X4262Y8197
X4262Y5657
X17240Y4020
X19780Y4020
X22320Y4020
X20870Y29980
M30