G04 EAGLE Gerber RS-274X export*
G75*
%MOMM*%
%FSLAX34Y34*%
%LPD*%
%INBottom Copper*%
%IPPOS*%
%AMOC8*
5,1,8,0,0,1.08239X$1,22.5*%
G01*
%ADD10C,1.879600*%
%ADD11R,4.100000X1.250000*%
%ADD12C,2.032000*%
%ADD13C,1.705100*%
%ADD14C,1.981200*%
%ADD15C,1.800000*%
%ADD16R,2.032000X2.032000*%
%ADD17C,0.200000*%
%ADD18C,0.756400*%
%ADD19C,0.400000*%
%ADD20C,1.500000*%
%ADD21C,0.508000*%
%ADD22C,0.906400*%
%ADD23C,0.406400*%


D10*
X1119120Y-235770D03*
X1093720Y-235770D03*
X1144520Y-388170D03*
X1119120Y-388170D03*
X1093720Y-388170D03*
X916300Y-326100D03*
X916300Y-351500D03*
X713100Y-300700D03*
X713100Y-326100D03*
X713100Y-351500D03*
X713100Y-376900D03*
X1333500Y-374200D03*
X1333500Y-348800D03*
X1333500Y-171000D03*
X1333500Y-196400D03*
X1333500Y-221800D03*
X1333500Y-247200D03*
X1333500Y-272600D03*
X1333500Y-298000D03*
X1333500Y-323400D03*
D11*
X1697990Y-258440D03*
X1697990Y-202940D03*
D10*
X1195500Y30500D03*
X1170100Y30500D03*
X1144700Y30500D03*
X1119300Y30500D03*
X886600Y371150D03*
X886600Y396550D03*
X827500Y301500D03*
X802100Y301500D03*
D12*
X1273600Y175200D03*
X1273600Y99000D03*
X1231700Y99000D03*
X1231700Y175200D03*
X1144700Y68600D03*
X1144700Y144800D03*
X1291350Y-17450D03*
X1215150Y-17450D03*
X852500Y-33200D03*
X928700Y-33200D03*
D13*
X852500Y11700D03*
X852500Y37100D03*
X852500Y62500D03*
X852500Y87900D03*
X852500Y113300D03*
X852500Y138700D03*
X852500Y164100D03*
X852500Y189500D03*
X852500Y214900D03*
X852500Y240300D03*
X776300Y240300D03*
X776300Y214900D03*
X776300Y189500D03*
X776300Y164100D03*
X776300Y138700D03*
X776300Y113300D03*
X776300Y87900D03*
X776300Y62500D03*
X776300Y37100D03*
X776300Y11700D03*
D10*
X2008300Y-125200D03*
X2033700Y-125200D03*
X2048200Y-384800D03*
X2022800Y-384800D03*
X1997400Y-384800D03*
X1867620Y-368430D03*
X1867620Y-343030D03*
X1867620Y-317630D03*
X1867620Y-292230D03*
X1867620Y-266830D03*
X1867620Y-241430D03*
X1867620Y-216030D03*
X1867620Y-190630D03*
X2181700Y-194800D03*
X2181700Y-220200D03*
X2181700Y-245600D03*
X2181700Y-271000D03*
X2181700Y-296400D03*
X2181700Y-321800D03*
X2181700Y-347200D03*
X2181700Y-372600D03*
D14*
X2112700Y238600D03*
X2112700Y137000D03*
X2061900Y276700D03*
X2061900Y175100D03*
X2061900Y314800D03*
X2061900Y416400D03*
X2112700Y352900D03*
X2112700Y454500D03*
X2011100Y137000D03*
X2011100Y238600D03*
X1960300Y175100D03*
X1960300Y276700D03*
X1960300Y416400D03*
X1960300Y314800D03*
X2011100Y454500D03*
X2011100Y352900D03*
D15*
X1766100Y264000D02*
X1748100Y264000D01*
X1798900Y276700D02*
X1816900Y276700D01*
X1766100Y289400D02*
X1748100Y289400D01*
X1798900Y302100D02*
X1816900Y302100D01*
X1766100Y314800D02*
X1748100Y314800D01*
X1798900Y327500D02*
X1816900Y327500D01*
X1816900Y251300D02*
X1798900Y251300D01*
X1766100Y238600D02*
X1748100Y238600D01*
X1798900Y225900D02*
X1816900Y225900D01*
X1766100Y213200D02*
X1748100Y213200D01*
X1798900Y200500D02*
X1816900Y200500D01*
X1766100Y340200D02*
X1748100Y340200D01*
X1798900Y352900D02*
X1816900Y352900D01*
X1766100Y187800D02*
X1748100Y187800D01*
X1798900Y175100D02*
X1816900Y175100D01*
D10*
X1607100Y118100D03*
X1581700Y118100D03*
X1556300Y118100D03*
D16*
X2188900Y238600D03*
D12*
X2188900Y273600D03*
D16*
X2188900Y314800D03*
D12*
X2188900Y349800D03*
D10*
X1895000Y300000D03*
X1895000Y274600D03*
X1700000Y415000D03*
X1674600Y415000D03*
X1649200Y415000D03*
D17*
X916300Y-326100D02*
X911220Y-331180D01*
D18*
X1050000Y181000D03*
D17*
X1078000Y181000D01*
D18*
X1078000Y181000D03*
X930000Y235000D03*
X984200Y180800D03*
D19*
X930000Y235000D01*
D20*
X2040000Y455000D03*
X2040310Y137000D03*
D21*
X2040000Y137310D01*
X2040000Y455000D01*
D20*
X1670000Y155000D03*
D21*
X1670000Y262730D01*
D22*
X1590000Y315000D03*
D17*
X1480000Y315000D01*
D22*
X1480000Y315000D03*
X1533580Y150970D03*
D17*
X1665970Y150970D01*
X1670000Y155000D01*
D20*
X1670000Y262730D03*
D18*
X1136900Y-313240D03*
X1111500Y-313240D03*
D17*
X1136900Y-313240D01*
X1136900Y-348800D01*
X1124200Y-361500D01*
D18*
X1124200Y-361500D03*
X761106Y-331688D03*
D17*
X780410Y-350992D01*
X816732Y-350992D01*
D18*
X816732Y-350992D03*
X786760Y-313146D03*
D17*
X804286Y-313146D01*
X816859Y-325719D01*
X816859Y-350865D01*
X816732Y-350992D01*
X985000Y220000D02*
X1080000Y315000D01*
X1080000Y370000D01*
D18*
X1080000Y370000D03*
X985000Y220000D03*
D20*
X1595000Y220000D03*
X1650000Y275000D03*
D21*
X1595000Y220000D01*
D18*
X975000Y360000D03*
D19*
X975000Y393750D01*
D18*
X975000Y393750D03*
X886000Y12000D03*
D19*
X886000Y216000D01*
X950000Y280000D01*
X975000Y280000D01*
D18*
X975000Y280000D03*
X902000Y37000D03*
D17*
X986000Y37000D01*
X1192500Y243500D01*
D18*
X1192500Y243500D03*
X890000Y250000D03*
D17*
X1040000Y400000D01*
X1130000Y400000D01*
X1174000Y356000D02*
X1174000Y288500D01*
D18*
X1174000Y288500D03*
D17*
X1174000Y356000D02*
X1130000Y400000D01*
D20*
X2170000Y455000D03*
D23*
X2170000Y135880D02*
X2169850Y135730D01*
D20*
X2169850Y135730D03*
D21*
X2170000Y135880D02*
X2170000Y455000D01*
D18*
X620000Y580000D03*
M02*
