G04 EAGLE Gerber RS-274X export*
G75*
%MOMM*%
%FSLAX34Y34*%
%LPD*%
%INSoldermask Top*%
%IPPOS*%
%AMOC8*
5,1,8,0,0,1.08239X$1,22.5*%
G01*
%ADD10C,2.082800*%
%ADD11R,1.253200X1.103200*%
%ADD12R,0.453200X0.478200*%
%ADD13R,0.478200X0.453200*%
%ADD14R,1.103200X1.253200*%
%ADD15R,0.943200X0.442200*%
%ADD16C,0.442200*%
%ADD17R,1.878200X1.878200*%
%ADD18R,4.303200X1.453200*%
%ADD19R,4.303200X1.103200*%
%ADD20R,2.003200X1.003200*%
%ADD21R,1.603200X1.203200*%
%ADD22R,1.050000X0.950000*%
%ADD23R,1.203200X1.603200*%
%ADD24R,1.193800X0.508000*%
%ADD25R,1.203200X1.453200*%
%ADD26R,1.453200X1.203200*%
%ADD27C,1.908300*%
%ADD28R,1.600200X0.635000*%
%ADD29R,1.672400X0.604700*%
%ADD30C,2.184400*%
%ADD31C,2.003200*%
%ADD32R,2.235200X2.235200*%
%ADD33C,2.235200*%
%ADD34R,1.003200X1.053200*%
%ADD35R,1.203200X0.503200*%
%ADD36C,0.959600*%
%ADD37C,1.703200*%
%ADD38C,1.109600*%

G36*
X1065356Y199713D02*
X1065356Y199713D01*
X1065413Y199723D01*
X1065427Y199734D01*
X1065435Y199736D01*
X1065444Y199746D01*
X1065479Y199771D01*
X1068729Y203021D01*
X1068757Y203072D01*
X1068790Y203120D01*
X1068793Y203137D01*
X1068797Y203144D01*
X1068796Y203157D01*
X1068803Y203200D01*
X1068803Y208950D01*
X1068799Y208965D01*
X1068801Y208981D01*
X1068780Y209032D01*
X1068764Y209085D01*
X1068752Y209096D01*
X1068746Y209110D01*
X1068700Y209142D01*
X1068659Y209179D01*
X1068643Y209181D01*
X1068630Y209190D01*
X1068550Y209203D01*
X1058550Y209203D01*
X1058535Y209199D01*
X1058519Y209201D01*
X1058468Y209180D01*
X1058415Y209164D01*
X1058404Y209152D01*
X1058390Y209146D01*
X1058358Y209100D01*
X1058321Y209059D01*
X1058319Y209043D01*
X1058310Y209030D01*
X1058297Y208950D01*
X1058297Y199950D01*
X1058301Y199935D01*
X1058299Y199919D01*
X1058320Y199868D01*
X1058336Y199815D01*
X1058348Y199804D01*
X1058354Y199790D01*
X1058400Y199758D01*
X1058441Y199721D01*
X1058457Y199719D01*
X1058470Y199710D01*
X1058550Y199697D01*
X1065300Y199697D01*
X1065356Y199713D01*
G37*
G36*
X1231822Y170204D02*
X1231822Y170204D01*
X1231913Y170203D01*
X1232877Y170334D01*
X1232925Y170350D01*
X1233014Y170369D01*
X1233925Y170711D01*
X1233968Y170737D01*
X1234052Y170776D01*
X1234863Y171313D01*
X1234899Y171348D01*
X1234972Y171404D01*
X1235644Y172108D01*
X1235672Y172150D01*
X1235730Y172221D01*
X1236228Y173057D01*
X1236229Y173060D01*
X1236231Y173062D01*
X1236237Y173081D01*
X1236246Y173104D01*
X1236286Y173186D01*
X1236586Y174112D01*
X1236593Y174162D01*
X1236615Y174251D01*
X1236701Y175220D01*
X1236697Y175267D01*
X1236700Y175342D01*
X1236598Y176318D01*
X1236584Y176366D01*
X1236568Y176456D01*
X1236252Y177385D01*
X1236228Y177429D01*
X1236191Y177514D01*
X1235677Y178349D01*
X1235643Y178386D01*
X1235589Y178461D01*
X1234901Y179161D01*
X1234860Y179190D01*
X1234791Y179250D01*
X1233964Y179779D01*
X1233918Y179798D01*
X1233837Y179842D01*
X1232914Y180174D01*
X1232864Y180182D01*
X1232775Y180207D01*
X1231801Y180325D01*
X1231751Y180322D01*
X1231665Y180326D01*
X1230663Y180231D01*
X1230614Y180217D01*
X1230524Y180201D01*
X1229568Y179885D01*
X1229523Y179861D01*
X1229439Y179826D01*
X1228578Y179304D01*
X1228540Y179271D01*
X1228465Y179218D01*
X1227741Y178518D01*
X1227712Y178477D01*
X1227651Y178408D01*
X1227101Y177565D01*
X1227081Y177519D01*
X1227037Y177438D01*
X1226689Y176494D01*
X1226680Y176444D01*
X1226655Y176356D01*
X1226525Y175358D01*
X1226527Y175315D01*
X1226526Y175189D01*
X1226665Y174178D01*
X1226681Y174130D01*
X1226700Y174040D01*
X1227062Y173085D01*
X1227088Y173042D01*
X1227127Y172958D01*
X1227691Y172108D01*
X1227726Y172071D01*
X1227783Y171999D01*
X1228523Y171295D01*
X1228565Y171267D01*
X1228636Y171209D01*
X1229514Y170688D01*
X1229561Y170670D01*
X1229643Y170629D01*
X1230615Y170316D01*
X1230665Y170309D01*
X1230754Y170288D01*
X1231772Y170199D01*
X1231822Y170204D01*
G37*
G36*
X1144822Y139804D02*
X1144822Y139804D01*
X1144913Y139803D01*
X1145877Y139934D01*
X1145925Y139950D01*
X1146014Y139969D01*
X1146925Y140311D01*
X1146968Y140337D01*
X1147052Y140376D01*
X1147863Y140913D01*
X1147899Y140948D01*
X1147972Y141004D01*
X1148644Y141708D01*
X1148672Y141750D01*
X1148730Y141821D01*
X1149228Y142657D01*
X1149229Y142660D01*
X1149231Y142662D01*
X1149237Y142681D01*
X1149246Y142704D01*
X1149286Y142786D01*
X1149586Y143712D01*
X1149593Y143762D01*
X1149615Y143851D01*
X1149701Y144820D01*
X1149697Y144867D01*
X1149700Y144942D01*
X1149598Y145918D01*
X1149584Y145966D01*
X1149568Y146056D01*
X1149252Y146985D01*
X1149228Y147029D01*
X1149191Y147114D01*
X1148677Y147949D01*
X1148643Y147986D01*
X1148589Y148061D01*
X1147901Y148761D01*
X1147860Y148790D01*
X1147791Y148850D01*
X1146964Y149379D01*
X1146918Y149398D01*
X1146837Y149442D01*
X1145914Y149774D01*
X1145864Y149782D01*
X1145775Y149807D01*
X1144801Y149925D01*
X1144751Y149922D01*
X1144665Y149926D01*
X1143663Y149831D01*
X1143614Y149817D01*
X1143524Y149801D01*
X1142568Y149485D01*
X1142523Y149461D01*
X1142439Y149426D01*
X1141578Y148904D01*
X1141540Y148871D01*
X1141465Y148818D01*
X1140741Y148118D01*
X1140712Y148077D01*
X1140651Y148008D01*
X1140101Y147165D01*
X1140081Y147119D01*
X1140037Y147038D01*
X1139689Y146094D01*
X1139680Y146044D01*
X1139655Y145956D01*
X1139525Y144958D01*
X1139527Y144915D01*
X1139526Y144789D01*
X1139665Y143778D01*
X1139681Y143730D01*
X1139700Y143640D01*
X1140062Y142685D01*
X1140088Y142642D01*
X1140127Y142558D01*
X1140691Y141708D01*
X1140726Y141671D01*
X1140783Y141599D01*
X1141523Y140895D01*
X1141565Y140867D01*
X1141636Y140809D01*
X1142514Y140288D01*
X1142561Y140270D01*
X1142643Y140229D01*
X1143615Y139916D01*
X1143665Y139909D01*
X1143754Y139888D01*
X1144772Y139799D01*
X1144822Y139804D01*
G37*
G36*
X1231898Y93928D02*
X1231898Y93928D01*
X1231989Y93927D01*
X1232953Y94058D01*
X1233001Y94074D01*
X1233090Y94093D01*
X1234001Y94435D01*
X1234044Y94461D01*
X1234128Y94500D01*
X1234939Y95037D01*
X1234975Y95072D01*
X1235048Y95128D01*
X1235720Y95832D01*
X1235748Y95874D01*
X1235806Y95945D01*
X1236304Y96781D01*
X1236305Y96784D01*
X1236307Y96786D01*
X1236313Y96805D01*
X1236322Y96828D01*
X1236362Y96910D01*
X1236662Y97836D01*
X1236669Y97886D01*
X1236691Y97975D01*
X1236777Y98944D01*
X1236773Y98991D01*
X1236776Y99066D01*
X1236674Y100042D01*
X1236660Y100090D01*
X1236644Y100180D01*
X1236328Y101109D01*
X1236304Y101153D01*
X1236267Y101238D01*
X1235753Y102073D01*
X1235719Y102110D01*
X1235665Y102185D01*
X1234977Y102885D01*
X1234936Y102914D01*
X1234867Y102974D01*
X1234040Y103503D01*
X1233994Y103522D01*
X1233913Y103566D01*
X1232990Y103898D01*
X1232940Y103906D01*
X1232851Y103931D01*
X1231877Y104049D01*
X1231827Y104046D01*
X1231741Y104050D01*
X1230739Y103955D01*
X1230690Y103941D01*
X1230600Y103925D01*
X1229644Y103609D01*
X1229599Y103585D01*
X1229515Y103550D01*
X1228654Y103028D01*
X1228616Y102995D01*
X1228541Y102942D01*
X1227817Y102242D01*
X1227788Y102201D01*
X1227727Y102132D01*
X1227177Y101289D01*
X1227157Y101243D01*
X1227113Y101162D01*
X1226765Y100218D01*
X1226756Y100168D01*
X1226731Y100080D01*
X1226601Y99082D01*
X1226603Y99039D01*
X1226602Y98913D01*
X1226741Y97902D01*
X1226757Y97854D01*
X1226776Y97764D01*
X1227138Y96809D01*
X1227164Y96766D01*
X1227203Y96682D01*
X1227767Y95832D01*
X1227802Y95795D01*
X1227859Y95723D01*
X1228599Y95019D01*
X1228641Y94991D01*
X1228712Y94933D01*
X1229590Y94412D01*
X1229637Y94394D01*
X1229719Y94353D01*
X1230691Y94040D01*
X1230741Y94033D01*
X1230830Y94012D01*
X1231848Y93923D01*
X1231898Y93928D01*
G37*
G36*
X1144898Y63528D02*
X1144898Y63528D01*
X1144989Y63527D01*
X1145953Y63658D01*
X1146001Y63674D01*
X1146090Y63693D01*
X1147001Y64035D01*
X1147044Y64061D01*
X1147128Y64100D01*
X1147939Y64637D01*
X1147975Y64672D01*
X1148048Y64728D01*
X1148720Y65432D01*
X1148748Y65474D01*
X1148806Y65545D01*
X1149304Y66381D01*
X1149305Y66384D01*
X1149307Y66386D01*
X1149313Y66406D01*
X1149322Y66428D01*
X1149362Y66510D01*
X1149662Y67436D01*
X1149669Y67486D01*
X1149691Y67575D01*
X1149777Y68544D01*
X1149773Y68591D01*
X1149776Y68666D01*
X1149674Y69642D01*
X1149660Y69690D01*
X1149644Y69780D01*
X1149328Y70709D01*
X1149304Y70753D01*
X1149267Y70838D01*
X1148753Y71673D01*
X1148719Y71710D01*
X1148665Y71785D01*
X1147977Y72485D01*
X1147936Y72514D01*
X1147867Y72574D01*
X1147040Y73103D01*
X1146994Y73122D01*
X1146913Y73166D01*
X1145990Y73498D01*
X1145940Y73506D01*
X1145851Y73531D01*
X1144877Y73649D01*
X1144827Y73646D01*
X1144741Y73650D01*
X1143739Y73555D01*
X1143690Y73541D01*
X1143600Y73525D01*
X1142644Y73209D01*
X1142599Y73185D01*
X1142515Y73150D01*
X1141654Y72628D01*
X1141616Y72595D01*
X1141541Y72542D01*
X1140817Y71842D01*
X1140788Y71801D01*
X1140727Y71732D01*
X1140177Y70889D01*
X1140157Y70843D01*
X1140113Y70762D01*
X1139765Y69818D01*
X1139756Y69768D01*
X1139731Y69680D01*
X1139601Y68682D01*
X1139603Y68639D01*
X1139602Y68513D01*
X1139741Y67502D01*
X1139757Y67454D01*
X1139776Y67364D01*
X1140138Y66409D01*
X1140164Y66366D01*
X1140203Y66282D01*
X1140767Y65432D01*
X1140802Y65395D01*
X1140859Y65323D01*
X1141599Y64619D01*
X1141641Y64591D01*
X1141712Y64533D01*
X1142590Y64012D01*
X1142637Y63994D01*
X1142719Y63953D01*
X1143691Y63640D01*
X1143741Y63633D01*
X1143830Y63612D01*
X1144848Y63523D01*
X1144898Y63528D01*
G37*
G36*
X1291311Y-22547D02*
X1291311Y-22547D01*
X1291437Y-22548D01*
X1292448Y-22409D01*
X1292496Y-22393D01*
X1292586Y-22374D01*
X1293541Y-22012D01*
X1293584Y-21986D01*
X1293668Y-21948D01*
X1294518Y-21383D01*
X1294555Y-21348D01*
X1294627Y-21291D01*
X1295331Y-20552D01*
X1295359Y-20509D01*
X1295417Y-20438D01*
X1295938Y-19560D01*
X1295956Y-19513D01*
X1295997Y-19431D01*
X1296310Y-18459D01*
X1296317Y-18409D01*
X1296338Y-18320D01*
X1296427Y-17302D01*
X1296422Y-17252D01*
X1296423Y-17161D01*
X1296292Y-16197D01*
X1296276Y-16149D01*
X1296257Y-16060D01*
X1295915Y-15149D01*
X1295889Y-15106D01*
X1295850Y-15023D01*
X1295313Y-14211D01*
X1295278Y-14175D01*
X1295222Y-14102D01*
X1294518Y-13430D01*
X1294476Y-13403D01*
X1294405Y-13344D01*
X1293570Y-12846D01*
X1293522Y-12828D01*
X1293440Y-12788D01*
X1292515Y-12488D01*
X1292464Y-12481D01*
X1292375Y-12459D01*
X1291406Y-12373D01*
X1291359Y-12377D01*
X1291284Y-12374D01*
X1290308Y-12476D01*
X1290260Y-12490D01*
X1290170Y-12506D01*
X1289241Y-12822D01*
X1289197Y-12847D01*
X1289112Y-12883D01*
X1288277Y-13397D01*
X1288240Y-13431D01*
X1288165Y-13485D01*
X1287466Y-14173D01*
X1287436Y-14214D01*
X1287376Y-14283D01*
X1286847Y-15110D01*
X1286828Y-15156D01*
X1286784Y-15237D01*
X1286452Y-16160D01*
X1286444Y-16210D01*
X1286419Y-16299D01*
X1286301Y-17273D01*
X1286304Y-17323D01*
X1286300Y-17409D01*
X1286395Y-18411D01*
X1286409Y-18460D01*
X1286425Y-18550D01*
X1286741Y-19506D01*
X1286765Y-19551D01*
X1286801Y-19635D01*
X1287322Y-20496D01*
X1287355Y-20534D01*
X1287408Y-20609D01*
X1288108Y-21333D01*
X1288149Y-21362D01*
X1288218Y-21423D01*
X1289061Y-21973D01*
X1289107Y-21993D01*
X1289188Y-22037D01*
X1290132Y-22385D01*
X1290182Y-22394D01*
X1290270Y-22419D01*
X1291268Y-22549D01*
X1291311Y-22547D01*
G37*
G36*
X1215035Y-22623D02*
X1215035Y-22623D01*
X1215161Y-22624D01*
X1216172Y-22485D01*
X1216220Y-22469D01*
X1216310Y-22450D01*
X1217265Y-22088D01*
X1217308Y-22062D01*
X1217392Y-22024D01*
X1218242Y-21459D01*
X1218279Y-21424D01*
X1218351Y-21367D01*
X1219055Y-20628D01*
X1219083Y-20585D01*
X1219141Y-20514D01*
X1219662Y-19636D01*
X1219680Y-19589D01*
X1219721Y-19507D01*
X1220034Y-18535D01*
X1220041Y-18485D01*
X1220062Y-18396D01*
X1220151Y-17378D01*
X1220146Y-17328D01*
X1220147Y-17237D01*
X1220016Y-16273D01*
X1220000Y-16225D01*
X1219981Y-16136D01*
X1219639Y-15225D01*
X1219613Y-15182D01*
X1219574Y-15099D01*
X1219037Y-14287D01*
X1219002Y-14251D01*
X1218946Y-14178D01*
X1218242Y-13506D01*
X1218200Y-13479D01*
X1218129Y-13420D01*
X1217294Y-12922D01*
X1217246Y-12904D01*
X1217164Y-12864D01*
X1216239Y-12564D01*
X1216188Y-12557D01*
X1216099Y-12535D01*
X1215130Y-12449D01*
X1215083Y-12453D01*
X1215008Y-12450D01*
X1214032Y-12552D01*
X1213984Y-12566D01*
X1213894Y-12582D01*
X1212965Y-12898D01*
X1212921Y-12923D01*
X1212836Y-12959D01*
X1212001Y-13473D01*
X1211964Y-13507D01*
X1211889Y-13561D01*
X1211190Y-14249D01*
X1211160Y-14290D01*
X1211100Y-14359D01*
X1210571Y-15186D01*
X1210552Y-15232D01*
X1210508Y-15313D01*
X1210176Y-16236D01*
X1210168Y-16286D01*
X1210143Y-16375D01*
X1210025Y-17349D01*
X1210028Y-17399D01*
X1210024Y-17485D01*
X1210119Y-18487D01*
X1210133Y-18536D01*
X1210149Y-18626D01*
X1210465Y-19582D01*
X1210489Y-19627D01*
X1210525Y-19711D01*
X1211046Y-20572D01*
X1211079Y-20610D01*
X1211132Y-20685D01*
X1211832Y-21409D01*
X1211873Y-21438D01*
X1211942Y-21499D01*
X1212785Y-22049D01*
X1212831Y-22069D01*
X1212912Y-22113D01*
X1213856Y-22461D01*
X1213906Y-22470D01*
X1213994Y-22495D01*
X1214992Y-22625D01*
X1215035Y-22623D01*
G37*
G36*
X1274561Y170245D02*
X1274561Y170245D01*
X1274610Y170259D01*
X1274700Y170275D01*
X1275656Y170591D01*
X1275701Y170615D01*
X1275785Y170651D01*
X1276646Y171172D01*
X1276684Y171205D01*
X1276759Y171258D01*
X1277483Y171958D01*
X1277512Y171999D01*
X1277573Y172068D01*
X1278123Y172911D01*
X1278143Y172957D01*
X1278187Y173038D01*
X1278535Y173982D01*
X1278544Y174032D01*
X1278569Y174120D01*
X1278699Y175118D01*
X1278697Y175161D01*
X1278698Y175287D01*
X1278559Y176298D01*
X1278543Y176346D01*
X1278524Y176436D01*
X1278162Y177391D01*
X1278136Y177434D01*
X1278098Y177518D01*
X1277533Y178368D01*
X1277498Y178405D01*
X1277441Y178477D01*
X1276702Y179181D01*
X1276659Y179209D01*
X1276588Y179267D01*
X1275710Y179788D01*
X1275663Y179806D01*
X1275581Y179847D01*
X1274609Y180160D01*
X1274559Y180167D01*
X1274470Y180188D01*
X1273452Y180277D01*
X1273402Y180272D01*
X1273311Y180273D01*
X1272347Y180142D01*
X1272299Y180126D01*
X1272210Y180107D01*
X1271299Y179765D01*
X1271256Y179739D01*
X1271173Y179700D01*
X1270361Y179163D01*
X1270325Y179128D01*
X1270252Y179072D01*
X1269580Y178368D01*
X1269553Y178326D01*
X1269494Y178255D01*
X1268996Y177420D01*
X1268978Y177372D01*
X1268938Y177290D01*
X1268638Y176365D01*
X1268631Y176314D01*
X1268609Y176225D01*
X1268523Y175256D01*
X1268527Y175209D01*
X1268524Y175134D01*
X1268626Y174158D01*
X1268640Y174110D01*
X1268656Y174020D01*
X1268972Y173091D01*
X1268997Y173047D01*
X1269033Y172962D01*
X1269547Y172127D01*
X1269581Y172090D01*
X1269635Y172015D01*
X1270323Y171316D01*
X1270364Y171286D01*
X1270433Y171226D01*
X1271260Y170697D01*
X1271306Y170678D01*
X1271387Y170634D01*
X1272310Y170302D01*
X1272360Y170294D01*
X1272449Y170269D01*
X1273423Y170151D01*
X1273473Y170154D01*
X1273559Y170150D01*
X1274561Y170245D01*
G37*
G36*
X1274637Y93969D02*
X1274637Y93969D01*
X1274686Y93983D01*
X1274776Y93999D01*
X1275732Y94315D01*
X1275777Y94339D01*
X1275861Y94375D01*
X1276722Y94896D01*
X1276760Y94929D01*
X1276835Y94982D01*
X1277559Y95682D01*
X1277588Y95723D01*
X1277649Y95792D01*
X1278199Y96635D01*
X1278219Y96681D01*
X1278263Y96762D01*
X1278611Y97706D01*
X1278620Y97756D01*
X1278645Y97844D01*
X1278775Y98842D01*
X1278773Y98885D01*
X1278774Y99011D01*
X1278635Y100022D01*
X1278619Y100070D01*
X1278600Y100160D01*
X1278238Y101115D01*
X1278212Y101158D01*
X1278174Y101242D01*
X1277609Y102092D01*
X1277574Y102129D01*
X1277517Y102201D01*
X1276778Y102905D01*
X1276735Y102933D01*
X1276664Y102991D01*
X1275786Y103512D01*
X1275739Y103530D01*
X1275657Y103571D01*
X1274685Y103884D01*
X1274635Y103891D01*
X1274546Y103912D01*
X1273528Y104001D01*
X1273478Y103996D01*
X1273387Y103997D01*
X1272423Y103866D01*
X1272375Y103850D01*
X1272286Y103831D01*
X1271375Y103489D01*
X1271332Y103463D01*
X1271249Y103424D01*
X1270437Y102887D01*
X1270401Y102852D01*
X1270328Y102796D01*
X1269656Y102092D01*
X1269629Y102050D01*
X1269570Y101979D01*
X1269072Y101144D01*
X1269054Y101096D01*
X1269014Y101014D01*
X1268714Y100089D01*
X1268707Y100038D01*
X1268685Y99949D01*
X1268599Y98980D01*
X1268603Y98933D01*
X1268600Y98858D01*
X1268702Y97882D01*
X1268716Y97834D01*
X1268732Y97744D01*
X1269048Y96815D01*
X1269073Y96771D01*
X1269109Y96686D01*
X1269623Y95851D01*
X1269657Y95814D01*
X1269711Y95739D01*
X1270399Y95040D01*
X1270440Y95010D01*
X1270509Y94950D01*
X1271336Y94421D01*
X1271382Y94402D01*
X1271463Y94358D01*
X1272386Y94026D01*
X1272436Y94018D01*
X1272525Y93993D01*
X1273499Y93875D01*
X1273549Y93878D01*
X1273635Y93874D01*
X1274637Y93969D01*
G37*
G36*
X928767Y-38197D02*
X928767Y-38197D01*
X928842Y-38200D01*
X929818Y-38098D01*
X929866Y-38084D01*
X929956Y-38068D01*
X930885Y-37752D01*
X930929Y-37728D01*
X931014Y-37691D01*
X931849Y-37177D01*
X931886Y-37143D01*
X931961Y-37089D01*
X932661Y-36401D01*
X932690Y-36360D01*
X932750Y-36291D01*
X933279Y-35464D01*
X933298Y-35418D01*
X933342Y-35337D01*
X933674Y-34414D01*
X933682Y-34364D01*
X933707Y-34275D01*
X933825Y-33301D01*
X933822Y-33251D01*
X933826Y-33165D01*
X933731Y-32163D01*
X933717Y-32114D01*
X933701Y-32024D01*
X933385Y-31068D01*
X933361Y-31023D01*
X933326Y-30939D01*
X932804Y-30078D01*
X932771Y-30040D01*
X932718Y-29965D01*
X932018Y-29241D01*
X931977Y-29212D01*
X931908Y-29151D01*
X931065Y-28601D01*
X931019Y-28581D01*
X930938Y-28537D01*
X929994Y-28189D01*
X929944Y-28180D01*
X929856Y-28155D01*
X928858Y-28025D01*
X928815Y-28027D01*
X928689Y-28026D01*
X927678Y-28165D01*
X927630Y-28181D01*
X927540Y-28200D01*
X926585Y-28562D01*
X926542Y-28588D01*
X926458Y-28627D01*
X925608Y-29191D01*
X925571Y-29226D01*
X925499Y-29283D01*
X924795Y-30023D01*
X924767Y-30065D01*
X924709Y-30136D01*
X924188Y-31014D01*
X924170Y-31061D01*
X924129Y-31143D01*
X923816Y-32115D01*
X923809Y-32165D01*
X923788Y-32254D01*
X923699Y-33272D01*
X923704Y-33322D01*
X923703Y-33413D01*
X923834Y-34377D01*
X923850Y-34425D01*
X923869Y-34514D01*
X924211Y-35425D01*
X924237Y-35468D01*
X924276Y-35552D01*
X924813Y-36363D01*
X924848Y-36399D01*
X924904Y-36472D01*
X925608Y-37144D01*
X925650Y-37172D01*
X925721Y-37230D01*
X926557Y-37728D01*
X926604Y-37746D01*
X926686Y-37786D01*
X927612Y-38086D01*
X927662Y-38093D01*
X927751Y-38115D01*
X928720Y-38201D01*
X928767Y-38197D01*
G37*
G36*
X852491Y-38273D02*
X852491Y-38273D01*
X852566Y-38276D01*
X853542Y-38174D01*
X853590Y-38160D01*
X853680Y-38144D01*
X854609Y-37828D01*
X854653Y-37804D01*
X854738Y-37767D01*
X855573Y-37253D01*
X855610Y-37219D01*
X855685Y-37165D01*
X856385Y-36477D01*
X856414Y-36436D01*
X856474Y-36367D01*
X857003Y-35540D01*
X857022Y-35494D01*
X857066Y-35413D01*
X857398Y-34490D01*
X857406Y-34440D01*
X857431Y-34351D01*
X857549Y-33377D01*
X857546Y-33327D01*
X857550Y-33241D01*
X857455Y-32239D01*
X857441Y-32190D01*
X857425Y-32100D01*
X857109Y-31144D01*
X857085Y-31099D01*
X857050Y-31015D01*
X856528Y-30154D01*
X856495Y-30116D01*
X856442Y-30041D01*
X855742Y-29317D01*
X855701Y-29288D01*
X855632Y-29227D01*
X854789Y-28677D01*
X854743Y-28657D01*
X854662Y-28613D01*
X853718Y-28265D01*
X853668Y-28256D01*
X853580Y-28231D01*
X852582Y-28101D01*
X852539Y-28103D01*
X852413Y-28102D01*
X851402Y-28241D01*
X851354Y-28257D01*
X851264Y-28276D01*
X850309Y-28638D01*
X850266Y-28664D01*
X850182Y-28703D01*
X849332Y-29267D01*
X849295Y-29302D01*
X849223Y-29359D01*
X848519Y-30099D01*
X848491Y-30141D01*
X848433Y-30212D01*
X847912Y-31090D01*
X847894Y-31137D01*
X847853Y-31219D01*
X847540Y-32191D01*
X847533Y-32241D01*
X847512Y-32330D01*
X847423Y-33348D01*
X847428Y-33398D01*
X847427Y-33489D01*
X847558Y-34453D01*
X847574Y-34501D01*
X847593Y-34590D01*
X847935Y-35501D01*
X847961Y-35544D01*
X848000Y-35628D01*
X848537Y-36439D01*
X848572Y-36475D01*
X848628Y-36548D01*
X849332Y-37220D01*
X849374Y-37248D01*
X849445Y-37306D01*
X850281Y-37804D01*
X850328Y-37822D01*
X850410Y-37862D01*
X851336Y-38162D01*
X851386Y-38169D01*
X851475Y-38191D01*
X852444Y-38277D01*
X852491Y-38273D01*
G37*
D10*
X1119120Y-235770D03*
X1093720Y-235770D03*
X1144520Y-388170D03*
X1119120Y-388170D03*
X1093720Y-388170D03*
D11*
X1098420Y-286570D03*
X1114420Y-286570D03*
D12*
X1111620Y-344995D03*
X1116620Y-344995D03*
X1121620Y-344995D03*
X1126620Y-344995D03*
D13*
X1126745Y-339870D03*
X1126745Y-334870D03*
D12*
X1126620Y-329745D03*
X1121620Y-329745D03*
X1116620Y-329745D03*
X1111620Y-329745D03*
D13*
X1111495Y-334870D03*
X1111495Y-339870D03*
D10*
X916300Y-326100D03*
X916300Y-351500D03*
X713100Y-300700D03*
X713100Y-326100D03*
X713100Y-351500D03*
X713100Y-376900D03*
D14*
X852800Y-330800D03*
X852800Y-346800D03*
D15*
X775640Y-331300D03*
D16*
X773135Y-336300D02*
X778145Y-336300D01*
X778145Y-341300D02*
X773135Y-341300D01*
X773135Y-346300D02*
X778145Y-346300D01*
X800455Y-346300D02*
X805465Y-346300D01*
X805465Y-341300D02*
X800455Y-341300D01*
X800455Y-336300D02*
X805465Y-336300D01*
X805465Y-331300D02*
X800455Y-331300D01*
X781800Y-349955D02*
X781800Y-354965D01*
X786800Y-354965D02*
X786800Y-349955D01*
X791800Y-349955D02*
X791800Y-354965D01*
X796800Y-354965D02*
X796800Y-349955D01*
X796800Y-327655D02*
X796800Y-322645D01*
X791800Y-322645D02*
X791800Y-327655D01*
X786800Y-327655D02*
X786800Y-322645D01*
X781800Y-322645D02*
X781800Y-327655D01*
D17*
X789300Y-338800D03*
D10*
X1333500Y-374200D03*
X1333500Y-348800D03*
X1333500Y-171000D03*
X1333500Y-196400D03*
X1333500Y-221800D03*
X1333500Y-247200D03*
X1333500Y-272600D03*
X1333500Y-298000D03*
X1333500Y-323400D03*
D18*
X1697990Y-258440D03*
D19*
X1697990Y-230690D03*
D18*
X1697990Y-202940D03*
D20*
X1468000Y-219300D03*
X1468000Y-230300D03*
X1468000Y-241300D03*
X1468000Y-252300D03*
X1468000Y-263300D03*
X1468000Y-293300D03*
X1468000Y-304300D03*
X1468000Y-315300D03*
X1468000Y-326300D03*
X1468000Y-337300D03*
X1468000Y-348300D03*
X1468000Y-359300D03*
X1588000Y-219300D03*
X1588000Y-230300D03*
X1588000Y-241300D03*
X1588000Y-252300D03*
X1588000Y-263300D03*
X1588000Y-293300D03*
X1588000Y-304300D03*
X1588000Y-315300D03*
X1588000Y-326300D03*
X1588000Y-337300D03*
X1588000Y-348300D03*
X1588000Y-359300D03*
D14*
X1402080Y-349690D03*
X1402080Y-365690D03*
D10*
X1195500Y30500D03*
X1170100Y30500D03*
X1144700Y30500D03*
X1119300Y30500D03*
X886600Y371150D03*
X886600Y396550D03*
X827500Y301500D03*
X802100Y301500D03*
D21*
X886300Y434950D03*
X912300Y434950D03*
X886800Y329700D03*
X912800Y329700D03*
D22*
X1078050Y192950D03*
X1063550Y192950D03*
X1078050Y204450D03*
D23*
X927950Y40550D03*
X918450Y62550D03*
X937450Y62550D03*
D24*
X1115522Y256750D03*
X1115522Y250250D03*
X1115522Y243750D03*
X1115522Y237250D03*
X1115522Y230750D03*
X1115522Y224250D03*
X1115522Y217750D03*
X1115522Y211250D03*
X1115522Y204750D03*
X1115522Y198250D03*
X1115522Y191750D03*
X1115522Y185250D03*
X1173878Y185250D03*
X1173878Y191750D03*
X1173878Y198250D03*
X1173878Y204750D03*
X1173878Y211250D03*
X1173878Y217750D03*
X1173878Y224250D03*
X1173878Y230750D03*
X1173878Y237250D03*
X1173878Y243750D03*
X1173878Y250250D03*
X1173878Y256750D03*
D11*
X1159400Y464100D03*
X1143400Y464100D03*
D25*
X1107400Y383600D03*
X1127400Y383600D03*
D11*
X1109000Y302600D03*
X1125000Y302600D03*
D26*
X1025500Y200800D03*
X1025500Y180800D03*
D25*
X1026900Y144700D03*
X1046900Y144700D03*
D14*
X1020700Y292700D03*
X1020700Y276700D03*
X1054500Y292200D03*
X1054500Y276200D03*
D11*
X1109000Y328800D03*
X1125000Y328800D03*
X1109000Y354600D03*
X1125000Y354600D03*
D14*
X1053700Y248800D03*
X1053700Y232800D03*
X1020600Y248800D03*
X1020600Y232800D03*
X843200Y392250D03*
X843200Y376250D03*
X956700Y393750D03*
X956700Y377750D03*
D11*
X1232900Y208300D03*
X1248900Y208300D03*
X1232900Y234100D03*
X1248900Y234100D03*
D27*
X852500Y11700D03*
X852500Y37100D03*
X852500Y62500D03*
X852500Y87900D03*
X852500Y113300D03*
X852500Y138700D03*
X852500Y164100D03*
X852500Y189500D03*
X852500Y214900D03*
X852500Y240300D03*
X776300Y240300D03*
X776300Y214900D03*
X776300Y189500D03*
X776300Y164100D03*
X776300Y138700D03*
X776300Y113300D03*
X776300Y87900D03*
X776300Y62500D03*
X776300Y37100D03*
X776300Y11700D03*
D28*
X1142106Y417948D03*
X1142106Y424298D03*
X1142106Y430902D03*
X1142106Y437252D03*
X1096894Y437252D03*
X1096894Y430902D03*
X1096894Y424298D03*
X1096894Y417948D03*
D10*
X2008300Y-125200D03*
X2033700Y-125200D03*
X2048200Y-384800D03*
X2022800Y-384800D03*
X1997400Y-384800D03*
X1867620Y-368430D03*
X1867620Y-343030D03*
X1867620Y-317630D03*
X1867620Y-292230D03*
X1867620Y-266830D03*
X1867620Y-241430D03*
X1867620Y-216030D03*
X1867620Y-190630D03*
X2181700Y-194800D03*
X2181700Y-220200D03*
X2181700Y-245600D03*
X2181700Y-271000D03*
X2181700Y-296400D03*
X2181700Y-321800D03*
X2181700Y-347200D03*
X2181700Y-372600D03*
D29*
X1984187Y-238050D03*
X1984187Y-244550D03*
X1984187Y-251050D03*
X1984187Y-257550D03*
X1984187Y-264050D03*
X1984187Y-270550D03*
X1984187Y-277050D03*
X1984187Y-283550D03*
X1984187Y-290050D03*
X1984187Y-296550D03*
X1984187Y-303050D03*
X1984187Y-309550D03*
X2058613Y-309550D03*
X2058613Y-303050D03*
X2058613Y-296550D03*
X2058613Y-290050D03*
X2058613Y-283550D03*
X2058613Y-277050D03*
X2058613Y-270550D03*
X2058613Y-264050D03*
X2058613Y-257550D03*
X2058613Y-251050D03*
X2058613Y-244550D03*
X2058613Y-238050D03*
D11*
X2028100Y-182800D03*
X2012100Y-182800D03*
D30*
X2112700Y238600D03*
X2112700Y137000D03*
X2061900Y276700D03*
X2061900Y175100D03*
X2061900Y314800D03*
X2061900Y416400D03*
X2112700Y352900D03*
X2112700Y454500D03*
X2011100Y137000D03*
X2011100Y238600D03*
X1960300Y175100D03*
X1960300Y276700D03*
X1960300Y416400D03*
X1960300Y314800D03*
X2011100Y454500D03*
X2011100Y352900D03*
D31*
X1766100Y264000D02*
X1748100Y264000D01*
X1798900Y276700D02*
X1816900Y276700D01*
X1766100Y289400D02*
X1748100Y289400D01*
X1798900Y302100D02*
X1816900Y302100D01*
X1766100Y314800D02*
X1748100Y314800D01*
X1798900Y327500D02*
X1816900Y327500D01*
X1816900Y251300D02*
X1798900Y251300D01*
X1766100Y238600D02*
X1748100Y238600D01*
X1798900Y225900D02*
X1816900Y225900D01*
X1766100Y213200D02*
X1748100Y213200D01*
X1798900Y200500D02*
X1816900Y200500D01*
X1766100Y340200D02*
X1748100Y340200D01*
X1798900Y352900D02*
X1816900Y352900D01*
X1766100Y187800D02*
X1748100Y187800D01*
X1798900Y175100D02*
X1816900Y175100D01*
D10*
X1607100Y118100D03*
X1581700Y118100D03*
X1556300Y118100D03*
D32*
X2188900Y238600D03*
D33*
X2188900Y273600D03*
D32*
X2188900Y314800D03*
D33*
X2188900Y349800D03*
D34*
X1679400Y206300D03*
X1679400Y192300D03*
X1696000Y262900D03*
X1696000Y276900D03*
D35*
X1509900Y339550D03*
X1509900Y333050D03*
X1509900Y326550D03*
X1509900Y320050D03*
X1509900Y313550D03*
X1509900Y307050D03*
X1509900Y300550D03*
X1509900Y294050D03*
X1509900Y287550D03*
X1509900Y281050D03*
X1509900Y274550D03*
X1509900Y268050D03*
X1509900Y261550D03*
X1509900Y255050D03*
X1573900Y255050D03*
X1573900Y261550D03*
X1573900Y268050D03*
X1573900Y274550D03*
X1573900Y281050D03*
X1573900Y287550D03*
X1573900Y294050D03*
X1573900Y300550D03*
X1573900Y307050D03*
X1573900Y313550D03*
X1573900Y320050D03*
X1573900Y326550D03*
X1573900Y333050D03*
X1573900Y339550D03*
D25*
X1553100Y202700D03*
X1533100Y202700D03*
D10*
X1895000Y300000D03*
X1895000Y274600D03*
X1700000Y415000D03*
X1674600Y415000D03*
X1649200Y415000D03*
D36*
X1050000Y181000D03*
X1078000Y181000D03*
X930000Y235000D03*
X984200Y180800D03*
D37*
X2040000Y455000D03*
X2040310Y137000D03*
X1670000Y155000D03*
D38*
X1590000Y315000D03*
X1480000Y315000D03*
X1533580Y150970D03*
D37*
X1670000Y262730D03*
D36*
X1136900Y-313240D03*
X1111500Y-313240D03*
X1124200Y-361500D03*
X761106Y-331688D03*
X816732Y-350992D03*
X786760Y-313146D03*
X1080000Y370000D03*
X985000Y220000D03*
D37*
X1595000Y220000D03*
X1650000Y275000D03*
D36*
X975000Y360000D03*
X975000Y393750D03*
X886000Y12000D03*
X975000Y280000D03*
X902000Y37000D03*
X1192500Y243500D03*
X890000Y250000D03*
X1174000Y288500D03*
D37*
X2170000Y455000D03*
X2169850Y135730D03*
D36*
X620000Y580000D03*
M02*
