G04 EAGLE Gerber RS-274X export*
G75*
%MOMM*%
%FSLAX34Y34*%
%LPD*%
%INSolderpaste Top*%
%IPPOS*%
%AMOC8*
5,1,8,0,0,1.08239X$1,22.5*%
G01*
%ADD10R,1.050000X0.900000*%
%ADD11R,0.250000X0.275000*%
%ADD12R,0.275000X0.250000*%
%ADD13R,0.900000X1.050000*%
%ADD14R,0.740000X0.239000*%
%ADD15C,0.239000*%
%ADD16R,1.675000X1.675000*%
%ADD17R,4.100000X1.250000*%
%ADD18R,4.100000X0.900000*%
%ADD19R,1.800000X0.800000*%
%ADD20R,1.400000X1.000000*%
%ADD21R,0.850000X0.750000*%
%ADD22R,1.000000X1.400000*%
%ADD23R,0.990600X0.304800*%
%ADD24R,1.000000X1.250000*%
%ADD25R,1.250000X1.000000*%
%ADD26R,1.397000X0.431800*%
%ADD27R,1.469200X0.401500*%
%ADD28R,0.800000X0.850000*%
%ADD29R,1.000000X0.300000*%

G36*
X1065106Y200713D02*
X1065106Y200713D01*
X1065163Y200723D01*
X1065177Y200734D01*
X1065185Y200736D01*
X1065194Y200746D01*
X1065229Y200771D01*
X1067729Y203271D01*
X1067757Y203322D01*
X1067790Y203370D01*
X1067793Y203387D01*
X1067797Y203394D01*
X1067796Y203407D01*
X1067803Y203450D01*
X1067803Y207950D01*
X1067799Y207965D01*
X1067801Y207981D01*
X1067780Y208032D01*
X1067764Y208085D01*
X1067752Y208096D01*
X1067746Y208110D01*
X1067700Y208142D01*
X1067659Y208179D01*
X1067643Y208181D01*
X1067630Y208190D01*
X1067550Y208203D01*
X1059550Y208203D01*
X1059535Y208199D01*
X1059519Y208201D01*
X1059468Y208180D01*
X1059415Y208164D01*
X1059404Y208152D01*
X1059390Y208146D01*
X1059358Y208100D01*
X1059321Y208059D01*
X1059319Y208043D01*
X1059310Y208030D01*
X1059297Y207950D01*
X1059297Y200950D01*
X1059301Y200935D01*
X1059299Y200919D01*
X1059320Y200868D01*
X1059336Y200815D01*
X1059348Y200804D01*
X1059354Y200790D01*
X1059400Y200758D01*
X1059441Y200721D01*
X1059457Y200719D01*
X1059470Y200710D01*
X1059550Y200697D01*
X1065050Y200697D01*
X1065106Y200713D01*
G37*
D10*
X1098420Y-286570D03*
X1114420Y-286570D03*
D11*
X1111620Y-344995D03*
X1116620Y-344995D03*
X1121620Y-344995D03*
X1126620Y-344995D03*
D12*
X1126745Y-339870D03*
X1126745Y-334870D03*
D11*
X1126620Y-329745D03*
X1121620Y-329745D03*
X1116620Y-329745D03*
X1111620Y-329745D03*
D12*
X1111495Y-334870D03*
X1111495Y-339870D03*
D13*
X852800Y-330800D03*
X852800Y-346800D03*
D14*
X775640Y-331300D03*
D15*
X773135Y-336300D02*
X778145Y-336300D01*
X778145Y-341300D02*
X773135Y-341300D01*
X773135Y-346300D02*
X778145Y-346300D01*
X800455Y-346300D02*
X805465Y-346300D01*
X805465Y-341300D02*
X800455Y-341300D01*
X800455Y-336300D02*
X805465Y-336300D01*
X805465Y-331300D02*
X800455Y-331300D01*
X781800Y-349955D02*
X781800Y-354965D01*
X786800Y-354965D02*
X786800Y-349955D01*
X791800Y-349955D02*
X791800Y-354965D01*
X796800Y-354965D02*
X796800Y-349955D01*
X796800Y-327655D02*
X796800Y-322645D01*
X791800Y-322645D02*
X791800Y-327655D01*
X786800Y-327655D02*
X786800Y-322645D01*
X781800Y-322645D02*
X781800Y-327655D01*
D16*
X789300Y-338800D03*
D17*
X1697990Y-258440D03*
D18*
X1697990Y-230690D03*
D17*
X1697990Y-202940D03*
D19*
X1468000Y-219300D03*
X1468000Y-230300D03*
X1468000Y-241300D03*
X1468000Y-252300D03*
X1468000Y-263300D03*
X1468000Y-293300D03*
X1468000Y-304300D03*
X1468000Y-315300D03*
X1468000Y-326300D03*
X1468000Y-337300D03*
X1468000Y-348300D03*
X1468000Y-359300D03*
X1588000Y-219300D03*
X1588000Y-230300D03*
X1588000Y-241300D03*
X1588000Y-252300D03*
X1588000Y-263300D03*
X1588000Y-293300D03*
X1588000Y-304300D03*
X1588000Y-315300D03*
X1588000Y-326300D03*
X1588000Y-337300D03*
X1588000Y-348300D03*
X1588000Y-359300D03*
D13*
X1402080Y-349690D03*
X1402080Y-365690D03*
D20*
X886300Y434950D03*
X912300Y434950D03*
X886800Y329700D03*
X912800Y329700D03*
D21*
X1078050Y192950D03*
X1063550Y192950D03*
X1078050Y204450D03*
D22*
X927950Y40550D03*
X918450Y62550D03*
X937450Y62550D03*
D23*
X1115522Y256750D03*
X1115522Y250250D03*
X1115522Y243750D03*
X1115522Y237250D03*
X1115522Y230750D03*
X1115522Y224250D03*
X1115522Y217750D03*
X1115522Y211250D03*
X1115522Y204750D03*
X1115522Y198250D03*
X1115522Y191750D03*
X1115522Y185250D03*
X1173878Y185250D03*
X1173878Y191750D03*
X1173878Y198250D03*
X1173878Y204750D03*
X1173878Y211250D03*
X1173878Y217750D03*
X1173878Y224250D03*
X1173878Y230750D03*
X1173878Y237250D03*
X1173878Y243750D03*
X1173878Y250250D03*
X1173878Y256750D03*
D10*
X1159400Y464100D03*
X1143400Y464100D03*
D24*
X1107400Y383600D03*
X1127400Y383600D03*
D10*
X1109000Y302600D03*
X1125000Y302600D03*
D25*
X1025500Y200800D03*
X1025500Y180800D03*
D24*
X1026900Y144700D03*
X1046900Y144700D03*
D13*
X1020700Y292700D03*
X1020700Y276700D03*
X1054500Y292200D03*
X1054500Y276200D03*
D10*
X1109000Y328800D03*
X1125000Y328800D03*
X1109000Y354600D03*
X1125000Y354600D03*
D13*
X1053700Y248800D03*
X1053700Y232800D03*
X1020600Y248800D03*
X1020600Y232800D03*
X843200Y392250D03*
X843200Y376250D03*
X956700Y393750D03*
X956700Y377750D03*
D10*
X1232900Y208300D03*
X1248900Y208300D03*
X1232900Y234100D03*
X1248900Y234100D03*
D26*
X1142106Y417948D03*
X1142106Y424298D03*
X1142106Y430902D03*
X1142106Y437252D03*
X1096894Y437252D03*
X1096894Y430902D03*
X1096894Y424298D03*
X1096894Y417948D03*
D27*
X1984187Y-238050D03*
X1984187Y-244550D03*
X1984187Y-251050D03*
X1984187Y-257550D03*
X1984187Y-264050D03*
X1984187Y-270550D03*
X1984187Y-277050D03*
X1984187Y-283550D03*
X1984187Y-290050D03*
X1984187Y-296550D03*
X1984187Y-303050D03*
X1984187Y-309550D03*
X2058613Y-309550D03*
X2058613Y-303050D03*
X2058613Y-296550D03*
X2058613Y-290050D03*
X2058613Y-283550D03*
X2058613Y-277050D03*
X2058613Y-270550D03*
X2058613Y-264050D03*
X2058613Y-257550D03*
X2058613Y-251050D03*
X2058613Y-244550D03*
X2058613Y-238050D03*
D10*
X2028100Y-182800D03*
X2012100Y-182800D03*
D28*
X1679400Y206300D03*
X1679400Y192300D03*
X1696000Y262900D03*
X1696000Y276900D03*
D29*
X1509900Y339550D03*
X1509900Y333050D03*
X1509900Y326550D03*
X1509900Y320050D03*
X1509900Y313550D03*
X1509900Y307050D03*
X1509900Y300550D03*
X1509900Y294050D03*
X1509900Y287550D03*
X1509900Y281050D03*
X1509900Y274550D03*
X1509900Y268050D03*
X1509900Y261550D03*
X1509900Y255050D03*
X1573900Y255050D03*
X1573900Y261550D03*
X1573900Y268050D03*
X1573900Y274550D03*
X1573900Y281050D03*
X1573900Y287550D03*
X1573900Y294050D03*
X1573900Y300550D03*
X1573900Y307050D03*
X1573900Y313550D03*
X1573900Y320050D03*
X1573900Y326550D03*
X1573900Y333050D03*
X1573900Y339550D03*
D24*
X1553100Y202700D03*
X1533100Y202700D03*
M02*
