G04 EAGLE Gerber RS-274X export*
G75*
%MOMM*%
%FSLAX34Y34*%
%LPD*%
%INSilkscreen Top*%
%IPPOS*%
%AMOC8*
5,1,8,0,0,1.08239X$1,22.5*%
G01*
%ADD10C,0.203200*%
%ADD11C,0.127000*%
%ADD12C,0.101600*%
%ADD13C,0.150000*%
%ADD14C,0.500000*%
%ADD15C,0.076200*%


D10*
X254000Y95250D02*
X254000Y82550D01*
X247650Y76200D01*
X234950Y76200D02*
X228600Y82550D01*
X247650Y76200D02*
X254000Y69850D01*
X254000Y57150D01*
X247650Y50800D01*
X234950Y50800D02*
X228600Y57150D01*
X228600Y69850D01*
X234950Y76200D01*
X234950Y101600D02*
X247650Y101600D01*
X254000Y95250D01*
X234950Y101600D02*
X228600Y95250D01*
X228600Y82550D01*
X234950Y50800D02*
X247650Y50800D01*
D11*
X255905Y95336D02*
X259659Y95336D01*
X259724Y95334D01*
X259788Y95328D01*
X259852Y95318D01*
X259916Y95305D01*
X259978Y95287D01*
X260039Y95266D01*
X260099Y95242D01*
X260157Y95213D01*
X260214Y95181D01*
X260268Y95146D01*
X260320Y95108D01*
X260370Y95066D01*
X260417Y95022D01*
X260461Y94975D01*
X260503Y94925D01*
X260541Y94873D01*
X260576Y94819D01*
X260608Y94762D01*
X260637Y94704D01*
X260661Y94644D01*
X260682Y94583D01*
X260700Y94521D01*
X260713Y94457D01*
X260723Y94393D01*
X260729Y94329D01*
X260731Y94264D01*
X260731Y93727D01*
X256977Y98284D02*
X255905Y99624D01*
X260731Y99624D01*
X260731Y98284D02*
X260731Y100965D01*
D10*
X50800Y44450D02*
X50800Y31750D01*
X44450Y25400D01*
X31750Y25400D02*
X25400Y31750D01*
X50800Y69850D02*
X44450Y76200D01*
X50800Y69850D02*
X50800Y57150D01*
X44450Y50800D01*
X31750Y50800D02*
X25400Y57150D01*
X25400Y69850D01*
X31750Y76200D01*
X44450Y50800D02*
X50800Y44450D01*
X31750Y50800D02*
X25400Y44450D01*
X25400Y31750D01*
X50800Y107950D02*
X50800Y120650D01*
X50800Y107950D02*
X44450Y101600D01*
X31750Y101600D02*
X25400Y107950D01*
X44450Y101600D02*
X50800Y95250D01*
X50800Y82550D01*
X44450Y76200D01*
X31750Y76200D02*
X25400Y82550D01*
X25400Y95250D01*
X31750Y101600D01*
X31750Y127000D02*
X44450Y127000D01*
X50800Y120650D01*
X31750Y127000D02*
X25400Y120650D01*
X25400Y107950D01*
X31750Y25400D02*
X44450Y25400D01*
D11*
X52705Y120736D02*
X56459Y120736D01*
X56524Y120734D01*
X56588Y120728D01*
X56652Y120718D01*
X56716Y120705D01*
X56778Y120687D01*
X56839Y120666D01*
X56899Y120642D01*
X56957Y120613D01*
X57014Y120581D01*
X57068Y120546D01*
X57120Y120508D01*
X57170Y120466D01*
X57217Y120422D01*
X57261Y120375D01*
X57303Y120325D01*
X57341Y120273D01*
X57376Y120219D01*
X57408Y120162D01*
X57437Y120104D01*
X57461Y120044D01*
X57482Y119983D01*
X57500Y119921D01*
X57513Y119857D01*
X57523Y119793D01*
X57529Y119729D01*
X57531Y119664D01*
X57531Y119127D01*
X52705Y125158D02*
X52707Y125226D01*
X52713Y125293D01*
X52722Y125360D01*
X52735Y125427D01*
X52752Y125492D01*
X52773Y125557D01*
X52797Y125620D01*
X52825Y125682D01*
X52856Y125742D01*
X52890Y125800D01*
X52928Y125856D01*
X52968Y125911D01*
X53012Y125962D01*
X53059Y126011D01*
X53108Y126058D01*
X53159Y126102D01*
X53214Y126142D01*
X53270Y126180D01*
X53328Y126214D01*
X53388Y126245D01*
X53450Y126273D01*
X53513Y126297D01*
X53578Y126318D01*
X53643Y126335D01*
X53710Y126348D01*
X53777Y126357D01*
X53844Y126363D01*
X53912Y126365D01*
X52705Y125158D02*
X52707Y125080D01*
X52713Y125002D01*
X52723Y124925D01*
X52736Y124848D01*
X52754Y124772D01*
X52775Y124697D01*
X52800Y124623D01*
X52829Y124551D01*
X52861Y124480D01*
X52897Y124411D01*
X52936Y124343D01*
X52979Y124278D01*
X53025Y124215D01*
X53074Y124154D01*
X53126Y124096D01*
X53181Y124041D01*
X53238Y123988D01*
X53298Y123939D01*
X53361Y123892D01*
X53426Y123849D01*
X53492Y123809D01*
X53561Y123772D01*
X53632Y123739D01*
X53704Y123709D01*
X53778Y123683D01*
X54850Y125963D02*
X54801Y126012D01*
X54749Y126059D01*
X54694Y126102D01*
X54637Y126143D01*
X54578Y126181D01*
X54517Y126215D01*
X54454Y126246D01*
X54390Y126274D01*
X54324Y126298D01*
X54258Y126318D01*
X54190Y126335D01*
X54121Y126348D01*
X54052Y126357D01*
X53982Y126363D01*
X53912Y126365D01*
X54850Y125963D02*
X57531Y123684D01*
X57531Y126365D01*
D12*
X188308Y57484D02*
X196746Y57484D01*
X196746Y57483D02*
X196859Y57485D01*
X196972Y57491D01*
X197085Y57501D01*
X197198Y57515D01*
X197310Y57532D01*
X197421Y57554D01*
X197531Y57579D01*
X197641Y57609D01*
X197749Y57642D01*
X197856Y57679D01*
X197962Y57719D01*
X198066Y57764D01*
X198169Y57812D01*
X198270Y57863D01*
X198369Y57918D01*
X198466Y57976D01*
X198561Y58038D01*
X198654Y58103D01*
X198744Y58171D01*
X198832Y58242D01*
X198918Y58317D01*
X199001Y58394D01*
X199081Y58474D01*
X199158Y58557D01*
X199233Y58643D01*
X199304Y58731D01*
X199372Y58821D01*
X199437Y58914D01*
X199499Y59009D01*
X199557Y59106D01*
X199612Y59205D01*
X199663Y59306D01*
X199711Y59409D01*
X199756Y59513D01*
X199796Y59619D01*
X199833Y59726D01*
X199866Y59834D01*
X199896Y59944D01*
X199921Y60054D01*
X199943Y60165D01*
X199960Y60277D01*
X199974Y60390D01*
X199984Y60503D01*
X199990Y60616D01*
X199992Y60729D01*
X199990Y60842D01*
X199984Y60955D01*
X199974Y61068D01*
X199960Y61181D01*
X199943Y61293D01*
X199921Y61404D01*
X199896Y61514D01*
X199866Y61624D01*
X199833Y61732D01*
X199796Y61839D01*
X199756Y61945D01*
X199711Y62049D01*
X199663Y62152D01*
X199612Y62253D01*
X199557Y62352D01*
X199499Y62449D01*
X199437Y62544D01*
X199372Y62637D01*
X199304Y62727D01*
X199233Y62815D01*
X199158Y62901D01*
X199081Y62984D01*
X199001Y63064D01*
X198918Y63141D01*
X198832Y63216D01*
X198744Y63287D01*
X198654Y63355D01*
X198561Y63420D01*
X198466Y63482D01*
X198369Y63540D01*
X198270Y63595D01*
X198169Y63646D01*
X198066Y63694D01*
X197962Y63739D01*
X197856Y63779D01*
X197749Y63816D01*
X197641Y63849D01*
X197531Y63879D01*
X197421Y63904D01*
X197310Y63926D01*
X197198Y63943D01*
X197085Y63957D01*
X196972Y63967D01*
X196859Y63973D01*
X196746Y63975D01*
X188308Y63975D01*
X188308Y71778D02*
X199992Y71778D01*
X194150Y71778D02*
X193176Y70156D01*
X193177Y70155D02*
X193130Y70082D01*
X193081Y70011D01*
X193028Y69942D01*
X192972Y69875D01*
X192913Y69811D01*
X192852Y69749D01*
X192788Y69691D01*
X192721Y69635D01*
X192652Y69583D01*
X192580Y69533D01*
X192506Y69487D01*
X192431Y69444D01*
X192353Y69405D01*
X192274Y69369D01*
X192193Y69337D01*
X192111Y69308D01*
X192028Y69283D01*
X191944Y69262D01*
X191859Y69245D01*
X191773Y69231D01*
X191687Y69222D01*
X191600Y69216D01*
X191513Y69214D01*
X191426Y69216D01*
X191339Y69222D01*
X191253Y69232D01*
X191167Y69245D01*
X191082Y69263D01*
X190998Y69284D01*
X190915Y69309D01*
X190832Y69338D01*
X190752Y69370D01*
X190673Y69406D01*
X190595Y69445D01*
X190520Y69488D01*
X190446Y69535D01*
X190375Y69584D01*
X190305Y69637D01*
X190239Y69692D01*
X190175Y69751D01*
X190113Y69812D01*
X190054Y69876D01*
X189999Y69943D01*
X189946Y70012D01*
X189896Y70084D01*
X189850Y70157D01*
X189807Y70233D01*
X189768Y70310D01*
X189732Y70389D01*
X189699Y70470D01*
X189671Y70552D01*
X189645Y70635D01*
X189624Y70719D01*
X189607Y70804D01*
X189606Y70805D02*
X189582Y70945D01*
X189562Y71087D01*
X189546Y71228D01*
X189535Y71370D01*
X189527Y71513D01*
X189523Y71655D01*
X189522Y71798D01*
X189526Y71941D01*
X189534Y72083D01*
X189546Y72225D01*
X189562Y72367D01*
X189581Y72508D01*
X189605Y72649D01*
X189632Y72789D01*
X189664Y72928D01*
X189699Y73066D01*
X189738Y73204D01*
X189781Y73340D01*
X189827Y73474D01*
X189878Y73608D01*
X189931Y73740D01*
X189989Y73870D01*
X190050Y73999D01*
X190115Y74126D01*
X190183Y74252D01*
X190255Y74375D01*
X194150Y71778D02*
X195124Y73401D01*
X195123Y73402D02*
X195170Y73475D01*
X195219Y73546D01*
X195272Y73616D01*
X195328Y73682D01*
X195387Y73746D01*
X195448Y73808D01*
X195512Y73866D01*
X195579Y73922D01*
X195648Y73974D01*
X195720Y74024D01*
X195794Y74070D01*
X195869Y74113D01*
X195947Y74152D01*
X196026Y74188D01*
X196107Y74220D01*
X196189Y74249D01*
X196272Y74274D01*
X196356Y74295D01*
X196441Y74312D01*
X196527Y74326D01*
X196614Y74335D01*
X196700Y74341D01*
X196787Y74343D01*
X196874Y74341D01*
X196961Y74335D01*
X197047Y74325D01*
X197133Y74312D01*
X197218Y74294D01*
X197302Y74273D01*
X197385Y74248D01*
X197468Y74219D01*
X197548Y74187D01*
X197627Y74151D01*
X197705Y74112D01*
X197780Y74069D01*
X197854Y74022D01*
X197925Y73973D01*
X197995Y73920D01*
X198061Y73865D01*
X198125Y73806D01*
X198187Y73745D01*
X198246Y73680D01*
X198301Y73614D01*
X198354Y73545D01*
X198404Y73473D01*
X198450Y73400D01*
X198493Y73324D01*
X198532Y73247D01*
X198568Y73168D01*
X198601Y73087D01*
X198629Y73005D01*
X198655Y72922D01*
X198676Y72838D01*
X198693Y72752D01*
X198694Y72752D02*
X198718Y72612D01*
X198738Y72470D01*
X198754Y72329D01*
X198765Y72187D01*
X198773Y72044D01*
X198777Y71902D01*
X198778Y71759D01*
X198774Y71616D01*
X198766Y71474D01*
X198754Y71332D01*
X198738Y71190D01*
X198719Y71049D01*
X198695Y70908D01*
X198668Y70768D01*
X198636Y70629D01*
X198601Y70491D01*
X198562Y70353D01*
X198519Y70217D01*
X198473Y70083D01*
X198422Y69949D01*
X198369Y69817D01*
X198311Y69687D01*
X198250Y69558D01*
X198185Y69431D01*
X198117Y69305D01*
X198045Y69182D01*
X189606Y79201D02*
X188308Y79201D01*
X188308Y85692D01*
X199992Y82446D01*
D13*
X129300Y61200D02*
X126800Y61200D01*
X129300Y61200D02*
X129300Y63700D01*
X129300Y91200D02*
X126800Y91200D01*
X129300Y91200D02*
X129300Y88700D01*
X101800Y61200D02*
X99300Y61200D01*
X99300Y63700D01*
X99300Y91200D02*
X101800Y91200D01*
X99300Y91200D02*
X99300Y88700D01*
D14*
X91200Y83700D03*
D15*
X95331Y99247D02*
X95331Y105919D01*
X95331Y99247D02*
X95333Y99148D01*
X95339Y99048D01*
X95348Y98949D01*
X95362Y98851D01*
X95379Y98753D01*
X95400Y98655D01*
X95425Y98559D01*
X95454Y98464D01*
X95486Y98369D01*
X95522Y98277D01*
X95561Y98185D01*
X95604Y98095D01*
X95650Y98007D01*
X95700Y97921D01*
X95753Y97837D01*
X95809Y97755D01*
X95869Y97675D01*
X95931Y97598D01*
X95997Y97523D01*
X96065Y97450D01*
X96136Y97381D01*
X96210Y97314D01*
X96286Y97250D01*
X96365Y97189D01*
X96446Y97131D01*
X96529Y97076D01*
X96614Y97025D01*
X96701Y96977D01*
X96790Y96932D01*
X96881Y96891D01*
X96973Y96853D01*
X97066Y96819D01*
X97161Y96789D01*
X97257Y96762D01*
X97354Y96739D01*
X97451Y96720D01*
X97550Y96705D01*
X97649Y96693D01*
X97748Y96685D01*
X97847Y96681D01*
X97947Y96681D01*
X98046Y96685D01*
X98145Y96693D01*
X98244Y96705D01*
X98343Y96720D01*
X98440Y96739D01*
X98537Y96762D01*
X98633Y96789D01*
X98728Y96819D01*
X98821Y96853D01*
X98913Y96891D01*
X99004Y96932D01*
X99093Y96977D01*
X99180Y97025D01*
X99265Y97076D01*
X99348Y97131D01*
X99429Y97189D01*
X99508Y97250D01*
X99584Y97314D01*
X99658Y97381D01*
X99729Y97450D01*
X99797Y97523D01*
X99863Y97598D01*
X99925Y97675D01*
X99985Y97755D01*
X100041Y97837D01*
X100094Y97921D01*
X100144Y98007D01*
X100190Y98095D01*
X100233Y98185D01*
X100272Y98277D01*
X100308Y98369D01*
X100340Y98464D01*
X100369Y98559D01*
X100394Y98655D01*
X100415Y98753D01*
X100432Y98851D01*
X100446Y98949D01*
X100455Y99048D01*
X100461Y99148D01*
X100463Y99247D01*
X100463Y105919D01*
X104631Y105919D02*
X104631Y104893D01*
X104631Y105919D02*
X109763Y105919D01*
X107197Y96681D01*
M02*
