G04 EAGLE Gerber RS-274X export*
G75*
%MOMM*%
%FSLAX34Y34*%
%LPD*%
%INSoldermask Top*%
%IPPOS*%
%AMOC8*
5,1,8,0,0,1.08239X$1,22.5*%
G01*
%ADD10C,2.082800*%
%ADD11R,1.103200X1.253200*%
%ADD12R,0.943200X0.442200*%
%ADD13C,0.442200*%
%ADD14R,1.878200X1.878200*%
%ADD15C,0.959600*%


D10*
X241300Y88900D03*
X241300Y63500D03*
X38100Y114300D03*
X38100Y88900D03*
X38100Y63500D03*
X38100Y38100D03*
D11*
X177800Y84200D03*
X177800Y68200D03*
D12*
X100640Y83700D03*
D13*
X98135Y78700D02*
X103145Y78700D01*
X103145Y73700D02*
X98135Y73700D01*
X98135Y68700D02*
X103145Y68700D01*
X125455Y68700D02*
X130465Y68700D01*
X130465Y73700D02*
X125455Y73700D01*
X125455Y78700D02*
X130465Y78700D01*
X130465Y83700D02*
X125455Y83700D01*
X106800Y65045D02*
X106800Y60035D01*
X111800Y60035D02*
X111800Y65045D01*
X116800Y65045D02*
X116800Y60035D01*
X121800Y60035D02*
X121800Y65045D01*
X121800Y87345D02*
X121800Y92355D01*
X116800Y92355D02*
X116800Y87345D01*
X111800Y87345D02*
X111800Y92355D01*
X106800Y92355D02*
X106800Y87345D01*
D14*
X114300Y76200D03*
D15*
X86106Y83312D03*
X141732Y64008D03*
X111760Y101854D03*
M02*
