M48
;GenerationSoftware,Autodesk,EAGLE,9.2.2*%
;CreationDate,2019-04-09T11:48:12Z*%
FMAT,2
ICI,OFF
METRIC,TZ,000.000
T7C0.350
T6C0.500
T5C1.000
T4C1.016
T3C1.105
T2C1.200
%
G90
M71
T2
X180790Y30210
X175710Y31480
X180790Y32750
X180790Y25130
X175710Y23860
X180790Y22590
X175710Y21320
X180790Y20050
X175710Y34020
X180790Y35290
X175710Y18780
X180790Y17510
X175710Y28940
X180790Y27670
X218890Y23860
X218890Y27360
X218890Y31480
X218890Y34980
X175710Y26400
T3
X85250Y24030
X77630Y21490
X77630Y24030
X77630Y1170
X77630Y18950
X77630Y16410
X77630Y13870
X77630Y11330
X77630Y8790
X77630Y6250
X77630Y3710
X85250Y21490
X85250Y18950
X85250Y16410
X85250Y13870
X85250Y11330
X85250Y8790
X85250Y6250
X85250Y3710
X85250Y1170
T4
X204820Y-38480
X203370Y-12520
X218170Y-19480
X200830Y-12520
X92870Y-3320
X218170Y-24560
X167460Y41500
X170000Y41500
X189500Y27460
X189500Y30000
X155630Y11810
X158170Y11810
X160710Y11810
X218170Y-37260
X218170Y-34720
X218170Y-32180
X218170Y-29640
X218170Y-27100
X202280Y-38480
X218170Y-22020
X164920Y41500
X186762Y-19063
X186762Y-21603
X186762Y-24143
X186762Y-26683
X186762Y-29223
X186762Y-31763
X186762Y-34303
X186762Y-36843
X199740Y-38480
X71310Y-30070
X133350Y-24720
X133350Y-22180
X133350Y-19640
X133350Y-17100
X133350Y-34880
X133350Y-37420
X71310Y-37690
X71310Y-35150
X71310Y-32610
X121515Y-1745
X91630Y-35150
X91630Y-32610
X109372Y-38817
X111912Y-38817
X114452Y-38817
X109372Y-23577
X111912Y-23577
X85250Y-3320
X133350Y-29800
X129135Y-1745
X114470Y14480
X114470Y6860
X123170Y17520
X123170Y9900
X127360Y9900
X127360Y17520
X80210Y30150
X88660Y39655
X88660Y37115
X111930Y3050
X114470Y3050
X117010Y3050
X119550Y3050
X133350Y-32340
X133350Y-27260
X82750Y30150
T5
X201110Y23860
X196030Y17510
X196030Y27670
X196030Y41640
X196030Y31480
X201110Y45450
X201110Y35290
X165000Y27500
X211270Y23860
X159500Y22000
X167000Y26273
X167000Y15500
X204031Y13700
X204000Y45500
X211270Y45450
X211270Y35290
X206190Y41640
X206190Y31480
X206190Y17510
X206190Y27670
X201110Y13700
X217000Y45500
X211270Y13700
X216985Y13573
T6
X148000Y31500
X159000Y31500
X153358Y15097
T7
X117400Y28850
X113690Y-31324
X105000Y18100
X111150Y-31324
X62000Y58000
X98420Y18080
X93000Y23500
X107800Y18100
X112420Y-36150
X76111Y-33169
X81673Y-35099
X78676Y-31315
X108000Y37000
X98500Y22000
X89000Y25000
X97500Y36000
X97500Y39375
X88600Y1200
X97500Y28000
X90200Y3700
X119250Y24350
M30