M48
;GenerationSoftware,Autodesk,EAGLE,9.2.2*%
;CreationDate,2019-04-09T09:01:01Z*%
FMAT,2
ICI,OFF
METRIC,TZ,000.000
T5C0.500
T4C1.000
T3C1.016
T2C1.200
%
G90
M71
T2
X29210Y17780
X29210Y25400
X34290Y26670
X29210Y27940
X34290Y29210
X29210Y30480
X34290Y31750
X34290Y24130
X29210Y22860
X34290Y21590
X29210Y20320
X34290Y19050
X29210Y33020
X34290Y34290
X34290Y16510
X72390Y22860
X72390Y26360
X72390Y30480
X72390Y33980
T3
X18420Y40500
X14210Y10810
X11670Y10810
X9130Y10810
X43000Y29000
X43000Y26460
X23500Y40500
X20960Y40500
T4
X59690Y26670
X57500Y44500
X57531Y12700
X20500Y14500
X20500Y25273
X13000Y21000
X18500Y26500
X70500Y44500
X70485Y12573
X64770Y22860
X64770Y12700
X54610Y34290
X59690Y16510
X59690Y30480
X59690Y40640
X64770Y34290
X64770Y44450
X54610Y12700
X54610Y22860
X49530Y16510
X49530Y26670
X49530Y40640
X49530Y30480
X54610Y44450
T5
X6858Y14097
X1500Y30500
X12500Y30500
M30