0
SECTION
2
HEADER
9
$ANGDIR
70
1
9
$AUNITS
70
0
9
$PROJECTNAME
1
irisc
9
$TDCREATE
40
2458582.87159704
9
$INSUNITS
70
4
0
ENDSEC
0
SECTION
2
ENTITIES
0
POLYLINE
66
1
8
outline
10
0.0
20
0.0
30
0.0
70
1
0
VERTEX
8
0
10
0
20
0
30
0
0
VERTEX
8
0
10
21.443
20
0
30
0
0
VERTEX
8
0
10
21.443
20
11.608
30
0
0
VERTEX
8
0
10
0
20
11.608
30
0
0
VERTEX
8
0
10
0
20
0
30
0
0
SEQEND
0
POLYLINE
66
1
8
1_copper
10
0.0
20
0.0
30
0.0
70
1
0
VERTEX
8
0
10
8.638
20
6.488
30
0
0
VERTEX
8
0
10
8.612384375
20
6.488
30
0
0
VERTEX
8
0
10
8.609
20
7.239450000000001
30
0
42
0.21509307340236894
0
VERTEX
8
0
10
8.57485
20
7.314256250000001
30
0
0
VERTEX
8
0
10
7.5588500000000005
20
8.20325625
30
0
42
0.18166887789909725
0
VERTEX
8
0
10
7.493
20
8.228
30
0
0
VERTEX
8
0
10
3.6830000000000003
20
8.228
30
0
42
0.9325092791104996
0
VERTEX
8
0
10
3.66908125
20
8.028971875
30
0
0
VERTEX
8
0
10
3.6830000000000003
20
8.028
30
0
0
VERTEX
8
0
10
7.455428125
20
8.028
30
0
0
VERTEX
8
0
10
8.409203125000001
20
7.193446875
30
0
0
VERTEX
8
0
10
8.412378125
20
6.488
30
0
0
VERTEX
8
0
10
8.388
20
6.488
30
0
0
VERTEX
8
0
10
8.388
20
6.213
30
0
0
VERTEX
8
0
10
8.638
20
6.213
30
0
0
SEQEND
0
POLYLINE
66
1
8
1_copper
10
0.0
20
0.0
30
0.0
70
1
0
VERTEX
8
0
10
3.70453125
20
5.490346875
30
0
42
0.22628109555596787
0
VERTEX
8
0
10
3.7724437500000003
20
5.5432781250000005
30
0
0
VERTEX
8
0
10
3.815990625
20
5.630371875000001
30
0
0
VERTEX
8
0
10
3.92761875
20
5.742
30
0
0
VERTEX
8
0
10
7.863
20
5.742
30
0
0
VERTEX
8
0
10
7.863
20
5.713
30
0
0
VERTEX
8
0
10
8.138
20
5.713
30
0
0
VERTEX
8
0
10
8.138
20
5.963
30
0
0
VERTEX
8
0
10
7.863
20
5.963
30
0
0
VERTEX
8
0
10
7.863
20
5.942
30
0
0
VERTEX
8
0
10
3.8862
20
5.942
30
0
42
0.198912367379658
0
VERTEX
8
0
10
3.8154906250000002
20
5.912709375
30
0
0
VERTEX
8
0
10
3.663090625
20
5.760309375
30
0
42
0.0806115716705355
0
VERTEX
8
0
10
3.64435625
20
5.734321875
30
0
0
VERTEX
8
0
10
3.5935562500000002
20
5.6327218750000005
30
0
0
VERTEX
8
0
10
3.58526875
20
5.6091875
30
0
0
VERTEX
8
0
10
3.5830687500000002
20
5.584334375
30
0
0
VERTEX
8
0
10
3.5870843750000003
20
5.5597062500000005
30
0
0
VERTEX
8
0
10
3.5970750000000002
20
5.53684375
30
0
0
VERTEX
8
0
10
3.612415625
20
5.5171656250000005
30
0
0
VERTEX
8
0
10
3.632146875
20
5.501893750000001
30
0
0
VERTEX
8
0
10
3.655046875
20
5.4919875000000005
30
0
0
VERTEX
8
0
10
3.6796875
20
5.4880562500000005
30
0
0
SEQEND
0
POLYLINE
66
1
8
1_copper
10
0.0
20
0.0
30
0.0
70
1
0
VERTEX
8
0
10
14.293000000000001
20
5.533
30
0
0
VERTEX
8
0
10
14.293000000000001
20
5.8944
30
0
0
VERTEX
8
0
10
18.52598125
20
5.8944
30
0
0
VERTEX
8
0
10
18.790009375
20
5.630371875000001
30
0
0
VERTEX
8
0
10
18.83355625
20
5.5432781250000005
30
0
42
0.9999999999999999
0
VERTEX
8
0
10
19.01244375
20
5.6327218750000005
30
0
0
VERTEX
8
0
10
18.96164375
20
5.734321875
30
0
42
0.0806115716705355
0
VERTEX
8
0
10
18.942909375
20
5.760309375
30
0
0
VERTEX
8
0
10
18.638109375000003
20
6.0651093750000005
30
0
42
0.198912367379658
0
VERTEX
8
0
10
18.5674
20
6.0944
30
0
0
VERTEX
8
0
10
14.293000000000001
20
6.0944
30
0
0
VERTEX
8
0
10
14.293000000000001
20
6.583
30
0
0
VERTEX
8
0
10
13.393
20
6.583
30
0
0
VERTEX
8
0
10
13.393
20
6.158
30
0
0
VERTEX
8
0
10
12.535
20
6.158
30
0
42
0.198912367379658
0
VERTEX
8
0
10
12.464290625
20
6.128709375000001
30
0
0
VERTEX
8
0
10
11.773581250000001
20
5.438000000000001
30
0
0
VERTEX
8
0
10
9.726600000000001
20
5.438000000000001
30
0
0
VERTEX
8
0
10
9.726600000000001
20
5.8420000000000005
30
0
42
0.30856690495324657
0
VERTEX
8
0
10
9.663
20
5.934853125
30
0
0
VERTEX
8
0
10
9.663
20
5.963
30
0
0
VERTEX
8
0
10
9.388
20
5.963
30
0
0
VERTEX
8
0
10
9.388
20
5.713
30
0
0
VERTEX
8
0
10
9.5266
20
5.713
30
0
0
VERTEX
8
0
10
9.5266
20
5.463
30
0
0
VERTEX
8
0
10
9.388
20
5.463
30
0
0
VERTEX
8
0
10
9.388
20
5.213
30
0
0
VERTEX
8
0
10
9.663
20
5.213
30
0
0
VERTEX
8
0
10
9.663
20
5.238
30
0
0
VERTEX
8
0
10
11.815000000000001
20
5.238
30
0
42
0.198912367379658
0
VERTEX
8
0
10
11.885709375000001
20
5.267290625
30
0
0
VERTEX
8
0
10
12.57641875
20
5.958
30
0
0
VERTEX
8
0
10
13.393
20
5.958
30
0
0
VERTEX
8
0
10
13.393
20
5.533
30
0
0
VERTEX
8
0
10
13.743
20
5.533
30
0
0
VERTEX
8
0
10
13.743
20
3.34341875
30
0
0
VERTEX
8
0
10
12.15058125
20
1.7510000000000001
30
0
0
VERTEX
8
0
10
9.43141875
20
1.7510000000000001
30
0
0
VERTEX
8
0
10
9.113000000000001
20
2.06941875
30
0
0
VERTEX
8
0
10
9.113000000000001
20
4.688000000000001
30
0
0
VERTEX
8
0
10
9.138
20
4.688000000000001
30
0
0
VERTEX
8
0
10
9.138
20
4.963
30
0
0
VERTEX
8
0
10
8.888
20
4.963
30
0
0
VERTEX
8
0
10
8.888
20
4.688000000000001
30
0
0
VERTEX
8
0
10
8.913
20
4.688000000000001
30
0
0
VERTEX
8
0
10
8.913
20
2.06941875
30
0
0
VERTEX
8
0
10
8.594581250000001
20
1.7510000000000001
30
0
0
VERTEX
8
0
10
2.83541875
20
1.7510000000000001
30
0
0
VERTEX
8
0
10
2.3352
20
2.25121875
30
0
0
VERTEX
8
0
10
2.3352
20
3.9717812500000003
30
0
0
VERTEX
8
0
10
2.58141875
20
4.218
30
0
0
VERTEX
8
0
10
7.4805
20
4.218
30
0
42
0.198912367379658
0
VERTEX
8
0
10
7.551209375
20
4.247290625
30
0
0
VERTEX
8
0
10
7.986962500000001
20
4.68304375
30
0
42
0.13072209052336825
0
VERTEX
8
0
10
8.028503125
20
4.713
30
0
0
VERTEX
8
0
10
8.138
20
4.713
30
0
0
VERTEX
8
0
10
8.138
20
4.963
30
0
0
VERTEX
8
0
10
7.863
20
4.963
30
0
0
VERTEX
8
0
10
7.863
20
4.8419187500000005
30
0
0
VERTEX
8
0
10
7.43908125
20
4.418
30
0
0
VERTEX
8
0
10
2.58141875
20
4.418
30
0
0
VERTEX
8
0
10
2.3352
20
4.66421875
30
0
0
VERTEX
8
0
10
2.3352
20
6.43558125
30
0
0
VERTEX
8
0
10
2.65761875
20
6.758
30
0
0
VERTEX
8
0
10
7.43908125
20
6.758
30
0
0
VERTEX
8
0
10
7.863
20
6.3340812500000006
30
0
0
VERTEX
8
0
10
7.863
20
6.213
30
0
0
VERTEX
8
0
10
8.138
20
6.213
30
0
0
VERTEX
8
0
10
8.138
20
6.463
30
0
0
VERTEX
8
0
10
8.01691875
20
6.463
30
0
0
VERTEX
8
0
10
7.551209375
20
6.928709375
30
0
42
0.198912367379658
0
VERTEX
8
0
10
7.4805
20
6.958
30
0
0
VERTEX
8
0
10
2.6162
20
6.958
30
0
42
0.198912367379658
0
VERTEX
8
0
10
2.5454906250000002
20
6.928709375
30
0
0
VERTEX
8
0
10
2.164490625
20
6.547709375
30
0
42
0.198912367379658
0
VERTEX
8
0
10
2.1352
20
6.477
30
0
0
VERTEX
8
0
10
2.1352
20
2.2098
30
0
42
0.198912367379658
0
VERTEX
8
0
10
2.164490625
20
2.139090625
30
0
0
VERTEX
8
0
10
2.723290625
20
1.5802906250000002
30
0
42
0.198912367379658
0
VERTEX
8
0
10
2.794
20
1.5510000000000002
30
0
0
VERTEX
8
0
10
12.192
20
1.5510000000000002
30
0
42
0.198912367379658
0
VERTEX
8
0
10
12.262709375
20
1.5802906250000002
30
0
0
VERTEX
8
0
10
13.913709375
20
3.231290625
30
0
42
0.198912367379658
0
VERTEX
8
0
10
13.943000000000001
20
3.302
30
0
0
VERTEX
8
0
10
13.943000000000001
20
5.533
30
0
0
SEQEND
0
POLYLINE
66
1
8
1_copper
10
0.0
20
0.0
30
0.0
70
1
0
VERTEX
8
0
10
19.049356250000002
20
8.0311125
30
0
42
0.8821361463521845
0
VERTEX
8
0
10
19.0246
20
8.228
30
0
0
VERTEX
8
0
10
18.8722
20
8.228
30
0
42
0.0481111954132287
0
VERTEX
8
0
10
18.84744375
20
8.224887500000001
30
0
0
VERTEX
8
0
10
18.84068125
20
8.222225
30
0
42
0.11616668511940863
0
VERTEX
8
0
10
18.801490625
20
8.198709375
30
0
0
VERTEX
8
0
10
18.37358125
20
7.7708
30
0
0
VERTEX
8
0
10
14.293000000000001
20
7.7708
30
0
0
VERTEX
8
0
10
14.293000000000001
20
8.183
30
0
0
VERTEX
8
0
10
13.393
20
8.183
30
0
0
VERTEX
8
0
10
13.393
20
7.758
30
0
0
VERTEX
8
0
10
12.496
20
7.758
30
0
42
0.198912367379658
0
VERTEX
8
0
10
12.425290625
20
7.728709375
30
0
0
VERTEX
8
0
10
11.370812500000001
20
6.67423125
30
0
42
0.5070512524221255
0
VERTEX
8
0
10
10.808037500000001
20
6.438000000000001
30
0
0
VERTEX
8
0
10
9.663
20
6.438000000000001
30
0
0
VERTEX
8
0
10
9.663
20
6.463
30
0
0
VERTEX
8
0
10
9.388
20
6.463
30
0
0
VERTEX
8
0
10
9.388
20
6.438000000000001
30
0
0
VERTEX
8
0
10
9.138
20
6.438000000000001
30
0
0
VERTEX
8
0
10
9.138
20
6.488
30
0
0
VERTEX
8
0
10
8.888
20
6.488
30
0
0
VERTEX
8
0
10
8.888
20
6.213
30
0
0
VERTEX
8
0
10
9.138
20
6.213
30
0
0
VERTEX
8
0
10
9.138
20
6.238
30
0
0
VERTEX
8
0
10
9.388
20
6.238
30
0
0
VERTEX
8
0
10
9.388
20
6.213
30
0
0
VERTEX
8
0
10
9.663
20
6.213
30
0
0
VERTEX
8
0
10
9.663
20
6.238
30
0
0
VERTEX
8
0
10
10.81446875
20
6.238
30
0
42
0.9492735979993511
0
VERTEX
8
0
10
11.547728125
20
6.423940625
30
0
0
VERTEX
8
0
10
11.534896875000001
20
6.471828125
30
0
42
0.0418613957639549
0
VERTEX
8
0
10
11.509015625
20
6.529596875
30
0
0
VERTEX
8
0
10
12.53741875
20
7.558000000000001
30
0
0
VERTEX
8
0
10
13.393
20
7.558000000000001
30
0
0
VERTEX
8
0
10
13.393
20
7.133
30
0
0
VERTEX
8
0
10
14.293000000000001
20
7.133
30
0
0
VERTEX
8
0
10
14.293000000000001
20
7.5708
30
0
0
VERTEX
8
0
10
18.415
20
7.5708
30
0
42
0.198912367379658
0
VERTEX
8
0
10
18.485709375000003
20
7.600090625
30
0
0
VERTEX
8
0
10
18.91361875
20
8.028
30
0
0
VERTEX
8
0
10
19.0246
20
8.028
30
0
0
SEQEND
0
POLYLINE
66
1
8
1_copper
10
0.0
20
0.0
30
0.0
70
1
0
VERTEX
8
0
10
6.423940625
20
4.708271875
30
0
42
0.4846299041044785
0
VERTEX
8
0
10
6.693915625000001
20
5.238
30
0
0
VERTEX
8
0
10
7.863
20
5.238
30
0
0
VERTEX
8
0
10
7.863
20
5.213
30
0
0
VERTEX
8
0
10
8.138
20
5.213
30
0
0
VERTEX
8
0
10
8.138
20
5.463
30
0
0
VERTEX
8
0
10
7.863
20
5.463
30
0
0
VERTEX
8
0
10
7.863
20
5.438000000000001
30
0
0
VERTEX
8
0
10
6.6080000000000005
20
5.438000000000001
30
0
42
0.211670621275069
0
VERTEX
8
0
10
6.51763125
20
5.419925
30
0
0
VERTEX
8
0
10
6.471828125
20
5.438896875
30
0
0
VERTEX
8
0
10
6.423940625
20
5.451728125000001
30
0
0
VERTEX
8
0
10
6.3747875
20
5.458200000000001
30
0
0
VERTEX
8
0
10
6.3252125
20
5.458200000000001
30
0
0
VERTEX
8
0
10
6.276059375
20
5.451728125000001
30
0
0
VERTEX
8
0
10
6.228171875
20
5.438896875
30
0
0
VERTEX
8
0
10
6.18236875
20
5.419925
30
0
0
VERTEX
8
0
10
6.13943125
20
5.395137500000001
30
0
0
VERTEX
8
0
10
6.1001
20
5.3649562500000005
30
0
0
VERTEX
8
0
10
6.06504375
20
5.3299
30
0
0
VERTEX
8
0
10
6.0348625
20
5.29056875
30
0
0
VERTEX
8
0
10
6.0100750000000005
20
5.24763125
30
0
0
VERTEX
8
0
10
5.991103125
20
5.2018281250000005
30
0
0
VERTEX
8
0
10
5.978271875
20
5.153940625000001
30
0
0
VERTEX
8
0
10
5.9718
20
5.1047875000000005
30
0
0
VERTEX
8
0
10
5.9718
20
5.0552125000000006
30
0
0
VERTEX
8
0
10
5.978271875
20
5.006059375
30
0
0
VERTEX
8
0
10
5.991103125
20
4.958171875000001
30
0
0
VERTEX
8
0
10
6.0100750000000005
20
4.912368750000001
30
0
0
VERTEX
8
0
10
6.0348625
20
4.86943125
30
0
0
VERTEX
8
0
10
6.06504375
20
4.8301
30
0
0
VERTEX
8
0
10
6.1001
20
4.7950437500000005
30
0
0
VERTEX
8
0
10
6.13943125
20
4.7648625000000004
30
0
0
VERTEX
8
0
10
6.18236875
20
4.740075
30
0
0
VERTEX
8
0
10
6.228171875
20
4.721103125
30
0
0
VERTEX
8
0
10
6.276059375
20
4.708271875
30
0
0
VERTEX
8
0
10
6.3252125
20
4.7018
30
0
0
VERTEX
8
0
10
6.3747875
20
4.7018
30
0
0
SEQEND
0
POLYLINE
66
1
8
1_copper
10
0.0
20
0.0
30
0.0
70
1
0
VERTEX
8
0
10
11.249940625
20
3.4382718750000003
30
0
42
0.9999999999999999
0
VERTEX
8
0
10
11.102059375000001
20
4.181728125
30
0
0
VERTEX
8
0
10
11.054171875
20
4.168896875000001
30
0
42
0.047678323896508036
0
VERTEX
8
0
10
10.988793750000001
20
4.138625
30
0
0
VERTEX
8
0
10
10.218709375000001
20
4.908709375
30
0
42
0.198912367379658
0
VERTEX
8
0
10
10.148
20
4.938000000000001
30
0
0
VERTEX
8
0
10
9.663
20
4.938000000000001
30
0
0
VERTEX
8
0
10
9.663
20
4.963
30
0
0
VERTEX
8
0
10
9.388
20
4.963
30
0
0
VERTEX
8
0
10
9.388
20
4.713
30
0
0
VERTEX
8
0
10
9.663
20
4.713
30
0
0
VERTEX
8
0
10
9.663
20
4.738
30
0
0
VERTEX
8
0
10
10.10658125
20
4.738
30
0
0
VERTEX
8
0
10
10.847375000000001
20
3.99720625
30
0
0
VERTEX
8
0
10
10.836075000000001
20
3.9776312500000004
30
0
0
VERTEX
8
0
10
10.817103125000001
20
3.931828125
30
0
0
VERTEX
8
0
10
10.804271875000001
20
3.883940625
30
0
0
VERTEX
8
0
10
10.7978
20
3.8347875
30
0
0
VERTEX
8
0
10
10.7978
20
3.7852125
30
0
0
VERTEX
8
0
10
10.804271875000001
20
3.736059375
30
0
0
VERTEX
8
0
10
10.817103125000001
20
3.688171875
30
0
0
VERTEX
8
0
10
10.836075000000001
20
3.64236875
30
0
0
VERTEX
8
0
10
10.8608625
20
3.5994312500000003
30
0
0
VERTEX
8
0
10
10.89104375
20
3.5601000000000003
30
0
0
VERTEX
8
0
10
10.9261
20
3.52504375
30
0
0
VERTEX
8
0
10
10.96543125
20
3.4948625
30
0
0
VERTEX
8
0
10
11.00836875
20
3.470075
30
0
0
VERTEX
8
0
10
11.054171875
20
3.4511031250000004
30
0
0
VERTEX
8
0
10
11.102059375000001
20
3.4382718750000003
30
0
0
VERTEX
8
0
10
11.1512125
20
3.4318
30
0
0
VERTEX
8
0
10
11.2007875
20
3.4318
30
0
0
SEQEND
0
POLYLINE
66
1
8
16_copper
10
0.0
20
0.0
30
0.0
70
1
0
VERTEX
8
0
10
11.249940625
20
3.4382718750000003
30
0
42
0.7913013213052249
0
VERTEX
8
0
10
11.276
20
4.174746875
30
0
0
VERTEX
8
0
10
11.276
20
5.985253125000001
30
0
42
0.9649997013422168
0
VERTEX
8
0
10
11.102059375000001
20
6.721728125
30
0
0
VERTEX
8
0
10
11.054171875
20
6.708896875000001
30
0
42
0.7394108499080306
0
VERTEX
8
0
10
11.076
20
5.985253125000001
30
0
0
VERTEX
8
0
10
11.076
20
4.174746875
30
0
42
0.2648496704172174
0
VERTEX
8
0
10
10.811253125
20
3.91
30
0
0
VERTEX
8
0
10
7.66141875
20
3.91
30
0
0
VERTEX
8
0
10
6.678625
20
4.89279375
30
0
42
0.9650025036747096
0
VERTEX
8
0
10
6.0348625
20
5.29056875
30
0
0
VERTEX
8
0
10
6.0100750000000005
20
5.24763125
30
0
42
0.7394108884915952
0
VERTEX
8
0
10
6.5372062500000006
20
4.751375
30
0
0
VERTEX
8
0
10
7.549290625
20
3.739290625
30
0
42
0.198912367379658
0
VERTEX
8
0
10
7.62
20
3.71
30
0
0
VERTEX
8
0
10
10.811253125
20
3.71
30
0
0
VERTEX
8
0
10
10.817103125000001
20
3.688171875
30
0
0
VERTEX
8
0
10
10.836075000000001
20
3.64236875
30
0
0
VERTEX
8
0
10
10.8608625
20
3.5994312500000003
30
0
0
VERTEX
8
0
10
10.89104375
20
3.5601000000000003
30
0
0
VERTEX
8
0
10
10.9261
20
3.52504375
30
0
0
VERTEX
8
0
10
10.96543125
20
3.4948625
30
0
0
VERTEX
8
0
10
11.00836875
20
3.470075
30
0
0
VERTEX
8
0
10
11.054171875
20
3.4511031250000004
30
0
0
VERTEX
8
0
10
11.102059375000001
20
3.4382718750000003
30
0
0
VERTEX
8
0
10
11.1512125
20
3.4318
30
0
0
VERTEX
8
0
10
11.2007875
20
3.4318
30
0
0
SEQEND
0
POLYLINE
66
1
8
1_copper
10
0.0
20
0.0
30
0.0
70
1
0
VERTEX
8
0
10
3.69749375
20
2.94905625
30
0
42
0.12573310967825055
0
VERTEX
8
0
10
3.74318125
20
2.968134375
30
0
0
VERTEX
8
0
10
3.753709375
20
2.977290625
30
0
0
VERTEX
8
0
10
3.77521875
20
2.9988
30
0
0
VERTEX
8
0
10
8.1026
20
2.9988
30
0
42
0.198912367379658
0
VERTEX
8
0
10
8.173309375
20
3.028090625
30
0
0
VERTEX
8
0
10
8.570709375
20
3.425490625
30
0
42
0.198912367379658
0
VERTEX
8
0
10
8.6
20
3.4962
30
0
0
VERTEX
8
0
10
8.6
20
4.688000000000001
30
0
0
VERTEX
8
0
10
8.638
20
4.688000000000001
30
0
0
VERTEX
8
0
10
8.638
20
4.963
30
0
0
VERTEX
8
0
10
8.388
20
4.963
30
0
0
VERTEX
8
0
10
8.388
20
4.688000000000001
30
0
0
VERTEX
8
0
10
8.4
20
4.688000000000001
30
0
0
VERTEX
8
0
10
8.4
20
3.53761875
30
0
0
VERTEX
8
0
10
8.06118125
20
3.1988000000000003
30
0
0
VERTEX
8
0
10
3.7338
20
3.1988000000000003
30
0
42
0.3674069971767714
0
VERTEX
8
0
10
3.612290625
20
3.1187093750000003
30
0
0
VERTEX
8
0
10
3.5969843750000003
20
3.0990031250000003
30
0
0
VERTEX
8
0
10
3.587034375
20
3.076121875
30
0
0
VERTEX
8
0
10
3.5830593750000004
20
3.051490625
30
0
0
VERTEX
8
0
10
3.5853062500000004
20
3.026640625
30
0
0
VERTEX
8
0
10
3.5936375000000003
20
3.003121875
30
0
0
VERTEX
8
0
10
3.607528125
20
2.98239375
30
0
0
VERTEX
8
0
10
3.6261187500000003
20
2.965753125
30
0
0
VERTEX
8
0
10
3.64825
20
2.9542312500000003
30
0
0
VERTEX
8
0
10
3.672546875
20
2.9485468750000003
30
0
0
SEQEND
0
CIRCLE
8
drills_PTH
10
18.923000000000002
20
5.588
30
0
40
0.508
0
CIRCLE
8
drills_PTH
10
18.923000000000002
20
8.128
30
0
40
0.508
0
CIRCLE
8
drills_PTH
10
3.6830000000000003
20
3.048
30
0
40
0.508
0
CIRCLE
8
drills_PTH
10
3.6830000000000003
20
5.588
30
0
40
0.508
0
CIRCLE
8
drills_PTH
10
3.6830000000000003
20
8.128
30
0
40
0.508
0
CIRCLE
8
drills_via_1_16
10
11.176
20
3.81
30
0
40
0.17500000000000002
0
CIRCLE
8
drills_via_1_16
10
11.176
20
6.3500000000000005
30
0
40
0.17500000000000002
0
CIRCLE
8
drills_via_1_16
10
6.3500000000000005
20
5.08
30
0
40
0.17500000000000002
0
ENDSEC
0
EOF