G04 EAGLE Gerber RS-274X export*
G75*
%MOMM*%
%FSLAX34Y34*%
%LPD*%
%INTop Copper*%
%IPNEG*%
%AMOC8*
5,1,8,0,0,1.08239X$1,22.5*%
G01*
%ADD10C,1.879600*%
%ADD11R,4.100000X1.250000*%
%ADD12R,4.100000X0.900000*%
%ADD13R,1.800000X0.800000*%
%ADD14R,0.900000X1.050000*%
%ADD15C,0.200000*%
%ADD16C,0.254000*%

G36*
X344191Y162062D02*
X344191Y162062D01*
X344195Y162061D01*
X344287Y162085D01*
X344380Y162107D01*
X344383Y162110D01*
X344387Y162111D01*
X344523Y162207D01*
X348333Y166017D01*
X348338Y166024D01*
X348345Y166029D01*
X348392Y166106D01*
X348443Y166183D01*
X348444Y166191D01*
X348449Y166198D01*
X348462Y166288D01*
X348479Y166378D01*
X348477Y166387D01*
X348479Y166395D01*
X348456Y166483D01*
X348436Y166572D01*
X348431Y166579D01*
X348429Y166587D01*
X348333Y166723D01*
X344523Y170533D01*
X344519Y170535D01*
X344517Y170539D01*
X344437Y170590D01*
X344357Y170643D01*
X344353Y170644D01*
X344350Y170646D01*
X344256Y170662D01*
X344162Y170679D01*
X344158Y170678D01*
X344153Y170679D01*
X344062Y170657D01*
X343968Y170636D01*
X343964Y170634D01*
X343960Y170633D01*
X343884Y170577D01*
X343806Y170521D01*
X343803Y170518D01*
X343800Y170515D01*
X343751Y170433D01*
X343701Y170352D01*
X343701Y170348D01*
X343698Y170344D01*
X343671Y170180D01*
X343671Y162560D01*
X343672Y162556D01*
X343671Y162552D01*
X343691Y162458D01*
X343710Y162365D01*
X343713Y162362D01*
X343714Y162358D01*
X343769Y162280D01*
X343823Y162201D01*
X343826Y162199D01*
X343829Y162196D01*
X343910Y162146D01*
X343990Y162094D01*
X343995Y162093D01*
X343998Y162091D01*
X344092Y162077D01*
X344187Y162061D01*
X344191Y162062D01*
G37*
G36*
X344182Y143012D02*
X344182Y143012D01*
X344187Y143011D01*
X344278Y143033D01*
X344372Y143054D01*
X344376Y143056D01*
X344380Y143057D01*
X344456Y143113D01*
X344535Y143169D01*
X344537Y143172D01*
X344540Y143175D01*
X344589Y143257D01*
X344639Y143338D01*
X344639Y143342D01*
X344642Y143346D01*
X344669Y143510D01*
X344669Y151130D01*
X344668Y151134D01*
X344669Y151138D01*
X344649Y151232D01*
X344630Y151325D01*
X344627Y151328D01*
X344626Y151332D01*
X344571Y151410D01*
X344517Y151489D01*
X344514Y151491D01*
X344511Y151495D01*
X344430Y151544D01*
X344350Y151596D01*
X344345Y151597D01*
X344342Y151599D01*
X344248Y151613D01*
X344153Y151629D01*
X344149Y151628D01*
X344145Y151629D01*
X344053Y151605D01*
X343960Y151583D01*
X343957Y151580D01*
X343953Y151579D01*
X343817Y151483D01*
X340007Y147673D01*
X340002Y147666D01*
X339996Y147661D01*
X339948Y147584D01*
X339897Y147507D01*
X339896Y147499D01*
X339891Y147492D01*
X339878Y147402D01*
X339861Y147312D01*
X339863Y147304D01*
X339861Y147295D01*
X339884Y147207D01*
X339904Y147118D01*
X339909Y147111D01*
X339911Y147103D01*
X340007Y146967D01*
X343817Y143157D01*
X343821Y143155D01*
X343823Y143151D01*
X343903Y143100D01*
X343983Y143047D01*
X343987Y143046D01*
X343990Y143044D01*
X344084Y143028D01*
X344178Y143011D01*
X344182Y143012D01*
G37*
D10*
X63500Y50800D03*
X63500Y76200D03*
X63500Y254000D03*
X63500Y228600D03*
X63500Y203200D03*
X63500Y177800D03*
X63500Y152400D03*
X63500Y127000D03*
X63500Y101600D03*
D11*
X427990Y166560D03*
D12*
X427990Y194310D03*
D11*
X427990Y222060D03*
D13*
X198000Y205700D03*
X198000Y194700D03*
X198000Y183700D03*
X198000Y172700D03*
X198000Y161700D03*
X198000Y131700D03*
X198000Y120700D03*
X198000Y109700D03*
X198000Y98700D03*
X198000Y87700D03*
X198000Y76700D03*
X198000Y65700D03*
X318000Y205700D03*
X318000Y194700D03*
X318000Y183700D03*
X318000Y172700D03*
X318000Y161700D03*
X318000Y131700D03*
X318000Y120700D03*
X318000Y109700D03*
X318000Y98700D03*
X318000Y87700D03*
X318000Y76700D03*
X318000Y65700D03*
D14*
X132080Y75310D03*
X132080Y59310D03*
D15*
X198000Y205700D02*
X213400Y205700D01*
X271780Y147320D02*
X340000Y147320D01*
X342900Y147320D01*
X271780Y147320D02*
X213400Y205700D01*
X318000Y183700D02*
X335280Y184150D01*
X344170Y179070D01*
X335020Y76474D02*
X318000Y76700D01*
X279984Y76208D01*
X279400Y76200D01*
X123570Y50800D02*
X63500Y50800D01*
X123570Y50800D02*
X132080Y59310D01*
X159310Y59310D01*
X165700Y65700D02*
X198000Y65700D01*
X165700Y65700D02*
X159310Y59310D01*
X266208Y76208D02*
X279984Y76208D01*
X255700Y65700D02*
X198000Y65700D01*
X255700Y65700D02*
X266208Y76208D01*
X344170Y170180D02*
X344170Y179070D01*
X344170Y170180D02*
X344170Y162560D01*
X344170Y151490D01*
X344170Y143150D01*
X344170Y85624D01*
X335020Y76474D01*
X340000Y147320D02*
X344170Y151490D01*
X340000Y147320D02*
X344170Y143150D01*
X348170Y166560D02*
X427990Y166560D01*
X348170Y166560D02*
X344170Y162560D01*
X347790Y166560D02*
X348170Y166560D01*
X347790Y166560D02*
X344170Y170180D01*
X318000Y183700D02*
X301300Y183700D01*
X295000Y190000D01*
X295000Y200000D01*
X300700Y205700D01*
X318000Y205700D01*
X360700Y205700D01*
X377060Y222060D02*
X427990Y222060D01*
X377060Y222060D02*
X360700Y205700D01*
X131190Y76200D02*
X63500Y76200D01*
X131190Y76200D02*
X132080Y75310D01*
X133470Y76700D02*
X198000Y76700D01*
X133470Y76700D02*
X132080Y75310D01*
X120600Y120700D02*
X198000Y120700D01*
X88900Y152400D02*
X63500Y152400D01*
X88900Y152400D02*
X120600Y120700D01*
X106200Y109700D02*
X198000Y109700D01*
X106200Y109700D02*
X88900Y127000D01*
X63500Y127000D01*
X66400Y98700D02*
X198000Y98700D01*
X66400Y98700D02*
X63500Y101600D01*
X318000Y194700D02*
X427600Y194700D01*
X427990Y194310D01*
X198000Y131700D02*
X135000Y131700D01*
X88900Y177800D02*
X63500Y177800D01*
X88900Y177800D02*
X135000Y131700D01*
X122800Y194700D02*
X198000Y194700D01*
X88900Y228600D02*
X63500Y228600D01*
X88900Y228600D02*
X122800Y194700D01*
X269600Y98700D02*
X318000Y98700D01*
X88900Y203200D02*
X63500Y203200D01*
X220980Y147320D02*
X269600Y98700D01*
X220980Y147320D02*
X144780Y147320D01*
X88900Y203200D01*
X270100Y161700D02*
X318000Y161700D01*
X241300Y190500D02*
X241300Y228600D01*
X215900Y254000D01*
X63500Y254000D01*
X241300Y190500D02*
X270100Y161700D01*
D16*
X0Y0D02*
X449380Y0D01*
X449380Y301500D01*
X0Y301500D01*
X0Y0D01*
M02*
