G04 EAGLE Gerber RS-274X export*
G75*
%MOMM*%
%FSLAX34Y34*%
%LPD*%
%INSilkscreen Top*%
%IPPOS*%
%AMOC8*
5,1,8,0,0,1.08239X$1,22.5*%
G01*
%ADD10C,0.203200*%
%ADD11C,0.127000*%
%ADD12C,0.101600*%
%ADD13C,0.400000*%
%ADD14C,0.076200*%


D10*
X50800Y44450D02*
X50800Y57150D01*
X57150Y63500D01*
X69850Y63500D02*
X76200Y57150D01*
X57150Y63500D02*
X50800Y69850D01*
X50800Y82550D01*
X57150Y88900D01*
X69850Y88900D02*
X76200Y82550D01*
X76200Y69850D01*
X69850Y63500D01*
X69850Y38100D02*
X57150Y38100D01*
X50800Y44450D01*
X69850Y38100D02*
X76200Y44450D01*
X76200Y57150D01*
X69850Y88900D02*
X57150Y88900D01*
D11*
X47823Y40344D02*
X44069Y40344D01*
X47823Y40343D02*
X47888Y40341D01*
X47952Y40335D01*
X48016Y40325D01*
X48080Y40312D01*
X48142Y40294D01*
X48203Y40273D01*
X48263Y40249D01*
X48321Y40220D01*
X48378Y40188D01*
X48432Y40153D01*
X48484Y40115D01*
X48534Y40073D01*
X48581Y40029D01*
X48625Y39982D01*
X48667Y39932D01*
X48705Y39880D01*
X48740Y39826D01*
X48772Y39769D01*
X48801Y39711D01*
X48825Y39651D01*
X48846Y39590D01*
X48864Y39528D01*
X48877Y39464D01*
X48887Y39400D01*
X48893Y39336D01*
X48895Y39271D01*
X48895Y38735D01*
X44069Y44766D02*
X44071Y44834D01*
X44077Y44901D01*
X44086Y44968D01*
X44099Y45035D01*
X44116Y45100D01*
X44137Y45165D01*
X44161Y45228D01*
X44189Y45290D01*
X44220Y45350D01*
X44254Y45408D01*
X44292Y45464D01*
X44332Y45519D01*
X44376Y45570D01*
X44423Y45619D01*
X44472Y45666D01*
X44523Y45710D01*
X44578Y45750D01*
X44634Y45788D01*
X44692Y45822D01*
X44752Y45853D01*
X44814Y45881D01*
X44877Y45905D01*
X44942Y45926D01*
X45007Y45943D01*
X45074Y45956D01*
X45141Y45965D01*
X45208Y45971D01*
X45276Y45973D01*
X44069Y44766D02*
X44071Y44688D01*
X44077Y44610D01*
X44087Y44533D01*
X44100Y44456D01*
X44118Y44380D01*
X44139Y44305D01*
X44164Y44231D01*
X44193Y44159D01*
X44225Y44088D01*
X44261Y44019D01*
X44300Y43951D01*
X44343Y43886D01*
X44389Y43823D01*
X44438Y43762D01*
X44490Y43704D01*
X44545Y43649D01*
X44602Y43596D01*
X44662Y43547D01*
X44725Y43500D01*
X44790Y43457D01*
X44856Y43417D01*
X44925Y43380D01*
X44996Y43347D01*
X45068Y43317D01*
X45142Y43291D01*
X46214Y45571D02*
X46165Y45620D01*
X46113Y45667D01*
X46058Y45710D01*
X46001Y45751D01*
X45942Y45789D01*
X45881Y45823D01*
X45818Y45854D01*
X45754Y45882D01*
X45688Y45906D01*
X45622Y45926D01*
X45554Y45943D01*
X45485Y45956D01*
X45416Y45965D01*
X45346Y45971D01*
X45276Y45973D01*
X46214Y45571D02*
X48895Y43292D01*
X48895Y45973D01*
D10*
X76200Y95250D02*
X76200Y107950D01*
X76200Y95250D02*
X69850Y88900D01*
X57150Y88900D02*
X50800Y95250D01*
X76200Y133350D02*
X69850Y139700D01*
X76200Y133350D02*
X76200Y120650D01*
X69850Y114300D01*
X57150Y114300D02*
X50800Y120650D01*
X50800Y133350D01*
X57150Y139700D01*
X69850Y114300D02*
X76200Y107950D01*
X57150Y114300D02*
X50800Y107950D01*
X50800Y95250D01*
X76200Y171450D02*
X76200Y184150D01*
X76200Y171450D02*
X69850Y165100D01*
X57150Y165100D02*
X50800Y171450D01*
X69850Y165100D02*
X76200Y158750D01*
X76200Y146050D01*
X69850Y139700D01*
X57150Y139700D02*
X50800Y146050D01*
X50800Y158750D01*
X57150Y165100D01*
X76200Y209550D02*
X69850Y215900D01*
X76200Y209550D02*
X76200Y196850D01*
X69850Y190500D01*
X57150Y190500D02*
X50800Y196850D01*
X50800Y209550D01*
X57150Y215900D01*
X69850Y190500D02*
X76200Y184150D01*
X57150Y190500D02*
X50800Y184150D01*
X50800Y171450D01*
X76200Y247650D02*
X76200Y260350D01*
X76200Y247650D02*
X69850Y241300D01*
X57150Y241300D02*
X50800Y247650D01*
X69850Y241300D02*
X76200Y234950D01*
X76200Y222250D01*
X69850Y215900D01*
X57150Y215900D02*
X50800Y222250D01*
X50800Y234950D01*
X57150Y241300D01*
X57150Y266700D02*
X69850Y266700D01*
X76200Y260350D01*
X57150Y266700D02*
X50800Y260350D01*
X50800Y247650D01*
X57150Y88900D02*
X69850Y88900D01*
D11*
X78105Y260436D02*
X81859Y260436D01*
X81924Y260434D01*
X81988Y260428D01*
X82052Y260418D01*
X82116Y260405D01*
X82178Y260387D01*
X82239Y260366D01*
X82299Y260342D01*
X82357Y260313D01*
X82414Y260281D01*
X82468Y260246D01*
X82520Y260208D01*
X82570Y260166D01*
X82617Y260122D01*
X82661Y260075D01*
X82703Y260025D01*
X82741Y259973D01*
X82776Y259919D01*
X82808Y259862D01*
X82837Y259804D01*
X82861Y259744D01*
X82882Y259683D01*
X82900Y259621D01*
X82913Y259557D01*
X82923Y259493D01*
X82929Y259429D01*
X82931Y259364D01*
X82931Y258827D01*
X82931Y263384D02*
X82931Y264724D01*
X82929Y264795D01*
X82923Y264867D01*
X82914Y264937D01*
X82901Y265007D01*
X82884Y265077D01*
X82863Y265145D01*
X82839Y265212D01*
X82811Y265278D01*
X82780Y265342D01*
X82745Y265405D01*
X82707Y265465D01*
X82666Y265524D01*
X82622Y265580D01*
X82575Y265634D01*
X82526Y265685D01*
X82473Y265733D01*
X82418Y265779D01*
X82361Y265821D01*
X82301Y265861D01*
X82240Y265897D01*
X82176Y265930D01*
X82111Y265959D01*
X82045Y265985D01*
X81977Y266008D01*
X81908Y266027D01*
X81838Y266042D01*
X81768Y266053D01*
X81697Y266061D01*
X81626Y266065D01*
X81554Y266065D01*
X81483Y266061D01*
X81412Y266053D01*
X81342Y266042D01*
X81272Y266027D01*
X81203Y266008D01*
X81135Y265985D01*
X81069Y265959D01*
X81004Y265930D01*
X80940Y265897D01*
X80879Y265861D01*
X80819Y265821D01*
X80762Y265779D01*
X80707Y265733D01*
X80654Y265685D01*
X80605Y265634D01*
X80558Y265580D01*
X80514Y265524D01*
X80473Y265465D01*
X80435Y265405D01*
X80400Y265342D01*
X80369Y265278D01*
X80341Y265212D01*
X80317Y265145D01*
X80296Y265077D01*
X80279Y265007D01*
X80266Y264937D01*
X80257Y264867D01*
X80251Y264795D01*
X80249Y264724D01*
X78105Y264993D02*
X78105Y263384D01*
X78105Y264993D02*
X78107Y265058D01*
X78113Y265122D01*
X78123Y265186D01*
X78136Y265250D01*
X78154Y265312D01*
X78175Y265373D01*
X78199Y265433D01*
X78228Y265491D01*
X78260Y265548D01*
X78295Y265602D01*
X78333Y265654D01*
X78375Y265704D01*
X78419Y265751D01*
X78466Y265795D01*
X78516Y265837D01*
X78568Y265875D01*
X78622Y265910D01*
X78679Y265942D01*
X78737Y265971D01*
X78797Y265995D01*
X78858Y266016D01*
X78920Y266034D01*
X78984Y266047D01*
X79048Y266057D01*
X79112Y266063D01*
X79177Y266065D01*
X79242Y266063D01*
X79306Y266057D01*
X79370Y266047D01*
X79434Y266034D01*
X79496Y266016D01*
X79557Y265995D01*
X79617Y265971D01*
X79675Y265942D01*
X79732Y265910D01*
X79786Y265875D01*
X79838Y265837D01*
X79888Y265795D01*
X79935Y265751D01*
X79979Y265704D01*
X80021Y265654D01*
X80059Y265602D01*
X80094Y265548D01*
X80126Y265491D01*
X80155Y265433D01*
X80179Y265373D01*
X80200Y265312D01*
X80218Y265250D01*
X80231Y265186D01*
X80241Y265122D01*
X80247Y265058D01*
X80249Y264993D01*
X80250Y264993D02*
X80250Y263920D01*
D12*
X411798Y239713D02*
X420886Y239713D01*
X420886Y239712D02*
X420985Y239710D01*
X421085Y239704D01*
X421184Y239695D01*
X421282Y239682D01*
X421380Y239665D01*
X421478Y239644D01*
X421574Y239619D01*
X421669Y239591D01*
X421763Y239559D01*
X421856Y239524D01*
X421948Y239485D01*
X422038Y239442D01*
X422126Y239397D01*
X422213Y239347D01*
X422297Y239295D01*
X422380Y239239D01*
X422460Y239181D01*
X422538Y239119D01*
X422613Y239054D01*
X422686Y238986D01*
X422756Y238916D01*
X422824Y238843D01*
X422889Y238768D01*
X422951Y238690D01*
X423009Y238610D01*
X423065Y238527D01*
X423117Y238443D01*
X423167Y238356D01*
X423212Y238268D01*
X423255Y238178D01*
X423294Y238086D01*
X423329Y237993D01*
X423361Y237899D01*
X423389Y237804D01*
X423414Y237708D01*
X423435Y237610D01*
X423452Y237512D01*
X423465Y237414D01*
X423474Y237315D01*
X423480Y237215D01*
X423482Y237116D01*
X423482Y235818D01*
X420886Y244986D02*
X411798Y247583D01*
X420886Y244986D02*
X420886Y251477D01*
X418289Y249530D02*
X423482Y249530D01*
D11*
X306300Y214700D02*
X209700Y214700D01*
X209700Y54700D01*
X306300Y54700D01*
X306300Y214700D01*
D13*
X292900Y65800D02*
X292902Y65899D01*
X292908Y65999D01*
X292918Y66098D01*
X292932Y66196D01*
X292949Y66294D01*
X292971Y66391D01*
X292996Y66487D01*
X293025Y66582D01*
X293058Y66676D01*
X293095Y66768D01*
X293135Y66859D01*
X293179Y66948D01*
X293227Y67036D01*
X293278Y67121D01*
X293332Y67204D01*
X293389Y67286D01*
X293450Y67364D01*
X293514Y67441D01*
X293580Y67514D01*
X293650Y67585D01*
X293722Y67653D01*
X293797Y67719D01*
X293875Y67781D01*
X293955Y67840D01*
X294037Y67896D01*
X294121Y67948D01*
X294208Y67997D01*
X294296Y68043D01*
X294386Y68085D01*
X294478Y68124D01*
X294571Y68159D01*
X294665Y68190D01*
X294761Y68217D01*
X294858Y68240D01*
X294955Y68260D01*
X295053Y68276D01*
X295152Y68288D01*
X295251Y68296D01*
X295350Y68300D01*
X295450Y68300D01*
X295549Y68296D01*
X295648Y68288D01*
X295747Y68276D01*
X295845Y68260D01*
X295942Y68240D01*
X296039Y68217D01*
X296135Y68190D01*
X296229Y68159D01*
X296322Y68124D01*
X296414Y68085D01*
X296504Y68043D01*
X296592Y67997D01*
X296679Y67948D01*
X296763Y67896D01*
X296845Y67840D01*
X296925Y67781D01*
X297003Y67719D01*
X297078Y67653D01*
X297150Y67585D01*
X297220Y67514D01*
X297286Y67441D01*
X297350Y67364D01*
X297411Y67286D01*
X297468Y67204D01*
X297522Y67121D01*
X297573Y67036D01*
X297621Y66948D01*
X297665Y66859D01*
X297705Y66768D01*
X297742Y66676D01*
X297775Y66582D01*
X297804Y66487D01*
X297829Y66391D01*
X297851Y66294D01*
X297868Y66196D01*
X297882Y66098D01*
X297892Y65999D01*
X297898Y65899D01*
X297900Y65800D01*
X297898Y65701D01*
X297892Y65601D01*
X297882Y65502D01*
X297868Y65404D01*
X297851Y65306D01*
X297829Y65209D01*
X297804Y65113D01*
X297775Y65018D01*
X297742Y64924D01*
X297705Y64832D01*
X297665Y64741D01*
X297621Y64652D01*
X297573Y64564D01*
X297522Y64479D01*
X297468Y64396D01*
X297411Y64314D01*
X297350Y64236D01*
X297286Y64159D01*
X297220Y64086D01*
X297150Y64015D01*
X297078Y63947D01*
X297003Y63881D01*
X296925Y63819D01*
X296845Y63760D01*
X296763Y63704D01*
X296679Y63652D01*
X296592Y63603D01*
X296504Y63557D01*
X296414Y63515D01*
X296322Y63476D01*
X296229Y63441D01*
X296135Y63410D01*
X296039Y63383D01*
X295942Y63360D01*
X295845Y63340D01*
X295747Y63324D01*
X295648Y63312D01*
X295549Y63304D01*
X295450Y63300D01*
X295350Y63300D01*
X295251Y63304D01*
X295152Y63312D01*
X295053Y63324D01*
X294955Y63340D01*
X294858Y63360D01*
X294761Y63383D01*
X294665Y63410D01*
X294571Y63441D01*
X294478Y63476D01*
X294386Y63515D01*
X294296Y63557D01*
X294208Y63603D01*
X294121Y63652D01*
X294037Y63704D01*
X293955Y63760D01*
X293875Y63819D01*
X293797Y63881D01*
X293722Y63947D01*
X293650Y64015D01*
X293580Y64086D01*
X293514Y64159D01*
X293450Y64236D01*
X293389Y64314D01*
X293332Y64396D01*
X293278Y64479D01*
X293227Y64564D01*
X293179Y64652D01*
X293135Y64741D01*
X293095Y64832D01*
X293058Y64924D01*
X293025Y65018D01*
X292996Y65113D01*
X292971Y65209D01*
X292949Y65306D01*
X292932Y65404D01*
X292918Y65502D01*
X292908Y65601D01*
X292902Y65701D01*
X292900Y65800D01*
D14*
X221716Y140487D02*
X221716Y145186D01*
X221717Y140487D02*
X221719Y140410D01*
X221725Y140334D01*
X221734Y140257D01*
X221747Y140181D01*
X221764Y140106D01*
X221784Y140032D01*
X221809Y139959D01*
X221836Y139888D01*
X221867Y139817D01*
X221902Y139749D01*
X221940Y139682D01*
X221981Y139617D01*
X222025Y139554D01*
X222072Y139494D01*
X222123Y139435D01*
X222176Y139380D01*
X222231Y139327D01*
X222290Y139276D01*
X222350Y139229D01*
X222413Y139185D01*
X222478Y139144D01*
X222545Y139106D01*
X222613Y139071D01*
X222684Y139040D01*
X222755Y139013D01*
X222828Y138988D01*
X222902Y138968D01*
X222977Y138951D01*
X223053Y138938D01*
X223130Y138929D01*
X223206Y138923D01*
X223283Y138921D01*
X225893Y138921D01*
X225893Y145186D01*
X230121Y142576D02*
X236386Y142576D01*
X240660Y138921D02*
X240660Y148319D01*
X240660Y138921D02*
X243270Y138921D01*
X243347Y138923D01*
X243423Y138929D01*
X243500Y138938D01*
X243576Y138951D01*
X243651Y138968D01*
X243725Y138988D01*
X243798Y139013D01*
X243869Y139040D01*
X243940Y139071D01*
X244008Y139106D01*
X244075Y139144D01*
X244140Y139185D01*
X244203Y139229D01*
X244263Y139276D01*
X244322Y139327D01*
X244377Y139380D01*
X244430Y139435D01*
X244481Y139494D01*
X244528Y139554D01*
X244572Y139617D01*
X244613Y139682D01*
X244651Y139749D01*
X244686Y139817D01*
X244717Y139888D01*
X244744Y139959D01*
X244769Y140032D01*
X244789Y140106D01*
X244806Y140181D01*
X244819Y140257D01*
X244828Y140333D01*
X244834Y140410D01*
X244836Y140487D01*
X244836Y143620D01*
X244834Y143697D01*
X244828Y143773D01*
X244819Y143850D01*
X244806Y143926D01*
X244789Y144001D01*
X244769Y144075D01*
X244744Y144148D01*
X244717Y144219D01*
X244686Y144290D01*
X244651Y144358D01*
X244613Y144425D01*
X244572Y144490D01*
X244528Y144553D01*
X244481Y144613D01*
X244430Y144672D01*
X244377Y144727D01*
X244322Y144780D01*
X244263Y144831D01*
X244203Y144878D01*
X244140Y144922D01*
X244075Y144963D01*
X244008Y145001D01*
X243940Y145036D01*
X243869Y145067D01*
X243798Y145094D01*
X243725Y145119D01*
X243651Y145139D01*
X243576Y145156D01*
X243500Y145169D01*
X243423Y145178D01*
X243347Y145184D01*
X243270Y145186D01*
X240660Y145186D01*
X248664Y148319D02*
X248664Y140487D01*
X248666Y140410D01*
X248672Y140334D01*
X248681Y140257D01*
X248694Y140181D01*
X248711Y140106D01*
X248731Y140032D01*
X248756Y139959D01*
X248783Y139888D01*
X248814Y139817D01*
X248849Y139749D01*
X248887Y139682D01*
X248928Y139617D01*
X248972Y139554D01*
X249019Y139494D01*
X249070Y139435D01*
X249123Y139380D01*
X249178Y139327D01*
X249237Y139276D01*
X249297Y139229D01*
X249360Y139185D01*
X249425Y139144D01*
X249492Y139106D01*
X249560Y139071D01*
X249631Y139040D01*
X249702Y139013D01*
X249775Y138988D01*
X249849Y138968D01*
X249924Y138951D01*
X250000Y138938D01*
X250077Y138929D01*
X250153Y138923D01*
X250230Y138921D01*
X253415Y141009D02*
X253415Y143098D01*
X253416Y143098D02*
X253418Y143188D01*
X253424Y143277D01*
X253433Y143367D01*
X253447Y143456D01*
X253464Y143544D01*
X253485Y143631D01*
X253510Y143718D01*
X253539Y143803D01*
X253571Y143887D01*
X253606Y143969D01*
X253646Y144050D01*
X253688Y144129D01*
X253734Y144206D01*
X253784Y144281D01*
X253836Y144354D01*
X253892Y144425D01*
X253950Y144493D01*
X254012Y144558D01*
X254076Y144621D01*
X254143Y144681D01*
X254212Y144738D01*
X254284Y144792D01*
X254358Y144843D01*
X254434Y144891D01*
X254512Y144935D01*
X254592Y144976D01*
X254674Y145014D01*
X254757Y145048D01*
X254842Y145078D01*
X254928Y145105D01*
X255014Y145128D01*
X255102Y145147D01*
X255191Y145162D01*
X255280Y145174D01*
X255369Y145182D01*
X255459Y145186D01*
X255549Y145186D01*
X255639Y145182D01*
X255728Y145174D01*
X255817Y145162D01*
X255906Y145147D01*
X255994Y145128D01*
X256080Y145105D01*
X256166Y145078D01*
X256251Y145048D01*
X256334Y145014D01*
X256416Y144976D01*
X256496Y144935D01*
X256574Y144891D01*
X256650Y144843D01*
X256724Y144792D01*
X256796Y144738D01*
X256865Y144681D01*
X256932Y144621D01*
X256996Y144558D01*
X257058Y144493D01*
X257116Y144425D01*
X257172Y144354D01*
X257224Y144281D01*
X257274Y144206D01*
X257320Y144129D01*
X257362Y144050D01*
X257402Y143969D01*
X257437Y143887D01*
X257469Y143803D01*
X257498Y143718D01*
X257523Y143631D01*
X257544Y143544D01*
X257561Y143456D01*
X257575Y143367D01*
X257584Y143277D01*
X257590Y143188D01*
X257592Y143098D01*
X257592Y141009D01*
X257590Y140919D01*
X257584Y140830D01*
X257575Y140740D01*
X257561Y140651D01*
X257544Y140563D01*
X257523Y140476D01*
X257498Y140389D01*
X257469Y140304D01*
X257437Y140220D01*
X257402Y140138D01*
X257362Y140057D01*
X257320Y139978D01*
X257274Y139901D01*
X257224Y139826D01*
X257172Y139753D01*
X257116Y139682D01*
X257058Y139614D01*
X256996Y139549D01*
X256932Y139486D01*
X256865Y139426D01*
X256796Y139369D01*
X256724Y139315D01*
X256650Y139264D01*
X256574Y139216D01*
X256496Y139172D01*
X256416Y139131D01*
X256334Y139093D01*
X256251Y139059D01*
X256166Y139029D01*
X256080Y139002D01*
X255994Y138979D01*
X255906Y138960D01*
X255817Y138945D01*
X255728Y138933D01*
X255639Y138925D01*
X255549Y138921D01*
X255459Y138921D01*
X255369Y138925D01*
X255280Y138933D01*
X255191Y138945D01*
X255102Y138960D01*
X255014Y138979D01*
X254928Y139002D01*
X254842Y139029D01*
X254757Y139059D01*
X254674Y139093D01*
X254592Y139131D01*
X254512Y139172D01*
X254434Y139216D01*
X254358Y139264D01*
X254284Y139315D01*
X254212Y139369D01*
X254143Y139426D01*
X254076Y139486D01*
X254012Y139549D01*
X253950Y139614D01*
X253892Y139682D01*
X253836Y139753D01*
X253784Y139826D01*
X253734Y139901D01*
X253688Y139978D01*
X253646Y140057D01*
X253606Y140138D01*
X253571Y140220D01*
X253539Y140304D01*
X253510Y140389D01*
X253485Y140476D01*
X253464Y140563D01*
X253447Y140651D01*
X253433Y140740D01*
X253424Y140830D01*
X253418Y140919D01*
X253416Y141009D01*
X261035Y138921D02*
X265212Y145186D01*
X261035Y145186D02*
X265212Y138921D01*
X273924Y138921D02*
X273924Y148319D01*
X279145Y138921D01*
X279145Y148319D01*
X283695Y138921D02*
X287872Y138921D01*
X283695Y138921D02*
X283695Y148319D01*
X287872Y148319D01*
X286828Y144142D02*
X283695Y144142D01*
X291298Y145708D02*
X291298Y141532D01*
X291297Y145708D02*
X291299Y145809D01*
X291305Y145910D01*
X291315Y146011D01*
X291328Y146111D01*
X291346Y146211D01*
X291367Y146310D01*
X291393Y146408D01*
X291422Y146505D01*
X291454Y146601D01*
X291491Y146695D01*
X291531Y146788D01*
X291575Y146880D01*
X291622Y146969D01*
X291673Y147057D01*
X291727Y147143D01*
X291784Y147226D01*
X291844Y147308D01*
X291908Y147386D01*
X291974Y147463D01*
X292044Y147536D01*
X292116Y147607D01*
X292191Y147675D01*
X292269Y147740D01*
X292349Y147802D01*
X292431Y147861D01*
X292516Y147917D01*
X292603Y147969D01*
X292691Y148018D01*
X292782Y148064D01*
X292874Y148105D01*
X292968Y148144D01*
X293063Y148178D01*
X293159Y148209D01*
X293257Y148236D01*
X293355Y148260D01*
X293455Y148279D01*
X293555Y148295D01*
X293655Y148307D01*
X293756Y148315D01*
X293857Y148319D01*
X293959Y148319D01*
X294060Y148315D01*
X294161Y148307D01*
X294261Y148295D01*
X294361Y148279D01*
X294461Y148260D01*
X294559Y148236D01*
X294657Y148209D01*
X294753Y148178D01*
X294848Y148144D01*
X294942Y148105D01*
X295034Y148064D01*
X295125Y148018D01*
X295214Y147969D01*
X295300Y147917D01*
X295385Y147861D01*
X295467Y147802D01*
X295547Y147740D01*
X295625Y147675D01*
X295700Y147607D01*
X295772Y147536D01*
X295842Y147463D01*
X295908Y147386D01*
X295972Y147308D01*
X296032Y147226D01*
X296089Y147143D01*
X296143Y147057D01*
X296194Y146969D01*
X296241Y146880D01*
X296285Y146788D01*
X296325Y146695D01*
X296362Y146601D01*
X296394Y146505D01*
X296423Y146408D01*
X296449Y146310D01*
X296470Y146211D01*
X296488Y146111D01*
X296501Y146011D01*
X296511Y145910D01*
X296517Y145809D01*
X296519Y145708D01*
X296519Y141532D01*
X296517Y141431D01*
X296511Y141330D01*
X296501Y141229D01*
X296488Y141129D01*
X296470Y141029D01*
X296449Y140930D01*
X296423Y140832D01*
X296394Y140735D01*
X296362Y140639D01*
X296325Y140545D01*
X296285Y140452D01*
X296241Y140360D01*
X296194Y140271D01*
X296143Y140183D01*
X296089Y140097D01*
X296032Y140014D01*
X295972Y139932D01*
X295908Y139854D01*
X295842Y139777D01*
X295772Y139704D01*
X295700Y139633D01*
X295625Y139565D01*
X295547Y139500D01*
X295467Y139438D01*
X295385Y139379D01*
X295300Y139323D01*
X295213Y139271D01*
X295125Y139222D01*
X295034Y139176D01*
X294942Y139135D01*
X294848Y139096D01*
X294753Y139062D01*
X294657Y139031D01*
X294559Y139004D01*
X294461Y138980D01*
X294361Y138961D01*
X294261Y138945D01*
X294161Y138933D01*
X294060Y138925D01*
X293959Y138921D01*
X293857Y138921D01*
X293756Y138925D01*
X293655Y138933D01*
X293555Y138945D01*
X293455Y138961D01*
X293355Y138980D01*
X293257Y139004D01*
X293159Y139031D01*
X293063Y139062D01*
X292968Y139096D01*
X292874Y139135D01*
X292782Y139176D01*
X292691Y139222D01*
X292603Y139271D01*
X292516Y139323D01*
X292431Y139379D01*
X292349Y139438D01*
X292269Y139500D01*
X292191Y139565D01*
X292116Y139633D01*
X292044Y139704D01*
X291974Y139777D01*
X291908Y139854D01*
X291844Y139932D01*
X291784Y140014D01*
X291727Y140097D01*
X291673Y140183D01*
X291622Y140271D01*
X291575Y140360D01*
X291531Y140452D01*
X291491Y140545D01*
X291454Y140639D01*
X291422Y140735D01*
X291393Y140832D01*
X291367Y140930D01*
X291346Y141029D01*
X291328Y141129D01*
X291315Y141229D01*
X291305Y141330D01*
X291299Y141431D01*
X291297Y141532D01*
D12*
X151026Y48594D02*
X142588Y48594D01*
X151026Y48593D02*
X151139Y48595D01*
X151252Y48601D01*
X151365Y48611D01*
X151478Y48625D01*
X151590Y48642D01*
X151701Y48664D01*
X151811Y48689D01*
X151921Y48719D01*
X152029Y48752D01*
X152136Y48789D01*
X152242Y48829D01*
X152346Y48874D01*
X152449Y48922D01*
X152550Y48973D01*
X152649Y49028D01*
X152746Y49086D01*
X152841Y49148D01*
X152934Y49213D01*
X153024Y49281D01*
X153112Y49352D01*
X153198Y49427D01*
X153281Y49504D01*
X153361Y49584D01*
X153438Y49667D01*
X153513Y49753D01*
X153584Y49841D01*
X153652Y49931D01*
X153717Y50024D01*
X153779Y50119D01*
X153837Y50216D01*
X153892Y50315D01*
X153943Y50416D01*
X153991Y50519D01*
X154036Y50623D01*
X154076Y50729D01*
X154113Y50836D01*
X154146Y50944D01*
X154176Y51054D01*
X154201Y51164D01*
X154223Y51275D01*
X154240Y51387D01*
X154254Y51500D01*
X154264Y51613D01*
X154270Y51726D01*
X154272Y51839D01*
X154270Y51952D01*
X154264Y52065D01*
X154254Y52178D01*
X154240Y52291D01*
X154223Y52403D01*
X154201Y52514D01*
X154176Y52624D01*
X154146Y52734D01*
X154113Y52842D01*
X154076Y52949D01*
X154036Y53055D01*
X153991Y53159D01*
X153943Y53262D01*
X153892Y53363D01*
X153837Y53462D01*
X153779Y53559D01*
X153717Y53654D01*
X153652Y53747D01*
X153584Y53837D01*
X153513Y53925D01*
X153438Y54011D01*
X153361Y54094D01*
X153281Y54174D01*
X153198Y54251D01*
X153112Y54326D01*
X153024Y54397D01*
X152934Y54465D01*
X152841Y54530D01*
X152746Y54592D01*
X152649Y54650D01*
X152550Y54705D01*
X152449Y54756D01*
X152346Y54804D01*
X152242Y54849D01*
X152136Y54889D01*
X152029Y54926D01*
X151921Y54959D01*
X151811Y54989D01*
X151701Y55014D01*
X151590Y55036D01*
X151478Y55053D01*
X151365Y55067D01*
X151252Y55077D01*
X151139Y55083D01*
X151026Y55085D01*
X142588Y55085D01*
X142588Y62888D02*
X154272Y62888D01*
X148430Y62888D02*
X147456Y61266D01*
X147457Y61265D02*
X147410Y61192D01*
X147361Y61121D01*
X147308Y61052D01*
X147252Y60985D01*
X147193Y60921D01*
X147132Y60859D01*
X147068Y60801D01*
X147001Y60745D01*
X146932Y60693D01*
X146860Y60643D01*
X146786Y60597D01*
X146711Y60554D01*
X146633Y60515D01*
X146554Y60479D01*
X146473Y60447D01*
X146391Y60418D01*
X146308Y60393D01*
X146224Y60372D01*
X146139Y60355D01*
X146053Y60341D01*
X145967Y60332D01*
X145880Y60326D01*
X145793Y60324D01*
X145706Y60326D01*
X145619Y60332D01*
X145533Y60342D01*
X145447Y60355D01*
X145362Y60373D01*
X145278Y60394D01*
X145195Y60419D01*
X145112Y60448D01*
X145032Y60480D01*
X144953Y60516D01*
X144875Y60555D01*
X144800Y60598D01*
X144726Y60645D01*
X144655Y60694D01*
X144585Y60747D01*
X144519Y60802D01*
X144455Y60861D01*
X144393Y60922D01*
X144334Y60986D01*
X144279Y61053D01*
X144226Y61122D01*
X144176Y61194D01*
X144130Y61267D01*
X144087Y61343D01*
X144048Y61420D01*
X144012Y61499D01*
X143979Y61580D01*
X143951Y61662D01*
X143925Y61745D01*
X143904Y61829D01*
X143887Y61914D01*
X143886Y61915D02*
X143862Y62055D01*
X143842Y62197D01*
X143826Y62338D01*
X143815Y62480D01*
X143807Y62623D01*
X143803Y62765D01*
X143802Y62908D01*
X143806Y63051D01*
X143814Y63193D01*
X143826Y63335D01*
X143842Y63477D01*
X143861Y63618D01*
X143885Y63759D01*
X143912Y63899D01*
X143944Y64038D01*
X143979Y64176D01*
X144018Y64314D01*
X144061Y64450D01*
X144107Y64584D01*
X144158Y64718D01*
X144211Y64850D01*
X144269Y64980D01*
X144330Y65109D01*
X144395Y65236D01*
X144463Y65362D01*
X144535Y65485D01*
X148430Y62888D02*
X149404Y64511D01*
X149403Y64512D02*
X149450Y64585D01*
X149499Y64656D01*
X149552Y64726D01*
X149608Y64792D01*
X149667Y64856D01*
X149728Y64918D01*
X149792Y64976D01*
X149859Y65032D01*
X149928Y65084D01*
X150000Y65134D01*
X150074Y65180D01*
X150149Y65223D01*
X150227Y65262D01*
X150306Y65298D01*
X150387Y65330D01*
X150469Y65359D01*
X150552Y65384D01*
X150636Y65405D01*
X150721Y65422D01*
X150807Y65436D01*
X150894Y65445D01*
X150980Y65451D01*
X151067Y65453D01*
X151154Y65451D01*
X151241Y65445D01*
X151327Y65435D01*
X151413Y65422D01*
X151498Y65404D01*
X151582Y65383D01*
X151665Y65358D01*
X151748Y65329D01*
X151828Y65297D01*
X151907Y65261D01*
X151985Y65222D01*
X152060Y65179D01*
X152134Y65132D01*
X152205Y65083D01*
X152275Y65030D01*
X152341Y64975D01*
X152405Y64916D01*
X152467Y64855D01*
X152526Y64790D01*
X152581Y64724D01*
X152634Y64655D01*
X152684Y64583D01*
X152730Y64510D01*
X152773Y64434D01*
X152812Y64357D01*
X152848Y64278D01*
X152881Y64197D01*
X152909Y64115D01*
X152935Y64032D01*
X152956Y63948D01*
X152973Y63862D01*
X152974Y63862D02*
X152998Y63722D01*
X153018Y63580D01*
X153034Y63439D01*
X153045Y63297D01*
X153053Y63154D01*
X153057Y63012D01*
X153058Y62869D01*
X153054Y62726D01*
X153046Y62584D01*
X153034Y62442D01*
X153018Y62300D01*
X152999Y62159D01*
X152975Y62018D01*
X152948Y61878D01*
X152916Y61739D01*
X152881Y61601D01*
X152842Y61463D01*
X152799Y61327D01*
X152753Y61193D01*
X152702Y61059D01*
X152649Y60927D01*
X152591Y60797D01*
X152530Y60668D01*
X152465Y60541D01*
X152397Y60415D01*
X152325Y60292D01*
X149079Y72907D02*
X149079Y76802D01*
X149079Y72907D02*
X149077Y72808D01*
X149071Y72708D01*
X149062Y72609D01*
X149049Y72511D01*
X149032Y72413D01*
X149011Y72315D01*
X148986Y72219D01*
X148958Y72124D01*
X148926Y72030D01*
X148891Y71937D01*
X148852Y71845D01*
X148809Y71755D01*
X148764Y71667D01*
X148714Y71580D01*
X148662Y71496D01*
X148606Y71413D01*
X148548Y71333D01*
X148486Y71255D01*
X148421Y71180D01*
X148353Y71107D01*
X148283Y71037D01*
X148210Y70969D01*
X148135Y70904D01*
X148057Y70842D01*
X147977Y70784D01*
X147894Y70728D01*
X147810Y70676D01*
X147723Y70626D01*
X147635Y70581D01*
X147545Y70538D01*
X147453Y70499D01*
X147360Y70464D01*
X147266Y70432D01*
X147171Y70404D01*
X147075Y70379D01*
X146977Y70358D01*
X146879Y70341D01*
X146781Y70328D01*
X146682Y70319D01*
X146582Y70313D01*
X146483Y70311D01*
X145834Y70311D01*
X145834Y70310D02*
X145721Y70312D01*
X145608Y70318D01*
X145495Y70328D01*
X145382Y70342D01*
X145270Y70359D01*
X145159Y70381D01*
X145049Y70406D01*
X144939Y70436D01*
X144831Y70469D01*
X144724Y70506D01*
X144618Y70546D01*
X144514Y70591D01*
X144411Y70639D01*
X144310Y70690D01*
X144211Y70745D01*
X144114Y70803D01*
X144019Y70865D01*
X143926Y70930D01*
X143836Y70998D01*
X143748Y71069D01*
X143662Y71144D01*
X143579Y71221D01*
X143499Y71301D01*
X143422Y71384D01*
X143347Y71470D01*
X143276Y71558D01*
X143208Y71648D01*
X143143Y71741D01*
X143081Y71836D01*
X143023Y71933D01*
X142968Y72032D01*
X142917Y72133D01*
X142869Y72236D01*
X142824Y72340D01*
X142784Y72446D01*
X142747Y72553D01*
X142714Y72661D01*
X142684Y72771D01*
X142659Y72881D01*
X142637Y72992D01*
X142620Y73104D01*
X142606Y73217D01*
X142596Y73330D01*
X142590Y73443D01*
X142588Y73556D01*
X142590Y73669D01*
X142596Y73782D01*
X142606Y73895D01*
X142620Y74008D01*
X142637Y74120D01*
X142659Y74231D01*
X142684Y74341D01*
X142714Y74451D01*
X142747Y74559D01*
X142784Y74666D01*
X142824Y74772D01*
X142869Y74876D01*
X142917Y74979D01*
X142968Y75080D01*
X143023Y75179D01*
X143081Y75276D01*
X143143Y75371D01*
X143208Y75464D01*
X143276Y75554D01*
X143347Y75642D01*
X143422Y75728D01*
X143499Y75811D01*
X143579Y75891D01*
X143662Y75968D01*
X143748Y76043D01*
X143836Y76114D01*
X143926Y76182D01*
X144019Y76247D01*
X144114Y76309D01*
X144211Y76367D01*
X144310Y76422D01*
X144411Y76473D01*
X144514Y76521D01*
X144618Y76566D01*
X144724Y76606D01*
X144831Y76643D01*
X144939Y76676D01*
X145049Y76706D01*
X145159Y76731D01*
X145270Y76753D01*
X145382Y76770D01*
X145495Y76784D01*
X145608Y76794D01*
X145721Y76800D01*
X145834Y76802D01*
X149079Y76802D01*
X149222Y76800D01*
X149365Y76794D01*
X149508Y76784D01*
X149650Y76770D01*
X149792Y76753D01*
X149934Y76731D01*
X150075Y76706D01*
X150215Y76676D01*
X150354Y76643D01*
X150492Y76606D01*
X150629Y76565D01*
X150765Y76521D01*
X150900Y76472D01*
X151033Y76420D01*
X151165Y76365D01*
X151295Y76305D01*
X151424Y76242D01*
X151551Y76176D01*
X151676Y76106D01*
X151798Y76033D01*
X151919Y75956D01*
X152038Y75876D01*
X152154Y75793D01*
X152269Y75707D01*
X152380Y75618D01*
X152490Y75525D01*
X152596Y75430D01*
X152700Y75331D01*
X152801Y75230D01*
X152900Y75126D01*
X152995Y75020D01*
X153088Y74910D01*
X153177Y74799D01*
X153263Y74684D01*
X153346Y74568D01*
X153426Y74449D01*
X153503Y74328D01*
X153576Y74206D01*
X153646Y74081D01*
X153712Y73954D01*
X153775Y73825D01*
X153835Y73695D01*
X153890Y73563D01*
X153942Y73430D01*
X153991Y73295D01*
X154035Y73159D01*
X154076Y73022D01*
X154113Y72884D01*
X154146Y72745D01*
X154176Y72605D01*
X154201Y72464D01*
X154223Y72322D01*
X154240Y72180D01*
X154254Y72038D01*
X154264Y71895D01*
X154270Y71752D01*
X154272Y71609D01*
M02*
