G04 EAGLE Gerber RS-274X export*
G75*
%MOMM*%
%FSLAX34Y34*%
%LPD*%
%INBottom Copper*%
%IPPOS*%
%AMOC8*
5,1,8,0,0,1.08239X$1,22.5*%
G01*
%ADD10C,1.879600*%
%ADD11C,2.032000*%
%ADD12C,1.705100*%
%ADD13C,0.756400*%
%ADD14C,0.200000*%
%ADD15C,0.400000*%


D10*
X525500Y130500D03*
X500100Y130500D03*
X474700Y130500D03*
X449300Y130500D03*
X216600Y471150D03*
X216600Y496550D03*
X157500Y401500D03*
X132100Y401500D03*
D11*
X603600Y275200D03*
X603600Y199000D03*
X561700Y199000D03*
X561700Y275200D03*
X474700Y168600D03*
X474700Y244800D03*
X621350Y82550D03*
X545150Y82550D03*
X182500Y66800D03*
X258700Y66800D03*
D12*
X182500Y111700D03*
X182500Y137100D03*
X182500Y162500D03*
X182500Y187900D03*
X182500Y213300D03*
X182500Y238700D03*
X182500Y264100D03*
X182500Y289500D03*
X182500Y314900D03*
X182500Y340300D03*
X106300Y340300D03*
X106300Y314900D03*
X106300Y289500D03*
X106300Y264100D03*
X106300Y238700D03*
X106300Y213300D03*
X106300Y187900D03*
X106300Y162500D03*
X106300Y137100D03*
X106300Y111700D03*
D13*
X380000Y281000D03*
D14*
X408000Y281000D01*
D13*
X408000Y281000D03*
X260000Y335000D03*
X314200Y280800D03*
D15*
X260000Y335000D01*
D14*
X315000Y320000D02*
X410000Y415000D01*
X410000Y470000D01*
D13*
X410000Y470000D03*
X315000Y320000D03*
X305000Y460000D03*
D15*
X305000Y493750D01*
D13*
X305000Y493750D03*
X216000Y112000D03*
D15*
X216000Y316000D01*
X280000Y380000D01*
X305000Y380000D01*
D13*
X305000Y380000D03*
X232000Y137000D03*
D14*
X316000Y137000D01*
X522500Y343500D01*
D13*
X522500Y343500D03*
X220000Y350000D03*
D14*
X370000Y500000D01*
X460000Y500000D01*
X504000Y456000D02*
X504000Y388500D01*
D13*
X504000Y388500D03*
D14*
X504000Y456000D02*
X460000Y500000D01*
M02*
