G04 EAGLE Gerber RS-274X export*
G75*
%MOMM*%
%FSLAX34Y34*%
%LPD*%
%INSilkscreen Top*%
%IPPOS*%
%AMOC8*
5,1,8,0,0,1.08239X$1,22.5*%
G01*
%ADD10C,0.203200*%
%ADD11C,0.127000*%
%ADD12C,0.025400*%
%ADD13C,0.254000*%
%ADD14C,0.101600*%
%ADD15C,0.152400*%
%ADD16C,0.500000*%
%ADD17C,0.120000*%


D10*
X455650Y117800D02*
X442950Y117800D01*
X436600Y124150D01*
X436600Y136850D02*
X442950Y143200D01*
X481050Y117800D02*
X487400Y124150D01*
X481050Y117800D02*
X468350Y117800D01*
X462000Y124150D01*
X462000Y136850D02*
X468350Y143200D01*
X481050Y143200D01*
X487400Y136850D01*
X462000Y124150D02*
X455650Y117800D01*
X462000Y136850D02*
X455650Y143200D01*
X442950Y143200D01*
X519150Y117800D02*
X531850Y117800D01*
X519150Y117800D02*
X512800Y124150D01*
X512800Y136850D02*
X519150Y143200D01*
X512800Y124150D02*
X506450Y117800D01*
X493750Y117800D01*
X487400Y124150D01*
X487400Y136850D02*
X493750Y143200D01*
X506450Y143200D01*
X512800Y136850D01*
X538200Y136850D02*
X538200Y124150D01*
X531850Y117800D01*
X538200Y136850D02*
X531850Y143200D01*
X519150Y143200D01*
X436600Y136850D02*
X436600Y124150D01*
D11*
X531936Y115895D02*
X531936Y112141D01*
X531934Y112076D01*
X531928Y112012D01*
X531918Y111948D01*
X531905Y111884D01*
X531887Y111822D01*
X531866Y111761D01*
X531842Y111701D01*
X531813Y111643D01*
X531781Y111586D01*
X531746Y111532D01*
X531708Y111480D01*
X531666Y111430D01*
X531622Y111383D01*
X531575Y111339D01*
X531525Y111297D01*
X531473Y111259D01*
X531419Y111224D01*
X531362Y111192D01*
X531304Y111163D01*
X531244Y111139D01*
X531183Y111118D01*
X531121Y111100D01*
X531057Y111087D01*
X530993Y111077D01*
X530929Y111071D01*
X530864Y111069D01*
X530327Y111069D01*
X534884Y114823D02*
X536224Y115895D01*
X536224Y111069D01*
X534884Y111069D02*
X537565Y111069D01*
D10*
X203900Y464800D02*
X203900Y477500D01*
X210250Y483850D01*
X222950Y483850D02*
X229300Y477500D01*
X210250Y483850D02*
X203900Y490200D01*
X203900Y502900D01*
X210250Y509250D01*
X222950Y509250D02*
X229300Y502900D01*
X229300Y490200D01*
X222950Y483850D01*
X222950Y458450D02*
X210250Y458450D01*
X203900Y464800D01*
X222950Y458450D02*
X229300Y464800D01*
X229300Y477500D01*
X222950Y509250D02*
X210250Y509250D01*
D11*
X200923Y460694D02*
X197169Y460694D01*
X200923Y460693D02*
X200988Y460691D01*
X201052Y460685D01*
X201116Y460675D01*
X201180Y460662D01*
X201242Y460644D01*
X201303Y460623D01*
X201363Y460599D01*
X201421Y460570D01*
X201478Y460538D01*
X201532Y460503D01*
X201584Y460465D01*
X201634Y460423D01*
X201681Y460379D01*
X201725Y460332D01*
X201767Y460282D01*
X201805Y460230D01*
X201840Y460176D01*
X201872Y460119D01*
X201901Y460061D01*
X201925Y460001D01*
X201946Y459940D01*
X201964Y459878D01*
X201977Y459814D01*
X201987Y459750D01*
X201993Y459686D01*
X201995Y459621D01*
X201995Y459085D01*
X197169Y465116D02*
X197171Y465184D01*
X197177Y465251D01*
X197186Y465318D01*
X197199Y465385D01*
X197216Y465450D01*
X197237Y465515D01*
X197261Y465578D01*
X197289Y465640D01*
X197320Y465700D01*
X197354Y465758D01*
X197392Y465814D01*
X197432Y465869D01*
X197476Y465920D01*
X197523Y465969D01*
X197572Y466016D01*
X197623Y466060D01*
X197678Y466100D01*
X197734Y466138D01*
X197792Y466172D01*
X197852Y466203D01*
X197914Y466231D01*
X197977Y466255D01*
X198042Y466276D01*
X198107Y466293D01*
X198174Y466306D01*
X198241Y466315D01*
X198308Y466321D01*
X198376Y466323D01*
X197169Y465116D02*
X197171Y465038D01*
X197177Y464960D01*
X197187Y464883D01*
X197200Y464806D01*
X197218Y464730D01*
X197239Y464655D01*
X197264Y464581D01*
X197293Y464509D01*
X197325Y464438D01*
X197361Y464369D01*
X197400Y464301D01*
X197443Y464236D01*
X197489Y464173D01*
X197538Y464112D01*
X197590Y464054D01*
X197645Y463999D01*
X197702Y463946D01*
X197762Y463897D01*
X197825Y463850D01*
X197890Y463807D01*
X197956Y463767D01*
X198025Y463730D01*
X198096Y463697D01*
X198168Y463667D01*
X198242Y463641D01*
X199314Y465921D02*
X199265Y465970D01*
X199213Y466017D01*
X199158Y466060D01*
X199101Y466101D01*
X199042Y466139D01*
X198981Y466173D01*
X198918Y466204D01*
X198854Y466232D01*
X198788Y466256D01*
X198722Y466276D01*
X198654Y466293D01*
X198585Y466306D01*
X198516Y466315D01*
X198446Y466321D01*
X198376Y466323D01*
X199314Y465921D02*
X201995Y463642D01*
X201995Y466323D01*
D10*
X163850Y388800D02*
X151150Y388800D01*
X144800Y395150D01*
X144800Y407850D02*
X151150Y414200D01*
X144800Y395150D02*
X138450Y388800D01*
X125750Y388800D01*
X119400Y395150D01*
X119400Y407850D02*
X125750Y414200D01*
X138450Y414200D01*
X144800Y407850D01*
X170200Y407850D02*
X170200Y395150D01*
X163850Y388800D01*
X170200Y407850D02*
X163850Y414200D01*
X151150Y414200D01*
X119400Y407850D02*
X119400Y395150D01*
D11*
X163936Y386895D02*
X163936Y383141D01*
X163934Y383076D01*
X163928Y383012D01*
X163918Y382948D01*
X163905Y382884D01*
X163887Y382822D01*
X163866Y382761D01*
X163842Y382701D01*
X163813Y382643D01*
X163781Y382586D01*
X163746Y382532D01*
X163708Y382480D01*
X163666Y382430D01*
X163622Y382383D01*
X163575Y382339D01*
X163525Y382297D01*
X163473Y382259D01*
X163419Y382224D01*
X163362Y382192D01*
X163304Y382163D01*
X163244Y382139D01*
X163183Y382118D01*
X163121Y382100D01*
X163057Y382087D01*
X162993Y382077D01*
X162929Y382071D01*
X162864Y382069D01*
X162327Y382069D01*
X166884Y382069D02*
X168224Y382069D01*
X168295Y382071D01*
X168367Y382077D01*
X168437Y382086D01*
X168507Y382099D01*
X168577Y382116D01*
X168645Y382137D01*
X168712Y382161D01*
X168778Y382189D01*
X168842Y382220D01*
X168905Y382255D01*
X168965Y382293D01*
X169024Y382334D01*
X169080Y382378D01*
X169134Y382425D01*
X169185Y382474D01*
X169233Y382527D01*
X169279Y382582D01*
X169321Y382639D01*
X169361Y382699D01*
X169397Y382760D01*
X169430Y382824D01*
X169459Y382889D01*
X169485Y382955D01*
X169508Y383023D01*
X169527Y383092D01*
X169542Y383162D01*
X169553Y383232D01*
X169561Y383303D01*
X169565Y383374D01*
X169565Y383446D01*
X169561Y383517D01*
X169553Y383588D01*
X169542Y383658D01*
X169527Y383728D01*
X169508Y383797D01*
X169485Y383865D01*
X169459Y383931D01*
X169430Y383996D01*
X169397Y384060D01*
X169361Y384121D01*
X169321Y384181D01*
X169279Y384238D01*
X169233Y384293D01*
X169185Y384346D01*
X169134Y384395D01*
X169080Y384442D01*
X169024Y384486D01*
X168965Y384527D01*
X168905Y384565D01*
X168842Y384600D01*
X168778Y384631D01*
X168712Y384659D01*
X168645Y384683D01*
X168577Y384704D01*
X168507Y384721D01*
X168437Y384734D01*
X168367Y384743D01*
X168295Y384749D01*
X168224Y384751D01*
X168493Y386895D02*
X166884Y386895D01*
X168493Y386895D02*
X168558Y386893D01*
X168622Y386887D01*
X168686Y386877D01*
X168750Y386864D01*
X168812Y386846D01*
X168873Y386825D01*
X168933Y386801D01*
X168991Y386772D01*
X169048Y386740D01*
X169102Y386705D01*
X169154Y386667D01*
X169204Y386625D01*
X169251Y386581D01*
X169295Y386534D01*
X169337Y386484D01*
X169375Y386432D01*
X169410Y386378D01*
X169442Y386321D01*
X169471Y386263D01*
X169495Y386203D01*
X169516Y386142D01*
X169534Y386080D01*
X169547Y386016D01*
X169557Y385952D01*
X169563Y385888D01*
X169565Y385823D01*
X169563Y385758D01*
X169557Y385694D01*
X169547Y385630D01*
X169534Y385566D01*
X169516Y385504D01*
X169495Y385443D01*
X169471Y385383D01*
X169442Y385325D01*
X169410Y385268D01*
X169375Y385214D01*
X169337Y385162D01*
X169295Y385112D01*
X169251Y385065D01*
X169204Y385021D01*
X169154Y384979D01*
X169102Y384941D01*
X169048Y384906D01*
X168991Y384874D01*
X168933Y384845D01*
X168873Y384821D01*
X168812Y384800D01*
X168750Y384782D01*
X168686Y384769D01*
X168622Y384759D01*
X168558Y384753D01*
X168493Y384751D01*
X168493Y384750D02*
X167420Y384750D01*
X225200Y540950D02*
X233500Y540950D01*
X233500Y528950D02*
X225200Y528950D01*
D12*
X227021Y545377D02*
X227021Y549187D01*
X227021Y545377D02*
X228714Y545377D01*
X230062Y548340D02*
X231121Y549187D01*
X231121Y545377D01*
X232179Y545377D02*
X230062Y545377D01*
D11*
X234000Y435700D02*
X225700Y435700D01*
X225700Y423700D02*
X234000Y423700D01*
D12*
X227521Y440127D02*
X227521Y443937D01*
X227521Y440127D02*
X229214Y440127D01*
X232680Y442985D02*
X232678Y443045D01*
X232672Y443104D01*
X232663Y443164D01*
X232650Y443222D01*
X232633Y443279D01*
X232613Y443336D01*
X232589Y443391D01*
X232562Y443444D01*
X232532Y443496D01*
X232498Y443545D01*
X232461Y443592D01*
X232422Y443637D01*
X232379Y443680D01*
X232334Y443719D01*
X232287Y443756D01*
X232238Y443790D01*
X232186Y443820D01*
X232133Y443847D01*
X232078Y443871D01*
X232021Y443891D01*
X231964Y443908D01*
X231906Y443921D01*
X231846Y443930D01*
X231787Y443936D01*
X231727Y443938D01*
X231727Y443937D02*
X231660Y443935D01*
X231593Y443930D01*
X231527Y443921D01*
X231461Y443908D01*
X231397Y443892D01*
X231333Y443872D01*
X231270Y443848D01*
X231208Y443822D01*
X231149Y443792D01*
X231091Y443759D01*
X231034Y443722D01*
X230980Y443683D01*
X230928Y443641D01*
X230879Y443596D01*
X230832Y443548D01*
X230788Y443498D01*
X230746Y443445D01*
X230708Y443390D01*
X230672Y443334D01*
X230640Y443275D01*
X230611Y443215D01*
X230585Y443153D01*
X230563Y443090D01*
X232362Y442244D02*
X232403Y442286D01*
X232442Y442331D01*
X232479Y442377D01*
X232513Y442426D01*
X232544Y442476D01*
X232571Y442528D01*
X232596Y442582D01*
X232618Y442637D01*
X232637Y442693D01*
X232652Y442750D01*
X232664Y442808D01*
X232672Y442867D01*
X232677Y442926D01*
X232679Y442985D01*
X232362Y442244D02*
X230562Y440127D01*
X232679Y440127D01*
D13*
X616300Y262500D02*
X616300Y211700D01*
X603600Y211700D01*
X590900Y211700D01*
X590900Y262500D01*
X603600Y262500D01*
X616300Y262500D01*
X603600Y211700D02*
X603600Y209160D01*
X603600Y262500D02*
X603600Y265040D01*
D11*
X619475Y233048D02*
X624301Y233048D01*
X619475Y233048D02*
X619475Y234389D01*
X619477Y234460D01*
X619483Y234532D01*
X619492Y234602D01*
X619505Y234672D01*
X619522Y234742D01*
X619543Y234810D01*
X619567Y234877D01*
X619595Y234943D01*
X619626Y235007D01*
X619661Y235070D01*
X619699Y235130D01*
X619740Y235189D01*
X619784Y235245D01*
X619831Y235299D01*
X619880Y235350D01*
X619933Y235398D01*
X619988Y235444D01*
X620045Y235486D01*
X620105Y235526D01*
X620166Y235562D01*
X620230Y235595D01*
X620295Y235624D01*
X620361Y235650D01*
X620429Y235673D01*
X620498Y235692D01*
X620568Y235707D01*
X620638Y235718D01*
X620709Y235726D01*
X620780Y235730D01*
X620852Y235730D01*
X620923Y235726D01*
X620994Y235718D01*
X621064Y235707D01*
X621134Y235692D01*
X621203Y235673D01*
X621271Y235650D01*
X621337Y235624D01*
X621402Y235595D01*
X621466Y235562D01*
X621527Y235526D01*
X621587Y235486D01*
X621644Y235444D01*
X621699Y235398D01*
X621752Y235350D01*
X621801Y235299D01*
X621848Y235245D01*
X621892Y235189D01*
X621933Y235130D01*
X621971Y235070D01*
X622006Y235007D01*
X622037Y234943D01*
X622065Y234877D01*
X622089Y234810D01*
X622110Y234742D01*
X622127Y234672D01*
X622140Y234602D01*
X622149Y234532D01*
X622155Y234460D01*
X622157Y234389D01*
X622156Y234389D02*
X622156Y233048D01*
X622156Y234657D02*
X624301Y235729D01*
X620547Y238471D02*
X619475Y239811D01*
X624301Y239811D01*
X624301Y238471D02*
X624301Y241152D01*
D13*
X549000Y262500D02*
X549000Y211700D01*
X549000Y262500D02*
X561700Y262500D01*
X574400Y262500D01*
X574400Y211700D01*
X561700Y211700D01*
X549000Y211700D01*
X561700Y262500D02*
X561700Y265040D01*
X561700Y211700D02*
X561700Y209160D01*
D11*
X545825Y233048D02*
X540999Y233048D01*
X540999Y234389D01*
X541001Y234460D01*
X541007Y234532D01*
X541016Y234602D01*
X541029Y234672D01*
X541046Y234742D01*
X541067Y234810D01*
X541091Y234877D01*
X541119Y234943D01*
X541150Y235007D01*
X541185Y235070D01*
X541223Y235130D01*
X541264Y235189D01*
X541308Y235245D01*
X541355Y235299D01*
X541404Y235350D01*
X541457Y235398D01*
X541512Y235444D01*
X541569Y235486D01*
X541629Y235526D01*
X541690Y235562D01*
X541754Y235595D01*
X541819Y235624D01*
X541885Y235650D01*
X541953Y235673D01*
X542022Y235692D01*
X542092Y235707D01*
X542162Y235718D01*
X542233Y235726D01*
X542304Y235730D01*
X542376Y235730D01*
X542447Y235726D01*
X542518Y235718D01*
X542588Y235707D01*
X542658Y235692D01*
X542727Y235673D01*
X542795Y235650D01*
X542861Y235624D01*
X542926Y235595D01*
X542990Y235562D01*
X543051Y235526D01*
X543111Y235486D01*
X543168Y235444D01*
X543223Y235398D01*
X543276Y235350D01*
X543325Y235299D01*
X543372Y235245D01*
X543416Y235189D01*
X543457Y235130D01*
X543495Y235070D01*
X543530Y235007D01*
X543561Y234943D01*
X543589Y234877D01*
X543613Y234810D01*
X543634Y234742D01*
X543651Y234672D01*
X543664Y234602D01*
X543673Y234532D01*
X543679Y234460D01*
X543681Y234389D01*
X543680Y234389D02*
X543680Y233048D01*
X543680Y234657D02*
X545825Y235729D01*
X540999Y239945D02*
X541001Y240013D01*
X541007Y240080D01*
X541016Y240147D01*
X541029Y240214D01*
X541046Y240279D01*
X541067Y240344D01*
X541091Y240407D01*
X541119Y240469D01*
X541150Y240529D01*
X541184Y240587D01*
X541222Y240643D01*
X541262Y240698D01*
X541306Y240749D01*
X541353Y240798D01*
X541402Y240845D01*
X541453Y240889D01*
X541508Y240929D01*
X541564Y240967D01*
X541622Y241001D01*
X541682Y241032D01*
X541744Y241060D01*
X541807Y241084D01*
X541872Y241105D01*
X541937Y241122D01*
X542004Y241135D01*
X542071Y241144D01*
X542138Y241150D01*
X542206Y241152D01*
X540999Y239945D02*
X541001Y239867D01*
X541007Y239789D01*
X541017Y239712D01*
X541030Y239635D01*
X541048Y239559D01*
X541069Y239484D01*
X541094Y239410D01*
X541123Y239338D01*
X541155Y239267D01*
X541191Y239198D01*
X541230Y239130D01*
X541273Y239065D01*
X541319Y239002D01*
X541368Y238941D01*
X541420Y238883D01*
X541475Y238828D01*
X541532Y238775D01*
X541592Y238726D01*
X541655Y238679D01*
X541720Y238636D01*
X541786Y238596D01*
X541855Y238559D01*
X541926Y238526D01*
X541998Y238496D01*
X542072Y238470D01*
X543144Y240750D02*
X543095Y240799D01*
X543043Y240846D01*
X542988Y240889D01*
X542931Y240930D01*
X542872Y240968D01*
X542811Y241002D01*
X542748Y241033D01*
X542684Y241061D01*
X542618Y241085D01*
X542552Y241105D01*
X542484Y241122D01*
X542415Y241135D01*
X542346Y241144D01*
X542276Y241150D01*
X542206Y241152D01*
X543144Y240750D02*
X545825Y238471D01*
X545825Y241152D01*
D13*
X462000Y232100D02*
X462000Y181300D01*
X462000Y232100D02*
X474700Y232100D01*
X487400Y232100D01*
X487400Y181300D01*
X474700Y181300D01*
X462000Y181300D01*
X474700Y232100D02*
X474700Y234640D01*
X474700Y181300D02*
X474700Y178760D01*
D11*
X458825Y202648D02*
X453999Y202648D01*
X453999Y203989D01*
X454001Y204060D01*
X454007Y204132D01*
X454016Y204202D01*
X454029Y204272D01*
X454046Y204342D01*
X454067Y204410D01*
X454091Y204477D01*
X454119Y204543D01*
X454150Y204607D01*
X454185Y204670D01*
X454223Y204730D01*
X454264Y204789D01*
X454308Y204845D01*
X454355Y204899D01*
X454404Y204950D01*
X454457Y204998D01*
X454512Y205044D01*
X454569Y205086D01*
X454629Y205126D01*
X454690Y205162D01*
X454754Y205195D01*
X454819Y205224D01*
X454885Y205250D01*
X454953Y205273D01*
X455022Y205292D01*
X455092Y205307D01*
X455162Y205318D01*
X455233Y205326D01*
X455304Y205330D01*
X455376Y205330D01*
X455447Y205326D01*
X455518Y205318D01*
X455588Y205307D01*
X455658Y205292D01*
X455727Y205273D01*
X455795Y205250D01*
X455861Y205224D01*
X455926Y205195D01*
X455990Y205162D01*
X456051Y205126D01*
X456111Y205086D01*
X456168Y205044D01*
X456223Y204998D01*
X456276Y204950D01*
X456325Y204899D01*
X456372Y204845D01*
X456416Y204789D01*
X456457Y204730D01*
X456495Y204670D01*
X456530Y204607D01*
X456561Y204543D01*
X456589Y204477D01*
X456613Y204410D01*
X456634Y204342D01*
X456651Y204272D01*
X456664Y204202D01*
X456673Y204132D01*
X456679Y204060D01*
X456681Y203989D01*
X456680Y203989D02*
X456680Y202648D01*
X456680Y204257D02*
X458825Y205329D01*
X458825Y208071D02*
X458825Y209411D01*
X458823Y209482D01*
X458817Y209554D01*
X458808Y209624D01*
X458795Y209694D01*
X458778Y209764D01*
X458757Y209832D01*
X458733Y209899D01*
X458705Y209965D01*
X458674Y210029D01*
X458639Y210092D01*
X458601Y210152D01*
X458560Y210211D01*
X458516Y210267D01*
X458469Y210321D01*
X458420Y210372D01*
X458367Y210420D01*
X458312Y210466D01*
X458255Y210508D01*
X458195Y210548D01*
X458134Y210584D01*
X458070Y210617D01*
X458005Y210646D01*
X457939Y210672D01*
X457871Y210695D01*
X457802Y210714D01*
X457732Y210729D01*
X457662Y210740D01*
X457591Y210748D01*
X457520Y210752D01*
X457448Y210752D01*
X457377Y210748D01*
X457306Y210740D01*
X457236Y210729D01*
X457166Y210714D01*
X457097Y210695D01*
X457029Y210672D01*
X456963Y210646D01*
X456898Y210617D01*
X456834Y210584D01*
X456773Y210548D01*
X456713Y210508D01*
X456656Y210466D01*
X456601Y210420D01*
X456548Y210372D01*
X456499Y210321D01*
X456452Y210267D01*
X456408Y210211D01*
X456367Y210152D01*
X456329Y210092D01*
X456294Y210029D01*
X456263Y209965D01*
X456235Y209899D01*
X456211Y209832D01*
X456190Y209764D01*
X456173Y209694D01*
X456160Y209624D01*
X456151Y209554D01*
X456145Y209482D01*
X456143Y209411D01*
X453999Y209679D02*
X453999Y208071D01*
X453999Y209679D02*
X454001Y209744D01*
X454007Y209808D01*
X454017Y209872D01*
X454030Y209936D01*
X454048Y209998D01*
X454069Y210059D01*
X454093Y210119D01*
X454122Y210177D01*
X454154Y210234D01*
X454189Y210288D01*
X454227Y210340D01*
X454269Y210390D01*
X454313Y210437D01*
X454360Y210481D01*
X454410Y210523D01*
X454462Y210561D01*
X454516Y210596D01*
X454573Y210628D01*
X454631Y210657D01*
X454691Y210681D01*
X454752Y210702D01*
X454814Y210720D01*
X454878Y210733D01*
X454942Y210743D01*
X455006Y210749D01*
X455071Y210751D01*
X455136Y210749D01*
X455200Y210743D01*
X455264Y210733D01*
X455328Y210720D01*
X455390Y210702D01*
X455451Y210681D01*
X455511Y210657D01*
X455569Y210628D01*
X455626Y210596D01*
X455680Y210561D01*
X455732Y210523D01*
X455782Y210481D01*
X455829Y210437D01*
X455873Y210390D01*
X455915Y210340D01*
X455953Y210288D01*
X455988Y210234D01*
X456020Y210177D01*
X456049Y210119D01*
X456073Y210059D01*
X456094Y209998D01*
X456112Y209936D01*
X456125Y209872D01*
X456135Y209808D01*
X456141Y209744D01*
X456143Y209679D01*
X456144Y209679D02*
X456144Y208607D01*
D13*
X557850Y69850D02*
X608650Y69850D01*
X557850Y69850D02*
X557850Y82550D01*
X557850Y95250D01*
X608650Y95250D01*
X608650Y82550D01*
X608650Y69850D01*
X557850Y82550D02*
X555310Y82550D01*
X608650Y82550D02*
X611190Y82550D01*
D11*
X576455Y66675D02*
X576455Y61849D01*
X576455Y66675D02*
X577795Y66675D01*
X577866Y66673D01*
X577938Y66667D01*
X578008Y66658D01*
X578078Y66645D01*
X578148Y66628D01*
X578216Y66607D01*
X578283Y66583D01*
X578349Y66555D01*
X578413Y66524D01*
X578476Y66489D01*
X578536Y66451D01*
X578595Y66410D01*
X578651Y66366D01*
X578705Y66319D01*
X578756Y66270D01*
X578804Y66217D01*
X578850Y66162D01*
X578892Y66105D01*
X578932Y66045D01*
X578968Y65984D01*
X579001Y65920D01*
X579030Y65855D01*
X579056Y65789D01*
X579079Y65721D01*
X579098Y65652D01*
X579113Y65582D01*
X579124Y65512D01*
X579132Y65441D01*
X579136Y65370D01*
X579136Y65298D01*
X579132Y65227D01*
X579124Y65156D01*
X579113Y65086D01*
X579098Y65016D01*
X579079Y64947D01*
X579056Y64879D01*
X579030Y64813D01*
X579001Y64748D01*
X578968Y64684D01*
X578932Y64623D01*
X578892Y64563D01*
X578850Y64506D01*
X578804Y64451D01*
X578756Y64398D01*
X578705Y64349D01*
X578651Y64302D01*
X578595Y64258D01*
X578536Y64217D01*
X578476Y64179D01*
X578413Y64144D01*
X578349Y64113D01*
X578283Y64085D01*
X578216Y64061D01*
X578148Y64040D01*
X578078Y64023D01*
X578008Y64010D01*
X577938Y64001D01*
X577866Y63995D01*
X577795Y63993D01*
X577795Y63994D02*
X576455Y63994D01*
X578064Y63994D02*
X579136Y61849D01*
X581878Y61849D02*
X583218Y61849D01*
X583289Y61851D01*
X583361Y61857D01*
X583431Y61866D01*
X583501Y61879D01*
X583571Y61896D01*
X583639Y61917D01*
X583706Y61941D01*
X583772Y61969D01*
X583836Y62000D01*
X583899Y62035D01*
X583959Y62073D01*
X584018Y62114D01*
X584074Y62158D01*
X584128Y62205D01*
X584179Y62254D01*
X584227Y62307D01*
X584273Y62362D01*
X584315Y62419D01*
X584355Y62479D01*
X584391Y62540D01*
X584424Y62604D01*
X584453Y62669D01*
X584479Y62735D01*
X584502Y62803D01*
X584521Y62872D01*
X584536Y62942D01*
X584547Y63012D01*
X584555Y63083D01*
X584559Y63154D01*
X584559Y63226D01*
X584555Y63297D01*
X584547Y63368D01*
X584536Y63438D01*
X584521Y63508D01*
X584502Y63577D01*
X584479Y63645D01*
X584453Y63711D01*
X584424Y63776D01*
X584391Y63840D01*
X584355Y63901D01*
X584315Y63961D01*
X584273Y64018D01*
X584227Y64073D01*
X584179Y64126D01*
X584128Y64175D01*
X584074Y64222D01*
X584018Y64266D01*
X583959Y64307D01*
X583899Y64345D01*
X583836Y64380D01*
X583772Y64411D01*
X583706Y64439D01*
X583639Y64463D01*
X583571Y64484D01*
X583501Y64501D01*
X583431Y64514D01*
X583361Y64523D01*
X583289Y64529D01*
X583218Y64531D01*
X583486Y66675D02*
X581878Y66675D01*
X583486Y66675D02*
X583551Y66673D01*
X583615Y66667D01*
X583679Y66657D01*
X583743Y66644D01*
X583805Y66626D01*
X583866Y66605D01*
X583926Y66581D01*
X583984Y66552D01*
X584041Y66520D01*
X584095Y66485D01*
X584147Y66447D01*
X584197Y66405D01*
X584244Y66361D01*
X584288Y66314D01*
X584330Y66264D01*
X584368Y66212D01*
X584403Y66158D01*
X584435Y66101D01*
X584464Y66043D01*
X584488Y65983D01*
X584509Y65922D01*
X584527Y65860D01*
X584540Y65796D01*
X584550Y65732D01*
X584556Y65668D01*
X584558Y65603D01*
X584556Y65538D01*
X584550Y65474D01*
X584540Y65410D01*
X584527Y65346D01*
X584509Y65284D01*
X584488Y65223D01*
X584464Y65163D01*
X584435Y65105D01*
X584403Y65048D01*
X584368Y64994D01*
X584330Y64942D01*
X584288Y64892D01*
X584244Y64845D01*
X584197Y64801D01*
X584147Y64759D01*
X584095Y64721D01*
X584041Y64686D01*
X583984Y64654D01*
X583926Y64625D01*
X583866Y64601D01*
X583805Y64580D01*
X583743Y64562D01*
X583679Y64549D01*
X583615Y64539D01*
X583551Y64533D01*
X583486Y64531D01*
X583486Y64530D02*
X582414Y64530D01*
X587364Y66139D02*
X587364Y66675D01*
X590045Y66675D01*
X588704Y61849D01*
D13*
X246000Y79500D02*
X195200Y79500D01*
X246000Y79500D02*
X246000Y66800D01*
X246000Y54100D01*
X195200Y54100D01*
X195200Y66800D01*
X195200Y79500D01*
X246000Y66800D02*
X248540Y66800D01*
X195200Y66800D02*
X192660Y66800D01*
D11*
X213805Y82675D02*
X213805Y87501D01*
X215146Y87501D01*
X215217Y87499D01*
X215289Y87493D01*
X215359Y87484D01*
X215429Y87471D01*
X215499Y87454D01*
X215567Y87433D01*
X215634Y87409D01*
X215700Y87381D01*
X215764Y87350D01*
X215827Y87315D01*
X215887Y87277D01*
X215946Y87236D01*
X216002Y87192D01*
X216056Y87145D01*
X216107Y87096D01*
X216155Y87043D01*
X216201Y86988D01*
X216243Y86931D01*
X216283Y86871D01*
X216319Y86810D01*
X216352Y86746D01*
X216381Y86681D01*
X216407Y86615D01*
X216430Y86547D01*
X216449Y86478D01*
X216464Y86408D01*
X216475Y86338D01*
X216483Y86267D01*
X216487Y86196D01*
X216487Y86124D01*
X216483Y86053D01*
X216475Y85982D01*
X216464Y85912D01*
X216449Y85842D01*
X216430Y85773D01*
X216407Y85705D01*
X216381Y85639D01*
X216352Y85574D01*
X216319Y85510D01*
X216283Y85449D01*
X216243Y85389D01*
X216201Y85332D01*
X216155Y85277D01*
X216107Y85224D01*
X216056Y85175D01*
X216002Y85128D01*
X215946Y85084D01*
X215887Y85043D01*
X215827Y85005D01*
X215764Y84970D01*
X215700Y84939D01*
X215634Y84911D01*
X215567Y84887D01*
X215499Y84866D01*
X215429Y84849D01*
X215359Y84836D01*
X215289Y84827D01*
X215217Y84821D01*
X215146Y84819D01*
X215146Y84820D02*
X213805Y84820D01*
X215414Y84820D02*
X216486Y82675D01*
X219228Y82675D02*
X220568Y82675D01*
X220639Y82677D01*
X220711Y82683D01*
X220781Y82692D01*
X220851Y82705D01*
X220921Y82722D01*
X220989Y82743D01*
X221056Y82767D01*
X221122Y82795D01*
X221186Y82826D01*
X221249Y82861D01*
X221309Y82899D01*
X221368Y82940D01*
X221424Y82984D01*
X221478Y83031D01*
X221529Y83080D01*
X221577Y83133D01*
X221623Y83188D01*
X221665Y83245D01*
X221705Y83305D01*
X221741Y83366D01*
X221774Y83430D01*
X221803Y83495D01*
X221829Y83561D01*
X221852Y83629D01*
X221871Y83698D01*
X221886Y83768D01*
X221897Y83838D01*
X221905Y83909D01*
X221909Y83980D01*
X221909Y84052D01*
X221905Y84123D01*
X221897Y84194D01*
X221886Y84264D01*
X221871Y84334D01*
X221852Y84403D01*
X221829Y84471D01*
X221803Y84537D01*
X221774Y84602D01*
X221741Y84666D01*
X221705Y84727D01*
X221665Y84787D01*
X221623Y84844D01*
X221577Y84899D01*
X221529Y84952D01*
X221478Y85001D01*
X221424Y85048D01*
X221368Y85092D01*
X221309Y85133D01*
X221249Y85171D01*
X221186Y85206D01*
X221122Y85237D01*
X221056Y85265D01*
X220989Y85289D01*
X220921Y85310D01*
X220851Y85327D01*
X220781Y85340D01*
X220711Y85349D01*
X220639Y85355D01*
X220568Y85357D01*
X220836Y87501D02*
X219228Y87501D01*
X220836Y87501D02*
X220901Y87499D01*
X220965Y87493D01*
X221029Y87483D01*
X221093Y87470D01*
X221155Y87452D01*
X221216Y87431D01*
X221276Y87407D01*
X221334Y87378D01*
X221391Y87346D01*
X221445Y87311D01*
X221497Y87273D01*
X221547Y87231D01*
X221594Y87187D01*
X221638Y87140D01*
X221680Y87090D01*
X221718Y87038D01*
X221753Y86984D01*
X221785Y86927D01*
X221814Y86869D01*
X221838Y86809D01*
X221859Y86748D01*
X221877Y86686D01*
X221890Y86622D01*
X221900Y86558D01*
X221906Y86494D01*
X221908Y86429D01*
X221906Y86364D01*
X221900Y86300D01*
X221890Y86236D01*
X221877Y86172D01*
X221859Y86110D01*
X221838Y86049D01*
X221814Y85989D01*
X221785Y85931D01*
X221753Y85874D01*
X221718Y85820D01*
X221680Y85768D01*
X221638Y85718D01*
X221594Y85671D01*
X221547Y85627D01*
X221497Y85585D01*
X221445Y85547D01*
X221391Y85512D01*
X221334Y85480D01*
X221276Y85451D01*
X221216Y85427D01*
X221155Y85406D01*
X221093Y85388D01*
X221029Y85375D01*
X220965Y85365D01*
X220901Y85359D01*
X220836Y85357D01*
X220836Y85356D02*
X219764Y85356D01*
X224714Y84016D02*
X224716Y84087D01*
X224722Y84159D01*
X224731Y84229D01*
X224744Y84299D01*
X224761Y84369D01*
X224782Y84437D01*
X224806Y84504D01*
X224834Y84570D01*
X224865Y84634D01*
X224900Y84697D01*
X224938Y84757D01*
X224979Y84816D01*
X225023Y84872D01*
X225070Y84926D01*
X225119Y84977D01*
X225172Y85025D01*
X225227Y85071D01*
X225284Y85113D01*
X225344Y85153D01*
X225405Y85189D01*
X225469Y85222D01*
X225534Y85251D01*
X225600Y85277D01*
X225668Y85300D01*
X225737Y85319D01*
X225807Y85334D01*
X225877Y85345D01*
X225948Y85353D01*
X226019Y85357D01*
X226091Y85357D01*
X226162Y85353D01*
X226233Y85345D01*
X226303Y85334D01*
X226373Y85319D01*
X226442Y85300D01*
X226510Y85277D01*
X226576Y85251D01*
X226641Y85222D01*
X226705Y85189D01*
X226766Y85153D01*
X226826Y85113D01*
X226883Y85071D01*
X226938Y85025D01*
X226991Y84977D01*
X227040Y84926D01*
X227087Y84872D01*
X227131Y84816D01*
X227172Y84757D01*
X227210Y84697D01*
X227245Y84634D01*
X227276Y84570D01*
X227304Y84504D01*
X227328Y84437D01*
X227349Y84369D01*
X227366Y84299D01*
X227379Y84229D01*
X227388Y84159D01*
X227394Y84087D01*
X227396Y84016D01*
X227394Y83945D01*
X227388Y83873D01*
X227379Y83803D01*
X227366Y83733D01*
X227349Y83663D01*
X227328Y83595D01*
X227304Y83528D01*
X227276Y83462D01*
X227245Y83398D01*
X227210Y83335D01*
X227172Y83275D01*
X227131Y83216D01*
X227087Y83160D01*
X227040Y83106D01*
X226991Y83055D01*
X226938Y83007D01*
X226883Y82961D01*
X226826Y82919D01*
X226766Y82879D01*
X226705Y82843D01*
X226641Y82810D01*
X226576Y82781D01*
X226510Y82755D01*
X226442Y82732D01*
X226373Y82713D01*
X226303Y82698D01*
X226233Y82687D01*
X226162Y82679D01*
X226091Y82675D01*
X226019Y82675D01*
X225948Y82679D01*
X225877Y82687D01*
X225807Y82698D01*
X225737Y82713D01*
X225668Y82732D01*
X225600Y82755D01*
X225534Y82781D01*
X225469Y82810D01*
X225405Y82843D01*
X225344Y82879D01*
X225284Y82919D01*
X225227Y82961D01*
X225172Y83007D01*
X225119Y83055D01*
X225070Y83106D01*
X225023Y83160D01*
X224979Y83216D01*
X224938Y83275D01*
X224900Y83335D01*
X224865Y83398D01*
X224834Y83462D01*
X224806Y83528D01*
X224782Y83595D01*
X224761Y83663D01*
X224744Y83733D01*
X224731Y83803D01*
X224722Y83873D01*
X224716Y83945D01*
X224714Y84016D01*
X224983Y86429D02*
X224985Y86494D01*
X224991Y86558D01*
X225001Y86622D01*
X225014Y86686D01*
X225032Y86748D01*
X225053Y86809D01*
X225077Y86869D01*
X225106Y86927D01*
X225138Y86984D01*
X225173Y87038D01*
X225211Y87090D01*
X225253Y87140D01*
X225297Y87187D01*
X225344Y87231D01*
X225394Y87273D01*
X225446Y87311D01*
X225500Y87346D01*
X225557Y87378D01*
X225615Y87407D01*
X225675Y87431D01*
X225736Y87452D01*
X225798Y87470D01*
X225862Y87483D01*
X225926Y87493D01*
X225990Y87499D01*
X226055Y87501D01*
X226120Y87499D01*
X226184Y87493D01*
X226248Y87483D01*
X226312Y87470D01*
X226374Y87452D01*
X226435Y87431D01*
X226495Y87407D01*
X226553Y87378D01*
X226610Y87346D01*
X226664Y87311D01*
X226716Y87273D01*
X226766Y87231D01*
X226813Y87187D01*
X226857Y87140D01*
X226899Y87090D01*
X226937Y87038D01*
X226972Y86984D01*
X227004Y86927D01*
X227033Y86869D01*
X227057Y86809D01*
X227078Y86748D01*
X227096Y86686D01*
X227109Y86622D01*
X227119Y86558D01*
X227125Y86494D01*
X227127Y86429D01*
X227125Y86364D01*
X227119Y86300D01*
X227109Y86236D01*
X227096Y86172D01*
X227078Y86110D01*
X227057Y86049D01*
X227033Y85989D01*
X227004Y85931D01*
X226972Y85874D01*
X226937Y85820D01*
X226899Y85768D01*
X226857Y85718D01*
X226813Y85671D01*
X226766Y85627D01*
X226716Y85585D01*
X226664Y85547D01*
X226610Y85512D01*
X226553Y85480D01*
X226495Y85451D01*
X226435Y85427D01*
X226374Y85406D01*
X226312Y85388D01*
X226248Y85375D01*
X226184Y85365D01*
X226120Y85359D01*
X226055Y85357D01*
X225990Y85359D01*
X225926Y85365D01*
X225862Y85375D01*
X225798Y85388D01*
X225736Y85406D01*
X225675Y85427D01*
X225615Y85451D01*
X225557Y85480D01*
X225500Y85512D01*
X225446Y85547D01*
X225394Y85585D01*
X225344Y85627D01*
X225297Y85671D01*
X225253Y85718D01*
X225211Y85768D01*
X225173Y85820D01*
X225138Y85874D01*
X225106Y85931D01*
X225077Y85989D01*
X225053Y86049D01*
X225032Y86110D01*
X225014Y86172D01*
X225001Y86236D01*
X224991Y86300D01*
X224985Y86364D01*
X224983Y86429D01*
D14*
X262578Y120308D02*
X262578Y131992D01*
X259333Y131992D02*
X265824Y131992D01*
X270001Y129396D02*
X273246Y131992D01*
X273246Y120308D01*
X270001Y120308D02*
X276492Y120308D01*
D15*
X452950Y282250D02*
X452950Y359750D01*
X452950Y282250D02*
X496450Y282250D01*
X496450Y359750D01*
X452950Y359750D01*
X457235Y352506D02*
X457237Y352611D01*
X457243Y352716D01*
X457253Y352820D01*
X457267Y352924D01*
X457285Y353028D01*
X457306Y353130D01*
X457332Y353232D01*
X457361Y353333D01*
X457394Y353432D01*
X457431Y353531D01*
X457472Y353627D01*
X457516Y353723D01*
X457564Y353816D01*
X457615Y353908D01*
X457670Y353997D01*
X457728Y354085D01*
X457790Y354170D01*
X457854Y354252D01*
X457922Y354333D01*
X457992Y354410D01*
X458066Y354485D01*
X458142Y354557D01*
X458221Y354626D01*
X458303Y354693D01*
X458387Y354756D01*
X458473Y354815D01*
X458561Y354872D01*
X458652Y354925D01*
X458744Y354974D01*
X458839Y355020D01*
X458935Y355063D01*
X459032Y355102D01*
X459131Y355137D01*
X459231Y355168D01*
X459333Y355195D01*
X459435Y355219D01*
X459538Y355239D01*
X459642Y355255D01*
X459746Y355267D01*
X459851Y355275D01*
X459956Y355279D01*
X460060Y355279D01*
X460165Y355275D01*
X460270Y355267D01*
X460374Y355255D01*
X460478Y355239D01*
X460581Y355219D01*
X460683Y355195D01*
X460785Y355168D01*
X460885Y355137D01*
X460984Y355102D01*
X461081Y355063D01*
X461177Y355020D01*
X461272Y354974D01*
X461364Y354925D01*
X461455Y354872D01*
X461543Y354815D01*
X461629Y354756D01*
X461713Y354693D01*
X461795Y354626D01*
X461874Y354557D01*
X461950Y354485D01*
X462024Y354410D01*
X462094Y354333D01*
X462162Y354252D01*
X462226Y354170D01*
X462288Y354085D01*
X462346Y353997D01*
X462401Y353908D01*
X462452Y353816D01*
X462500Y353723D01*
X462544Y353627D01*
X462585Y353531D01*
X462622Y353432D01*
X462655Y353333D01*
X462684Y353232D01*
X462710Y353130D01*
X462731Y353028D01*
X462749Y352924D01*
X462763Y352820D01*
X462773Y352716D01*
X462779Y352611D01*
X462781Y352506D01*
X462779Y352401D01*
X462773Y352296D01*
X462763Y352192D01*
X462749Y352088D01*
X462731Y351984D01*
X462710Y351882D01*
X462684Y351780D01*
X462655Y351679D01*
X462622Y351580D01*
X462585Y351481D01*
X462544Y351385D01*
X462500Y351289D01*
X462452Y351196D01*
X462401Y351104D01*
X462346Y351015D01*
X462288Y350927D01*
X462226Y350842D01*
X462162Y350760D01*
X462094Y350679D01*
X462024Y350602D01*
X461950Y350527D01*
X461874Y350455D01*
X461795Y350386D01*
X461713Y350319D01*
X461629Y350256D01*
X461543Y350197D01*
X461455Y350140D01*
X461364Y350087D01*
X461272Y350038D01*
X461177Y349992D01*
X461081Y349949D01*
X460984Y349910D01*
X460885Y349875D01*
X460785Y349844D01*
X460683Y349817D01*
X460581Y349793D01*
X460478Y349773D01*
X460374Y349757D01*
X460270Y349745D01*
X460165Y349737D01*
X460060Y349733D01*
X459956Y349733D01*
X459851Y349737D01*
X459746Y349745D01*
X459642Y349757D01*
X459538Y349773D01*
X459435Y349793D01*
X459333Y349817D01*
X459231Y349844D01*
X459131Y349875D01*
X459032Y349910D01*
X458935Y349949D01*
X458839Y349992D01*
X458744Y350038D01*
X458652Y350087D01*
X458561Y350140D01*
X458473Y350197D01*
X458387Y350256D01*
X458303Y350319D01*
X458221Y350386D01*
X458142Y350455D01*
X458066Y350527D01*
X457992Y350602D01*
X457922Y350679D01*
X457854Y350760D01*
X457790Y350842D01*
X457728Y350927D01*
X457670Y351015D01*
X457615Y351104D01*
X457564Y351196D01*
X457516Y351289D01*
X457472Y351385D01*
X457431Y351481D01*
X457394Y351580D01*
X457361Y351679D01*
X457332Y351780D01*
X457306Y351882D01*
X457285Y351984D01*
X457267Y352088D01*
X457253Y352192D01*
X457243Y352296D01*
X457237Y352401D01*
X457235Y352506D01*
D14*
X454380Y366004D02*
X454380Y372608D01*
X454380Y366004D02*
X454382Y365904D01*
X454388Y365805D01*
X454398Y365705D01*
X454411Y365607D01*
X454429Y365508D01*
X454450Y365411D01*
X454475Y365315D01*
X454504Y365219D01*
X454537Y365125D01*
X454573Y365032D01*
X454613Y364941D01*
X454657Y364851D01*
X454704Y364763D01*
X454754Y364677D01*
X454808Y364593D01*
X454865Y364511D01*
X454925Y364432D01*
X454989Y364354D01*
X455055Y364280D01*
X455124Y364208D01*
X455196Y364139D01*
X455270Y364073D01*
X455348Y364009D01*
X455427Y363949D01*
X455509Y363892D01*
X455593Y363838D01*
X455679Y363788D01*
X455767Y363741D01*
X455857Y363697D01*
X455948Y363657D01*
X456041Y363621D01*
X456135Y363588D01*
X456231Y363559D01*
X456327Y363534D01*
X456424Y363513D01*
X456523Y363495D01*
X456621Y363482D01*
X456721Y363472D01*
X456820Y363466D01*
X456920Y363464D01*
X457020Y363466D01*
X457119Y363472D01*
X457219Y363482D01*
X457317Y363495D01*
X457416Y363513D01*
X457513Y363534D01*
X457609Y363559D01*
X457705Y363588D01*
X457799Y363621D01*
X457892Y363657D01*
X457983Y363697D01*
X458073Y363741D01*
X458161Y363788D01*
X458247Y363838D01*
X458331Y363892D01*
X458413Y363949D01*
X458492Y364009D01*
X458570Y364073D01*
X458644Y364139D01*
X458716Y364208D01*
X458785Y364280D01*
X458851Y364354D01*
X458915Y364432D01*
X458975Y364511D01*
X459032Y364593D01*
X459086Y364677D01*
X459136Y364763D01*
X459183Y364851D01*
X459227Y364941D01*
X459267Y365032D01*
X459303Y365125D01*
X459336Y365219D01*
X459365Y365315D01*
X459390Y365411D01*
X459411Y365508D01*
X459429Y365607D01*
X459442Y365705D01*
X459452Y365805D01*
X459458Y365904D01*
X459460Y366004D01*
X459460Y372608D01*
X465759Y372608D02*
X465759Y363464D01*
X465759Y368036D02*
X464489Y368798D01*
X464425Y368839D01*
X464362Y368883D01*
X464302Y368931D01*
X464245Y368981D01*
X464190Y369034D01*
X464137Y369090D01*
X464088Y369148D01*
X464042Y369209D01*
X463998Y369272D01*
X463958Y369337D01*
X463921Y369404D01*
X463888Y369473D01*
X463858Y369544D01*
X463832Y369615D01*
X463810Y369689D01*
X463791Y369763D01*
X463776Y369838D01*
X463764Y369913D01*
X463757Y369989D01*
X463753Y370066D01*
X463754Y370142D01*
X463758Y370219D01*
X463766Y370295D01*
X463777Y370370D01*
X463793Y370445D01*
X463812Y370519D01*
X463835Y370592D01*
X463862Y370664D01*
X463892Y370734D01*
X463926Y370803D01*
X463963Y370870D01*
X464004Y370934D01*
X464048Y370997D01*
X464094Y371058D01*
X464144Y371116D01*
X464197Y371171D01*
X464252Y371224D01*
X464310Y371274D01*
X464371Y371321D01*
X464433Y371364D01*
X464498Y371405D01*
X464565Y371442D01*
X464634Y371476D01*
X464704Y371506D01*
X464776Y371533D01*
X464848Y371556D01*
X464922Y371576D01*
X464997Y371591D01*
X464998Y371592D02*
X465122Y371613D01*
X465247Y371630D01*
X465373Y371643D01*
X465499Y371652D01*
X465625Y371657D01*
X465751Y371658D01*
X465877Y371655D01*
X466003Y371648D01*
X466129Y371637D01*
X466254Y371623D01*
X466379Y371604D01*
X466503Y371581D01*
X466626Y371555D01*
X466749Y371525D01*
X466870Y371490D01*
X466991Y371452D01*
X467110Y371411D01*
X467228Y371365D01*
X467344Y371316D01*
X467459Y371264D01*
X467572Y371207D01*
X467683Y371148D01*
X467792Y371084D01*
X465759Y368036D02*
X467029Y367274D01*
X467093Y367233D01*
X467156Y367189D01*
X467216Y367141D01*
X467273Y367091D01*
X467328Y367038D01*
X467381Y366982D01*
X467430Y366924D01*
X467476Y366863D01*
X467520Y366800D01*
X467560Y366735D01*
X467597Y366668D01*
X467630Y366599D01*
X467660Y366528D01*
X467686Y366457D01*
X467708Y366383D01*
X467727Y366309D01*
X467742Y366234D01*
X467754Y366159D01*
X467761Y366083D01*
X467765Y366006D01*
X467764Y365930D01*
X467760Y365853D01*
X467752Y365777D01*
X467741Y365702D01*
X467725Y365627D01*
X467706Y365553D01*
X467683Y365480D01*
X467656Y365408D01*
X467626Y365338D01*
X467592Y365269D01*
X467555Y365202D01*
X467514Y365138D01*
X467470Y365075D01*
X467424Y365014D01*
X467374Y364956D01*
X467321Y364901D01*
X467266Y364848D01*
X467208Y364798D01*
X467147Y364751D01*
X467085Y364708D01*
X467020Y364667D01*
X466953Y364630D01*
X466884Y364596D01*
X466814Y364566D01*
X466742Y364539D01*
X466670Y364516D01*
X466596Y364496D01*
X466521Y364481D01*
X466521Y364480D02*
X466397Y364459D01*
X466272Y364442D01*
X466146Y364429D01*
X466020Y364420D01*
X465894Y364415D01*
X465768Y364414D01*
X465642Y364417D01*
X465516Y364424D01*
X465390Y364435D01*
X465265Y364449D01*
X465140Y364468D01*
X465016Y364491D01*
X464893Y364517D01*
X464770Y364547D01*
X464649Y364582D01*
X464528Y364620D01*
X464409Y364661D01*
X464291Y364707D01*
X464175Y364756D01*
X464060Y364808D01*
X463947Y364865D01*
X463836Y364924D01*
X463727Y364988D01*
X471754Y370576D02*
X474294Y372608D01*
X474294Y363464D01*
X471754Y363464D02*
X476834Y363464D01*
X480898Y368036D02*
X480900Y368216D01*
X480907Y368396D01*
X480917Y368575D01*
X480932Y368754D01*
X480952Y368933D01*
X480975Y369112D01*
X481003Y369289D01*
X481035Y369466D01*
X481071Y369643D01*
X481112Y369818D01*
X481156Y369992D01*
X481205Y370165D01*
X481258Y370337D01*
X481315Y370508D01*
X481376Y370677D01*
X481441Y370845D01*
X481510Y371011D01*
X481583Y371175D01*
X481660Y371338D01*
X481688Y371416D01*
X481721Y371493D01*
X481756Y371568D01*
X481795Y371642D01*
X481837Y371714D01*
X481882Y371783D01*
X481931Y371851D01*
X481982Y371917D01*
X482036Y371980D01*
X482093Y372041D01*
X482152Y372100D01*
X482214Y372155D01*
X482279Y372208D01*
X482345Y372258D01*
X482414Y372305D01*
X482485Y372349D01*
X482558Y372389D01*
X482632Y372426D01*
X482708Y372461D01*
X482786Y372491D01*
X482864Y372518D01*
X482944Y372542D01*
X483025Y372562D01*
X483107Y372579D01*
X483189Y372591D01*
X483272Y372601D01*
X483355Y372606D01*
X483438Y372608D01*
X483521Y372606D01*
X483604Y372601D01*
X483687Y372591D01*
X483769Y372579D01*
X483851Y372562D01*
X483932Y372542D01*
X484012Y372518D01*
X484090Y372491D01*
X484168Y372461D01*
X484244Y372426D01*
X484318Y372389D01*
X484391Y372349D01*
X484462Y372305D01*
X484531Y372258D01*
X484597Y372208D01*
X484662Y372155D01*
X484724Y372100D01*
X484783Y372041D01*
X484840Y371980D01*
X484894Y371917D01*
X484945Y371851D01*
X484994Y371783D01*
X485039Y371714D01*
X485081Y371642D01*
X485120Y371568D01*
X485155Y371493D01*
X485188Y371416D01*
X485216Y371338D01*
X485215Y371338D02*
X485292Y371175D01*
X485365Y371011D01*
X485434Y370845D01*
X485499Y370677D01*
X485560Y370508D01*
X485617Y370337D01*
X485670Y370165D01*
X485719Y369992D01*
X485763Y369818D01*
X485804Y369643D01*
X485840Y369466D01*
X485872Y369289D01*
X485900Y369112D01*
X485923Y368933D01*
X485943Y368754D01*
X485958Y368575D01*
X485968Y368396D01*
X485975Y368216D01*
X485977Y368036D01*
X480898Y368036D02*
X480900Y367856D01*
X480907Y367676D01*
X480917Y367497D01*
X480932Y367318D01*
X480952Y367139D01*
X480975Y366960D01*
X481003Y366783D01*
X481035Y366606D01*
X481071Y366429D01*
X481112Y366254D01*
X481156Y366080D01*
X481205Y365907D01*
X481258Y365735D01*
X481315Y365564D01*
X481376Y365395D01*
X481441Y365227D01*
X481510Y365061D01*
X481583Y364897D01*
X481660Y364734D01*
X481688Y364656D01*
X481721Y364579D01*
X481756Y364504D01*
X481795Y364430D01*
X481837Y364358D01*
X481882Y364289D01*
X481931Y364221D01*
X481982Y364155D01*
X482036Y364092D01*
X482093Y364031D01*
X482152Y363972D01*
X482214Y363917D01*
X482279Y363864D01*
X482345Y363814D01*
X482414Y363767D01*
X482485Y363723D01*
X482558Y363683D01*
X482632Y363646D01*
X482708Y363611D01*
X482786Y363581D01*
X482864Y363554D01*
X482944Y363530D01*
X483025Y363510D01*
X483107Y363493D01*
X483189Y363481D01*
X483272Y363471D01*
X483355Y363466D01*
X483438Y363464D01*
X485215Y364734D02*
X485292Y364897D01*
X485365Y365061D01*
X485434Y365227D01*
X485499Y365395D01*
X485560Y365564D01*
X485617Y365735D01*
X485670Y365907D01*
X485719Y366080D01*
X485763Y366254D01*
X485804Y366429D01*
X485840Y366606D01*
X485872Y366783D01*
X485900Y366960D01*
X485923Y367139D01*
X485943Y367318D01*
X485958Y367497D01*
X485968Y367676D01*
X485975Y367856D01*
X485977Y368036D01*
X485216Y364734D02*
X485188Y364656D01*
X485155Y364579D01*
X485120Y364504D01*
X485081Y364430D01*
X485039Y364358D01*
X484994Y364289D01*
X484945Y364221D01*
X484894Y364155D01*
X484840Y364092D01*
X484783Y364031D01*
X484724Y363972D01*
X484662Y363917D01*
X484597Y363864D01*
X484531Y363814D01*
X484462Y363767D01*
X484391Y363723D01*
X484318Y363683D01*
X484244Y363646D01*
X484168Y363611D01*
X484090Y363581D01*
X484012Y363554D01*
X483932Y363530D01*
X483851Y363510D01*
X483769Y363493D01*
X483687Y363481D01*
X483604Y363471D01*
X483521Y363466D01*
X483438Y363464D01*
X481406Y365496D02*
X485470Y370576D01*
X451254Y545154D02*
X451254Y553592D01*
X451254Y545154D02*
X451256Y545041D01*
X451262Y544928D01*
X451272Y544815D01*
X451286Y544702D01*
X451303Y544590D01*
X451325Y544479D01*
X451350Y544369D01*
X451380Y544259D01*
X451413Y544151D01*
X451450Y544044D01*
X451490Y543938D01*
X451535Y543834D01*
X451583Y543731D01*
X451634Y543630D01*
X451689Y543531D01*
X451747Y543434D01*
X451809Y543339D01*
X451874Y543246D01*
X451942Y543156D01*
X452013Y543068D01*
X452088Y542982D01*
X452165Y542899D01*
X452245Y542819D01*
X452328Y542742D01*
X452414Y542667D01*
X452502Y542596D01*
X452592Y542528D01*
X452685Y542463D01*
X452780Y542401D01*
X452877Y542343D01*
X452976Y542288D01*
X453077Y542237D01*
X453180Y542189D01*
X453284Y542144D01*
X453390Y542104D01*
X453497Y542067D01*
X453605Y542034D01*
X453715Y542004D01*
X453825Y541979D01*
X453936Y541957D01*
X454048Y541940D01*
X454161Y541926D01*
X454274Y541916D01*
X454387Y541910D01*
X454500Y541908D01*
X454613Y541910D01*
X454726Y541916D01*
X454839Y541926D01*
X454952Y541940D01*
X455064Y541957D01*
X455175Y541979D01*
X455285Y542004D01*
X455395Y542034D01*
X455503Y542067D01*
X455610Y542104D01*
X455716Y542144D01*
X455820Y542189D01*
X455923Y542237D01*
X456024Y542288D01*
X456123Y542343D01*
X456220Y542401D01*
X456315Y542463D01*
X456408Y542528D01*
X456498Y542596D01*
X456586Y542667D01*
X456672Y542742D01*
X456755Y542819D01*
X456835Y542899D01*
X456912Y542982D01*
X456987Y543068D01*
X457058Y543156D01*
X457126Y543246D01*
X457191Y543339D01*
X457253Y543434D01*
X457311Y543531D01*
X457366Y543630D01*
X457417Y543731D01*
X457465Y543834D01*
X457510Y543938D01*
X457550Y544044D01*
X457587Y544151D01*
X457620Y544259D01*
X457650Y544369D01*
X457675Y544479D01*
X457697Y544590D01*
X457714Y544702D01*
X457728Y544815D01*
X457738Y544928D01*
X457744Y545041D01*
X457746Y545154D01*
X457745Y545154D02*
X457745Y553592D01*
X465549Y553592D02*
X465549Y541908D01*
X465549Y547750D02*
X463926Y548724D01*
X463925Y548723D02*
X463852Y548770D01*
X463781Y548819D01*
X463711Y548872D01*
X463645Y548928D01*
X463581Y548987D01*
X463519Y549048D01*
X463461Y549112D01*
X463405Y549179D01*
X463353Y549248D01*
X463303Y549320D01*
X463257Y549394D01*
X463214Y549469D01*
X463175Y549547D01*
X463139Y549626D01*
X463107Y549707D01*
X463078Y549789D01*
X463053Y549872D01*
X463032Y549956D01*
X463015Y550041D01*
X463001Y550127D01*
X462992Y550213D01*
X462986Y550300D01*
X462984Y550387D01*
X462986Y550474D01*
X462992Y550561D01*
X463002Y550647D01*
X463015Y550733D01*
X463033Y550818D01*
X463054Y550902D01*
X463079Y550985D01*
X463108Y551068D01*
X463140Y551148D01*
X463176Y551227D01*
X463215Y551305D01*
X463258Y551380D01*
X463305Y551454D01*
X463354Y551525D01*
X463407Y551595D01*
X463462Y551661D01*
X463521Y551725D01*
X463582Y551787D01*
X463647Y551846D01*
X463713Y551901D01*
X463782Y551954D01*
X463854Y552004D01*
X463927Y552050D01*
X464003Y552093D01*
X464080Y552132D01*
X464159Y552168D01*
X464240Y552201D01*
X464322Y552229D01*
X464405Y552255D01*
X464489Y552276D01*
X464575Y552293D01*
X464575Y552294D02*
X464715Y552318D01*
X464857Y552338D01*
X464998Y552354D01*
X465140Y552365D01*
X465283Y552373D01*
X465425Y552377D01*
X465568Y552378D01*
X465711Y552374D01*
X465853Y552366D01*
X465995Y552354D01*
X466137Y552338D01*
X466278Y552319D01*
X466419Y552295D01*
X466559Y552268D01*
X466698Y552236D01*
X466836Y552201D01*
X466974Y552162D01*
X467110Y552119D01*
X467244Y552073D01*
X467378Y552022D01*
X467510Y551969D01*
X467640Y551911D01*
X467769Y551850D01*
X467896Y551785D01*
X468022Y551717D01*
X468145Y551645D01*
X465549Y547750D02*
X467171Y546776D01*
X467172Y546777D02*
X467245Y546730D01*
X467316Y546681D01*
X467386Y546628D01*
X467452Y546572D01*
X467516Y546513D01*
X467578Y546452D01*
X467636Y546388D01*
X467692Y546321D01*
X467744Y546252D01*
X467794Y546180D01*
X467840Y546106D01*
X467883Y546031D01*
X467922Y545953D01*
X467958Y545874D01*
X467990Y545793D01*
X468019Y545711D01*
X468044Y545628D01*
X468065Y545544D01*
X468082Y545459D01*
X468096Y545373D01*
X468105Y545287D01*
X468111Y545200D01*
X468113Y545113D01*
X468111Y545026D01*
X468105Y544939D01*
X468095Y544853D01*
X468082Y544767D01*
X468064Y544682D01*
X468043Y544598D01*
X468018Y544515D01*
X467989Y544432D01*
X467957Y544352D01*
X467921Y544273D01*
X467882Y544195D01*
X467839Y544120D01*
X467792Y544046D01*
X467743Y543975D01*
X467690Y543905D01*
X467635Y543839D01*
X467576Y543775D01*
X467515Y543713D01*
X467450Y543654D01*
X467384Y543599D01*
X467315Y543546D01*
X467243Y543496D01*
X467170Y543450D01*
X467094Y543407D01*
X467017Y543368D01*
X466938Y543332D01*
X466857Y543299D01*
X466775Y543271D01*
X466692Y543245D01*
X466608Y543224D01*
X466523Y543207D01*
X466522Y543206D02*
X466382Y543182D01*
X466240Y543162D01*
X466099Y543146D01*
X465957Y543135D01*
X465814Y543127D01*
X465672Y543123D01*
X465529Y543122D01*
X465386Y543126D01*
X465244Y543134D01*
X465102Y543146D01*
X464960Y543162D01*
X464819Y543181D01*
X464678Y543205D01*
X464538Y543232D01*
X464399Y543264D01*
X464261Y543299D01*
X464123Y543338D01*
X463987Y543381D01*
X463853Y543427D01*
X463719Y543478D01*
X463587Y543531D01*
X463457Y543589D01*
X463328Y543650D01*
X463201Y543715D01*
X463075Y543783D01*
X462952Y543855D01*
X472971Y550996D02*
X476216Y553592D01*
X476216Y541908D01*
X472971Y541908D02*
X479462Y541908D01*
X484401Y550996D02*
X487646Y553592D01*
X487646Y541908D01*
X484401Y541908D02*
X490892Y541908D01*
X437908Y505792D02*
X437908Y497354D01*
X437910Y497241D01*
X437916Y497128D01*
X437926Y497015D01*
X437940Y496902D01*
X437957Y496790D01*
X437979Y496679D01*
X438004Y496569D01*
X438034Y496459D01*
X438067Y496351D01*
X438104Y496244D01*
X438144Y496138D01*
X438189Y496034D01*
X438237Y495931D01*
X438288Y495830D01*
X438343Y495731D01*
X438401Y495634D01*
X438463Y495539D01*
X438528Y495446D01*
X438596Y495356D01*
X438667Y495268D01*
X438742Y495182D01*
X438819Y495099D01*
X438899Y495019D01*
X438982Y494942D01*
X439068Y494867D01*
X439156Y494796D01*
X439246Y494728D01*
X439339Y494663D01*
X439434Y494601D01*
X439531Y494543D01*
X439630Y494488D01*
X439731Y494437D01*
X439834Y494389D01*
X439938Y494344D01*
X440044Y494304D01*
X440151Y494267D01*
X440259Y494234D01*
X440369Y494204D01*
X440479Y494179D01*
X440590Y494157D01*
X440702Y494140D01*
X440815Y494126D01*
X440928Y494116D01*
X441041Y494110D01*
X441154Y494108D01*
X441267Y494110D01*
X441380Y494116D01*
X441493Y494126D01*
X441606Y494140D01*
X441718Y494157D01*
X441829Y494179D01*
X441939Y494204D01*
X442049Y494234D01*
X442157Y494267D01*
X442264Y494304D01*
X442370Y494344D01*
X442474Y494389D01*
X442577Y494437D01*
X442678Y494488D01*
X442777Y494543D01*
X442874Y494601D01*
X442969Y494663D01*
X443062Y494728D01*
X443152Y494796D01*
X443240Y494867D01*
X443326Y494942D01*
X443409Y495019D01*
X443489Y495099D01*
X443566Y495182D01*
X443641Y495268D01*
X443712Y495356D01*
X443780Y495446D01*
X443845Y495539D01*
X443907Y495634D01*
X443965Y495731D01*
X444020Y495830D01*
X444071Y495931D01*
X444119Y496034D01*
X444164Y496138D01*
X444204Y496244D01*
X444241Y496351D01*
X444274Y496459D01*
X444304Y496569D01*
X444329Y496679D01*
X444351Y496790D01*
X444368Y496902D01*
X444382Y497015D01*
X444392Y497128D01*
X444398Y497241D01*
X444400Y497354D01*
X444399Y497354D02*
X444399Y505792D01*
X452203Y505792D02*
X452203Y494108D01*
X452203Y499950D02*
X450580Y500924D01*
X450579Y500923D02*
X450506Y500970D01*
X450435Y501019D01*
X450365Y501072D01*
X450299Y501128D01*
X450235Y501187D01*
X450173Y501248D01*
X450115Y501312D01*
X450059Y501379D01*
X450007Y501448D01*
X449957Y501520D01*
X449911Y501594D01*
X449868Y501669D01*
X449829Y501747D01*
X449793Y501826D01*
X449761Y501907D01*
X449732Y501989D01*
X449707Y502072D01*
X449686Y502156D01*
X449669Y502241D01*
X449655Y502327D01*
X449646Y502413D01*
X449640Y502500D01*
X449638Y502587D01*
X449640Y502674D01*
X449646Y502761D01*
X449656Y502847D01*
X449669Y502933D01*
X449687Y503018D01*
X449708Y503102D01*
X449733Y503185D01*
X449762Y503268D01*
X449794Y503348D01*
X449830Y503427D01*
X449869Y503505D01*
X449912Y503580D01*
X449959Y503654D01*
X450008Y503725D01*
X450061Y503795D01*
X450116Y503861D01*
X450175Y503925D01*
X450236Y503987D01*
X450301Y504046D01*
X450367Y504101D01*
X450436Y504154D01*
X450508Y504204D01*
X450581Y504250D01*
X450657Y504293D01*
X450734Y504332D01*
X450813Y504368D01*
X450894Y504401D01*
X450976Y504429D01*
X451059Y504455D01*
X451143Y504476D01*
X451229Y504493D01*
X451229Y504494D02*
X451369Y504518D01*
X451511Y504538D01*
X451652Y504554D01*
X451794Y504565D01*
X451937Y504573D01*
X452079Y504577D01*
X452222Y504578D01*
X452365Y504574D01*
X452507Y504566D01*
X452649Y504554D01*
X452791Y504538D01*
X452932Y504519D01*
X453073Y504495D01*
X453213Y504468D01*
X453352Y504436D01*
X453490Y504401D01*
X453628Y504362D01*
X453764Y504319D01*
X453898Y504273D01*
X454032Y504222D01*
X454164Y504169D01*
X454294Y504111D01*
X454423Y504050D01*
X454550Y503985D01*
X454676Y503917D01*
X454799Y503845D01*
X452203Y499950D02*
X453825Y498976D01*
X453826Y498977D02*
X453899Y498930D01*
X453970Y498881D01*
X454040Y498828D01*
X454106Y498772D01*
X454170Y498713D01*
X454232Y498652D01*
X454290Y498588D01*
X454346Y498521D01*
X454398Y498452D01*
X454448Y498380D01*
X454494Y498306D01*
X454537Y498231D01*
X454576Y498153D01*
X454612Y498074D01*
X454644Y497993D01*
X454673Y497911D01*
X454698Y497828D01*
X454719Y497744D01*
X454736Y497659D01*
X454750Y497573D01*
X454759Y497487D01*
X454765Y497400D01*
X454767Y497313D01*
X454765Y497226D01*
X454759Y497139D01*
X454749Y497053D01*
X454736Y496967D01*
X454718Y496882D01*
X454697Y496798D01*
X454672Y496715D01*
X454643Y496632D01*
X454611Y496552D01*
X454575Y496473D01*
X454536Y496395D01*
X454493Y496320D01*
X454446Y496246D01*
X454397Y496175D01*
X454344Y496105D01*
X454289Y496039D01*
X454230Y495975D01*
X454169Y495913D01*
X454104Y495854D01*
X454038Y495799D01*
X453969Y495746D01*
X453897Y495696D01*
X453824Y495650D01*
X453748Y495607D01*
X453671Y495568D01*
X453592Y495532D01*
X453511Y495499D01*
X453429Y495471D01*
X453346Y495445D01*
X453262Y495424D01*
X453177Y495407D01*
X453176Y495406D02*
X453036Y495382D01*
X452894Y495362D01*
X452753Y495346D01*
X452611Y495335D01*
X452468Y495327D01*
X452326Y495323D01*
X452183Y495322D01*
X452040Y495326D01*
X451898Y495334D01*
X451756Y495346D01*
X451614Y495362D01*
X451473Y495381D01*
X451332Y495405D01*
X451192Y495432D01*
X451053Y495464D01*
X450915Y495499D01*
X450777Y495538D01*
X450641Y495581D01*
X450507Y495627D01*
X450373Y495678D01*
X450241Y495731D01*
X450111Y495789D01*
X449982Y495850D01*
X449855Y495915D01*
X449729Y495983D01*
X449606Y496055D01*
X459625Y503196D02*
X462871Y505792D01*
X462871Y494108D01*
X466116Y494108D02*
X459625Y494108D01*
X474625Y505792D02*
X474732Y505790D01*
X474838Y505784D01*
X474944Y505774D01*
X475050Y505761D01*
X475156Y505743D01*
X475260Y505722D01*
X475364Y505697D01*
X475467Y505668D01*
X475568Y505636D01*
X475668Y505599D01*
X475767Y505559D01*
X475865Y505516D01*
X475961Y505469D01*
X476055Y505418D01*
X476147Y505364D01*
X476237Y505307D01*
X476325Y505247D01*
X476410Y505183D01*
X476493Y505116D01*
X476574Y505046D01*
X476652Y504974D01*
X476728Y504898D01*
X476800Y504820D01*
X476870Y504739D01*
X476937Y504656D01*
X477001Y504571D01*
X477061Y504483D01*
X477118Y504393D01*
X477172Y504301D01*
X477223Y504207D01*
X477270Y504111D01*
X477313Y504013D01*
X477353Y503914D01*
X477390Y503814D01*
X477422Y503713D01*
X477451Y503610D01*
X477476Y503506D01*
X477497Y503402D01*
X477515Y503296D01*
X477528Y503190D01*
X477538Y503084D01*
X477544Y502978D01*
X477546Y502871D01*
X474625Y505792D02*
X474504Y505790D01*
X474383Y505784D01*
X474263Y505774D01*
X474142Y505761D01*
X474023Y505743D01*
X473903Y505722D01*
X473785Y505697D01*
X473668Y505668D01*
X473551Y505635D01*
X473436Y505599D01*
X473322Y505558D01*
X473209Y505515D01*
X473097Y505467D01*
X472988Y505416D01*
X472880Y505361D01*
X472773Y505303D01*
X472669Y505242D01*
X472567Y505177D01*
X472467Y505109D01*
X472369Y505038D01*
X472273Y504964D01*
X472180Y504887D01*
X472090Y504806D01*
X472002Y504723D01*
X471917Y504637D01*
X471834Y504548D01*
X471755Y504457D01*
X471678Y504363D01*
X471605Y504267D01*
X471535Y504169D01*
X471468Y504068D01*
X471404Y503965D01*
X471344Y503860D01*
X471287Y503753D01*
X471233Y503645D01*
X471183Y503535D01*
X471137Y503423D01*
X471094Y503310D01*
X471055Y503195D01*
X476573Y500599D02*
X476652Y500676D01*
X476728Y500757D01*
X476801Y500840D01*
X476871Y500925D01*
X476938Y501013D01*
X477002Y501103D01*
X477062Y501195D01*
X477119Y501290D01*
X477173Y501386D01*
X477224Y501484D01*
X477271Y501584D01*
X477315Y501686D01*
X477355Y501789D01*
X477391Y501893D01*
X477423Y501999D01*
X477452Y502105D01*
X477477Y502213D01*
X477499Y502321D01*
X477516Y502431D01*
X477530Y502540D01*
X477539Y502650D01*
X477545Y502761D01*
X477547Y502871D01*
X476572Y500599D02*
X471055Y494108D01*
X477546Y494108D01*
X437508Y424792D02*
X437508Y416354D01*
X437510Y416241D01*
X437516Y416128D01*
X437526Y416015D01*
X437540Y415902D01*
X437557Y415790D01*
X437579Y415679D01*
X437604Y415569D01*
X437634Y415459D01*
X437667Y415351D01*
X437704Y415244D01*
X437744Y415138D01*
X437789Y415034D01*
X437837Y414931D01*
X437888Y414830D01*
X437943Y414731D01*
X438001Y414634D01*
X438063Y414539D01*
X438128Y414446D01*
X438196Y414356D01*
X438267Y414268D01*
X438342Y414182D01*
X438419Y414099D01*
X438499Y414019D01*
X438582Y413942D01*
X438668Y413867D01*
X438756Y413796D01*
X438846Y413728D01*
X438939Y413663D01*
X439034Y413601D01*
X439131Y413543D01*
X439230Y413488D01*
X439331Y413437D01*
X439434Y413389D01*
X439538Y413344D01*
X439644Y413304D01*
X439751Y413267D01*
X439859Y413234D01*
X439969Y413204D01*
X440079Y413179D01*
X440190Y413157D01*
X440302Y413140D01*
X440415Y413126D01*
X440528Y413116D01*
X440641Y413110D01*
X440754Y413108D01*
X440867Y413110D01*
X440980Y413116D01*
X441093Y413126D01*
X441206Y413140D01*
X441318Y413157D01*
X441429Y413179D01*
X441539Y413204D01*
X441649Y413234D01*
X441757Y413267D01*
X441864Y413304D01*
X441970Y413344D01*
X442074Y413389D01*
X442177Y413437D01*
X442278Y413488D01*
X442377Y413543D01*
X442474Y413601D01*
X442569Y413663D01*
X442662Y413728D01*
X442752Y413796D01*
X442840Y413867D01*
X442926Y413942D01*
X443009Y414019D01*
X443089Y414099D01*
X443166Y414182D01*
X443241Y414268D01*
X443312Y414356D01*
X443380Y414446D01*
X443445Y414539D01*
X443507Y414634D01*
X443565Y414731D01*
X443620Y414830D01*
X443671Y414931D01*
X443719Y415034D01*
X443764Y415138D01*
X443804Y415244D01*
X443841Y415351D01*
X443874Y415459D01*
X443904Y415569D01*
X443929Y415679D01*
X443951Y415790D01*
X443968Y415902D01*
X443982Y416015D01*
X443992Y416128D01*
X443998Y416241D01*
X444000Y416354D01*
X443999Y416354D02*
X443999Y424792D01*
X451803Y424792D02*
X451803Y413108D01*
X451803Y418950D02*
X450180Y419924D01*
X450179Y419923D02*
X450106Y419970D01*
X450035Y420019D01*
X449965Y420072D01*
X449899Y420128D01*
X449835Y420187D01*
X449773Y420248D01*
X449715Y420312D01*
X449659Y420379D01*
X449607Y420448D01*
X449557Y420520D01*
X449511Y420594D01*
X449468Y420669D01*
X449429Y420747D01*
X449393Y420826D01*
X449361Y420907D01*
X449332Y420989D01*
X449307Y421072D01*
X449286Y421156D01*
X449269Y421241D01*
X449255Y421327D01*
X449246Y421413D01*
X449240Y421500D01*
X449238Y421587D01*
X449240Y421674D01*
X449246Y421761D01*
X449256Y421847D01*
X449269Y421933D01*
X449287Y422018D01*
X449308Y422102D01*
X449333Y422185D01*
X449362Y422268D01*
X449394Y422348D01*
X449430Y422427D01*
X449469Y422505D01*
X449512Y422580D01*
X449559Y422654D01*
X449608Y422725D01*
X449661Y422795D01*
X449716Y422861D01*
X449775Y422925D01*
X449836Y422987D01*
X449901Y423046D01*
X449967Y423101D01*
X450036Y423154D01*
X450108Y423204D01*
X450181Y423250D01*
X450257Y423293D01*
X450334Y423332D01*
X450413Y423368D01*
X450494Y423401D01*
X450576Y423429D01*
X450659Y423455D01*
X450743Y423476D01*
X450829Y423493D01*
X450829Y423494D02*
X450969Y423518D01*
X451111Y423538D01*
X451252Y423554D01*
X451394Y423565D01*
X451537Y423573D01*
X451679Y423577D01*
X451822Y423578D01*
X451965Y423574D01*
X452107Y423566D01*
X452249Y423554D01*
X452391Y423538D01*
X452532Y423519D01*
X452673Y423495D01*
X452813Y423468D01*
X452952Y423436D01*
X453090Y423401D01*
X453228Y423362D01*
X453364Y423319D01*
X453498Y423273D01*
X453632Y423222D01*
X453764Y423169D01*
X453894Y423111D01*
X454023Y423050D01*
X454150Y422985D01*
X454276Y422917D01*
X454399Y422845D01*
X451803Y418950D02*
X453425Y417976D01*
X453426Y417977D02*
X453499Y417930D01*
X453570Y417881D01*
X453640Y417828D01*
X453706Y417772D01*
X453770Y417713D01*
X453832Y417652D01*
X453890Y417588D01*
X453946Y417521D01*
X453998Y417452D01*
X454048Y417380D01*
X454094Y417306D01*
X454137Y417231D01*
X454176Y417153D01*
X454212Y417074D01*
X454244Y416993D01*
X454273Y416911D01*
X454298Y416828D01*
X454319Y416744D01*
X454336Y416659D01*
X454350Y416573D01*
X454359Y416487D01*
X454365Y416400D01*
X454367Y416313D01*
X454365Y416226D01*
X454359Y416139D01*
X454349Y416053D01*
X454336Y415967D01*
X454318Y415882D01*
X454297Y415798D01*
X454272Y415715D01*
X454243Y415632D01*
X454211Y415552D01*
X454175Y415473D01*
X454136Y415395D01*
X454093Y415320D01*
X454046Y415246D01*
X453997Y415175D01*
X453944Y415105D01*
X453889Y415039D01*
X453830Y414975D01*
X453769Y414913D01*
X453704Y414854D01*
X453638Y414799D01*
X453569Y414746D01*
X453497Y414696D01*
X453424Y414650D01*
X453348Y414607D01*
X453271Y414568D01*
X453192Y414532D01*
X453111Y414499D01*
X453029Y414471D01*
X452946Y414445D01*
X452862Y414424D01*
X452777Y414407D01*
X452776Y414406D02*
X452636Y414382D01*
X452494Y414362D01*
X452353Y414346D01*
X452211Y414335D01*
X452068Y414327D01*
X451926Y414323D01*
X451783Y414322D01*
X451640Y414326D01*
X451498Y414334D01*
X451356Y414346D01*
X451214Y414362D01*
X451073Y414381D01*
X450932Y414405D01*
X450792Y414432D01*
X450653Y414464D01*
X450515Y414499D01*
X450377Y414538D01*
X450241Y414581D01*
X450107Y414627D01*
X449973Y414678D01*
X449841Y414731D01*
X449711Y414789D01*
X449582Y414850D01*
X449455Y414915D01*
X449329Y414983D01*
X449206Y415055D01*
X459225Y422196D02*
X462471Y424792D01*
X462471Y413108D01*
X465716Y413108D02*
X459225Y413108D01*
X470655Y415704D02*
X473251Y424792D01*
X470655Y415704D02*
X477146Y415704D01*
X475199Y418301D02*
X475199Y413108D01*
X374446Y260654D02*
X366008Y260654D01*
X374446Y260654D02*
X374559Y260656D01*
X374672Y260662D01*
X374785Y260672D01*
X374898Y260686D01*
X375010Y260703D01*
X375121Y260725D01*
X375231Y260750D01*
X375341Y260780D01*
X375449Y260813D01*
X375556Y260850D01*
X375662Y260890D01*
X375766Y260935D01*
X375869Y260983D01*
X375970Y261034D01*
X376069Y261089D01*
X376166Y261147D01*
X376261Y261209D01*
X376354Y261274D01*
X376444Y261342D01*
X376532Y261413D01*
X376618Y261488D01*
X376701Y261565D01*
X376781Y261645D01*
X376858Y261728D01*
X376933Y261814D01*
X377004Y261902D01*
X377072Y261992D01*
X377137Y262085D01*
X377199Y262180D01*
X377257Y262277D01*
X377312Y262376D01*
X377363Y262477D01*
X377411Y262580D01*
X377456Y262684D01*
X377496Y262790D01*
X377533Y262897D01*
X377566Y263005D01*
X377596Y263115D01*
X377621Y263225D01*
X377643Y263336D01*
X377660Y263448D01*
X377674Y263561D01*
X377684Y263674D01*
X377690Y263787D01*
X377692Y263900D01*
X377690Y264013D01*
X377684Y264126D01*
X377674Y264239D01*
X377660Y264352D01*
X377643Y264464D01*
X377621Y264575D01*
X377596Y264685D01*
X377566Y264795D01*
X377533Y264903D01*
X377496Y265010D01*
X377456Y265116D01*
X377411Y265220D01*
X377363Y265323D01*
X377312Y265424D01*
X377257Y265523D01*
X377199Y265620D01*
X377137Y265715D01*
X377072Y265808D01*
X377004Y265898D01*
X376933Y265986D01*
X376858Y266072D01*
X376781Y266155D01*
X376701Y266235D01*
X376618Y266312D01*
X376532Y266387D01*
X376444Y266458D01*
X376354Y266526D01*
X376261Y266591D01*
X376166Y266653D01*
X376069Y266711D01*
X375970Y266766D01*
X375869Y266817D01*
X375766Y266865D01*
X375662Y266910D01*
X375556Y266950D01*
X375449Y266987D01*
X375341Y267020D01*
X375231Y267050D01*
X375121Y267075D01*
X375010Y267097D01*
X374898Y267114D01*
X374785Y267128D01*
X374672Y267138D01*
X374559Y267144D01*
X374446Y267146D01*
X374446Y267145D02*
X366008Y267145D01*
X366008Y274949D02*
X377692Y274949D01*
X371850Y274949D02*
X370876Y273326D01*
X370877Y273325D02*
X370830Y273252D01*
X370781Y273181D01*
X370728Y273112D01*
X370672Y273045D01*
X370613Y272981D01*
X370552Y272919D01*
X370488Y272861D01*
X370421Y272805D01*
X370352Y272753D01*
X370280Y272703D01*
X370206Y272657D01*
X370131Y272614D01*
X370053Y272575D01*
X369974Y272539D01*
X369893Y272507D01*
X369811Y272478D01*
X369728Y272453D01*
X369644Y272432D01*
X369559Y272415D01*
X369473Y272401D01*
X369387Y272392D01*
X369300Y272386D01*
X369213Y272384D01*
X369126Y272386D01*
X369039Y272392D01*
X368953Y272402D01*
X368867Y272415D01*
X368782Y272433D01*
X368698Y272454D01*
X368615Y272479D01*
X368532Y272508D01*
X368452Y272540D01*
X368373Y272576D01*
X368295Y272615D01*
X368220Y272658D01*
X368146Y272705D01*
X368075Y272754D01*
X368005Y272807D01*
X367939Y272862D01*
X367875Y272921D01*
X367813Y272982D01*
X367754Y273046D01*
X367699Y273113D01*
X367646Y273182D01*
X367596Y273254D01*
X367550Y273327D01*
X367507Y273403D01*
X367468Y273480D01*
X367432Y273559D01*
X367399Y273640D01*
X367371Y273722D01*
X367345Y273805D01*
X367324Y273889D01*
X367307Y273974D01*
X367306Y273975D02*
X367282Y274115D01*
X367262Y274257D01*
X367246Y274398D01*
X367235Y274540D01*
X367227Y274683D01*
X367223Y274825D01*
X367222Y274968D01*
X367226Y275111D01*
X367234Y275253D01*
X367246Y275395D01*
X367262Y275537D01*
X367281Y275678D01*
X367305Y275819D01*
X367332Y275959D01*
X367364Y276098D01*
X367399Y276236D01*
X367438Y276374D01*
X367481Y276510D01*
X367527Y276644D01*
X367578Y276778D01*
X367631Y276910D01*
X367689Y277040D01*
X367750Y277169D01*
X367815Y277296D01*
X367883Y277422D01*
X367955Y277545D01*
X371850Y274949D02*
X372824Y276571D01*
X372823Y276572D02*
X372870Y276645D01*
X372919Y276716D01*
X372972Y276786D01*
X373028Y276852D01*
X373087Y276916D01*
X373148Y276978D01*
X373212Y277036D01*
X373279Y277092D01*
X373348Y277144D01*
X373420Y277194D01*
X373494Y277240D01*
X373569Y277283D01*
X373647Y277322D01*
X373726Y277358D01*
X373807Y277390D01*
X373889Y277419D01*
X373972Y277444D01*
X374056Y277465D01*
X374141Y277482D01*
X374227Y277496D01*
X374314Y277505D01*
X374400Y277511D01*
X374487Y277513D01*
X374574Y277511D01*
X374661Y277505D01*
X374747Y277495D01*
X374833Y277482D01*
X374918Y277464D01*
X375002Y277443D01*
X375085Y277418D01*
X375168Y277389D01*
X375248Y277357D01*
X375327Y277321D01*
X375405Y277282D01*
X375480Y277239D01*
X375554Y277192D01*
X375625Y277143D01*
X375695Y277090D01*
X375761Y277035D01*
X375825Y276976D01*
X375887Y276915D01*
X375946Y276850D01*
X376001Y276784D01*
X376054Y276715D01*
X376104Y276643D01*
X376150Y276570D01*
X376193Y276494D01*
X376232Y276417D01*
X376268Y276338D01*
X376301Y276257D01*
X376329Y276175D01*
X376355Y276092D01*
X376376Y276008D01*
X376393Y275922D01*
X376394Y275922D02*
X376418Y275782D01*
X376438Y275640D01*
X376454Y275499D01*
X376465Y275357D01*
X376473Y275214D01*
X376477Y275072D01*
X376478Y274929D01*
X376474Y274786D01*
X376466Y274644D01*
X376454Y274502D01*
X376438Y274360D01*
X376419Y274219D01*
X376395Y274078D01*
X376368Y273938D01*
X376336Y273799D01*
X376301Y273661D01*
X376262Y273523D01*
X376219Y273387D01*
X376173Y273253D01*
X376122Y273119D01*
X376069Y272987D01*
X376011Y272857D01*
X375950Y272728D01*
X375885Y272601D01*
X375817Y272475D01*
X375745Y272352D01*
X368604Y282371D02*
X366008Y285616D01*
X377692Y285616D01*
X377692Y282371D02*
X377692Y288862D01*
X367306Y293801D02*
X366008Y293801D01*
X366008Y300292D01*
X377692Y297046D01*
X357408Y266892D02*
X357408Y258454D01*
X357410Y258341D01*
X357416Y258228D01*
X357426Y258115D01*
X357440Y258002D01*
X357457Y257890D01*
X357479Y257779D01*
X357504Y257669D01*
X357534Y257559D01*
X357567Y257451D01*
X357604Y257344D01*
X357644Y257238D01*
X357689Y257134D01*
X357737Y257031D01*
X357788Y256930D01*
X357843Y256831D01*
X357901Y256734D01*
X357963Y256639D01*
X358028Y256546D01*
X358096Y256456D01*
X358167Y256368D01*
X358242Y256282D01*
X358319Y256199D01*
X358399Y256119D01*
X358482Y256042D01*
X358568Y255967D01*
X358656Y255896D01*
X358746Y255828D01*
X358839Y255763D01*
X358934Y255701D01*
X359031Y255643D01*
X359130Y255588D01*
X359231Y255537D01*
X359334Y255489D01*
X359438Y255444D01*
X359544Y255404D01*
X359651Y255367D01*
X359759Y255334D01*
X359869Y255304D01*
X359979Y255279D01*
X360090Y255257D01*
X360202Y255240D01*
X360315Y255226D01*
X360428Y255216D01*
X360541Y255210D01*
X360654Y255208D01*
X360767Y255210D01*
X360880Y255216D01*
X360993Y255226D01*
X361106Y255240D01*
X361218Y255257D01*
X361329Y255279D01*
X361439Y255304D01*
X361549Y255334D01*
X361657Y255367D01*
X361764Y255404D01*
X361870Y255444D01*
X361974Y255489D01*
X362077Y255537D01*
X362178Y255588D01*
X362277Y255643D01*
X362374Y255701D01*
X362469Y255763D01*
X362562Y255828D01*
X362652Y255896D01*
X362740Y255967D01*
X362826Y256042D01*
X362909Y256119D01*
X362989Y256199D01*
X363066Y256282D01*
X363141Y256368D01*
X363212Y256456D01*
X363280Y256546D01*
X363345Y256639D01*
X363407Y256734D01*
X363465Y256831D01*
X363520Y256930D01*
X363571Y257031D01*
X363619Y257134D01*
X363664Y257238D01*
X363704Y257344D01*
X363741Y257451D01*
X363774Y257559D01*
X363804Y257669D01*
X363829Y257779D01*
X363851Y257890D01*
X363868Y258002D01*
X363882Y258115D01*
X363892Y258228D01*
X363898Y258341D01*
X363900Y258454D01*
X363899Y258454D02*
X363899Y266892D01*
X371703Y266892D02*
X371703Y255208D01*
X371703Y261050D02*
X370080Y262024D01*
X370079Y262023D02*
X370006Y262070D01*
X369935Y262119D01*
X369865Y262172D01*
X369799Y262228D01*
X369735Y262287D01*
X369673Y262348D01*
X369615Y262412D01*
X369559Y262479D01*
X369507Y262548D01*
X369457Y262620D01*
X369411Y262694D01*
X369368Y262769D01*
X369329Y262847D01*
X369293Y262926D01*
X369261Y263007D01*
X369232Y263089D01*
X369207Y263172D01*
X369186Y263256D01*
X369169Y263341D01*
X369155Y263427D01*
X369146Y263513D01*
X369140Y263600D01*
X369138Y263687D01*
X369140Y263774D01*
X369146Y263861D01*
X369156Y263947D01*
X369169Y264033D01*
X369187Y264118D01*
X369208Y264202D01*
X369233Y264285D01*
X369262Y264368D01*
X369294Y264448D01*
X369330Y264527D01*
X369369Y264605D01*
X369412Y264680D01*
X369459Y264754D01*
X369508Y264825D01*
X369561Y264895D01*
X369616Y264961D01*
X369675Y265025D01*
X369736Y265087D01*
X369801Y265146D01*
X369867Y265201D01*
X369936Y265254D01*
X370008Y265304D01*
X370081Y265350D01*
X370157Y265393D01*
X370234Y265432D01*
X370313Y265468D01*
X370394Y265501D01*
X370476Y265529D01*
X370559Y265555D01*
X370643Y265576D01*
X370729Y265593D01*
X370729Y265594D02*
X370869Y265618D01*
X371011Y265638D01*
X371152Y265654D01*
X371294Y265665D01*
X371437Y265673D01*
X371579Y265677D01*
X371722Y265678D01*
X371865Y265674D01*
X372007Y265666D01*
X372149Y265654D01*
X372291Y265638D01*
X372432Y265619D01*
X372573Y265595D01*
X372713Y265568D01*
X372852Y265536D01*
X372990Y265501D01*
X373128Y265462D01*
X373264Y265419D01*
X373398Y265373D01*
X373532Y265322D01*
X373664Y265269D01*
X373794Y265211D01*
X373923Y265150D01*
X374050Y265085D01*
X374176Y265017D01*
X374299Y264945D01*
X371703Y261050D02*
X373325Y260076D01*
X373326Y260077D02*
X373399Y260030D01*
X373470Y259981D01*
X373540Y259928D01*
X373606Y259872D01*
X373670Y259813D01*
X373732Y259752D01*
X373790Y259688D01*
X373846Y259621D01*
X373898Y259552D01*
X373948Y259480D01*
X373994Y259406D01*
X374037Y259331D01*
X374076Y259253D01*
X374112Y259174D01*
X374144Y259093D01*
X374173Y259011D01*
X374198Y258928D01*
X374219Y258844D01*
X374236Y258759D01*
X374250Y258673D01*
X374259Y258587D01*
X374265Y258500D01*
X374267Y258413D01*
X374265Y258326D01*
X374259Y258239D01*
X374249Y258153D01*
X374236Y258067D01*
X374218Y257982D01*
X374197Y257898D01*
X374172Y257815D01*
X374143Y257732D01*
X374111Y257652D01*
X374075Y257573D01*
X374036Y257495D01*
X373993Y257420D01*
X373946Y257346D01*
X373897Y257275D01*
X373844Y257205D01*
X373789Y257139D01*
X373730Y257075D01*
X373669Y257013D01*
X373604Y256954D01*
X373538Y256899D01*
X373469Y256846D01*
X373397Y256796D01*
X373324Y256750D01*
X373248Y256707D01*
X373171Y256668D01*
X373092Y256632D01*
X373011Y256599D01*
X372929Y256571D01*
X372846Y256545D01*
X372762Y256524D01*
X372677Y256507D01*
X372676Y256506D02*
X372536Y256482D01*
X372394Y256462D01*
X372253Y256446D01*
X372111Y256435D01*
X371968Y256427D01*
X371826Y256423D01*
X371683Y256422D01*
X371540Y256426D01*
X371398Y256434D01*
X371256Y256446D01*
X371114Y256462D01*
X370973Y256481D01*
X370832Y256505D01*
X370692Y256532D01*
X370553Y256564D01*
X370415Y256599D01*
X370277Y256638D01*
X370141Y256681D01*
X370007Y256727D01*
X369873Y256778D01*
X369741Y256831D01*
X369611Y256889D01*
X369482Y256950D01*
X369355Y257015D01*
X369229Y257083D01*
X369106Y257155D01*
X379125Y264296D02*
X382371Y266892D01*
X382371Y255208D01*
X385616Y255208D02*
X379125Y255208D01*
X390554Y258454D02*
X390556Y258567D01*
X390562Y258680D01*
X390572Y258793D01*
X390586Y258906D01*
X390603Y259018D01*
X390625Y259129D01*
X390650Y259239D01*
X390680Y259349D01*
X390713Y259457D01*
X390750Y259564D01*
X390790Y259670D01*
X390835Y259774D01*
X390883Y259877D01*
X390934Y259978D01*
X390989Y260077D01*
X391047Y260174D01*
X391109Y260269D01*
X391174Y260362D01*
X391242Y260452D01*
X391313Y260540D01*
X391388Y260626D01*
X391465Y260709D01*
X391545Y260789D01*
X391628Y260866D01*
X391714Y260941D01*
X391802Y261012D01*
X391892Y261080D01*
X391985Y261145D01*
X392080Y261207D01*
X392177Y261265D01*
X392276Y261320D01*
X392377Y261371D01*
X392480Y261419D01*
X392584Y261464D01*
X392690Y261504D01*
X392797Y261541D01*
X392905Y261574D01*
X393015Y261604D01*
X393125Y261629D01*
X393236Y261651D01*
X393348Y261668D01*
X393461Y261682D01*
X393574Y261692D01*
X393687Y261698D01*
X393800Y261700D01*
X393913Y261698D01*
X394026Y261692D01*
X394139Y261682D01*
X394252Y261668D01*
X394364Y261651D01*
X394475Y261629D01*
X394585Y261604D01*
X394695Y261574D01*
X394803Y261541D01*
X394910Y261504D01*
X395016Y261464D01*
X395120Y261419D01*
X395223Y261371D01*
X395324Y261320D01*
X395423Y261265D01*
X395520Y261207D01*
X395615Y261145D01*
X395708Y261080D01*
X395798Y261012D01*
X395886Y260941D01*
X395972Y260866D01*
X396055Y260789D01*
X396135Y260709D01*
X396212Y260626D01*
X396287Y260540D01*
X396358Y260452D01*
X396426Y260362D01*
X396491Y260269D01*
X396553Y260174D01*
X396611Y260077D01*
X396666Y259978D01*
X396717Y259877D01*
X396765Y259774D01*
X396810Y259670D01*
X396850Y259564D01*
X396887Y259457D01*
X396920Y259349D01*
X396950Y259239D01*
X396975Y259129D01*
X396997Y259018D01*
X397014Y258906D01*
X397028Y258793D01*
X397038Y258680D01*
X397044Y258567D01*
X397046Y258454D01*
X397044Y258341D01*
X397038Y258228D01*
X397028Y258115D01*
X397014Y258002D01*
X396997Y257890D01*
X396975Y257779D01*
X396950Y257669D01*
X396920Y257559D01*
X396887Y257451D01*
X396850Y257344D01*
X396810Y257238D01*
X396765Y257134D01*
X396717Y257031D01*
X396666Y256930D01*
X396611Y256831D01*
X396553Y256734D01*
X396491Y256639D01*
X396426Y256546D01*
X396358Y256456D01*
X396287Y256368D01*
X396212Y256282D01*
X396135Y256199D01*
X396055Y256119D01*
X395972Y256042D01*
X395886Y255967D01*
X395798Y255896D01*
X395708Y255828D01*
X395615Y255763D01*
X395520Y255701D01*
X395423Y255643D01*
X395324Y255588D01*
X395223Y255537D01*
X395120Y255489D01*
X395016Y255444D01*
X394910Y255404D01*
X394803Y255367D01*
X394695Y255334D01*
X394585Y255304D01*
X394475Y255279D01*
X394364Y255257D01*
X394252Y255240D01*
X394139Y255226D01*
X394026Y255216D01*
X393913Y255210D01*
X393800Y255208D01*
X393687Y255210D01*
X393574Y255216D01*
X393461Y255226D01*
X393348Y255240D01*
X393236Y255257D01*
X393125Y255279D01*
X393015Y255304D01*
X392905Y255334D01*
X392797Y255367D01*
X392690Y255404D01*
X392584Y255444D01*
X392480Y255489D01*
X392377Y255537D01*
X392276Y255588D01*
X392177Y255643D01*
X392080Y255701D01*
X391985Y255763D01*
X391892Y255828D01*
X391802Y255896D01*
X391714Y255967D01*
X391628Y256042D01*
X391545Y256119D01*
X391465Y256199D01*
X391388Y256282D01*
X391313Y256368D01*
X391242Y256456D01*
X391174Y256546D01*
X391109Y256639D01*
X391047Y256734D01*
X390989Y256831D01*
X390934Y256930D01*
X390883Y257031D01*
X390835Y257134D01*
X390790Y257238D01*
X390750Y257344D01*
X390713Y257451D01*
X390680Y257559D01*
X390650Y257669D01*
X390625Y257779D01*
X390603Y257890D01*
X390586Y258002D01*
X390572Y258115D01*
X390562Y258228D01*
X390556Y258341D01*
X390554Y258454D01*
X391204Y264296D02*
X391206Y264397D01*
X391212Y264497D01*
X391222Y264597D01*
X391235Y264697D01*
X391253Y264796D01*
X391274Y264895D01*
X391299Y264992D01*
X391328Y265089D01*
X391361Y265184D01*
X391397Y265278D01*
X391437Y265370D01*
X391480Y265461D01*
X391527Y265550D01*
X391577Y265637D01*
X391631Y265723D01*
X391688Y265806D01*
X391748Y265886D01*
X391811Y265965D01*
X391878Y266041D01*
X391947Y266114D01*
X392019Y266184D01*
X392093Y266252D01*
X392170Y266317D01*
X392250Y266378D01*
X392332Y266437D01*
X392416Y266492D01*
X392502Y266544D01*
X392590Y266593D01*
X392680Y266638D01*
X392772Y266680D01*
X392865Y266718D01*
X392960Y266752D01*
X393055Y266783D01*
X393152Y266810D01*
X393250Y266833D01*
X393349Y266853D01*
X393449Y266868D01*
X393549Y266880D01*
X393649Y266888D01*
X393750Y266892D01*
X393850Y266892D01*
X393951Y266888D01*
X394051Y266880D01*
X394151Y266868D01*
X394251Y266853D01*
X394350Y266833D01*
X394448Y266810D01*
X394545Y266783D01*
X394640Y266752D01*
X394735Y266718D01*
X394828Y266680D01*
X394920Y266638D01*
X395010Y266593D01*
X395098Y266544D01*
X395184Y266492D01*
X395268Y266437D01*
X395350Y266378D01*
X395430Y266317D01*
X395507Y266252D01*
X395581Y266184D01*
X395653Y266114D01*
X395722Y266041D01*
X395789Y265965D01*
X395852Y265886D01*
X395912Y265806D01*
X395969Y265723D01*
X396023Y265637D01*
X396073Y265550D01*
X396120Y265461D01*
X396163Y265370D01*
X396203Y265278D01*
X396239Y265184D01*
X396272Y265089D01*
X396301Y264992D01*
X396326Y264895D01*
X396347Y264796D01*
X396365Y264697D01*
X396378Y264597D01*
X396388Y264497D01*
X396394Y264397D01*
X396396Y264296D01*
X396394Y264195D01*
X396388Y264095D01*
X396378Y263995D01*
X396365Y263895D01*
X396347Y263796D01*
X396326Y263697D01*
X396301Y263600D01*
X396272Y263503D01*
X396239Y263408D01*
X396203Y263314D01*
X396163Y263222D01*
X396120Y263131D01*
X396073Y263042D01*
X396023Y262955D01*
X395969Y262869D01*
X395912Y262786D01*
X395852Y262706D01*
X395789Y262627D01*
X395722Y262551D01*
X395653Y262478D01*
X395581Y262408D01*
X395507Y262340D01*
X395430Y262275D01*
X395350Y262214D01*
X395268Y262155D01*
X395184Y262100D01*
X395098Y262048D01*
X395010Y261999D01*
X394920Y261954D01*
X394828Y261912D01*
X394735Y261874D01*
X394640Y261840D01*
X394545Y261809D01*
X394448Y261782D01*
X394350Y261759D01*
X394251Y261739D01*
X394151Y261724D01*
X394051Y261712D01*
X393951Y261704D01*
X393850Y261700D01*
X393750Y261700D01*
X393649Y261704D01*
X393549Y261712D01*
X393449Y261724D01*
X393349Y261739D01*
X393250Y261759D01*
X393152Y261782D01*
X393055Y261809D01*
X392960Y261840D01*
X392865Y261874D01*
X392772Y261912D01*
X392680Y261954D01*
X392590Y261999D01*
X392502Y262048D01*
X392416Y262100D01*
X392332Y262155D01*
X392250Y262214D01*
X392170Y262275D01*
X392093Y262340D01*
X392019Y262408D01*
X391947Y262478D01*
X391878Y262551D01*
X391811Y262627D01*
X391748Y262706D01*
X391688Y262786D01*
X391631Y262869D01*
X391577Y262955D01*
X391527Y263042D01*
X391480Y263131D01*
X391437Y263222D01*
X391397Y263314D01*
X391361Y263408D01*
X391328Y263503D01*
X391299Y263600D01*
X391274Y263697D01*
X391253Y263796D01*
X391235Y263895D01*
X391222Y263995D01*
X391212Y264095D01*
X391206Y264195D01*
X391204Y264296D01*
X369646Y354554D02*
X361208Y354554D01*
X369646Y354554D02*
X369759Y354556D01*
X369872Y354562D01*
X369985Y354572D01*
X370098Y354586D01*
X370210Y354603D01*
X370321Y354625D01*
X370431Y354650D01*
X370541Y354680D01*
X370649Y354713D01*
X370756Y354750D01*
X370862Y354790D01*
X370966Y354835D01*
X371069Y354883D01*
X371170Y354934D01*
X371269Y354989D01*
X371366Y355047D01*
X371461Y355109D01*
X371554Y355174D01*
X371644Y355242D01*
X371732Y355313D01*
X371818Y355388D01*
X371901Y355465D01*
X371981Y355545D01*
X372058Y355628D01*
X372133Y355714D01*
X372204Y355802D01*
X372272Y355892D01*
X372337Y355985D01*
X372399Y356080D01*
X372457Y356177D01*
X372512Y356276D01*
X372563Y356377D01*
X372611Y356480D01*
X372656Y356584D01*
X372696Y356690D01*
X372733Y356797D01*
X372766Y356905D01*
X372796Y357015D01*
X372821Y357125D01*
X372843Y357236D01*
X372860Y357348D01*
X372874Y357461D01*
X372884Y357574D01*
X372890Y357687D01*
X372892Y357800D01*
X372890Y357913D01*
X372884Y358026D01*
X372874Y358139D01*
X372860Y358252D01*
X372843Y358364D01*
X372821Y358475D01*
X372796Y358585D01*
X372766Y358695D01*
X372733Y358803D01*
X372696Y358910D01*
X372656Y359016D01*
X372611Y359120D01*
X372563Y359223D01*
X372512Y359324D01*
X372457Y359423D01*
X372399Y359520D01*
X372337Y359615D01*
X372272Y359708D01*
X372204Y359798D01*
X372133Y359886D01*
X372058Y359972D01*
X371981Y360055D01*
X371901Y360135D01*
X371818Y360212D01*
X371732Y360287D01*
X371644Y360358D01*
X371554Y360426D01*
X371461Y360491D01*
X371366Y360553D01*
X371269Y360611D01*
X371170Y360666D01*
X371069Y360717D01*
X370966Y360765D01*
X370862Y360810D01*
X370756Y360850D01*
X370649Y360887D01*
X370541Y360920D01*
X370431Y360950D01*
X370321Y360975D01*
X370210Y360997D01*
X370098Y361014D01*
X369985Y361028D01*
X369872Y361038D01*
X369759Y361044D01*
X369646Y361046D01*
X369646Y361045D02*
X361208Y361045D01*
X361208Y368849D02*
X372892Y368849D01*
X367050Y368849D02*
X366076Y367226D01*
X366077Y367225D02*
X366030Y367152D01*
X365981Y367081D01*
X365928Y367012D01*
X365872Y366945D01*
X365813Y366881D01*
X365752Y366819D01*
X365688Y366761D01*
X365621Y366705D01*
X365552Y366653D01*
X365480Y366603D01*
X365406Y366557D01*
X365331Y366514D01*
X365253Y366475D01*
X365174Y366439D01*
X365093Y366407D01*
X365011Y366378D01*
X364928Y366353D01*
X364844Y366332D01*
X364759Y366315D01*
X364673Y366301D01*
X364587Y366292D01*
X364500Y366286D01*
X364413Y366284D01*
X364326Y366286D01*
X364239Y366292D01*
X364153Y366302D01*
X364067Y366315D01*
X363982Y366333D01*
X363898Y366354D01*
X363815Y366379D01*
X363732Y366408D01*
X363652Y366440D01*
X363573Y366476D01*
X363495Y366515D01*
X363420Y366558D01*
X363346Y366605D01*
X363275Y366654D01*
X363205Y366707D01*
X363139Y366762D01*
X363075Y366821D01*
X363013Y366882D01*
X362954Y366946D01*
X362899Y367013D01*
X362846Y367082D01*
X362796Y367154D01*
X362750Y367227D01*
X362707Y367303D01*
X362668Y367380D01*
X362632Y367459D01*
X362599Y367540D01*
X362571Y367622D01*
X362545Y367705D01*
X362524Y367789D01*
X362507Y367874D01*
X362506Y367875D02*
X362482Y368015D01*
X362462Y368157D01*
X362446Y368298D01*
X362435Y368440D01*
X362427Y368583D01*
X362423Y368725D01*
X362422Y368868D01*
X362426Y369011D01*
X362434Y369153D01*
X362446Y369295D01*
X362462Y369437D01*
X362481Y369578D01*
X362505Y369719D01*
X362532Y369859D01*
X362564Y369998D01*
X362599Y370136D01*
X362638Y370274D01*
X362681Y370410D01*
X362727Y370544D01*
X362778Y370678D01*
X362831Y370810D01*
X362889Y370940D01*
X362950Y371069D01*
X363015Y371196D01*
X363083Y371322D01*
X363155Y371445D01*
X367050Y368849D02*
X368024Y370471D01*
X368023Y370472D02*
X368070Y370545D01*
X368119Y370616D01*
X368172Y370686D01*
X368228Y370752D01*
X368287Y370816D01*
X368348Y370878D01*
X368412Y370936D01*
X368479Y370992D01*
X368548Y371044D01*
X368620Y371094D01*
X368694Y371140D01*
X368769Y371183D01*
X368847Y371222D01*
X368926Y371258D01*
X369007Y371290D01*
X369089Y371319D01*
X369172Y371344D01*
X369256Y371365D01*
X369341Y371382D01*
X369427Y371396D01*
X369514Y371405D01*
X369600Y371411D01*
X369687Y371413D01*
X369774Y371411D01*
X369861Y371405D01*
X369947Y371395D01*
X370033Y371382D01*
X370118Y371364D01*
X370202Y371343D01*
X370285Y371318D01*
X370368Y371289D01*
X370448Y371257D01*
X370527Y371221D01*
X370605Y371182D01*
X370680Y371139D01*
X370754Y371092D01*
X370825Y371043D01*
X370895Y370990D01*
X370961Y370935D01*
X371025Y370876D01*
X371087Y370815D01*
X371146Y370750D01*
X371201Y370684D01*
X371254Y370615D01*
X371304Y370543D01*
X371350Y370470D01*
X371393Y370394D01*
X371432Y370317D01*
X371468Y370238D01*
X371501Y370157D01*
X371529Y370075D01*
X371555Y369992D01*
X371576Y369908D01*
X371593Y369822D01*
X371594Y369822D02*
X371618Y369682D01*
X371638Y369540D01*
X371654Y369399D01*
X371665Y369257D01*
X371673Y369114D01*
X371677Y368972D01*
X371678Y368829D01*
X371674Y368686D01*
X371666Y368544D01*
X371654Y368402D01*
X371638Y368260D01*
X371619Y368119D01*
X371595Y367978D01*
X371568Y367838D01*
X371536Y367699D01*
X371501Y367561D01*
X371462Y367423D01*
X371419Y367287D01*
X371373Y367153D01*
X371322Y367019D01*
X371269Y366887D01*
X371211Y366757D01*
X371150Y366628D01*
X371085Y366501D01*
X371017Y366375D01*
X370945Y366252D01*
X363804Y376271D02*
X361208Y379516D01*
X372892Y379516D01*
X372892Y376271D02*
X372892Y382762D01*
X367699Y390297D02*
X367699Y394192D01*
X367699Y390297D02*
X367697Y390198D01*
X367691Y390098D01*
X367682Y389999D01*
X367669Y389901D01*
X367652Y389803D01*
X367631Y389705D01*
X367606Y389609D01*
X367578Y389514D01*
X367546Y389420D01*
X367511Y389327D01*
X367472Y389235D01*
X367429Y389145D01*
X367384Y389057D01*
X367334Y388970D01*
X367282Y388886D01*
X367226Y388803D01*
X367168Y388723D01*
X367106Y388645D01*
X367041Y388570D01*
X366973Y388497D01*
X366903Y388427D01*
X366830Y388359D01*
X366755Y388294D01*
X366677Y388232D01*
X366597Y388174D01*
X366514Y388118D01*
X366430Y388066D01*
X366343Y388016D01*
X366255Y387971D01*
X366165Y387928D01*
X366073Y387889D01*
X365980Y387854D01*
X365886Y387822D01*
X365791Y387794D01*
X365695Y387769D01*
X365597Y387748D01*
X365499Y387731D01*
X365401Y387718D01*
X365302Y387709D01*
X365202Y387703D01*
X365103Y387701D01*
X364454Y387701D01*
X364454Y387700D02*
X364341Y387702D01*
X364228Y387708D01*
X364115Y387718D01*
X364002Y387732D01*
X363890Y387749D01*
X363779Y387771D01*
X363669Y387796D01*
X363559Y387826D01*
X363451Y387859D01*
X363344Y387896D01*
X363238Y387936D01*
X363134Y387981D01*
X363031Y388029D01*
X362930Y388080D01*
X362831Y388135D01*
X362734Y388193D01*
X362639Y388255D01*
X362546Y388320D01*
X362456Y388388D01*
X362368Y388459D01*
X362282Y388534D01*
X362199Y388611D01*
X362119Y388691D01*
X362042Y388774D01*
X361967Y388860D01*
X361896Y388948D01*
X361828Y389038D01*
X361763Y389131D01*
X361701Y389226D01*
X361643Y389323D01*
X361588Y389422D01*
X361537Y389523D01*
X361489Y389626D01*
X361444Y389730D01*
X361404Y389836D01*
X361367Y389943D01*
X361334Y390051D01*
X361304Y390161D01*
X361279Y390271D01*
X361257Y390382D01*
X361240Y390494D01*
X361226Y390607D01*
X361216Y390720D01*
X361210Y390833D01*
X361208Y390946D01*
X361210Y391059D01*
X361216Y391172D01*
X361226Y391285D01*
X361240Y391398D01*
X361257Y391510D01*
X361279Y391621D01*
X361304Y391731D01*
X361334Y391841D01*
X361367Y391949D01*
X361404Y392056D01*
X361444Y392162D01*
X361489Y392266D01*
X361537Y392369D01*
X361588Y392470D01*
X361643Y392569D01*
X361701Y392666D01*
X361763Y392761D01*
X361828Y392854D01*
X361896Y392944D01*
X361967Y393032D01*
X362042Y393118D01*
X362119Y393201D01*
X362199Y393281D01*
X362282Y393358D01*
X362368Y393433D01*
X362456Y393504D01*
X362546Y393572D01*
X362639Y393637D01*
X362734Y393699D01*
X362831Y393757D01*
X362930Y393812D01*
X363031Y393863D01*
X363134Y393911D01*
X363238Y393956D01*
X363344Y393996D01*
X363451Y394033D01*
X363559Y394066D01*
X363669Y394096D01*
X363779Y394121D01*
X363890Y394143D01*
X364002Y394160D01*
X364115Y394174D01*
X364228Y394184D01*
X364341Y394190D01*
X364454Y394192D01*
X367699Y394192D01*
X367842Y394190D01*
X367985Y394184D01*
X368128Y394174D01*
X368270Y394160D01*
X368412Y394143D01*
X368554Y394121D01*
X368695Y394096D01*
X368835Y394066D01*
X368974Y394033D01*
X369112Y393996D01*
X369249Y393955D01*
X369385Y393911D01*
X369520Y393862D01*
X369653Y393810D01*
X369785Y393755D01*
X369915Y393695D01*
X370044Y393632D01*
X370171Y393566D01*
X370296Y393496D01*
X370418Y393423D01*
X370539Y393346D01*
X370658Y393266D01*
X370774Y393183D01*
X370889Y393097D01*
X371000Y393008D01*
X371110Y392915D01*
X371216Y392820D01*
X371320Y392721D01*
X371421Y392620D01*
X371520Y392516D01*
X371615Y392410D01*
X371708Y392300D01*
X371797Y392189D01*
X371883Y392074D01*
X371966Y391958D01*
X372046Y391839D01*
X372123Y391718D01*
X372196Y391596D01*
X372266Y391471D01*
X372332Y391344D01*
X372395Y391215D01*
X372455Y391085D01*
X372510Y390953D01*
X372562Y390820D01*
X372611Y390685D01*
X372655Y390549D01*
X372696Y390412D01*
X372733Y390274D01*
X372766Y390135D01*
X372796Y389995D01*
X372821Y389854D01*
X372843Y389712D01*
X372860Y389570D01*
X372874Y389428D01*
X372884Y389285D01*
X372890Y389142D01*
X372892Y388999D01*
X395008Y354054D02*
X403446Y354054D01*
X403559Y354056D01*
X403672Y354062D01*
X403785Y354072D01*
X403898Y354086D01*
X404010Y354103D01*
X404121Y354125D01*
X404231Y354150D01*
X404341Y354180D01*
X404449Y354213D01*
X404556Y354250D01*
X404662Y354290D01*
X404766Y354335D01*
X404869Y354383D01*
X404970Y354434D01*
X405069Y354489D01*
X405166Y354547D01*
X405261Y354609D01*
X405354Y354674D01*
X405444Y354742D01*
X405532Y354813D01*
X405618Y354888D01*
X405701Y354965D01*
X405781Y355045D01*
X405858Y355128D01*
X405933Y355214D01*
X406004Y355302D01*
X406072Y355392D01*
X406137Y355485D01*
X406199Y355580D01*
X406257Y355677D01*
X406312Y355776D01*
X406363Y355877D01*
X406411Y355980D01*
X406456Y356084D01*
X406496Y356190D01*
X406533Y356297D01*
X406566Y356405D01*
X406596Y356515D01*
X406621Y356625D01*
X406643Y356736D01*
X406660Y356848D01*
X406674Y356961D01*
X406684Y357074D01*
X406690Y357187D01*
X406692Y357300D01*
X406690Y357413D01*
X406684Y357526D01*
X406674Y357639D01*
X406660Y357752D01*
X406643Y357864D01*
X406621Y357975D01*
X406596Y358085D01*
X406566Y358195D01*
X406533Y358303D01*
X406496Y358410D01*
X406456Y358516D01*
X406411Y358620D01*
X406363Y358723D01*
X406312Y358824D01*
X406257Y358923D01*
X406199Y359020D01*
X406137Y359115D01*
X406072Y359208D01*
X406004Y359298D01*
X405933Y359386D01*
X405858Y359472D01*
X405781Y359555D01*
X405701Y359635D01*
X405618Y359712D01*
X405532Y359787D01*
X405444Y359858D01*
X405354Y359926D01*
X405261Y359991D01*
X405166Y360053D01*
X405069Y360111D01*
X404970Y360166D01*
X404869Y360217D01*
X404766Y360265D01*
X404662Y360310D01*
X404556Y360350D01*
X404449Y360387D01*
X404341Y360420D01*
X404231Y360450D01*
X404121Y360475D01*
X404010Y360497D01*
X403898Y360514D01*
X403785Y360528D01*
X403672Y360538D01*
X403559Y360544D01*
X403446Y360546D01*
X403446Y360545D02*
X395008Y360545D01*
X395008Y368349D02*
X406692Y368349D01*
X400850Y368349D02*
X399876Y366726D01*
X399877Y366725D02*
X399830Y366652D01*
X399781Y366581D01*
X399728Y366512D01*
X399672Y366445D01*
X399613Y366381D01*
X399552Y366319D01*
X399488Y366261D01*
X399421Y366205D01*
X399352Y366153D01*
X399280Y366103D01*
X399206Y366057D01*
X399131Y366014D01*
X399053Y365975D01*
X398974Y365939D01*
X398893Y365907D01*
X398811Y365878D01*
X398728Y365853D01*
X398644Y365832D01*
X398559Y365815D01*
X398473Y365801D01*
X398387Y365792D01*
X398300Y365786D01*
X398213Y365784D01*
X398126Y365786D01*
X398039Y365792D01*
X397953Y365802D01*
X397867Y365815D01*
X397782Y365833D01*
X397698Y365854D01*
X397615Y365879D01*
X397532Y365908D01*
X397452Y365940D01*
X397373Y365976D01*
X397295Y366015D01*
X397220Y366058D01*
X397146Y366105D01*
X397075Y366154D01*
X397005Y366207D01*
X396939Y366262D01*
X396875Y366321D01*
X396813Y366382D01*
X396754Y366446D01*
X396699Y366513D01*
X396646Y366582D01*
X396596Y366654D01*
X396550Y366727D01*
X396507Y366803D01*
X396468Y366880D01*
X396432Y366959D01*
X396399Y367040D01*
X396371Y367122D01*
X396345Y367205D01*
X396324Y367289D01*
X396307Y367374D01*
X396306Y367375D02*
X396282Y367515D01*
X396262Y367657D01*
X396246Y367798D01*
X396235Y367940D01*
X396227Y368083D01*
X396223Y368225D01*
X396222Y368368D01*
X396226Y368511D01*
X396234Y368653D01*
X396246Y368795D01*
X396262Y368937D01*
X396281Y369078D01*
X396305Y369219D01*
X396332Y369359D01*
X396364Y369498D01*
X396399Y369636D01*
X396438Y369774D01*
X396481Y369910D01*
X396527Y370044D01*
X396578Y370178D01*
X396631Y370310D01*
X396689Y370440D01*
X396750Y370569D01*
X396815Y370696D01*
X396883Y370822D01*
X396955Y370945D01*
X400850Y368349D02*
X401824Y369971D01*
X401823Y369972D02*
X401870Y370045D01*
X401919Y370116D01*
X401972Y370186D01*
X402028Y370252D01*
X402087Y370316D01*
X402148Y370378D01*
X402212Y370436D01*
X402279Y370492D01*
X402348Y370544D01*
X402420Y370594D01*
X402494Y370640D01*
X402569Y370683D01*
X402647Y370722D01*
X402726Y370758D01*
X402807Y370790D01*
X402889Y370819D01*
X402972Y370844D01*
X403056Y370865D01*
X403141Y370882D01*
X403227Y370896D01*
X403314Y370905D01*
X403400Y370911D01*
X403487Y370913D01*
X403574Y370911D01*
X403661Y370905D01*
X403747Y370895D01*
X403833Y370882D01*
X403918Y370864D01*
X404002Y370843D01*
X404085Y370818D01*
X404168Y370789D01*
X404248Y370757D01*
X404327Y370721D01*
X404405Y370682D01*
X404480Y370639D01*
X404554Y370592D01*
X404625Y370543D01*
X404695Y370490D01*
X404761Y370435D01*
X404825Y370376D01*
X404887Y370315D01*
X404946Y370250D01*
X405001Y370184D01*
X405054Y370115D01*
X405104Y370043D01*
X405150Y369970D01*
X405193Y369894D01*
X405232Y369817D01*
X405268Y369738D01*
X405301Y369657D01*
X405329Y369575D01*
X405355Y369492D01*
X405376Y369408D01*
X405393Y369322D01*
X405394Y369322D02*
X405418Y369182D01*
X405438Y369040D01*
X405454Y368899D01*
X405465Y368757D01*
X405473Y368614D01*
X405477Y368472D01*
X405478Y368329D01*
X405474Y368186D01*
X405466Y368044D01*
X405454Y367902D01*
X405438Y367760D01*
X405419Y367619D01*
X405395Y367478D01*
X405368Y367338D01*
X405336Y367199D01*
X405301Y367061D01*
X405262Y366923D01*
X405219Y366787D01*
X405173Y366653D01*
X405122Y366519D01*
X405069Y366387D01*
X405011Y366257D01*
X404950Y366128D01*
X404885Y366001D01*
X404817Y365875D01*
X404745Y365752D01*
X395008Y379341D02*
X395010Y379448D01*
X395016Y379554D01*
X395026Y379660D01*
X395039Y379766D01*
X395057Y379872D01*
X395078Y379976D01*
X395103Y380080D01*
X395132Y380183D01*
X395164Y380284D01*
X395201Y380384D01*
X395241Y380483D01*
X395284Y380581D01*
X395331Y380677D01*
X395382Y380771D01*
X395436Y380863D01*
X395493Y380953D01*
X395553Y381041D01*
X395617Y381126D01*
X395684Y381209D01*
X395754Y381290D01*
X395826Y381368D01*
X395902Y381444D01*
X395980Y381516D01*
X396061Y381586D01*
X396144Y381653D01*
X396229Y381717D01*
X396317Y381777D01*
X396407Y381834D01*
X396499Y381888D01*
X396593Y381939D01*
X396689Y381986D01*
X396787Y382029D01*
X396886Y382069D01*
X396986Y382106D01*
X397087Y382138D01*
X397190Y382167D01*
X397294Y382192D01*
X397398Y382213D01*
X397504Y382231D01*
X397610Y382244D01*
X397716Y382254D01*
X397822Y382260D01*
X397929Y382262D01*
X395008Y379341D02*
X395010Y379220D01*
X395016Y379099D01*
X395026Y378979D01*
X395039Y378858D01*
X395057Y378739D01*
X395078Y378619D01*
X395103Y378501D01*
X395132Y378384D01*
X395165Y378267D01*
X395201Y378152D01*
X395242Y378038D01*
X395285Y377925D01*
X395333Y377813D01*
X395384Y377704D01*
X395439Y377596D01*
X395497Y377489D01*
X395558Y377385D01*
X395623Y377283D01*
X395691Y377183D01*
X395762Y377085D01*
X395836Y376989D01*
X395913Y376896D01*
X395994Y376806D01*
X396077Y376718D01*
X396163Y376633D01*
X396252Y376550D01*
X396343Y376471D01*
X396437Y376394D01*
X396533Y376321D01*
X396631Y376251D01*
X396732Y376184D01*
X396835Y376120D01*
X396940Y376060D01*
X397047Y376002D01*
X397155Y375949D01*
X397265Y375899D01*
X397377Y375853D01*
X397490Y375810D01*
X397605Y375771D01*
X400201Y381288D02*
X400123Y381367D01*
X400043Y381443D01*
X399960Y381516D01*
X399874Y381586D01*
X399787Y381653D01*
X399696Y381717D01*
X399604Y381777D01*
X399510Y381835D01*
X399413Y381889D01*
X399315Y381939D01*
X399215Y381986D01*
X399114Y382030D01*
X399011Y382070D01*
X398906Y382106D01*
X398801Y382138D01*
X398694Y382167D01*
X398587Y382192D01*
X398478Y382214D01*
X398369Y382231D01*
X398260Y382245D01*
X398150Y382254D01*
X398039Y382260D01*
X397929Y382262D01*
X400201Y381288D02*
X406692Y375771D01*
X406692Y382262D01*
X400850Y387201D02*
X400620Y387204D01*
X400390Y387212D01*
X400161Y387226D01*
X399932Y387245D01*
X399703Y387270D01*
X399475Y387300D01*
X399248Y387335D01*
X399022Y387376D01*
X398797Y387422D01*
X398573Y387474D01*
X398350Y387531D01*
X398129Y387593D01*
X397909Y387661D01*
X397691Y387734D01*
X397475Y387812D01*
X397261Y387895D01*
X397049Y387983D01*
X396838Y388076D01*
X396631Y388175D01*
X396631Y388174D02*
X396541Y388207D01*
X396452Y388243D01*
X396364Y388283D01*
X396279Y388327D01*
X396195Y388374D01*
X396113Y388424D01*
X396033Y388478D01*
X395956Y388534D01*
X395880Y388594D01*
X395807Y388657D01*
X395737Y388722D01*
X395669Y388791D01*
X395605Y388862D01*
X395543Y388935D01*
X395484Y389011D01*
X395428Y389089D01*
X395375Y389170D01*
X395326Y389252D01*
X395280Y389336D01*
X395237Y389423D01*
X395198Y389510D01*
X395162Y389600D01*
X395130Y389690D01*
X395102Y389782D01*
X395077Y389875D01*
X395056Y389969D01*
X395039Y390063D01*
X395025Y390158D01*
X395016Y390254D01*
X395010Y390350D01*
X395008Y390446D01*
X395010Y390542D01*
X395016Y390638D01*
X395025Y390734D01*
X395039Y390829D01*
X395056Y390923D01*
X395077Y391017D01*
X395102Y391110D01*
X395130Y391202D01*
X395162Y391292D01*
X395198Y391382D01*
X395237Y391470D01*
X395280Y391556D01*
X395326Y391640D01*
X395375Y391722D01*
X395428Y391803D01*
X395484Y391881D01*
X395543Y391957D01*
X395605Y392030D01*
X395669Y392101D01*
X395737Y392170D01*
X395807Y392235D01*
X395880Y392298D01*
X395956Y392358D01*
X396033Y392414D01*
X396113Y392468D01*
X396195Y392518D01*
X396279Y392565D01*
X396364Y392609D01*
X396452Y392649D01*
X396541Y392685D01*
X396631Y392718D01*
X396838Y392817D01*
X397049Y392910D01*
X397261Y392998D01*
X397475Y393081D01*
X397691Y393159D01*
X397909Y393232D01*
X398129Y393300D01*
X398350Y393362D01*
X398573Y393419D01*
X398797Y393471D01*
X399022Y393517D01*
X399248Y393558D01*
X399475Y393593D01*
X399703Y393623D01*
X399932Y393648D01*
X400161Y393667D01*
X400390Y393681D01*
X400620Y393689D01*
X400850Y393692D01*
X400850Y387201D02*
X401080Y387204D01*
X401310Y387212D01*
X401539Y387226D01*
X401768Y387245D01*
X401997Y387270D01*
X402225Y387300D01*
X402452Y387335D01*
X402678Y387376D01*
X402903Y387422D01*
X403127Y387474D01*
X403350Y387531D01*
X403571Y387593D01*
X403791Y387661D01*
X404009Y387734D01*
X404225Y387812D01*
X404439Y387895D01*
X404651Y387983D01*
X404862Y388076D01*
X405069Y388175D01*
X405069Y388174D02*
X405159Y388207D01*
X405248Y388243D01*
X405336Y388284D01*
X405421Y388327D01*
X405505Y388374D01*
X405587Y388424D01*
X405667Y388478D01*
X405744Y388534D01*
X405820Y388594D01*
X405893Y388657D01*
X405963Y388722D01*
X406031Y388791D01*
X406095Y388862D01*
X406157Y388935D01*
X406216Y389011D01*
X406272Y389089D01*
X406325Y389170D01*
X406374Y389252D01*
X406420Y389336D01*
X406463Y389423D01*
X406502Y389510D01*
X406538Y389600D01*
X406570Y389690D01*
X406598Y389782D01*
X406623Y389875D01*
X406644Y389969D01*
X406661Y390063D01*
X406675Y390158D01*
X406684Y390254D01*
X406690Y390350D01*
X406692Y390446D01*
X405069Y392718D02*
X404862Y392817D01*
X404651Y392910D01*
X404439Y392998D01*
X404225Y393081D01*
X404009Y393159D01*
X403791Y393232D01*
X403571Y393300D01*
X403350Y393362D01*
X403127Y393419D01*
X402903Y393471D01*
X402678Y393517D01*
X402452Y393558D01*
X402225Y393593D01*
X401997Y393623D01*
X401768Y393648D01*
X401539Y393667D01*
X401310Y393681D01*
X401080Y393689D01*
X400850Y393692D01*
X405069Y392718D02*
X405159Y392685D01*
X405248Y392649D01*
X405336Y392609D01*
X405421Y392565D01*
X405505Y392518D01*
X405587Y392468D01*
X405667Y392414D01*
X405744Y392358D01*
X405820Y392298D01*
X405893Y392235D01*
X405963Y392170D01*
X406031Y392101D01*
X406095Y392030D01*
X406157Y391957D01*
X406216Y391881D01*
X406272Y391803D01*
X406325Y391722D01*
X406374Y391640D01*
X406420Y391556D01*
X406463Y391469D01*
X406502Y391382D01*
X406538Y391292D01*
X406570Y391202D01*
X406598Y391110D01*
X406623Y391017D01*
X406644Y390923D01*
X406661Y390829D01*
X406675Y390734D01*
X406684Y390638D01*
X406690Y390542D01*
X406692Y390446D01*
X404096Y387850D02*
X397604Y393043D01*
X437508Y442554D02*
X437508Y450992D01*
X437508Y442554D02*
X437510Y442441D01*
X437516Y442328D01*
X437526Y442215D01*
X437540Y442102D01*
X437557Y441990D01*
X437579Y441879D01*
X437604Y441769D01*
X437634Y441659D01*
X437667Y441551D01*
X437704Y441444D01*
X437744Y441338D01*
X437789Y441234D01*
X437837Y441131D01*
X437888Y441030D01*
X437943Y440931D01*
X438001Y440834D01*
X438063Y440739D01*
X438128Y440646D01*
X438196Y440556D01*
X438267Y440468D01*
X438342Y440382D01*
X438419Y440299D01*
X438499Y440219D01*
X438582Y440142D01*
X438668Y440067D01*
X438756Y439996D01*
X438846Y439928D01*
X438939Y439863D01*
X439034Y439801D01*
X439131Y439743D01*
X439230Y439688D01*
X439331Y439637D01*
X439434Y439589D01*
X439538Y439544D01*
X439644Y439504D01*
X439751Y439467D01*
X439859Y439434D01*
X439969Y439404D01*
X440079Y439379D01*
X440190Y439357D01*
X440302Y439340D01*
X440415Y439326D01*
X440528Y439316D01*
X440641Y439310D01*
X440754Y439308D01*
X440867Y439310D01*
X440980Y439316D01*
X441093Y439326D01*
X441206Y439340D01*
X441318Y439357D01*
X441429Y439379D01*
X441539Y439404D01*
X441649Y439434D01*
X441757Y439467D01*
X441864Y439504D01*
X441970Y439544D01*
X442074Y439589D01*
X442177Y439637D01*
X442278Y439688D01*
X442377Y439743D01*
X442474Y439801D01*
X442569Y439863D01*
X442662Y439928D01*
X442752Y439996D01*
X442840Y440067D01*
X442926Y440142D01*
X443009Y440219D01*
X443089Y440299D01*
X443166Y440382D01*
X443241Y440468D01*
X443312Y440556D01*
X443380Y440646D01*
X443445Y440739D01*
X443507Y440834D01*
X443565Y440931D01*
X443620Y441030D01*
X443671Y441131D01*
X443719Y441234D01*
X443764Y441338D01*
X443804Y441444D01*
X443841Y441551D01*
X443874Y441659D01*
X443904Y441769D01*
X443929Y441879D01*
X443951Y441990D01*
X443968Y442102D01*
X443982Y442215D01*
X443992Y442328D01*
X443998Y442441D01*
X444000Y442554D01*
X443999Y442554D02*
X443999Y450992D01*
X451803Y450992D02*
X451803Y439308D01*
X451803Y445150D02*
X450180Y446124D01*
X450179Y446123D02*
X450106Y446170D01*
X450035Y446219D01*
X449965Y446272D01*
X449899Y446328D01*
X449835Y446387D01*
X449773Y446448D01*
X449715Y446512D01*
X449659Y446579D01*
X449607Y446648D01*
X449557Y446720D01*
X449511Y446794D01*
X449468Y446869D01*
X449429Y446947D01*
X449393Y447026D01*
X449361Y447107D01*
X449332Y447189D01*
X449307Y447272D01*
X449286Y447356D01*
X449269Y447441D01*
X449255Y447527D01*
X449246Y447613D01*
X449240Y447700D01*
X449238Y447787D01*
X449240Y447874D01*
X449246Y447961D01*
X449256Y448047D01*
X449269Y448133D01*
X449287Y448218D01*
X449308Y448302D01*
X449333Y448385D01*
X449362Y448468D01*
X449394Y448548D01*
X449430Y448627D01*
X449469Y448705D01*
X449512Y448780D01*
X449559Y448854D01*
X449608Y448925D01*
X449661Y448995D01*
X449716Y449061D01*
X449775Y449125D01*
X449836Y449187D01*
X449901Y449246D01*
X449967Y449301D01*
X450036Y449354D01*
X450108Y449404D01*
X450181Y449450D01*
X450257Y449493D01*
X450334Y449532D01*
X450413Y449568D01*
X450494Y449601D01*
X450576Y449629D01*
X450659Y449655D01*
X450743Y449676D01*
X450829Y449693D01*
X450829Y449694D02*
X450969Y449718D01*
X451111Y449738D01*
X451252Y449754D01*
X451394Y449765D01*
X451537Y449773D01*
X451679Y449777D01*
X451822Y449778D01*
X451965Y449774D01*
X452107Y449766D01*
X452249Y449754D01*
X452391Y449738D01*
X452532Y449719D01*
X452673Y449695D01*
X452813Y449668D01*
X452952Y449636D01*
X453090Y449601D01*
X453228Y449562D01*
X453364Y449519D01*
X453498Y449473D01*
X453632Y449422D01*
X453764Y449369D01*
X453894Y449311D01*
X454023Y449250D01*
X454150Y449185D01*
X454276Y449117D01*
X454399Y449045D01*
X451803Y445150D02*
X453425Y444176D01*
X453426Y444177D02*
X453499Y444130D01*
X453570Y444081D01*
X453640Y444028D01*
X453706Y443972D01*
X453770Y443913D01*
X453832Y443852D01*
X453890Y443788D01*
X453946Y443721D01*
X453998Y443652D01*
X454048Y443580D01*
X454094Y443506D01*
X454137Y443431D01*
X454176Y443353D01*
X454212Y443274D01*
X454244Y443193D01*
X454273Y443111D01*
X454298Y443028D01*
X454319Y442944D01*
X454336Y442859D01*
X454350Y442773D01*
X454359Y442687D01*
X454365Y442600D01*
X454367Y442513D01*
X454365Y442426D01*
X454359Y442339D01*
X454349Y442253D01*
X454336Y442167D01*
X454318Y442082D01*
X454297Y441998D01*
X454272Y441915D01*
X454243Y441832D01*
X454211Y441752D01*
X454175Y441673D01*
X454136Y441595D01*
X454093Y441520D01*
X454046Y441446D01*
X453997Y441375D01*
X453944Y441305D01*
X453889Y441239D01*
X453830Y441175D01*
X453769Y441113D01*
X453704Y441054D01*
X453638Y440999D01*
X453569Y440946D01*
X453497Y440896D01*
X453424Y440850D01*
X453348Y440807D01*
X453271Y440768D01*
X453192Y440732D01*
X453111Y440699D01*
X453029Y440671D01*
X452946Y440645D01*
X452862Y440624D01*
X452777Y440607D01*
X452776Y440606D02*
X452636Y440582D01*
X452494Y440562D01*
X452353Y440546D01*
X452211Y440535D01*
X452068Y440527D01*
X451926Y440523D01*
X451783Y440522D01*
X451640Y440526D01*
X451498Y440534D01*
X451356Y440546D01*
X451214Y440562D01*
X451073Y440581D01*
X450932Y440605D01*
X450792Y440632D01*
X450653Y440664D01*
X450515Y440699D01*
X450377Y440738D01*
X450241Y440781D01*
X450107Y440827D01*
X449973Y440878D01*
X449841Y440931D01*
X449711Y440989D01*
X449582Y441050D01*
X449455Y441115D01*
X449329Y441183D01*
X449206Y441255D01*
X462795Y450992D02*
X462902Y450990D01*
X463008Y450984D01*
X463114Y450974D01*
X463220Y450961D01*
X463326Y450943D01*
X463430Y450922D01*
X463534Y450897D01*
X463637Y450868D01*
X463738Y450836D01*
X463838Y450799D01*
X463937Y450759D01*
X464035Y450716D01*
X464131Y450669D01*
X464225Y450618D01*
X464317Y450564D01*
X464407Y450507D01*
X464495Y450447D01*
X464580Y450383D01*
X464663Y450316D01*
X464744Y450246D01*
X464822Y450174D01*
X464898Y450098D01*
X464970Y450020D01*
X465040Y449939D01*
X465107Y449856D01*
X465171Y449771D01*
X465231Y449683D01*
X465288Y449593D01*
X465342Y449501D01*
X465393Y449407D01*
X465440Y449311D01*
X465483Y449213D01*
X465523Y449114D01*
X465560Y449014D01*
X465592Y448913D01*
X465621Y448810D01*
X465646Y448706D01*
X465667Y448602D01*
X465685Y448496D01*
X465698Y448390D01*
X465708Y448284D01*
X465714Y448178D01*
X465716Y448071D01*
X462795Y450992D02*
X462674Y450990D01*
X462553Y450984D01*
X462433Y450974D01*
X462312Y450961D01*
X462193Y450943D01*
X462073Y450922D01*
X461955Y450897D01*
X461838Y450868D01*
X461721Y450835D01*
X461606Y450799D01*
X461492Y450758D01*
X461379Y450715D01*
X461267Y450667D01*
X461158Y450616D01*
X461050Y450561D01*
X460943Y450503D01*
X460839Y450442D01*
X460737Y450377D01*
X460637Y450309D01*
X460539Y450238D01*
X460443Y450164D01*
X460350Y450087D01*
X460260Y450006D01*
X460172Y449923D01*
X460087Y449837D01*
X460004Y449748D01*
X459925Y449657D01*
X459848Y449563D01*
X459775Y449467D01*
X459705Y449369D01*
X459638Y449268D01*
X459574Y449165D01*
X459514Y449060D01*
X459457Y448953D01*
X459403Y448845D01*
X459353Y448735D01*
X459307Y448623D01*
X459264Y448510D01*
X459225Y448395D01*
X464743Y445799D02*
X464822Y445876D01*
X464898Y445957D01*
X464971Y446040D01*
X465041Y446125D01*
X465108Y446213D01*
X465172Y446303D01*
X465232Y446395D01*
X465289Y446490D01*
X465343Y446586D01*
X465394Y446684D01*
X465441Y446784D01*
X465485Y446886D01*
X465525Y446989D01*
X465561Y447093D01*
X465593Y447199D01*
X465622Y447305D01*
X465647Y447413D01*
X465669Y447521D01*
X465686Y447631D01*
X465700Y447740D01*
X465709Y447850D01*
X465715Y447961D01*
X465717Y448071D01*
X464742Y445799D02*
X459225Y439308D01*
X465716Y439308D01*
X470655Y448396D02*
X473900Y450992D01*
X473900Y439308D01*
X470655Y439308D02*
X477146Y439308D01*
X437508Y468354D02*
X437508Y476792D01*
X437508Y468354D02*
X437510Y468241D01*
X437516Y468128D01*
X437526Y468015D01*
X437540Y467902D01*
X437557Y467790D01*
X437579Y467679D01*
X437604Y467569D01*
X437634Y467459D01*
X437667Y467351D01*
X437704Y467244D01*
X437744Y467138D01*
X437789Y467034D01*
X437837Y466931D01*
X437888Y466830D01*
X437943Y466731D01*
X438001Y466634D01*
X438063Y466539D01*
X438128Y466446D01*
X438196Y466356D01*
X438267Y466268D01*
X438342Y466182D01*
X438419Y466099D01*
X438499Y466019D01*
X438582Y465942D01*
X438668Y465867D01*
X438756Y465796D01*
X438846Y465728D01*
X438939Y465663D01*
X439034Y465601D01*
X439131Y465543D01*
X439230Y465488D01*
X439331Y465437D01*
X439434Y465389D01*
X439538Y465344D01*
X439644Y465304D01*
X439751Y465267D01*
X439859Y465234D01*
X439969Y465204D01*
X440079Y465179D01*
X440190Y465157D01*
X440302Y465140D01*
X440415Y465126D01*
X440528Y465116D01*
X440641Y465110D01*
X440754Y465108D01*
X440867Y465110D01*
X440980Y465116D01*
X441093Y465126D01*
X441206Y465140D01*
X441318Y465157D01*
X441429Y465179D01*
X441539Y465204D01*
X441649Y465234D01*
X441757Y465267D01*
X441864Y465304D01*
X441970Y465344D01*
X442074Y465389D01*
X442177Y465437D01*
X442278Y465488D01*
X442377Y465543D01*
X442474Y465601D01*
X442569Y465663D01*
X442662Y465728D01*
X442752Y465796D01*
X442840Y465867D01*
X442926Y465942D01*
X443009Y466019D01*
X443089Y466099D01*
X443166Y466182D01*
X443241Y466268D01*
X443312Y466356D01*
X443380Y466446D01*
X443445Y466539D01*
X443507Y466634D01*
X443565Y466731D01*
X443620Y466830D01*
X443671Y466931D01*
X443719Y467034D01*
X443764Y467138D01*
X443804Y467244D01*
X443841Y467351D01*
X443874Y467459D01*
X443904Y467569D01*
X443929Y467679D01*
X443951Y467790D01*
X443968Y467902D01*
X443982Y468015D01*
X443992Y468128D01*
X443998Y468241D01*
X444000Y468354D01*
X443999Y468354D02*
X443999Y476792D01*
X451803Y476792D02*
X451803Y465108D01*
X451803Y470950D02*
X450180Y471924D01*
X450179Y471923D02*
X450106Y471970D01*
X450035Y472019D01*
X449965Y472072D01*
X449899Y472128D01*
X449835Y472187D01*
X449773Y472248D01*
X449715Y472312D01*
X449659Y472379D01*
X449607Y472448D01*
X449557Y472520D01*
X449511Y472594D01*
X449468Y472669D01*
X449429Y472747D01*
X449393Y472826D01*
X449361Y472907D01*
X449332Y472989D01*
X449307Y473072D01*
X449286Y473156D01*
X449269Y473241D01*
X449255Y473327D01*
X449246Y473413D01*
X449240Y473500D01*
X449238Y473587D01*
X449240Y473674D01*
X449246Y473761D01*
X449256Y473847D01*
X449269Y473933D01*
X449287Y474018D01*
X449308Y474102D01*
X449333Y474185D01*
X449362Y474268D01*
X449394Y474348D01*
X449430Y474427D01*
X449469Y474505D01*
X449512Y474580D01*
X449559Y474654D01*
X449608Y474725D01*
X449661Y474795D01*
X449716Y474861D01*
X449775Y474925D01*
X449836Y474987D01*
X449901Y475046D01*
X449967Y475101D01*
X450036Y475154D01*
X450108Y475204D01*
X450181Y475250D01*
X450257Y475293D01*
X450334Y475332D01*
X450413Y475368D01*
X450494Y475401D01*
X450576Y475429D01*
X450659Y475455D01*
X450743Y475476D01*
X450829Y475493D01*
X450829Y475494D02*
X450969Y475518D01*
X451111Y475538D01*
X451252Y475554D01*
X451394Y475565D01*
X451537Y475573D01*
X451679Y475577D01*
X451822Y475578D01*
X451965Y475574D01*
X452107Y475566D01*
X452249Y475554D01*
X452391Y475538D01*
X452532Y475519D01*
X452673Y475495D01*
X452813Y475468D01*
X452952Y475436D01*
X453090Y475401D01*
X453228Y475362D01*
X453364Y475319D01*
X453498Y475273D01*
X453632Y475222D01*
X453764Y475169D01*
X453894Y475111D01*
X454023Y475050D01*
X454150Y474985D01*
X454276Y474917D01*
X454399Y474845D01*
X451803Y470950D02*
X453425Y469976D01*
X453426Y469977D02*
X453499Y469930D01*
X453570Y469881D01*
X453640Y469828D01*
X453706Y469772D01*
X453770Y469713D01*
X453832Y469652D01*
X453890Y469588D01*
X453946Y469521D01*
X453998Y469452D01*
X454048Y469380D01*
X454094Y469306D01*
X454137Y469231D01*
X454176Y469153D01*
X454212Y469074D01*
X454244Y468993D01*
X454273Y468911D01*
X454298Y468828D01*
X454319Y468744D01*
X454336Y468659D01*
X454350Y468573D01*
X454359Y468487D01*
X454365Y468400D01*
X454367Y468313D01*
X454365Y468226D01*
X454359Y468139D01*
X454349Y468053D01*
X454336Y467967D01*
X454318Y467882D01*
X454297Y467798D01*
X454272Y467715D01*
X454243Y467632D01*
X454211Y467552D01*
X454175Y467473D01*
X454136Y467395D01*
X454093Y467320D01*
X454046Y467246D01*
X453997Y467175D01*
X453944Y467105D01*
X453889Y467039D01*
X453830Y466975D01*
X453769Y466913D01*
X453704Y466854D01*
X453638Y466799D01*
X453569Y466746D01*
X453497Y466696D01*
X453424Y466650D01*
X453348Y466607D01*
X453271Y466568D01*
X453192Y466532D01*
X453111Y466499D01*
X453029Y466471D01*
X452946Y466445D01*
X452862Y466424D01*
X452777Y466407D01*
X452776Y466406D02*
X452636Y466382D01*
X452494Y466362D01*
X452353Y466346D01*
X452211Y466335D01*
X452068Y466327D01*
X451926Y466323D01*
X451783Y466322D01*
X451640Y466326D01*
X451498Y466334D01*
X451356Y466346D01*
X451214Y466362D01*
X451073Y466381D01*
X450932Y466405D01*
X450792Y466432D01*
X450653Y466464D01*
X450515Y466499D01*
X450377Y466538D01*
X450241Y466581D01*
X450107Y466627D01*
X449973Y466678D01*
X449841Y466731D01*
X449711Y466789D01*
X449582Y466850D01*
X449455Y466915D01*
X449329Y466983D01*
X449206Y467055D01*
X462795Y476792D02*
X462902Y476790D01*
X463008Y476784D01*
X463114Y476774D01*
X463220Y476761D01*
X463326Y476743D01*
X463430Y476722D01*
X463534Y476697D01*
X463637Y476668D01*
X463738Y476636D01*
X463838Y476599D01*
X463937Y476559D01*
X464035Y476516D01*
X464131Y476469D01*
X464225Y476418D01*
X464317Y476364D01*
X464407Y476307D01*
X464495Y476247D01*
X464580Y476183D01*
X464663Y476116D01*
X464744Y476046D01*
X464822Y475974D01*
X464898Y475898D01*
X464970Y475820D01*
X465040Y475739D01*
X465107Y475656D01*
X465171Y475571D01*
X465231Y475483D01*
X465288Y475393D01*
X465342Y475301D01*
X465393Y475207D01*
X465440Y475111D01*
X465483Y475013D01*
X465523Y474914D01*
X465560Y474814D01*
X465592Y474713D01*
X465621Y474610D01*
X465646Y474506D01*
X465667Y474402D01*
X465685Y474296D01*
X465698Y474190D01*
X465708Y474084D01*
X465714Y473978D01*
X465716Y473871D01*
X462795Y476792D02*
X462674Y476790D01*
X462553Y476784D01*
X462433Y476774D01*
X462312Y476761D01*
X462193Y476743D01*
X462073Y476722D01*
X461955Y476697D01*
X461838Y476668D01*
X461721Y476635D01*
X461606Y476599D01*
X461492Y476558D01*
X461379Y476515D01*
X461267Y476467D01*
X461158Y476416D01*
X461050Y476361D01*
X460943Y476303D01*
X460839Y476242D01*
X460737Y476177D01*
X460637Y476109D01*
X460539Y476038D01*
X460443Y475964D01*
X460350Y475887D01*
X460260Y475806D01*
X460172Y475723D01*
X460087Y475637D01*
X460004Y475548D01*
X459925Y475457D01*
X459848Y475363D01*
X459775Y475267D01*
X459705Y475169D01*
X459638Y475068D01*
X459574Y474965D01*
X459514Y474860D01*
X459457Y474753D01*
X459403Y474645D01*
X459353Y474535D01*
X459307Y474423D01*
X459264Y474310D01*
X459225Y474195D01*
X464743Y471599D02*
X464822Y471676D01*
X464898Y471757D01*
X464971Y471840D01*
X465041Y471925D01*
X465108Y472013D01*
X465172Y472103D01*
X465232Y472195D01*
X465289Y472290D01*
X465343Y472386D01*
X465394Y472484D01*
X465441Y472584D01*
X465485Y472686D01*
X465525Y472789D01*
X465561Y472893D01*
X465593Y472999D01*
X465622Y473105D01*
X465647Y473213D01*
X465669Y473321D01*
X465686Y473431D01*
X465700Y473540D01*
X465709Y473650D01*
X465715Y473761D01*
X465717Y473871D01*
X464742Y471599D02*
X459225Y465108D01*
X465716Y465108D01*
X477146Y473871D02*
X477144Y473978D01*
X477138Y474084D01*
X477128Y474190D01*
X477115Y474296D01*
X477097Y474402D01*
X477076Y474506D01*
X477051Y474610D01*
X477022Y474713D01*
X476990Y474814D01*
X476953Y474914D01*
X476913Y475013D01*
X476870Y475111D01*
X476823Y475207D01*
X476772Y475301D01*
X476718Y475393D01*
X476661Y475483D01*
X476601Y475571D01*
X476537Y475656D01*
X476470Y475739D01*
X476400Y475820D01*
X476328Y475898D01*
X476252Y475974D01*
X476174Y476046D01*
X476093Y476116D01*
X476010Y476183D01*
X475925Y476247D01*
X475837Y476307D01*
X475747Y476364D01*
X475655Y476418D01*
X475561Y476469D01*
X475465Y476516D01*
X475367Y476559D01*
X475268Y476599D01*
X475168Y476636D01*
X475067Y476668D01*
X474964Y476697D01*
X474860Y476722D01*
X474756Y476743D01*
X474650Y476761D01*
X474544Y476774D01*
X474438Y476784D01*
X474332Y476790D01*
X474225Y476792D01*
X474104Y476790D01*
X473983Y476784D01*
X473863Y476774D01*
X473742Y476761D01*
X473623Y476743D01*
X473503Y476722D01*
X473385Y476697D01*
X473268Y476668D01*
X473151Y476635D01*
X473036Y476599D01*
X472922Y476558D01*
X472809Y476515D01*
X472697Y476467D01*
X472588Y476416D01*
X472480Y476361D01*
X472373Y476303D01*
X472269Y476242D01*
X472167Y476177D01*
X472067Y476109D01*
X471969Y476038D01*
X471873Y475964D01*
X471780Y475887D01*
X471690Y475806D01*
X471602Y475723D01*
X471517Y475637D01*
X471434Y475548D01*
X471355Y475457D01*
X471278Y475363D01*
X471205Y475267D01*
X471135Y475169D01*
X471068Y475068D01*
X471004Y474965D01*
X470944Y474860D01*
X470887Y474753D01*
X470833Y474645D01*
X470783Y474535D01*
X470737Y474423D01*
X470694Y474310D01*
X470655Y474195D01*
X476173Y471599D02*
X476252Y471676D01*
X476328Y471757D01*
X476401Y471840D01*
X476471Y471925D01*
X476538Y472013D01*
X476602Y472103D01*
X476662Y472195D01*
X476719Y472290D01*
X476773Y472386D01*
X476824Y472484D01*
X476871Y472584D01*
X476915Y472686D01*
X476955Y472789D01*
X476991Y472893D01*
X477023Y472999D01*
X477052Y473105D01*
X477077Y473213D01*
X477099Y473321D01*
X477116Y473431D01*
X477130Y473540D01*
X477139Y473650D01*
X477145Y473761D01*
X477147Y473871D01*
X476172Y471599D02*
X470655Y465108D01*
X477146Y465108D01*
X402646Y310654D02*
X394208Y310654D01*
X402646Y310654D02*
X402759Y310656D01*
X402872Y310662D01*
X402985Y310672D01*
X403098Y310686D01*
X403210Y310703D01*
X403321Y310725D01*
X403431Y310750D01*
X403541Y310780D01*
X403649Y310813D01*
X403756Y310850D01*
X403862Y310890D01*
X403966Y310935D01*
X404069Y310983D01*
X404170Y311034D01*
X404269Y311089D01*
X404366Y311147D01*
X404461Y311209D01*
X404554Y311274D01*
X404644Y311342D01*
X404732Y311413D01*
X404818Y311488D01*
X404901Y311565D01*
X404981Y311645D01*
X405058Y311728D01*
X405133Y311814D01*
X405204Y311902D01*
X405272Y311992D01*
X405337Y312085D01*
X405399Y312180D01*
X405457Y312277D01*
X405512Y312376D01*
X405563Y312477D01*
X405611Y312580D01*
X405656Y312684D01*
X405696Y312790D01*
X405733Y312897D01*
X405766Y313005D01*
X405796Y313115D01*
X405821Y313225D01*
X405843Y313336D01*
X405860Y313448D01*
X405874Y313561D01*
X405884Y313674D01*
X405890Y313787D01*
X405892Y313900D01*
X405890Y314013D01*
X405884Y314126D01*
X405874Y314239D01*
X405860Y314352D01*
X405843Y314464D01*
X405821Y314575D01*
X405796Y314685D01*
X405766Y314795D01*
X405733Y314903D01*
X405696Y315010D01*
X405656Y315116D01*
X405611Y315220D01*
X405563Y315323D01*
X405512Y315424D01*
X405457Y315523D01*
X405399Y315620D01*
X405337Y315715D01*
X405272Y315808D01*
X405204Y315898D01*
X405133Y315986D01*
X405058Y316072D01*
X404981Y316155D01*
X404901Y316235D01*
X404818Y316312D01*
X404732Y316387D01*
X404644Y316458D01*
X404554Y316526D01*
X404461Y316591D01*
X404366Y316653D01*
X404269Y316711D01*
X404170Y316766D01*
X404069Y316817D01*
X403966Y316865D01*
X403862Y316910D01*
X403756Y316950D01*
X403649Y316987D01*
X403541Y317020D01*
X403431Y317050D01*
X403321Y317075D01*
X403210Y317097D01*
X403098Y317114D01*
X402985Y317128D01*
X402872Y317138D01*
X402759Y317144D01*
X402646Y317146D01*
X402646Y317145D02*
X394208Y317145D01*
X394208Y324949D02*
X405892Y324949D01*
X400050Y324949D02*
X399076Y323326D01*
X399077Y323325D02*
X399030Y323252D01*
X398981Y323181D01*
X398928Y323112D01*
X398872Y323045D01*
X398813Y322981D01*
X398752Y322919D01*
X398688Y322861D01*
X398621Y322805D01*
X398552Y322753D01*
X398480Y322703D01*
X398406Y322657D01*
X398331Y322614D01*
X398253Y322575D01*
X398174Y322539D01*
X398093Y322507D01*
X398011Y322478D01*
X397928Y322453D01*
X397844Y322432D01*
X397759Y322415D01*
X397673Y322401D01*
X397587Y322392D01*
X397500Y322386D01*
X397413Y322384D01*
X397326Y322386D01*
X397239Y322392D01*
X397153Y322402D01*
X397067Y322415D01*
X396982Y322433D01*
X396898Y322454D01*
X396815Y322479D01*
X396732Y322508D01*
X396652Y322540D01*
X396573Y322576D01*
X396495Y322615D01*
X396420Y322658D01*
X396346Y322705D01*
X396275Y322754D01*
X396205Y322807D01*
X396139Y322862D01*
X396075Y322921D01*
X396013Y322982D01*
X395954Y323046D01*
X395899Y323113D01*
X395846Y323182D01*
X395796Y323254D01*
X395750Y323327D01*
X395707Y323403D01*
X395668Y323480D01*
X395632Y323559D01*
X395599Y323640D01*
X395571Y323722D01*
X395545Y323805D01*
X395524Y323889D01*
X395507Y323974D01*
X395506Y323975D02*
X395482Y324115D01*
X395462Y324257D01*
X395446Y324398D01*
X395435Y324540D01*
X395427Y324683D01*
X395423Y324825D01*
X395422Y324968D01*
X395426Y325111D01*
X395434Y325253D01*
X395446Y325395D01*
X395462Y325537D01*
X395481Y325678D01*
X395505Y325819D01*
X395532Y325959D01*
X395564Y326098D01*
X395599Y326236D01*
X395638Y326374D01*
X395681Y326510D01*
X395727Y326644D01*
X395778Y326778D01*
X395831Y326910D01*
X395889Y327040D01*
X395950Y327169D01*
X396015Y327296D01*
X396083Y327422D01*
X396155Y327545D01*
X400050Y324949D02*
X401024Y326571D01*
X401023Y326572D02*
X401070Y326645D01*
X401119Y326716D01*
X401172Y326786D01*
X401228Y326852D01*
X401287Y326916D01*
X401348Y326978D01*
X401412Y327036D01*
X401479Y327092D01*
X401548Y327144D01*
X401620Y327194D01*
X401694Y327240D01*
X401769Y327283D01*
X401847Y327322D01*
X401926Y327358D01*
X402007Y327390D01*
X402089Y327419D01*
X402172Y327444D01*
X402256Y327465D01*
X402341Y327482D01*
X402427Y327496D01*
X402514Y327505D01*
X402600Y327511D01*
X402687Y327513D01*
X402774Y327511D01*
X402861Y327505D01*
X402947Y327495D01*
X403033Y327482D01*
X403118Y327464D01*
X403202Y327443D01*
X403285Y327418D01*
X403368Y327389D01*
X403448Y327357D01*
X403527Y327321D01*
X403605Y327282D01*
X403680Y327239D01*
X403754Y327192D01*
X403825Y327143D01*
X403895Y327090D01*
X403961Y327035D01*
X404025Y326976D01*
X404087Y326915D01*
X404146Y326850D01*
X404201Y326784D01*
X404254Y326715D01*
X404304Y326643D01*
X404350Y326570D01*
X404393Y326494D01*
X404432Y326417D01*
X404468Y326338D01*
X404501Y326257D01*
X404529Y326175D01*
X404555Y326092D01*
X404576Y326008D01*
X404593Y325922D01*
X404594Y325922D02*
X404618Y325782D01*
X404638Y325640D01*
X404654Y325499D01*
X404665Y325357D01*
X404673Y325214D01*
X404677Y325072D01*
X404678Y324929D01*
X404674Y324786D01*
X404666Y324644D01*
X404654Y324502D01*
X404638Y324360D01*
X404619Y324219D01*
X404595Y324078D01*
X404568Y323938D01*
X404536Y323799D01*
X404501Y323661D01*
X404462Y323523D01*
X404419Y323387D01*
X404373Y323253D01*
X404322Y323119D01*
X404269Y322987D01*
X404211Y322857D01*
X404150Y322728D01*
X404085Y322601D01*
X404017Y322475D01*
X403945Y322352D01*
X394208Y335941D02*
X394210Y336048D01*
X394216Y336154D01*
X394226Y336260D01*
X394239Y336366D01*
X394257Y336472D01*
X394278Y336576D01*
X394303Y336680D01*
X394332Y336783D01*
X394364Y336884D01*
X394401Y336984D01*
X394441Y337083D01*
X394484Y337181D01*
X394531Y337277D01*
X394582Y337371D01*
X394636Y337463D01*
X394693Y337553D01*
X394753Y337641D01*
X394817Y337726D01*
X394884Y337809D01*
X394954Y337890D01*
X395026Y337968D01*
X395102Y338044D01*
X395180Y338116D01*
X395261Y338186D01*
X395344Y338253D01*
X395429Y338317D01*
X395517Y338377D01*
X395607Y338434D01*
X395699Y338488D01*
X395793Y338539D01*
X395889Y338586D01*
X395987Y338629D01*
X396086Y338669D01*
X396186Y338706D01*
X396287Y338738D01*
X396390Y338767D01*
X396494Y338792D01*
X396598Y338813D01*
X396704Y338831D01*
X396810Y338844D01*
X396916Y338854D01*
X397022Y338860D01*
X397129Y338862D01*
X394208Y335941D02*
X394210Y335820D01*
X394216Y335699D01*
X394226Y335579D01*
X394239Y335458D01*
X394257Y335339D01*
X394278Y335219D01*
X394303Y335101D01*
X394332Y334984D01*
X394365Y334867D01*
X394401Y334752D01*
X394442Y334638D01*
X394485Y334525D01*
X394533Y334413D01*
X394584Y334304D01*
X394639Y334196D01*
X394697Y334089D01*
X394758Y333985D01*
X394823Y333883D01*
X394891Y333783D01*
X394962Y333685D01*
X395036Y333589D01*
X395113Y333496D01*
X395194Y333406D01*
X395277Y333318D01*
X395363Y333233D01*
X395452Y333150D01*
X395543Y333071D01*
X395637Y332994D01*
X395733Y332921D01*
X395831Y332851D01*
X395932Y332784D01*
X396035Y332720D01*
X396140Y332660D01*
X396247Y332602D01*
X396355Y332549D01*
X396465Y332499D01*
X396577Y332453D01*
X396690Y332410D01*
X396805Y332371D01*
X399401Y337888D02*
X399323Y337967D01*
X399243Y338043D01*
X399160Y338116D01*
X399074Y338186D01*
X398987Y338253D01*
X398896Y338317D01*
X398804Y338377D01*
X398710Y338435D01*
X398613Y338489D01*
X398515Y338539D01*
X398415Y338586D01*
X398314Y338630D01*
X398211Y338670D01*
X398106Y338706D01*
X398001Y338738D01*
X397894Y338767D01*
X397787Y338792D01*
X397678Y338814D01*
X397569Y338831D01*
X397460Y338845D01*
X397350Y338854D01*
X397239Y338860D01*
X397129Y338862D01*
X399401Y337888D02*
X405892Y332371D01*
X405892Y338862D01*
X405892Y343801D02*
X405892Y347046D01*
X405890Y347159D01*
X405884Y347272D01*
X405874Y347385D01*
X405860Y347498D01*
X405843Y347610D01*
X405821Y347721D01*
X405796Y347831D01*
X405766Y347941D01*
X405733Y348049D01*
X405696Y348156D01*
X405656Y348262D01*
X405611Y348366D01*
X405563Y348469D01*
X405512Y348570D01*
X405457Y348669D01*
X405399Y348766D01*
X405337Y348861D01*
X405272Y348954D01*
X405204Y349044D01*
X405133Y349132D01*
X405058Y349218D01*
X404981Y349301D01*
X404901Y349381D01*
X404818Y349458D01*
X404732Y349533D01*
X404644Y349604D01*
X404554Y349672D01*
X404461Y349737D01*
X404366Y349799D01*
X404269Y349857D01*
X404170Y349912D01*
X404069Y349963D01*
X403966Y350011D01*
X403862Y350056D01*
X403756Y350096D01*
X403649Y350133D01*
X403541Y350166D01*
X403431Y350196D01*
X403321Y350221D01*
X403210Y350243D01*
X403098Y350260D01*
X402985Y350274D01*
X402872Y350284D01*
X402759Y350290D01*
X402646Y350292D01*
X402533Y350290D01*
X402420Y350284D01*
X402307Y350274D01*
X402194Y350260D01*
X402082Y350243D01*
X401971Y350221D01*
X401861Y350196D01*
X401751Y350166D01*
X401643Y350133D01*
X401536Y350096D01*
X401430Y350056D01*
X401326Y350011D01*
X401223Y349963D01*
X401122Y349912D01*
X401023Y349857D01*
X400926Y349799D01*
X400831Y349737D01*
X400738Y349672D01*
X400648Y349604D01*
X400560Y349533D01*
X400474Y349458D01*
X400391Y349381D01*
X400311Y349301D01*
X400234Y349218D01*
X400159Y349132D01*
X400088Y349044D01*
X400020Y348954D01*
X399955Y348861D01*
X399893Y348766D01*
X399835Y348669D01*
X399780Y348570D01*
X399729Y348469D01*
X399681Y348366D01*
X399636Y348262D01*
X399596Y348156D01*
X399559Y348049D01*
X399526Y347941D01*
X399496Y347831D01*
X399471Y347721D01*
X399449Y347610D01*
X399432Y347498D01*
X399418Y347385D01*
X399408Y347272D01*
X399402Y347159D01*
X399400Y347046D01*
X394208Y347696D02*
X394208Y343801D01*
X394208Y347696D02*
X394210Y347797D01*
X394216Y347897D01*
X394226Y347997D01*
X394239Y348097D01*
X394257Y348196D01*
X394278Y348295D01*
X394303Y348392D01*
X394332Y348489D01*
X394365Y348584D01*
X394401Y348678D01*
X394441Y348770D01*
X394484Y348861D01*
X394531Y348950D01*
X394581Y349037D01*
X394635Y349123D01*
X394692Y349206D01*
X394752Y349286D01*
X394815Y349365D01*
X394882Y349441D01*
X394951Y349514D01*
X395023Y349584D01*
X395097Y349652D01*
X395174Y349717D01*
X395254Y349778D01*
X395336Y349837D01*
X395420Y349892D01*
X395506Y349944D01*
X395594Y349993D01*
X395684Y350038D01*
X395776Y350080D01*
X395869Y350118D01*
X395964Y350152D01*
X396059Y350183D01*
X396156Y350210D01*
X396254Y350233D01*
X396353Y350253D01*
X396453Y350268D01*
X396553Y350280D01*
X396653Y350288D01*
X396754Y350292D01*
X396854Y350292D01*
X396955Y350288D01*
X397055Y350280D01*
X397155Y350268D01*
X397255Y350253D01*
X397354Y350233D01*
X397452Y350210D01*
X397549Y350183D01*
X397644Y350152D01*
X397739Y350118D01*
X397832Y350080D01*
X397924Y350038D01*
X398014Y349993D01*
X398102Y349944D01*
X398188Y349892D01*
X398272Y349837D01*
X398354Y349778D01*
X398434Y349717D01*
X398511Y349652D01*
X398585Y349584D01*
X398657Y349514D01*
X398726Y349441D01*
X398793Y349365D01*
X398856Y349286D01*
X398916Y349206D01*
X398973Y349123D01*
X399027Y349037D01*
X399077Y348950D01*
X399124Y348861D01*
X399167Y348770D01*
X399207Y348678D01*
X399243Y348584D01*
X399276Y348489D01*
X399305Y348392D01*
X399330Y348295D01*
X399351Y348196D01*
X399369Y348097D01*
X399382Y347997D01*
X399392Y347897D01*
X399398Y347797D01*
X399400Y347696D01*
X399401Y347696D02*
X399401Y345099D01*
X369546Y310654D02*
X361108Y310654D01*
X369546Y310654D02*
X369659Y310656D01*
X369772Y310662D01*
X369885Y310672D01*
X369998Y310686D01*
X370110Y310703D01*
X370221Y310725D01*
X370331Y310750D01*
X370441Y310780D01*
X370549Y310813D01*
X370656Y310850D01*
X370762Y310890D01*
X370866Y310935D01*
X370969Y310983D01*
X371070Y311034D01*
X371169Y311089D01*
X371266Y311147D01*
X371361Y311209D01*
X371454Y311274D01*
X371544Y311342D01*
X371632Y311413D01*
X371718Y311488D01*
X371801Y311565D01*
X371881Y311645D01*
X371958Y311728D01*
X372033Y311814D01*
X372104Y311902D01*
X372172Y311992D01*
X372237Y312085D01*
X372299Y312180D01*
X372357Y312277D01*
X372412Y312376D01*
X372463Y312477D01*
X372511Y312580D01*
X372556Y312684D01*
X372596Y312790D01*
X372633Y312897D01*
X372666Y313005D01*
X372696Y313115D01*
X372721Y313225D01*
X372743Y313336D01*
X372760Y313448D01*
X372774Y313561D01*
X372784Y313674D01*
X372790Y313787D01*
X372792Y313900D01*
X372790Y314013D01*
X372784Y314126D01*
X372774Y314239D01*
X372760Y314352D01*
X372743Y314464D01*
X372721Y314575D01*
X372696Y314685D01*
X372666Y314795D01*
X372633Y314903D01*
X372596Y315010D01*
X372556Y315116D01*
X372511Y315220D01*
X372463Y315323D01*
X372412Y315424D01*
X372357Y315523D01*
X372299Y315620D01*
X372237Y315715D01*
X372172Y315808D01*
X372104Y315898D01*
X372033Y315986D01*
X371958Y316072D01*
X371881Y316155D01*
X371801Y316235D01*
X371718Y316312D01*
X371632Y316387D01*
X371544Y316458D01*
X371454Y316526D01*
X371361Y316591D01*
X371266Y316653D01*
X371169Y316711D01*
X371070Y316766D01*
X370969Y316817D01*
X370866Y316865D01*
X370762Y316910D01*
X370656Y316950D01*
X370549Y316987D01*
X370441Y317020D01*
X370331Y317050D01*
X370221Y317075D01*
X370110Y317097D01*
X369998Y317114D01*
X369885Y317128D01*
X369772Y317138D01*
X369659Y317144D01*
X369546Y317146D01*
X369546Y317145D02*
X361108Y317145D01*
X361108Y324949D02*
X372792Y324949D01*
X366950Y324949D02*
X365976Y323326D01*
X365977Y323325D02*
X365930Y323252D01*
X365881Y323181D01*
X365828Y323112D01*
X365772Y323045D01*
X365713Y322981D01*
X365652Y322919D01*
X365588Y322861D01*
X365521Y322805D01*
X365452Y322753D01*
X365380Y322703D01*
X365306Y322657D01*
X365231Y322614D01*
X365153Y322575D01*
X365074Y322539D01*
X364993Y322507D01*
X364911Y322478D01*
X364828Y322453D01*
X364744Y322432D01*
X364659Y322415D01*
X364573Y322401D01*
X364487Y322392D01*
X364400Y322386D01*
X364313Y322384D01*
X364226Y322386D01*
X364139Y322392D01*
X364053Y322402D01*
X363967Y322415D01*
X363882Y322433D01*
X363798Y322454D01*
X363715Y322479D01*
X363632Y322508D01*
X363552Y322540D01*
X363473Y322576D01*
X363395Y322615D01*
X363320Y322658D01*
X363246Y322705D01*
X363175Y322754D01*
X363105Y322807D01*
X363039Y322862D01*
X362975Y322921D01*
X362913Y322982D01*
X362854Y323046D01*
X362799Y323113D01*
X362746Y323182D01*
X362696Y323254D01*
X362650Y323327D01*
X362607Y323403D01*
X362568Y323480D01*
X362532Y323559D01*
X362499Y323640D01*
X362471Y323722D01*
X362445Y323805D01*
X362424Y323889D01*
X362407Y323974D01*
X362406Y323975D02*
X362382Y324115D01*
X362362Y324257D01*
X362346Y324398D01*
X362335Y324540D01*
X362327Y324683D01*
X362323Y324825D01*
X362322Y324968D01*
X362326Y325111D01*
X362334Y325253D01*
X362346Y325395D01*
X362362Y325537D01*
X362381Y325678D01*
X362405Y325819D01*
X362432Y325959D01*
X362464Y326098D01*
X362499Y326236D01*
X362538Y326374D01*
X362581Y326510D01*
X362627Y326644D01*
X362678Y326778D01*
X362731Y326910D01*
X362789Y327040D01*
X362850Y327169D01*
X362915Y327296D01*
X362983Y327422D01*
X363055Y327545D01*
X366950Y324949D02*
X367924Y326571D01*
X367923Y326572D02*
X367970Y326645D01*
X368019Y326716D01*
X368072Y326786D01*
X368128Y326852D01*
X368187Y326916D01*
X368248Y326978D01*
X368312Y327036D01*
X368379Y327092D01*
X368448Y327144D01*
X368520Y327194D01*
X368594Y327240D01*
X368669Y327283D01*
X368747Y327322D01*
X368826Y327358D01*
X368907Y327390D01*
X368989Y327419D01*
X369072Y327444D01*
X369156Y327465D01*
X369241Y327482D01*
X369327Y327496D01*
X369414Y327505D01*
X369500Y327511D01*
X369587Y327513D01*
X369674Y327511D01*
X369761Y327505D01*
X369847Y327495D01*
X369933Y327482D01*
X370018Y327464D01*
X370102Y327443D01*
X370185Y327418D01*
X370268Y327389D01*
X370348Y327357D01*
X370427Y327321D01*
X370505Y327282D01*
X370580Y327239D01*
X370654Y327192D01*
X370725Y327143D01*
X370795Y327090D01*
X370861Y327035D01*
X370925Y326976D01*
X370987Y326915D01*
X371046Y326850D01*
X371101Y326784D01*
X371154Y326715D01*
X371204Y326643D01*
X371250Y326570D01*
X371293Y326494D01*
X371332Y326417D01*
X371368Y326338D01*
X371401Y326257D01*
X371429Y326175D01*
X371455Y326092D01*
X371476Y326008D01*
X371493Y325922D01*
X371494Y325922D02*
X371518Y325782D01*
X371538Y325640D01*
X371554Y325499D01*
X371565Y325357D01*
X371573Y325214D01*
X371577Y325072D01*
X371578Y324929D01*
X371574Y324786D01*
X371566Y324644D01*
X371554Y324502D01*
X371538Y324360D01*
X371519Y324219D01*
X371495Y324078D01*
X371468Y323938D01*
X371436Y323799D01*
X371401Y323661D01*
X371362Y323523D01*
X371319Y323387D01*
X371273Y323253D01*
X371222Y323119D01*
X371169Y322987D01*
X371111Y322857D01*
X371050Y322728D01*
X370985Y322601D01*
X370917Y322475D01*
X370845Y322352D01*
X361108Y335941D02*
X361110Y336048D01*
X361116Y336154D01*
X361126Y336260D01*
X361139Y336366D01*
X361157Y336472D01*
X361178Y336576D01*
X361203Y336680D01*
X361232Y336783D01*
X361264Y336884D01*
X361301Y336984D01*
X361341Y337083D01*
X361384Y337181D01*
X361431Y337277D01*
X361482Y337371D01*
X361536Y337463D01*
X361593Y337553D01*
X361653Y337641D01*
X361717Y337726D01*
X361784Y337809D01*
X361854Y337890D01*
X361926Y337968D01*
X362002Y338044D01*
X362080Y338116D01*
X362161Y338186D01*
X362244Y338253D01*
X362329Y338317D01*
X362417Y338377D01*
X362507Y338434D01*
X362599Y338488D01*
X362693Y338539D01*
X362789Y338586D01*
X362887Y338629D01*
X362986Y338669D01*
X363086Y338706D01*
X363187Y338738D01*
X363290Y338767D01*
X363394Y338792D01*
X363498Y338813D01*
X363604Y338831D01*
X363710Y338844D01*
X363816Y338854D01*
X363922Y338860D01*
X364029Y338862D01*
X361108Y335941D02*
X361110Y335820D01*
X361116Y335699D01*
X361126Y335579D01*
X361139Y335458D01*
X361157Y335339D01*
X361178Y335219D01*
X361203Y335101D01*
X361232Y334984D01*
X361265Y334867D01*
X361301Y334752D01*
X361342Y334638D01*
X361385Y334525D01*
X361433Y334413D01*
X361484Y334304D01*
X361539Y334196D01*
X361597Y334089D01*
X361658Y333985D01*
X361723Y333883D01*
X361791Y333783D01*
X361862Y333685D01*
X361936Y333589D01*
X362013Y333496D01*
X362094Y333406D01*
X362177Y333318D01*
X362263Y333233D01*
X362352Y333150D01*
X362443Y333071D01*
X362537Y332994D01*
X362633Y332921D01*
X362731Y332851D01*
X362832Y332784D01*
X362935Y332720D01*
X363040Y332660D01*
X363147Y332602D01*
X363255Y332549D01*
X363365Y332499D01*
X363477Y332453D01*
X363590Y332410D01*
X363705Y332371D01*
X366301Y337888D02*
X366223Y337967D01*
X366143Y338043D01*
X366060Y338116D01*
X365974Y338186D01*
X365887Y338253D01*
X365796Y338317D01*
X365704Y338377D01*
X365610Y338435D01*
X365513Y338489D01*
X365415Y338539D01*
X365315Y338586D01*
X365214Y338630D01*
X365111Y338670D01*
X365006Y338706D01*
X364901Y338738D01*
X364794Y338767D01*
X364687Y338792D01*
X364578Y338814D01*
X364469Y338831D01*
X364360Y338845D01*
X364250Y338854D01*
X364139Y338860D01*
X364029Y338862D01*
X366301Y337888D02*
X372792Y332371D01*
X372792Y338862D01*
X370196Y343801D02*
X361108Y346397D01*
X370196Y343801D02*
X370196Y350292D01*
X367599Y348345D02*
X372792Y348345D01*
X192146Y454104D02*
X183708Y454104D01*
X192146Y454104D02*
X192259Y454106D01*
X192372Y454112D01*
X192485Y454122D01*
X192598Y454136D01*
X192710Y454153D01*
X192821Y454175D01*
X192931Y454200D01*
X193041Y454230D01*
X193149Y454263D01*
X193256Y454300D01*
X193362Y454340D01*
X193466Y454385D01*
X193569Y454433D01*
X193670Y454484D01*
X193769Y454539D01*
X193866Y454597D01*
X193961Y454659D01*
X194054Y454724D01*
X194144Y454792D01*
X194232Y454863D01*
X194318Y454938D01*
X194401Y455015D01*
X194481Y455095D01*
X194558Y455178D01*
X194633Y455264D01*
X194704Y455352D01*
X194772Y455442D01*
X194837Y455535D01*
X194899Y455630D01*
X194957Y455727D01*
X195012Y455826D01*
X195063Y455927D01*
X195111Y456030D01*
X195156Y456134D01*
X195196Y456240D01*
X195233Y456347D01*
X195266Y456455D01*
X195296Y456565D01*
X195321Y456675D01*
X195343Y456786D01*
X195360Y456898D01*
X195374Y457011D01*
X195384Y457124D01*
X195390Y457237D01*
X195392Y457350D01*
X195390Y457463D01*
X195384Y457576D01*
X195374Y457689D01*
X195360Y457802D01*
X195343Y457914D01*
X195321Y458025D01*
X195296Y458135D01*
X195266Y458245D01*
X195233Y458353D01*
X195196Y458460D01*
X195156Y458566D01*
X195111Y458670D01*
X195063Y458773D01*
X195012Y458874D01*
X194957Y458973D01*
X194899Y459070D01*
X194837Y459165D01*
X194772Y459258D01*
X194704Y459348D01*
X194633Y459436D01*
X194558Y459522D01*
X194481Y459605D01*
X194401Y459685D01*
X194318Y459762D01*
X194232Y459837D01*
X194144Y459908D01*
X194054Y459976D01*
X193961Y460041D01*
X193866Y460103D01*
X193769Y460161D01*
X193670Y460216D01*
X193569Y460267D01*
X193466Y460315D01*
X193362Y460360D01*
X193256Y460400D01*
X193149Y460437D01*
X193041Y460470D01*
X192931Y460500D01*
X192821Y460525D01*
X192710Y460547D01*
X192598Y460564D01*
X192485Y460578D01*
X192372Y460588D01*
X192259Y460594D01*
X192146Y460596D01*
X192146Y460595D02*
X183708Y460595D01*
X183708Y468399D02*
X195392Y468399D01*
X189550Y468399D02*
X188576Y466776D01*
X188577Y466775D02*
X188530Y466702D01*
X188481Y466631D01*
X188428Y466562D01*
X188372Y466495D01*
X188313Y466431D01*
X188252Y466369D01*
X188188Y466311D01*
X188121Y466255D01*
X188052Y466203D01*
X187980Y466153D01*
X187906Y466107D01*
X187831Y466064D01*
X187753Y466025D01*
X187674Y465989D01*
X187593Y465957D01*
X187511Y465928D01*
X187428Y465903D01*
X187344Y465882D01*
X187259Y465865D01*
X187173Y465851D01*
X187087Y465842D01*
X187000Y465836D01*
X186913Y465834D01*
X186826Y465836D01*
X186739Y465842D01*
X186653Y465852D01*
X186567Y465865D01*
X186482Y465883D01*
X186398Y465904D01*
X186315Y465929D01*
X186232Y465958D01*
X186152Y465990D01*
X186073Y466026D01*
X185995Y466065D01*
X185920Y466108D01*
X185846Y466155D01*
X185775Y466204D01*
X185705Y466257D01*
X185639Y466312D01*
X185575Y466371D01*
X185513Y466432D01*
X185454Y466496D01*
X185399Y466563D01*
X185346Y466632D01*
X185296Y466704D01*
X185250Y466777D01*
X185207Y466853D01*
X185168Y466930D01*
X185132Y467009D01*
X185099Y467090D01*
X185071Y467172D01*
X185045Y467255D01*
X185024Y467339D01*
X185007Y467424D01*
X185006Y467425D02*
X184982Y467565D01*
X184962Y467707D01*
X184946Y467848D01*
X184935Y467990D01*
X184927Y468133D01*
X184923Y468275D01*
X184922Y468418D01*
X184926Y468561D01*
X184934Y468703D01*
X184946Y468845D01*
X184962Y468987D01*
X184981Y469128D01*
X185005Y469269D01*
X185032Y469409D01*
X185064Y469548D01*
X185099Y469686D01*
X185138Y469824D01*
X185181Y469960D01*
X185227Y470094D01*
X185278Y470228D01*
X185331Y470360D01*
X185389Y470490D01*
X185450Y470619D01*
X185515Y470746D01*
X185583Y470872D01*
X185655Y470995D01*
X189550Y468399D02*
X190524Y470021D01*
X190523Y470022D02*
X190570Y470095D01*
X190619Y470166D01*
X190672Y470236D01*
X190728Y470302D01*
X190787Y470366D01*
X190848Y470428D01*
X190912Y470486D01*
X190979Y470542D01*
X191048Y470594D01*
X191120Y470644D01*
X191194Y470690D01*
X191269Y470733D01*
X191347Y470772D01*
X191426Y470808D01*
X191507Y470840D01*
X191589Y470869D01*
X191672Y470894D01*
X191756Y470915D01*
X191841Y470932D01*
X191927Y470946D01*
X192014Y470955D01*
X192100Y470961D01*
X192187Y470963D01*
X192274Y470961D01*
X192361Y470955D01*
X192447Y470945D01*
X192533Y470932D01*
X192618Y470914D01*
X192702Y470893D01*
X192785Y470868D01*
X192868Y470839D01*
X192948Y470807D01*
X193027Y470771D01*
X193105Y470732D01*
X193180Y470689D01*
X193254Y470642D01*
X193325Y470593D01*
X193395Y470540D01*
X193461Y470485D01*
X193525Y470426D01*
X193587Y470365D01*
X193646Y470300D01*
X193701Y470234D01*
X193754Y470165D01*
X193804Y470093D01*
X193850Y470020D01*
X193893Y469944D01*
X193932Y469867D01*
X193968Y469788D01*
X194001Y469707D01*
X194029Y469625D01*
X194055Y469542D01*
X194076Y469458D01*
X194093Y469372D01*
X194094Y469372D02*
X194118Y469232D01*
X194138Y469090D01*
X194154Y468949D01*
X194165Y468807D01*
X194173Y468664D01*
X194177Y468522D01*
X194178Y468379D01*
X194174Y468236D01*
X194166Y468094D01*
X194154Y467952D01*
X194138Y467810D01*
X194119Y467669D01*
X194095Y467528D01*
X194068Y467388D01*
X194036Y467249D01*
X194001Y467111D01*
X193962Y466973D01*
X193919Y466837D01*
X193873Y466703D01*
X193822Y466569D01*
X193769Y466437D01*
X193711Y466307D01*
X193650Y466178D01*
X193585Y466051D01*
X193517Y465925D01*
X193445Y465802D01*
X183708Y479391D02*
X183710Y479498D01*
X183716Y479604D01*
X183726Y479710D01*
X183739Y479816D01*
X183757Y479922D01*
X183778Y480026D01*
X183803Y480130D01*
X183832Y480233D01*
X183864Y480334D01*
X183901Y480434D01*
X183941Y480533D01*
X183984Y480631D01*
X184031Y480727D01*
X184082Y480821D01*
X184136Y480913D01*
X184193Y481003D01*
X184253Y481091D01*
X184317Y481176D01*
X184384Y481259D01*
X184454Y481340D01*
X184526Y481418D01*
X184602Y481494D01*
X184680Y481566D01*
X184761Y481636D01*
X184844Y481703D01*
X184929Y481767D01*
X185017Y481827D01*
X185107Y481884D01*
X185199Y481938D01*
X185293Y481989D01*
X185389Y482036D01*
X185487Y482079D01*
X185586Y482119D01*
X185686Y482156D01*
X185787Y482188D01*
X185890Y482217D01*
X185994Y482242D01*
X186098Y482263D01*
X186204Y482281D01*
X186310Y482294D01*
X186416Y482304D01*
X186522Y482310D01*
X186629Y482312D01*
X183708Y479391D02*
X183710Y479270D01*
X183716Y479149D01*
X183726Y479029D01*
X183739Y478908D01*
X183757Y478789D01*
X183778Y478669D01*
X183803Y478551D01*
X183832Y478434D01*
X183865Y478317D01*
X183901Y478202D01*
X183942Y478088D01*
X183985Y477975D01*
X184033Y477863D01*
X184084Y477754D01*
X184139Y477646D01*
X184197Y477539D01*
X184258Y477435D01*
X184323Y477333D01*
X184391Y477233D01*
X184462Y477135D01*
X184536Y477039D01*
X184613Y476946D01*
X184694Y476856D01*
X184777Y476768D01*
X184863Y476683D01*
X184952Y476600D01*
X185043Y476521D01*
X185137Y476444D01*
X185233Y476371D01*
X185331Y476301D01*
X185432Y476234D01*
X185535Y476170D01*
X185640Y476110D01*
X185747Y476052D01*
X185855Y475999D01*
X185965Y475949D01*
X186077Y475903D01*
X186190Y475860D01*
X186305Y475821D01*
X188901Y481338D02*
X188823Y481417D01*
X188743Y481493D01*
X188660Y481566D01*
X188574Y481636D01*
X188487Y481703D01*
X188396Y481767D01*
X188304Y481827D01*
X188210Y481885D01*
X188113Y481939D01*
X188015Y481989D01*
X187915Y482036D01*
X187814Y482080D01*
X187711Y482120D01*
X187606Y482156D01*
X187501Y482188D01*
X187394Y482217D01*
X187287Y482242D01*
X187178Y482264D01*
X187069Y482281D01*
X186960Y482295D01*
X186850Y482304D01*
X186739Y482310D01*
X186629Y482312D01*
X188901Y481338D02*
X195392Y475821D01*
X195392Y482312D01*
X195392Y487251D02*
X195392Y491146D01*
X195390Y491245D01*
X195384Y491345D01*
X195375Y491444D01*
X195362Y491542D01*
X195345Y491640D01*
X195324Y491738D01*
X195299Y491834D01*
X195271Y491929D01*
X195239Y492023D01*
X195204Y492116D01*
X195165Y492208D01*
X195122Y492298D01*
X195077Y492386D01*
X195027Y492473D01*
X194975Y492557D01*
X194919Y492640D01*
X194861Y492720D01*
X194799Y492798D01*
X194734Y492873D01*
X194666Y492946D01*
X194596Y493016D01*
X194523Y493084D01*
X194448Y493149D01*
X194370Y493211D01*
X194290Y493269D01*
X194207Y493325D01*
X194123Y493377D01*
X194036Y493427D01*
X193948Y493472D01*
X193858Y493515D01*
X193766Y493554D01*
X193673Y493589D01*
X193579Y493621D01*
X193484Y493649D01*
X193388Y493674D01*
X193290Y493695D01*
X193192Y493712D01*
X193094Y493725D01*
X192995Y493734D01*
X192895Y493740D01*
X192796Y493742D01*
X191497Y493742D01*
X191398Y493740D01*
X191298Y493734D01*
X191199Y493725D01*
X191101Y493712D01*
X191003Y493695D01*
X190905Y493674D01*
X190809Y493649D01*
X190714Y493621D01*
X190620Y493589D01*
X190527Y493554D01*
X190435Y493515D01*
X190345Y493472D01*
X190257Y493427D01*
X190170Y493377D01*
X190086Y493325D01*
X190003Y493269D01*
X189923Y493211D01*
X189845Y493149D01*
X189770Y493084D01*
X189697Y493016D01*
X189627Y492946D01*
X189559Y492873D01*
X189494Y492798D01*
X189432Y492720D01*
X189374Y492640D01*
X189318Y492557D01*
X189266Y492473D01*
X189216Y492386D01*
X189171Y492298D01*
X189128Y492208D01*
X189089Y492116D01*
X189054Y492023D01*
X189022Y491929D01*
X188994Y491834D01*
X188969Y491738D01*
X188948Y491640D01*
X188931Y491542D01*
X188918Y491444D01*
X188909Y491345D01*
X188903Y491245D01*
X188901Y491146D01*
X188901Y487251D01*
X183708Y487251D01*
X183708Y493742D01*
X297208Y455604D02*
X305646Y455604D01*
X305759Y455606D01*
X305872Y455612D01*
X305985Y455622D01*
X306098Y455636D01*
X306210Y455653D01*
X306321Y455675D01*
X306431Y455700D01*
X306541Y455730D01*
X306649Y455763D01*
X306756Y455800D01*
X306862Y455840D01*
X306966Y455885D01*
X307069Y455933D01*
X307170Y455984D01*
X307269Y456039D01*
X307366Y456097D01*
X307461Y456159D01*
X307554Y456224D01*
X307644Y456292D01*
X307732Y456363D01*
X307818Y456438D01*
X307901Y456515D01*
X307981Y456595D01*
X308058Y456678D01*
X308133Y456764D01*
X308204Y456852D01*
X308272Y456942D01*
X308337Y457035D01*
X308399Y457130D01*
X308457Y457227D01*
X308512Y457326D01*
X308563Y457427D01*
X308611Y457530D01*
X308656Y457634D01*
X308696Y457740D01*
X308733Y457847D01*
X308766Y457955D01*
X308796Y458065D01*
X308821Y458175D01*
X308843Y458286D01*
X308860Y458398D01*
X308874Y458511D01*
X308884Y458624D01*
X308890Y458737D01*
X308892Y458850D01*
X308890Y458963D01*
X308884Y459076D01*
X308874Y459189D01*
X308860Y459302D01*
X308843Y459414D01*
X308821Y459525D01*
X308796Y459635D01*
X308766Y459745D01*
X308733Y459853D01*
X308696Y459960D01*
X308656Y460066D01*
X308611Y460170D01*
X308563Y460273D01*
X308512Y460374D01*
X308457Y460473D01*
X308399Y460570D01*
X308337Y460665D01*
X308272Y460758D01*
X308204Y460848D01*
X308133Y460936D01*
X308058Y461022D01*
X307981Y461105D01*
X307901Y461185D01*
X307818Y461262D01*
X307732Y461337D01*
X307644Y461408D01*
X307554Y461476D01*
X307461Y461541D01*
X307366Y461603D01*
X307269Y461661D01*
X307170Y461716D01*
X307069Y461767D01*
X306966Y461815D01*
X306862Y461860D01*
X306756Y461900D01*
X306649Y461937D01*
X306541Y461970D01*
X306431Y462000D01*
X306321Y462025D01*
X306210Y462047D01*
X306098Y462064D01*
X305985Y462078D01*
X305872Y462088D01*
X305759Y462094D01*
X305646Y462096D01*
X305646Y462095D02*
X297208Y462095D01*
X297208Y469899D02*
X308892Y469899D01*
X303050Y469899D02*
X302076Y468276D01*
X302077Y468275D02*
X302030Y468202D01*
X301981Y468131D01*
X301928Y468062D01*
X301872Y467995D01*
X301813Y467931D01*
X301752Y467869D01*
X301688Y467811D01*
X301621Y467755D01*
X301552Y467703D01*
X301480Y467653D01*
X301406Y467607D01*
X301331Y467564D01*
X301253Y467525D01*
X301174Y467489D01*
X301093Y467457D01*
X301011Y467428D01*
X300928Y467403D01*
X300844Y467382D01*
X300759Y467365D01*
X300673Y467351D01*
X300587Y467342D01*
X300500Y467336D01*
X300413Y467334D01*
X300326Y467336D01*
X300239Y467342D01*
X300153Y467352D01*
X300067Y467365D01*
X299982Y467383D01*
X299898Y467404D01*
X299815Y467429D01*
X299732Y467458D01*
X299652Y467490D01*
X299573Y467526D01*
X299495Y467565D01*
X299420Y467608D01*
X299346Y467655D01*
X299275Y467704D01*
X299205Y467757D01*
X299139Y467812D01*
X299075Y467871D01*
X299013Y467932D01*
X298954Y467996D01*
X298899Y468063D01*
X298846Y468132D01*
X298796Y468204D01*
X298750Y468277D01*
X298707Y468353D01*
X298668Y468430D01*
X298632Y468509D01*
X298599Y468590D01*
X298571Y468672D01*
X298545Y468755D01*
X298524Y468839D01*
X298507Y468924D01*
X298506Y468925D02*
X298482Y469065D01*
X298462Y469207D01*
X298446Y469348D01*
X298435Y469490D01*
X298427Y469633D01*
X298423Y469775D01*
X298422Y469918D01*
X298426Y470061D01*
X298434Y470203D01*
X298446Y470345D01*
X298462Y470487D01*
X298481Y470628D01*
X298505Y470769D01*
X298532Y470909D01*
X298564Y471048D01*
X298599Y471186D01*
X298638Y471324D01*
X298681Y471460D01*
X298727Y471594D01*
X298778Y471728D01*
X298831Y471860D01*
X298889Y471990D01*
X298950Y472119D01*
X299015Y472246D01*
X299083Y472372D01*
X299155Y472495D01*
X303050Y469899D02*
X304024Y471521D01*
X304023Y471522D02*
X304070Y471595D01*
X304119Y471666D01*
X304172Y471736D01*
X304228Y471802D01*
X304287Y471866D01*
X304348Y471928D01*
X304412Y471986D01*
X304479Y472042D01*
X304548Y472094D01*
X304620Y472144D01*
X304694Y472190D01*
X304769Y472233D01*
X304847Y472272D01*
X304926Y472308D01*
X305007Y472340D01*
X305089Y472369D01*
X305172Y472394D01*
X305256Y472415D01*
X305341Y472432D01*
X305427Y472446D01*
X305514Y472455D01*
X305600Y472461D01*
X305687Y472463D01*
X305774Y472461D01*
X305861Y472455D01*
X305947Y472445D01*
X306033Y472432D01*
X306118Y472414D01*
X306202Y472393D01*
X306285Y472368D01*
X306368Y472339D01*
X306448Y472307D01*
X306527Y472271D01*
X306605Y472232D01*
X306680Y472189D01*
X306754Y472142D01*
X306825Y472093D01*
X306895Y472040D01*
X306961Y471985D01*
X307025Y471926D01*
X307087Y471865D01*
X307146Y471800D01*
X307201Y471734D01*
X307254Y471665D01*
X307304Y471593D01*
X307350Y471520D01*
X307393Y471444D01*
X307432Y471367D01*
X307468Y471288D01*
X307501Y471207D01*
X307529Y471125D01*
X307555Y471042D01*
X307576Y470958D01*
X307593Y470872D01*
X307594Y470872D02*
X307618Y470732D01*
X307638Y470590D01*
X307654Y470449D01*
X307665Y470307D01*
X307673Y470164D01*
X307677Y470022D01*
X307678Y469879D01*
X307674Y469736D01*
X307666Y469594D01*
X307654Y469452D01*
X307638Y469310D01*
X307619Y469169D01*
X307595Y469028D01*
X307568Y468888D01*
X307536Y468749D01*
X307501Y468611D01*
X307462Y468473D01*
X307419Y468337D01*
X307373Y468203D01*
X307322Y468069D01*
X307269Y467937D01*
X307211Y467807D01*
X307150Y467678D01*
X307085Y467551D01*
X307017Y467425D01*
X306945Y467302D01*
X297208Y480891D02*
X297210Y480998D01*
X297216Y481104D01*
X297226Y481210D01*
X297239Y481316D01*
X297257Y481422D01*
X297278Y481526D01*
X297303Y481630D01*
X297332Y481733D01*
X297364Y481834D01*
X297401Y481934D01*
X297441Y482033D01*
X297484Y482131D01*
X297531Y482227D01*
X297582Y482321D01*
X297636Y482413D01*
X297693Y482503D01*
X297753Y482591D01*
X297817Y482676D01*
X297884Y482759D01*
X297954Y482840D01*
X298026Y482918D01*
X298102Y482994D01*
X298180Y483066D01*
X298261Y483136D01*
X298344Y483203D01*
X298429Y483267D01*
X298517Y483327D01*
X298607Y483384D01*
X298699Y483438D01*
X298793Y483489D01*
X298889Y483536D01*
X298987Y483579D01*
X299086Y483619D01*
X299186Y483656D01*
X299287Y483688D01*
X299390Y483717D01*
X299494Y483742D01*
X299598Y483763D01*
X299704Y483781D01*
X299810Y483794D01*
X299916Y483804D01*
X300022Y483810D01*
X300129Y483812D01*
X297208Y480891D02*
X297210Y480770D01*
X297216Y480649D01*
X297226Y480529D01*
X297239Y480408D01*
X297257Y480289D01*
X297278Y480169D01*
X297303Y480051D01*
X297332Y479934D01*
X297365Y479817D01*
X297401Y479702D01*
X297442Y479588D01*
X297485Y479475D01*
X297533Y479363D01*
X297584Y479254D01*
X297639Y479146D01*
X297697Y479039D01*
X297758Y478935D01*
X297823Y478833D01*
X297891Y478733D01*
X297962Y478635D01*
X298036Y478539D01*
X298113Y478446D01*
X298194Y478356D01*
X298277Y478268D01*
X298363Y478183D01*
X298452Y478100D01*
X298543Y478021D01*
X298637Y477944D01*
X298733Y477871D01*
X298831Y477801D01*
X298932Y477734D01*
X299035Y477670D01*
X299140Y477610D01*
X299247Y477552D01*
X299355Y477499D01*
X299465Y477449D01*
X299577Y477403D01*
X299690Y477360D01*
X299805Y477321D01*
X302401Y482838D02*
X302323Y482917D01*
X302243Y482993D01*
X302160Y483066D01*
X302074Y483136D01*
X301987Y483203D01*
X301896Y483267D01*
X301804Y483327D01*
X301710Y483385D01*
X301613Y483439D01*
X301515Y483489D01*
X301415Y483536D01*
X301314Y483580D01*
X301211Y483620D01*
X301106Y483656D01*
X301001Y483688D01*
X300894Y483717D01*
X300787Y483742D01*
X300678Y483764D01*
X300569Y483781D01*
X300460Y483795D01*
X300350Y483804D01*
X300239Y483810D01*
X300129Y483812D01*
X302401Y482838D02*
X308892Y477321D01*
X308892Y483812D01*
X302401Y488751D02*
X302401Y492646D01*
X302403Y492745D01*
X302409Y492845D01*
X302418Y492944D01*
X302431Y493042D01*
X302448Y493140D01*
X302469Y493238D01*
X302494Y493334D01*
X302522Y493429D01*
X302554Y493523D01*
X302589Y493616D01*
X302628Y493708D01*
X302671Y493798D01*
X302716Y493886D01*
X302766Y493973D01*
X302818Y494057D01*
X302874Y494140D01*
X302932Y494220D01*
X302994Y494298D01*
X303059Y494373D01*
X303127Y494446D01*
X303197Y494516D01*
X303270Y494584D01*
X303345Y494649D01*
X303423Y494711D01*
X303503Y494769D01*
X303586Y494825D01*
X303670Y494877D01*
X303757Y494927D01*
X303845Y494972D01*
X303935Y495015D01*
X304027Y495054D01*
X304120Y495089D01*
X304214Y495121D01*
X304309Y495149D01*
X304405Y495174D01*
X304503Y495195D01*
X304601Y495212D01*
X304699Y495225D01*
X304798Y495234D01*
X304898Y495240D01*
X304997Y495242D01*
X305646Y495242D01*
X305759Y495240D01*
X305872Y495234D01*
X305985Y495224D01*
X306098Y495210D01*
X306210Y495193D01*
X306321Y495171D01*
X306431Y495146D01*
X306541Y495116D01*
X306649Y495083D01*
X306756Y495046D01*
X306862Y495006D01*
X306966Y494961D01*
X307069Y494913D01*
X307170Y494862D01*
X307269Y494807D01*
X307366Y494749D01*
X307461Y494687D01*
X307554Y494622D01*
X307644Y494554D01*
X307732Y494483D01*
X307818Y494408D01*
X307901Y494331D01*
X307981Y494251D01*
X308058Y494168D01*
X308133Y494082D01*
X308204Y493994D01*
X308272Y493904D01*
X308337Y493811D01*
X308399Y493716D01*
X308457Y493619D01*
X308512Y493520D01*
X308563Y493419D01*
X308611Y493316D01*
X308656Y493212D01*
X308696Y493106D01*
X308733Y492999D01*
X308766Y492891D01*
X308796Y492781D01*
X308821Y492671D01*
X308843Y492560D01*
X308860Y492448D01*
X308874Y492335D01*
X308884Y492222D01*
X308890Y492109D01*
X308892Y491996D01*
X308890Y491883D01*
X308884Y491770D01*
X308874Y491657D01*
X308860Y491544D01*
X308843Y491432D01*
X308821Y491321D01*
X308796Y491211D01*
X308766Y491101D01*
X308733Y490993D01*
X308696Y490886D01*
X308656Y490780D01*
X308611Y490676D01*
X308563Y490573D01*
X308512Y490472D01*
X308457Y490373D01*
X308399Y490276D01*
X308337Y490181D01*
X308272Y490088D01*
X308204Y489998D01*
X308133Y489910D01*
X308058Y489824D01*
X307981Y489741D01*
X307901Y489661D01*
X307818Y489584D01*
X307732Y489509D01*
X307644Y489438D01*
X307554Y489370D01*
X307461Y489305D01*
X307366Y489243D01*
X307269Y489185D01*
X307170Y489130D01*
X307069Y489079D01*
X306966Y489031D01*
X306862Y488986D01*
X306756Y488946D01*
X306649Y488909D01*
X306541Y488876D01*
X306431Y488846D01*
X306321Y488821D01*
X306210Y488799D01*
X306098Y488782D01*
X305985Y488768D01*
X305872Y488758D01*
X305759Y488752D01*
X305646Y488750D01*
X305646Y488751D02*
X302401Y488751D01*
X302258Y488753D01*
X302115Y488759D01*
X301972Y488769D01*
X301830Y488783D01*
X301688Y488800D01*
X301546Y488822D01*
X301405Y488847D01*
X301265Y488877D01*
X301126Y488910D01*
X300988Y488947D01*
X300851Y488988D01*
X300715Y489032D01*
X300580Y489081D01*
X300447Y489133D01*
X300315Y489188D01*
X300185Y489248D01*
X300056Y489311D01*
X299929Y489377D01*
X299805Y489447D01*
X299682Y489520D01*
X299561Y489597D01*
X299442Y489676D01*
X299326Y489760D01*
X299211Y489846D01*
X299100Y489935D01*
X298991Y490028D01*
X298884Y490123D01*
X298780Y490222D01*
X298679Y490323D01*
X298580Y490427D01*
X298485Y490533D01*
X298392Y490643D01*
X298303Y490754D01*
X298217Y490868D01*
X298134Y490985D01*
X298054Y491104D01*
X297977Y491225D01*
X297904Y491347D01*
X297834Y491472D01*
X297768Y491599D01*
X297705Y491728D01*
X297645Y491858D01*
X297590Y491990D01*
X297538Y492123D01*
X297489Y492258D01*
X297445Y492394D01*
X297404Y492531D01*
X297367Y492669D01*
X297334Y492808D01*
X297304Y492948D01*
X297279Y493089D01*
X297257Y493231D01*
X297240Y493373D01*
X297226Y493515D01*
X297216Y493658D01*
X297210Y493801D01*
X297208Y493944D01*
X561408Y330492D02*
X561408Y322054D01*
X561410Y321941D01*
X561416Y321828D01*
X561426Y321715D01*
X561440Y321602D01*
X561457Y321490D01*
X561479Y321379D01*
X561504Y321269D01*
X561534Y321159D01*
X561567Y321051D01*
X561604Y320944D01*
X561644Y320838D01*
X561689Y320734D01*
X561737Y320631D01*
X561788Y320530D01*
X561843Y320431D01*
X561901Y320334D01*
X561963Y320239D01*
X562028Y320146D01*
X562096Y320056D01*
X562167Y319968D01*
X562242Y319882D01*
X562319Y319799D01*
X562399Y319719D01*
X562482Y319642D01*
X562568Y319567D01*
X562656Y319496D01*
X562746Y319428D01*
X562839Y319363D01*
X562934Y319301D01*
X563031Y319243D01*
X563130Y319188D01*
X563231Y319137D01*
X563334Y319089D01*
X563438Y319044D01*
X563544Y319004D01*
X563651Y318967D01*
X563759Y318934D01*
X563869Y318904D01*
X563979Y318879D01*
X564090Y318857D01*
X564202Y318840D01*
X564315Y318826D01*
X564428Y318816D01*
X564541Y318810D01*
X564654Y318808D01*
X564767Y318810D01*
X564880Y318816D01*
X564993Y318826D01*
X565106Y318840D01*
X565218Y318857D01*
X565329Y318879D01*
X565439Y318904D01*
X565549Y318934D01*
X565657Y318967D01*
X565764Y319004D01*
X565870Y319044D01*
X565974Y319089D01*
X566077Y319137D01*
X566178Y319188D01*
X566277Y319243D01*
X566374Y319301D01*
X566469Y319363D01*
X566562Y319428D01*
X566652Y319496D01*
X566740Y319567D01*
X566826Y319642D01*
X566909Y319719D01*
X566989Y319799D01*
X567066Y319882D01*
X567141Y319968D01*
X567212Y320056D01*
X567280Y320146D01*
X567345Y320239D01*
X567407Y320334D01*
X567465Y320431D01*
X567520Y320530D01*
X567571Y320631D01*
X567619Y320734D01*
X567664Y320838D01*
X567704Y320944D01*
X567741Y321051D01*
X567774Y321159D01*
X567804Y321269D01*
X567829Y321379D01*
X567851Y321490D01*
X567868Y321602D01*
X567882Y321715D01*
X567892Y321828D01*
X567898Y321941D01*
X567900Y322054D01*
X567899Y322054D02*
X567899Y330492D01*
X575703Y330492D02*
X575703Y318808D01*
X575703Y324650D02*
X574080Y325624D01*
X574079Y325623D02*
X574006Y325670D01*
X573935Y325719D01*
X573865Y325772D01*
X573799Y325828D01*
X573735Y325887D01*
X573673Y325948D01*
X573615Y326012D01*
X573559Y326079D01*
X573507Y326148D01*
X573457Y326220D01*
X573411Y326294D01*
X573368Y326369D01*
X573329Y326447D01*
X573293Y326526D01*
X573261Y326607D01*
X573232Y326689D01*
X573207Y326772D01*
X573186Y326856D01*
X573169Y326941D01*
X573155Y327027D01*
X573146Y327113D01*
X573140Y327200D01*
X573138Y327287D01*
X573140Y327374D01*
X573146Y327461D01*
X573156Y327547D01*
X573169Y327633D01*
X573187Y327718D01*
X573208Y327802D01*
X573233Y327885D01*
X573262Y327968D01*
X573294Y328048D01*
X573330Y328127D01*
X573369Y328205D01*
X573412Y328280D01*
X573459Y328354D01*
X573508Y328425D01*
X573561Y328495D01*
X573616Y328561D01*
X573675Y328625D01*
X573736Y328687D01*
X573801Y328746D01*
X573867Y328801D01*
X573936Y328854D01*
X574008Y328904D01*
X574081Y328950D01*
X574157Y328993D01*
X574234Y329032D01*
X574313Y329068D01*
X574394Y329101D01*
X574476Y329129D01*
X574559Y329155D01*
X574643Y329176D01*
X574729Y329193D01*
X574729Y329194D02*
X574869Y329218D01*
X575011Y329238D01*
X575152Y329254D01*
X575294Y329265D01*
X575437Y329273D01*
X575579Y329277D01*
X575722Y329278D01*
X575865Y329274D01*
X576007Y329266D01*
X576149Y329254D01*
X576291Y329238D01*
X576432Y329219D01*
X576573Y329195D01*
X576713Y329168D01*
X576852Y329136D01*
X576990Y329101D01*
X577128Y329062D01*
X577264Y329019D01*
X577398Y328973D01*
X577532Y328922D01*
X577664Y328869D01*
X577794Y328811D01*
X577923Y328750D01*
X578050Y328685D01*
X578176Y328617D01*
X578299Y328545D01*
X575703Y324650D02*
X577325Y323676D01*
X577326Y323677D02*
X577399Y323630D01*
X577470Y323581D01*
X577540Y323528D01*
X577606Y323472D01*
X577670Y323413D01*
X577732Y323352D01*
X577790Y323288D01*
X577846Y323221D01*
X577898Y323152D01*
X577948Y323080D01*
X577994Y323006D01*
X578037Y322931D01*
X578076Y322853D01*
X578112Y322774D01*
X578144Y322693D01*
X578173Y322611D01*
X578198Y322528D01*
X578219Y322444D01*
X578236Y322359D01*
X578250Y322273D01*
X578259Y322187D01*
X578265Y322100D01*
X578267Y322013D01*
X578265Y321926D01*
X578259Y321839D01*
X578249Y321753D01*
X578236Y321667D01*
X578218Y321582D01*
X578197Y321498D01*
X578172Y321415D01*
X578143Y321332D01*
X578111Y321252D01*
X578075Y321173D01*
X578036Y321095D01*
X577993Y321020D01*
X577946Y320946D01*
X577897Y320875D01*
X577844Y320805D01*
X577789Y320739D01*
X577730Y320675D01*
X577669Y320613D01*
X577604Y320554D01*
X577538Y320499D01*
X577469Y320446D01*
X577397Y320396D01*
X577324Y320350D01*
X577248Y320307D01*
X577171Y320268D01*
X577092Y320232D01*
X577011Y320199D01*
X576929Y320171D01*
X576846Y320145D01*
X576762Y320124D01*
X576677Y320107D01*
X576676Y320106D02*
X576536Y320082D01*
X576394Y320062D01*
X576253Y320046D01*
X576111Y320035D01*
X575968Y320027D01*
X575826Y320023D01*
X575683Y320022D01*
X575540Y320026D01*
X575398Y320034D01*
X575256Y320046D01*
X575114Y320062D01*
X574973Y320081D01*
X574832Y320105D01*
X574692Y320132D01*
X574553Y320164D01*
X574415Y320199D01*
X574277Y320238D01*
X574141Y320281D01*
X574007Y320327D01*
X573873Y320378D01*
X573741Y320431D01*
X573611Y320489D01*
X573482Y320550D01*
X573355Y320615D01*
X573229Y320683D01*
X573106Y320755D01*
X583125Y318808D02*
X586371Y318808D01*
X586484Y318810D01*
X586597Y318816D01*
X586710Y318826D01*
X586823Y318840D01*
X586935Y318857D01*
X587046Y318879D01*
X587156Y318904D01*
X587266Y318934D01*
X587374Y318967D01*
X587481Y319004D01*
X587587Y319044D01*
X587691Y319089D01*
X587794Y319137D01*
X587895Y319188D01*
X587994Y319243D01*
X588091Y319301D01*
X588186Y319363D01*
X588279Y319428D01*
X588369Y319496D01*
X588457Y319567D01*
X588543Y319642D01*
X588626Y319719D01*
X588706Y319799D01*
X588783Y319882D01*
X588858Y319968D01*
X588929Y320056D01*
X588997Y320146D01*
X589062Y320239D01*
X589124Y320334D01*
X589182Y320431D01*
X589237Y320530D01*
X589288Y320631D01*
X589336Y320734D01*
X589381Y320838D01*
X589421Y320944D01*
X589458Y321051D01*
X589491Y321159D01*
X589521Y321269D01*
X589546Y321379D01*
X589568Y321490D01*
X589585Y321602D01*
X589599Y321715D01*
X589609Y321828D01*
X589615Y321941D01*
X589617Y322054D01*
X589615Y322167D01*
X589609Y322280D01*
X589599Y322393D01*
X589585Y322506D01*
X589568Y322618D01*
X589546Y322729D01*
X589521Y322839D01*
X589491Y322949D01*
X589458Y323057D01*
X589421Y323164D01*
X589381Y323270D01*
X589336Y323374D01*
X589288Y323477D01*
X589237Y323578D01*
X589182Y323677D01*
X589124Y323774D01*
X589062Y323869D01*
X588997Y323962D01*
X588929Y324052D01*
X588858Y324140D01*
X588783Y324226D01*
X588706Y324309D01*
X588626Y324389D01*
X588543Y324466D01*
X588457Y324541D01*
X588369Y324612D01*
X588279Y324680D01*
X588186Y324745D01*
X588091Y324807D01*
X587994Y324865D01*
X587895Y324920D01*
X587794Y324971D01*
X587691Y325019D01*
X587587Y325064D01*
X587481Y325104D01*
X587374Y325141D01*
X587266Y325174D01*
X587156Y325204D01*
X587046Y325229D01*
X586935Y325251D01*
X586823Y325268D01*
X586710Y325282D01*
X586597Y325292D01*
X586484Y325298D01*
X586371Y325300D01*
X587020Y330492D02*
X583125Y330492D01*
X587020Y330492D02*
X587121Y330490D01*
X587221Y330484D01*
X587321Y330474D01*
X587421Y330461D01*
X587520Y330443D01*
X587619Y330422D01*
X587716Y330397D01*
X587813Y330368D01*
X587908Y330335D01*
X588002Y330299D01*
X588094Y330259D01*
X588185Y330216D01*
X588274Y330169D01*
X588361Y330119D01*
X588447Y330065D01*
X588530Y330008D01*
X588610Y329948D01*
X588689Y329885D01*
X588765Y329818D01*
X588838Y329749D01*
X588908Y329677D01*
X588976Y329603D01*
X589041Y329526D01*
X589102Y329446D01*
X589161Y329364D01*
X589216Y329280D01*
X589268Y329194D01*
X589317Y329106D01*
X589362Y329016D01*
X589404Y328924D01*
X589442Y328831D01*
X589476Y328736D01*
X589507Y328641D01*
X589534Y328544D01*
X589557Y328446D01*
X589577Y328347D01*
X589592Y328247D01*
X589604Y328147D01*
X589612Y328047D01*
X589616Y327946D01*
X589616Y327846D01*
X589612Y327745D01*
X589604Y327645D01*
X589592Y327545D01*
X589577Y327445D01*
X589557Y327346D01*
X589534Y327248D01*
X589507Y327151D01*
X589476Y327056D01*
X589442Y326961D01*
X589404Y326868D01*
X589362Y326776D01*
X589317Y326686D01*
X589268Y326598D01*
X589216Y326512D01*
X589161Y326428D01*
X589102Y326346D01*
X589041Y326266D01*
X588976Y326189D01*
X588908Y326115D01*
X588838Y326043D01*
X588765Y325974D01*
X588689Y325907D01*
X588610Y325844D01*
X588530Y325784D01*
X588447Y325727D01*
X588361Y325673D01*
X588274Y325623D01*
X588185Y325576D01*
X588094Y325533D01*
X588002Y325493D01*
X587908Y325457D01*
X587813Y325424D01*
X587716Y325395D01*
X587619Y325370D01*
X587520Y325349D01*
X587421Y325331D01*
X587321Y325318D01*
X587221Y325308D01*
X587121Y325302D01*
X587020Y325300D01*
X587020Y325299D02*
X584423Y325299D01*
X594555Y324650D02*
X594558Y324880D01*
X594566Y325110D01*
X594580Y325339D01*
X594599Y325568D01*
X594624Y325797D01*
X594654Y326024D01*
X594689Y326252D01*
X594730Y326478D01*
X594776Y326703D01*
X594828Y326927D01*
X594885Y327149D01*
X594947Y327371D01*
X595015Y327590D01*
X595088Y327808D01*
X595166Y328025D01*
X595249Y328239D01*
X595337Y328451D01*
X595430Y328661D01*
X595529Y328869D01*
X595528Y328869D02*
X595561Y328959D01*
X595597Y329048D01*
X595637Y329136D01*
X595681Y329221D01*
X595728Y329305D01*
X595778Y329387D01*
X595832Y329467D01*
X595888Y329544D01*
X595948Y329620D01*
X596011Y329693D01*
X596076Y329763D01*
X596145Y329831D01*
X596216Y329895D01*
X596289Y329957D01*
X596365Y330016D01*
X596443Y330072D01*
X596524Y330125D01*
X596606Y330174D01*
X596690Y330220D01*
X596777Y330263D01*
X596864Y330302D01*
X596954Y330338D01*
X597044Y330370D01*
X597136Y330398D01*
X597229Y330423D01*
X597323Y330444D01*
X597417Y330461D01*
X597512Y330475D01*
X597608Y330484D01*
X597704Y330490D01*
X597800Y330492D01*
X597896Y330490D01*
X597992Y330484D01*
X598088Y330475D01*
X598183Y330461D01*
X598277Y330444D01*
X598371Y330423D01*
X598464Y330398D01*
X598556Y330370D01*
X598646Y330338D01*
X598736Y330302D01*
X598823Y330263D01*
X598910Y330220D01*
X598994Y330174D01*
X599076Y330125D01*
X599157Y330072D01*
X599235Y330016D01*
X599311Y329957D01*
X599384Y329895D01*
X599455Y329831D01*
X599524Y329763D01*
X599589Y329693D01*
X599652Y329620D01*
X599712Y329544D01*
X599768Y329467D01*
X599822Y329387D01*
X599872Y329305D01*
X599919Y329221D01*
X599963Y329136D01*
X600003Y329048D01*
X600039Y328959D01*
X600072Y328869D01*
X600073Y328869D02*
X600172Y328662D01*
X600265Y328452D01*
X600353Y328239D01*
X600436Y328025D01*
X600514Y327809D01*
X600587Y327591D01*
X600655Y327371D01*
X600717Y327150D01*
X600774Y326927D01*
X600826Y326703D01*
X600872Y326478D01*
X600913Y326252D01*
X600948Y326025D01*
X600978Y325797D01*
X601003Y325568D01*
X601022Y325339D01*
X601036Y325110D01*
X601044Y324880D01*
X601047Y324650D01*
X594555Y324650D02*
X594558Y324420D01*
X594566Y324190D01*
X594580Y323961D01*
X594599Y323732D01*
X594624Y323503D01*
X594654Y323275D01*
X594689Y323048D01*
X594730Y322822D01*
X594776Y322597D01*
X594828Y322373D01*
X594885Y322150D01*
X594947Y321929D01*
X595015Y321709D01*
X595088Y321491D01*
X595166Y321275D01*
X595249Y321061D01*
X595337Y320849D01*
X595430Y320638D01*
X595529Y320431D01*
X595528Y320431D02*
X595561Y320341D01*
X595597Y320252D01*
X595638Y320164D01*
X595681Y320079D01*
X595728Y319995D01*
X595778Y319913D01*
X595832Y319833D01*
X595888Y319756D01*
X595948Y319680D01*
X596011Y319607D01*
X596076Y319537D01*
X596145Y319469D01*
X596216Y319405D01*
X596289Y319343D01*
X596365Y319284D01*
X596443Y319228D01*
X596524Y319175D01*
X596606Y319126D01*
X596690Y319080D01*
X596777Y319037D01*
X596864Y318998D01*
X596954Y318962D01*
X597044Y318930D01*
X597136Y318902D01*
X597229Y318877D01*
X597323Y318856D01*
X597417Y318839D01*
X597512Y318825D01*
X597608Y318816D01*
X597704Y318810D01*
X597800Y318808D01*
X600072Y320431D02*
X600171Y320638D01*
X600264Y320849D01*
X600352Y321061D01*
X600435Y321275D01*
X600513Y321491D01*
X600586Y321709D01*
X600654Y321929D01*
X600716Y322150D01*
X600773Y322373D01*
X600825Y322597D01*
X600871Y322822D01*
X600912Y323048D01*
X600947Y323275D01*
X600977Y323503D01*
X601002Y323732D01*
X601021Y323961D01*
X601035Y324190D01*
X601043Y324420D01*
X601046Y324650D01*
X600072Y320431D02*
X600039Y320341D01*
X600003Y320252D01*
X599963Y320164D01*
X599919Y320079D01*
X599872Y319995D01*
X599822Y319913D01*
X599768Y319833D01*
X599712Y319756D01*
X599652Y319680D01*
X599589Y319607D01*
X599524Y319537D01*
X599455Y319469D01*
X599384Y319405D01*
X599311Y319343D01*
X599235Y319284D01*
X599157Y319228D01*
X599076Y319175D01*
X598994Y319126D01*
X598910Y319080D01*
X598823Y319037D01*
X598736Y318998D01*
X598646Y318962D01*
X598556Y318930D01*
X598464Y318902D01*
X598371Y318877D01*
X598277Y318856D01*
X598183Y318839D01*
X598088Y318825D01*
X597992Y318816D01*
X597896Y318810D01*
X597800Y318808D01*
X595204Y321404D02*
X600397Y327896D01*
X561408Y347854D02*
X561408Y356292D01*
X561408Y347854D02*
X561410Y347741D01*
X561416Y347628D01*
X561426Y347515D01*
X561440Y347402D01*
X561457Y347290D01*
X561479Y347179D01*
X561504Y347069D01*
X561534Y346959D01*
X561567Y346851D01*
X561604Y346744D01*
X561644Y346638D01*
X561689Y346534D01*
X561737Y346431D01*
X561788Y346330D01*
X561843Y346231D01*
X561901Y346134D01*
X561963Y346039D01*
X562028Y345946D01*
X562096Y345856D01*
X562167Y345768D01*
X562242Y345682D01*
X562319Y345599D01*
X562399Y345519D01*
X562482Y345442D01*
X562568Y345367D01*
X562656Y345296D01*
X562746Y345228D01*
X562839Y345163D01*
X562934Y345101D01*
X563031Y345043D01*
X563130Y344988D01*
X563231Y344937D01*
X563334Y344889D01*
X563438Y344844D01*
X563544Y344804D01*
X563651Y344767D01*
X563759Y344734D01*
X563869Y344704D01*
X563979Y344679D01*
X564090Y344657D01*
X564202Y344640D01*
X564315Y344626D01*
X564428Y344616D01*
X564541Y344610D01*
X564654Y344608D01*
X564767Y344610D01*
X564880Y344616D01*
X564993Y344626D01*
X565106Y344640D01*
X565218Y344657D01*
X565329Y344679D01*
X565439Y344704D01*
X565549Y344734D01*
X565657Y344767D01*
X565764Y344804D01*
X565870Y344844D01*
X565974Y344889D01*
X566077Y344937D01*
X566178Y344988D01*
X566277Y345043D01*
X566374Y345101D01*
X566469Y345163D01*
X566562Y345228D01*
X566652Y345296D01*
X566740Y345367D01*
X566826Y345442D01*
X566909Y345519D01*
X566989Y345599D01*
X567066Y345682D01*
X567141Y345768D01*
X567212Y345856D01*
X567280Y345946D01*
X567345Y346039D01*
X567407Y346134D01*
X567465Y346231D01*
X567520Y346330D01*
X567571Y346431D01*
X567619Y346534D01*
X567664Y346638D01*
X567704Y346744D01*
X567741Y346851D01*
X567774Y346959D01*
X567804Y347069D01*
X567829Y347179D01*
X567851Y347290D01*
X567868Y347402D01*
X567882Y347515D01*
X567892Y347628D01*
X567898Y347741D01*
X567900Y347854D01*
X567899Y347854D02*
X567899Y356292D01*
X575703Y356292D02*
X575703Y344608D01*
X575703Y350450D02*
X574080Y351424D01*
X574079Y351423D02*
X574006Y351470D01*
X573935Y351519D01*
X573865Y351572D01*
X573799Y351628D01*
X573735Y351687D01*
X573673Y351748D01*
X573615Y351812D01*
X573559Y351879D01*
X573507Y351948D01*
X573457Y352020D01*
X573411Y352094D01*
X573368Y352169D01*
X573329Y352247D01*
X573293Y352326D01*
X573261Y352407D01*
X573232Y352489D01*
X573207Y352572D01*
X573186Y352656D01*
X573169Y352741D01*
X573155Y352827D01*
X573146Y352913D01*
X573140Y353000D01*
X573138Y353087D01*
X573140Y353174D01*
X573146Y353261D01*
X573156Y353347D01*
X573169Y353433D01*
X573187Y353518D01*
X573208Y353602D01*
X573233Y353685D01*
X573262Y353768D01*
X573294Y353848D01*
X573330Y353927D01*
X573369Y354005D01*
X573412Y354080D01*
X573459Y354154D01*
X573508Y354225D01*
X573561Y354295D01*
X573616Y354361D01*
X573675Y354425D01*
X573736Y354487D01*
X573801Y354546D01*
X573867Y354601D01*
X573936Y354654D01*
X574008Y354704D01*
X574081Y354750D01*
X574157Y354793D01*
X574234Y354832D01*
X574313Y354868D01*
X574394Y354901D01*
X574476Y354929D01*
X574559Y354955D01*
X574643Y354976D01*
X574729Y354993D01*
X574729Y354994D02*
X574869Y355018D01*
X575011Y355038D01*
X575152Y355054D01*
X575294Y355065D01*
X575437Y355073D01*
X575579Y355077D01*
X575722Y355078D01*
X575865Y355074D01*
X576007Y355066D01*
X576149Y355054D01*
X576291Y355038D01*
X576432Y355019D01*
X576573Y354995D01*
X576713Y354968D01*
X576852Y354936D01*
X576990Y354901D01*
X577128Y354862D01*
X577264Y354819D01*
X577398Y354773D01*
X577532Y354722D01*
X577664Y354669D01*
X577794Y354611D01*
X577923Y354550D01*
X578050Y354485D01*
X578176Y354417D01*
X578299Y354345D01*
X575703Y350450D02*
X577325Y349476D01*
X577326Y349477D02*
X577399Y349430D01*
X577470Y349381D01*
X577540Y349328D01*
X577606Y349272D01*
X577670Y349213D01*
X577732Y349152D01*
X577790Y349088D01*
X577846Y349021D01*
X577898Y348952D01*
X577948Y348880D01*
X577994Y348806D01*
X578037Y348731D01*
X578076Y348653D01*
X578112Y348574D01*
X578144Y348493D01*
X578173Y348411D01*
X578198Y348328D01*
X578219Y348244D01*
X578236Y348159D01*
X578250Y348073D01*
X578259Y347987D01*
X578265Y347900D01*
X578267Y347813D01*
X578265Y347726D01*
X578259Y347639D01*
X578249Y347553D01*
X578236Y347467D01*
X578218Y347382D01*
X578197Y347298D01*
X578172Y347215D01*
X578143Y347132D01*
X578111Y347052D01*
X578075Y346973D01*
X578036Y346895D01*
X577993Y346820D01*
X577946Y346746D01*
X577897Y346675D01*
X577844Y346605D01*
X577789Y346539D01*
X577730Y346475D01*
X577669Y346413D01*
X577604Y346354D01*
X577538Y346299D01*
X577469Y346246D01*
X577397Y346196D01*
X577324Y346150D01*
X577248Y346107D01*
X577171Y346068D01*
X577092Y346032D01*
X577011Y345999D01*
X576929Y345971D01*
X576846Y345945D01*
X576762Y345924D01*
X576677Y345907D01*
X576676Y345906D02*
X576536Y345882D01*
X576394Y345862D01*
X576253Y345846D01*
X576111Y345835D01*
X575968Y345827D01*
X575826Y345823D01*
X575683Y345822D01*
X575540Y345826D01*
X575398Y345834D01*
X575256Y345846D01*
X575114Y345862D01*
X574973Y345881D01*
X574832Y345905D01*
X574692Y345932D01*
X574553Y345964D01*
X574415Y345999D01*
X574277Y346038D01*
X574141Y346081D01*
X574007Y346127D01*
X573873Y346178D01*
X573741Y346231D01*
X573611Y346289D01*
X573482Y346350D01*
X573355Y346415D01*
X573229Y346483D01*
X573106Y346555D01*
X583125Y344608D02*
X586371Y344608D01*
X586484Y344610D01*
X586597Y344616D01*
X586710Y344626D01*
X586823Y344640D01*
X586935Y344657D01*
X587046Y344679D01*
X587156Y344704D01*
X587266Y344734D01*
X587374Y344767D01*
X587481Y344804D01*
X587587Y344844D01*
X587691Y344889D01*
X587794Y344937D01*
X587895Y344988D01*
X587994Y345043D01*
X588091Y345101D01*
X588186Y345163D01*
X588279Y345228D01*
X588369Y345296D01*
X588457Y345367D01*
X588543Y345442D01*
X588626Y345519D01*
X588706Y345599D01*
X588783Y345682D01*
X588858Y345768D01*
X588929Y345856D01*
X588997Y345946D01*
X589062Y346039D01*
X589124Y346134D01*
X589182Y346231D01*
X589237Y346330D01*
X589288Y346431D01*
X589336Y346534D01*
X589381Y346638D01*
X589421Y346744D01*
X589458Y346851D01*
X589491Y346959D01*
X589521Y347069D01*
X589546Y347179D01*
X589568Y347290D01*
X589585Y347402D01*
X589599Y347515D01*
X589609Y347628D01*
X589615Y347741D01*
X589617Y347854D01*
X589615Y347967D01*
X589609Y348080D01*
X589599Y348193D01*
X589585Y348306D01*
X589568Y348418D01*
X589546Y348529D01*
X589521Y348639D01*
X589491Y348749D01*
X589458Y348857D01*
X589421Y348964D01*
X589381Y349070D01*
X589336Y349174D01*
X589288Y349277D01*
X589237Y349378D01*
X589182Y349477D01*
X589124Y349574D01*
X589062Y349669D01*
X588997Y349762D01*
X588929Y349852D01*
X588858Y349940D01*
X588783Y350026D01*
X588706Y350109D01*
X588626Y350189D01*
X588543Y350266D01*
X588457Y350341D01*
X588369Y350412D01*
X588279Y350480D01*
X588186Y350545D01*
X588091Y350607D01*
X587994Y350665D01*
X587895Y350720D01*
X587794Y350771D01*
X587691Y350819D01*
X587587Y350864D01*
X587481Y350904D01*
X587374Y350941D01*
X587266Y350974D01*
X587156Y351004D01*
X587046Y351029D01*
X586935Y351051D01*
X586823Y351068D01*
X586710Y351082D01*
X586597Y351092D01*
X586484Y351098D01*
X586371Y351100D01*
X587020Y356292D02*
X583125Y356292D01*
X587020Y356292D02*
X587121Y356290D01*
X587221Y356284D01*
X587321Y356274D01*
X587421Y356261D01*
X587520Y356243D01*
X587619Y356222D01*
X587716Y356197D01*
X587813Y356168D01*
X587908Y356135D01*
X588002Y356099D01*
X588094Y356059D01*
X588185Y356016D01*
X588274Y355969D01*
X588361Y355919D01*
X588447Y355865D01*
X588530Y355808D01*
X588610Y355748D01*
X588689Y355685D01*
X588765Y355618D01*
X588838Y355549D01*
X588908Y355477D01*
X588976Y355403D01*
X589041Y355326D01*
X589102Y355246D01*
X589161Y355164D01*
X589216Y355080D01*
X589268Y354994D01*
X589317Y354906D01*
X589362Y354816D01*
X589404Y354724D01*
X589442Y354631D01*
X589476Y354536D01*
X589507Y354441D01*
X589534Y354344D01*
X589557Y354246D01*
X589577Y354147D01*
X589592Y354047D01*
X589604Y353947D01*
X589612Y353847D01*
X589616Y353746D01*
X589616Y353646D01*
X589612Y353545D01*
X589604Y353445D01*
X589592Y353345D01*
X589577Y353245D01*
X589557Y353146D01*
X589534Y353048D01*
X589507Y352951D01*
X589476Y352856D01*
X589442Y352761D01*
X589404Y352668D01*
X589362Y352576D01*
X589317Y352486D01*
X589268Y352398D01*
X589216Y352312D01*
X589161Y352228D01*
X589102Y352146D01*
X589041Y352066D01*
X588976Y351989D01*
X588908Y351915D01*
X588838Y351843D01*
X588765Y351774D01*
X588689Y351707D01*
X588610Y351644D01*
X588530Y351584D01*
X588447Y351527D01*
X588361Y351473D01*
X588274Y351423D01*
X588185Y351376D01*
X588094Y351333D01*
X588002Y351293D01*
X587908Y351257D01*
X587813Y351224D01*
X587716Y351195D01*
X587619Y351170D01*
X587520Y351149D01*
X587421Y351131D01*
X587321Y351118D01*
X587221Y351108D01*
X587121Y351102D01*
X587020Y351100D01*
X587020Y351099D02*
X584423Y351099D01*
X594555Y353696D02*
X597800Y356292D01*
X597800Y344608D01*
X594555Y344608D02*
X601046Y344608D01*
D16*
X200240Y111700D03*
D17*
X195200Y99000D02*
X195200Y353000D01*
X195200Y99000D02*
X93600Y99000D01*
X93600Y353000D01*
X195200Y353000D01*
D14*
X83496Y102549D02*
X75058Y102549D01*
X83496Y102549D02*
X83609Y102551D01*
X83722Y102557D01*
X83835Y102567D01*
X83948Y102581D01*
X84060Y102598D01*
X84171Y102620D01*
X84281Y102645D01*
X84391Y102675D01*
X84499Y102708D01*
X84606Y102745D01*
X84712Y102785D01*
X84816Y102830D01*
X84919Y102878D01*
X85020Y102929D01*
X85119Y102984D01*
X85216Y103042D01*
X85311Y103104D01*
X85404Y103169D01*
X85494Y103237D01*
X85582Y103308D01*
X85668Y103383D01*
X85751Y103460D01*
X85831Y103540D01*
X85908Y103623D01*
X85983Y103709D01*
X86054Y103797D01*
X86122Y103887D01*
X86187Y103980D01*
X86249Y104075D01*
X86307Y104172D01*
X86362Y104271D01*
X86413Y104372D01*
X86461Y104475D01*
X86506Y104579D01*
X86546Y104685D01*
X86583Y104792D01*
X86616Y104900D01*
X86646Y105010D01*
X86671Y105120D01*
X86693Y105231D01*
X86710Y105343D01*
X86724Y105456D01*
X86734Y105569D01*
X86740Y105682D01*
X86742Y105795D01*
X86740Y105908D01*
X86734Y106021D01*
X86724Y106134D01*
X86710Y106247D01*
X86693Y106359D01*
X86671Y106470D01*
X86646Y106580D01*
X86616Y106690D01*
X86583Y106798D01*
X86546Y106905D01*
X86506Y107011D01*
X86461Y107115D01*
X86413Y107218D01*
X86362Y107319D01*
X86307Y107418D01*
X86249Y107515D01*
X86187Y107610D01*
X86122Y107703D01*
X86054Y107793D01*
X85983Y107881D01*
X85908Y107967D01*
X85831Y108050D01*
X85751Y108130D01*
X85668Y108207D01*
X85582Y108282D01*
X85494Y108353D01*
X85404Y108421D01*
X85311Y108486D01*
X85216Y108548D01*
X85119Y108606D01*
X85020Y108661D01*
X84919Y108712D01*
X84816Y108760D01*
X84712Y108805D01*
X84606Y108845D01*
X84499Y108882D01*
X84391Y108915D01*
X84281Y108945D01*
X84171Y108970D01*
X84060Y108992D01*
X83948Y109009D01*
X83835Y109023D01*
X83722Y109033D01*
X83609Y109039D01*
X83496Y109041D01*
X83496Y109040D02*
X75058Y109040D01*
X77654Y114360D02*
X75058Y117605D01*
X86742Y117605D01*
X86742Y114360D02*
X86742Y120851D01*
D15*
X435022Y542586D02*
X463978Y542586D01*
X446452Y512614D02*
X435022Y512614D01*
X446452Y512614D02*
X452548Y512614D01*
X463978Y512614D01*
X452548Y512614D02*
X452546Y512723D01*
X452540Y512831D01*
X452531Y512940D01*
X452517Y513048D01*
X452500Y513155D01*
X452478Y513262D01*
X452453Y513368D01*
X452425Y513473D01*
X452392Y513577D01*
X452356Y513679D01*
X452316Y513780D01*
X452273Y513880D01*
X452226Y513978D01*
X452175Y514075D01*
X452121Y514169D01*
X452064Y514262D01*
X452004Y514352D01*
X451940Y514441D01*
X451873Y514527D01*
X451804Y514610D01*
X451731Y514691D01*
X451655Y514769D01*
X451577Y514845D01*
X451496Y514918D01*
X451413Y514987D01*
X451327Y515054D01*
X451238Y515118D01*
X451148Y515178D01*
X451055Y515235D01*
X450961Y515289D01*
X450864Y515340D01*
X450766Y515387D01*
X450666Y515430D01*
X450565Y515470D01*
X450463Y515506D01*
X450359Y515539D01*
X450254Y515567D01*
X450148Y515592D01*
X450041Y515614D01*
X449934Y515631D01*
X449826Y515645D01*
X449717Y515654D01*
X449609Y515660D01*
X449500Y515662D01*
X449391Y515660D01*
X449283Y515654D01*
X449174Y515645D01*
X449066Y515631D01*
X448959Y515614D01*
X448852Y515592D01*
X448746Y515567D01*
X448641Y515539D01*
X448537Y515506D01*
X448435Y515470D01*
X448334Y515430D01*
X448234Y515387D01*
X448136Y515340D01*
X448039Y515289D01*
X447945Y515235D01*
X447852Y515178D01*
X447762Y515118D01*
X447673Y515054D01*
X447587Y514987D01*
X447504Y514918D01*
X447423Y514845D01*
X447345Y514769D01*
X447269Y514691D01*
X447196Y514610D01*
X447127Y514527D01*
X447060Y514441D01*
X446996Y514352D01*
X446936Y514262D01*
X446879Y514169D01*
X446825Y514075D01*
X446774Y513978D01*
X446727Y513880D01*
X446684Y513780D01*
X446644Y513679D01*
X446608Y513577D01*
X446575Y513473D01*
X446547Y513368D01*
X446522Y513262D01*
X446500Y513155D01*
X446483Y513048D01*
X446469Y512940D01*
X446460Y512831D01*
X446454Y512723D01*
X446452Y512614D01*
D10*
X483066Y495928D02*
X483066Y482337D01*
X483067Y495928D02*
X483065Y496071D01*
X483059Y496213D01*
X483049Y496356D01*
X483036Y496498D01*
X483018Y496640D01*
X482997Y496781D01*
X482972Y496922D01*
X482943Y497061D01*
X482910Y497200D01*
X482873Y497338D01*
X482833Y497475D01*
X482789Y497611D01*
X482741Y497746D01*
X482689Y497879D01*
X482634Y498011D01*
X482575Y498141D01*
X482513Y498270D01*
X482448Y498396D01*
X482378Y498521D01*
X482306Y498644D01*
X482230Y498765D01*
X482151Y498884D01*
X482069Y499001D01*
X481983Y499115D01*
X481894Y499227D01*
X481803Y499337D01*
X481708Y499444D01*
X481611Y499548D01*
X481510Y499650D01*
X481407Y499749D01*
X481302Y499845D01*
X481193Y499938D01*
X481083Y500028D01*
X480969Y500115D01*
X480854Y500199D01*
X480736Y500280D01*
X480616Y500357D01*
X480494Y500432D01*
X480370Y500502D01*
X480244Y500570D01*
X480117Y500634D01*
X479987Y500694D01*
X479856Y500751D01*
X479724Y500804D01*
X479590Y500854D01*
X479455Y500900D01*
X479318Y500942D01*
X479181Y500981D01*
X479042Y501016D01*
X478903Y501047D01*
X478762Y501074D01*
X478622Y501097D01*
X478480Y501117D01*
X478338Y501132D01*
X478196Y501144D01*
X478053Y501152D01*
X477910Y501156D01*
X477768Y501156D01*
X477625Y501152D01*
X477482Y501144D01*
X477340Y501132D01*
X477198Y501117D01*
X477056Y501097D01*
X476916Y501074D01*
X476775Y501047D01*
X476636Y501016D01*
X476497Y500981D01*
X476360Y500942D01*
X476223Y500900D01*
X476088Y500854D01*
X475954Y500804D01*
X475822Y500751D01*
X475691Y500694D01*
X475561Y500634D01*
X475434Y500570D01*
X475308Y500502D01*
X475184Y500432D01*
X475062Y500357D01*
X474942Y500280D01*
X474824Y500199D01*
X474709Y500115D01*
X474595Y500028D01*
X474485Y499938D01*
X474376Y499845D01*
X474271Y499749D01*
X474168Y499650D01*
X474067Y499548D01*
X473970Y499444D01*
X473875Y499337D01*
X473784Y499227D01*
X473695Y499115D01*
X473609Y499001D01*
X473527Y498884D01*
X473448Y498765D01*
X473372Y498644D01*
X473300Y498521D01*
X473230Y498396D01*
X473165Y498270D01*
X473103Y498141D01*
X473044Y498011D01*
X472989Y497879D01*
X472937Y497746D01*
X472889Y497611D01*
X472845Y497475D01*
X472805Y497338D01*
X472768Y497200D01*
X472735Y497061D01*
X472706Y496922D01*
X472681Y496781D01*
X472660Y496640D01*
X472642Y496498D01*
X472629Y496356D01*
X472619Y496213D01*
X472613Y496071D01*
X472611Y495928D01*
X472611Y482337D01*
X464620Y486519D02*
X459393Y482337D01*
X459393Y501156D01*
X464620Y501156D02*
X454165Y501156D01*
X446769Y486519D02*
X441542Y482337D01*
X441542Y501156D01*
X446769Y501156D02*
X436314Y501156D01*
M02*
