G04 EAGLE Gerber RS-274X export*
G75*
%MOMM*%
%FSLAX34Y34*%
%LPD*%
%INSolderpaste Top*%
%IPPOS*%
%AMOC8*
5,1,8,0,0,1.08239X$1,22.5*%
G01*
%ADD10R,1.400000X1.000000*%
%ADD11R,0.850000X0.750000*%
%ADD12R,1.000000X1.400000*%
%ADD13R,0.990600X0.304800*%
%ADD14R,1.050000X0.900000*%
%ADD15R,1.000000X1.250000*%
%ADD16R,1.250000X1.000000*%
%ADD17R,0.900000X1.050000*%
%ADD18R,1.397000X0.431800*%

G36*
X395106Y300713D02*
X395106Y300713D01*
X395163Y300723D01*
X395177Y300734D01*
X395185Y300736D01*
X395194Y300746D01*
X395229Y300771D01*
X397729Y303271D01*
X397757Y303322D01*
X397790Y303370D01*
X397793Y303387D01*
X397797Y303394D01*
X397796Y303407D01*
X397803Y303450D01*
X397803Y307950D01*
X397799Y307965D01*
X397801Y307981D01*
X397780Y308032D01*
X397764Y308085D01*
X397752Y308096D01*
X397746Y308110D01*
X397700Y308142D01*
X397659Y308179D01*
X397643Y308181D01*
X397630Y308190D01*
X397550Y308203D01*
X389550Y308203D01*
X389535Y308199D01*
X389519Y308201D01*
X389468Y308180D01*
X389415Y308164D01*
X389404Y308152D01*
X389390Y308146D01*
X389358Y308100D01*
X389321Y308059D01*
X389319Y308043D01*
X389310Y308030D01*
X389297Y307950D01*
X389297Y300950D01*
X389301Y300935D01*
X389299Y300919D01*
X389320Y300868D01*
X389336Y300815D01*
X389348Y300804D01*
X389354Y300790D01*
X389400Y300758D01*
X389441Y300721D01*
X389457Y300719D01*
X389470Y300710D01*
X389550Y300697D01*
X395050Y300697D01*
X395106Y300713D01*
G37*
D10*
X216300Y534950D03*
X242300Y534950D03*
X216800Y429700D03*
X242800Y429700D03*
D11*
X408050Y292950D03*
X393550Y292950D03*
X408050Y304450D03*
D12*
X257950Y140550D03*
X248450Y162550D03*
X267450Y162550D03*
D13*
X445522Y356750D03*
X445522Y350250D03*
X445522Y343750D03*
X445522Y337250D03*
X445522Y330750D03*
X445522Y324250D03*
X445522Y317750D03*
X445522Y311250D03*
X445522Y304750D03*
X445522Y298250D03*
X445522Y291750D03*
X445522Y285250D03*
X503878Y285250D03*
X503878Y291750D03*
X503878Y298250D03*
X503878Y304750D03*
X503878Y311250D03*
X503878Y317750D03*
X503878Y324250D03*
X503878Y330750D03*
X503878Y337250D03*
X503878Y343750D03*
X503878Y350250D03*
X503878Y356750D03*
D14*
X489400Y564100D03*
X473400Y564100D03*
D15*
X437400Y483600D03*
X457400Y483600D03*
D14*
X439000Y402600D03*
X455000Y402600D03*
D16*
X355500Y300800D03*
X355500Y280800D03*
D15*
X356900Y244700D03*
X376900Y244700D03*
D17*
X350700Y392700D03*
X350700Y376700D03*
X384500Y392200D03*
X384500Y376200D03*
D14*
X439000Y428800D03*
X455000Y428800D03*
X439000Y454600D03*
X455000Y454600D03*
D17*
X383700Y348800D03*
X383700Y332800D03*
X350600Y348800D03*
X350600Y332800D03*
X173200Y492250D03*
X173200Y476250D03*
X286700Y493750D03*
X286700Y477750D03*
D14*
X562900Y308300D03*
X578900Y308300D03*
X562900Y334100D03*
X578900Y334100D03*
D18*
X472106Y517948D03*
X472106Y524298D03*
X472106Y530902D03*
X472106Y537252D03*
X426894Y537252D03*
X426894Y530902D03*
X426894Y524298D03*
X426894Y517948D03*
M02*
