G04 EAGLE Gerber RS-274X export*
G75*
%MOMM*%
%FSLAX34Y34*%
%LPD*%
%INSoldermask Top*%
%IPPOS*%
%AMOC8*
5,1,8,0,0,1.08239X$1,22.5*%
G01*
%ADD10C,2.082800*%
%ADD11R,1.603200X1.203200*%
%ADD12R,1.050000X0.950000*%
%ADD13R,1.203200X1.603200*%
%ADD14R,1.193800X0.508000*%
%ADD15R,1.253200X1.103200*%
%ADD16R,1.203200X1.453200*%
%ADD17R,1.453200X1.203200*%
%ADD18R,1.103200X1.253200*%
%ADD19C,1.908300*%
%ADD20R,1.600200X0.635000*%
%ADD21C,0.959600*%

G36*
X395356Y299713D02*
X395356Y299713D01*
X395413Y299723D01*
X395427Y299734D01*
X395435Y299736D01*
X395444Y299746D01*
X395479Y299771D01*
X398729Y303021D01*
X398757Y303072D01*
X398790Y303120D01*
X398793Y303137D01*
X398797Y303144D01*
X398796Y303157D01*
X398803Y303200D01*
X398803Y308950D01*
X398799Y308965D01*
X398801Y308981D01*
X398780Y309032D01*
X398764Y309085D01*
X398752Y309096D01*
X398746Y309110D01*
X398700Y309142D01*
X398659Y309179D01*
X398643Y309181D01*
X398630Y309190D01*
X398550Y309203D01*
X388550Y309203D01*
X388535Y309199D01*
X388519Y309201D01*
X388468Y309180D01*
X388415Y309164D01*
X388404Y309152D01*
X388390Y309146D01*
X388358Y309100D01*
X388321Y309059D01*
X388319Y309043D01*
X388310Y309030D01*
X388297Y308950D01*
X388297Y299950D01*
X388301Y299935D01*
X388299Y299919D01*
X388320Y299868D01*
X388336Y299815D01*
X388348Y299804D01*
X388354Y299790D01*
X388400Y299758D01*
X388441Y299721D01*
X388457Y299719D01*
X388470Y299710D01*
X388550Y299697D01*
X395300Y299697D01*
X395356Y299713D01*
G37*
G36*
X561822Y270204D02*
X561822Y270204D01*
X561913Y270203D01*
X562877Y270334D01*
X562925Y270350D01*
X563014Y270369D01*
X563925Y270711D01*
X563968Y270737D01*
X564052Y270776D01*
X564863Y271313D01*
X564899Y271348D01*
X564972Y271404D01*
X565644Y272108D01*
X565672Y272150D01*
X565730Y272221D01*
X566228Y273057D01*
X566229Y273060D01*
X566231Y273062D01*
X566237Y273081D01*
X566246Y273104D01*
X566286Y273186D01*
X566586Y274112D01*
X566593Y274162D01*
X566615Y274251D01*
X566701Y275220D01*
X566697Y275267D01*
X566700Y275342D01*
X566598Y276318D01*
X566584Y276366D01*
X566568Y276456D01*
X566252Y277385D01*
X566228Y277429D01*
X566191Y277514D01*
X565677Y278349D01*
X565643Y278386D01*
X565589Y278461D01*
X564901Y279161D01*
X564860Y279190D01*
X564791Y279250D01*
X563964Y279779D01*
X563918Y279798D01*
X563837Y279842D01*
X562914Y280174D01*
X562864Y280182D01*
X562775Y280207D01*
X561801Y280325D01*
X561751Y280322D01*
X561665Y280326D01*
X560663Y280231D01*
X560614Y280217D01*
X560524Y280201D01*
X559568Y279885D01*
X559523Y279861D01*
X559439Y279826D01*
X558578Y279304D01*
X558540Y279271D01*
X558465Y279218D01*
X557741Y278518D01*
X557712Y278477D01*
X557651Y278408D01*
X557101Y277565D01*
X557081Y277519D01*
X557037Y277438D01*
X556689Y276494D01*
X556680Y276444D01*
X556655Y276356D01*
X556525Y275358D01*
X556527Y275315D01*
X556526Y275189D01*
X556665Y274178D01*
X556681Y274130D01*
X556700Y274040D01*
X557062Y273085D01*
X557088Y273042D01*
X557127Y272958D01*
X557691Y272108D01*
X557726Y272071D01*
X557783Y271999D01*
X558523Y271295D01*
X558565Y271267D01*
X558636Y271209D01*
X559514Y270688D01*
X559561Y270670D01*
X559643Y270629D01*
X560615Y270316D01*
X560665Y270309D01*
X560754Y270288D01*
X561772Y270199D01*
X561822Y270204D01*
G37*
G36*
X474822Y239804D02*
X474822Y239804D01*
X474913Y239803D01*
X475877Y239934D01*
X475925Y239950D01*
X476014Y239969D01*
X476925Y240311D01*
X476968Y240337D01*
X477052Y240376D01*
X477863Y240913D01*
X477899Y240948D01*
X477972Y241004D01*
X478644Y241708D01*
X478672Y241750D01*
X478730Y241821D01*
X479228Y242657D01*
X479229Y242660D01*
X479231Y242662D01*
X479237Y242681D01*
X479246Y242704D01*
X479286Y242786D01*
X479586Y243712D01*
X479593Y243762D01*
X479615Y243851D01*
X479701Y244820D01*
X479697Y244867D01*
X479700Y244942D01*
X479598Y245918D01*
X479584Y245966D01*
X479568Y246056D01*
X479252Y246985D01*
X479228Y247029D01*
X479191Y247114D01*
X478677Y247949D01*
X478643Y247986D01*
X478589Y248061D01*
X477901Y248761D01*
X477860Y248790D01*
X477791Y248850D01*
X476964Y249379D01*
X476918Y249398D01*
X476837Y249442D01*
X475914Y249774D01*
X475864Y249782D01*
X475775Y249807D01*
X474801Y249925D01*
X474751Y249922D01*
X474665Y249926D01*
X473663Y249831D01*
X473614Y249817D01*
X473524Y249801D01*
X472568Y249485D01*
X472523Y249461D01*
X472439Y249426D01*
X471578Y248904D01*
X471540Y248871D01*
X471465Y248818D01*
X470741Y248118D01*
X470712Y248077D01*
X470651Y248008D01*
X470101Y247165D01*
X470081Y247119D01*
X470037Y247038D01*
X469689Y246094D01*
X469680Y246044D01*
X469655Y245956D01*
X469525Y244958D01*
X469527Y244915D01*
X469526Y244789D01*
X469665Y243778D01*
X469681Y243730D01*
X469700Y243640D01*
X470062Y242685D01*
X470088Y242642D01*
X470127Y242558D01*
X470691Y241708D01*
X470726Y241671D01*
X470783Y241599D01*
X471523Y240895D01*
X471565Y240867D01*
X471636Y240809D01*
X472514Y240288D01*
X472561Y240270D01*
X472643Y240229D01*
X473615Y239916D01*
X473665Y239909D01*
X473754Y239888D01*
X474772Y239799D01*
X474822Y239804D01*
G37*
G36*
X561898Y193928D02*
X561898Y193928D01*
X561989Y193927D01*
X562953Y194058D01*
X563001Y194074D01*
X563090Y194093D01*
X564001Y194435D01*
X564044Y194461D01*
X564128Y194500D01*
X564939Y195037D01*
X564975Y195072D01*
X565048Y195128D01*
X565720Y195832D01*
X565748Y195874D01*
X565806Y195945D01*
X566304Y196781D01*
X566305Y196784D01*
X566307Y196786D01*
X566313Y196805D01*
X566322Y196828D01*
X566362Y196910D01*
X566662Y197836D01*
X566669Y197886D01*
X566691Y197975D01*
X566777Y198944D01*
X566773Y198991D01*
X566776Y199066D01*
X566674Y200042D01*
X566660Y200090D01*
X566644Y200180D01*
X566328Y201109D01*
X566304Y201153D01*
X566267Y201238D01*
X565753Y202073D01*
X565719Y202110D01*
X565665Y202185D01*
X564977Y202885D01*
X564936Y202914D01*
X564867Y202974D01*
X564040Y203503D01*
X563994Y203522D01*
X563913Y203566D01*
X562990Y203898D01*
X562940Y203906D01*
X562851Y203931D01*
X561877Y204049D01*
X561827Y204046D01*
X561741Y204050D01*
X560739Y203955D01*
X560690Y203941D01*
X560600Y203925D01*
X559644Y203609D01*
X559599Y203585D01*
X559515Y203550D01*
X558654Y203028D01*
X558616Y202995D01*
X558541Y202942D01*
X557817Y202242D01*
X557788Y202201D01*
X557727Y202132D01*
X557177Y201289D01*
X557157Y201243D01*
X557113Y201162D01*
X556765Y200218D01*
X556756Y200168D01*
X556731Y200080D01*
X556601Y199082D01*
X556603Y199039D01*
X556602Y198913D01*
X556741Y197902D01*
X556757Y197854D01*
X556776Y197764D01*
X557138Y196809D01*
X557164Y196766D01*
X557203Y196682D01*
X557767Y195832D01*
X557802Y195795D01*
X557859Y195723D01*
X558599Y195019D01*
X558641Y194991D01*
X558712Y194933D01*
X559590Y194412D01*
X559637Y194394D01*
X559719Y194353D01*
X560691Y194040D01*
X560741Y194033D01*
X560830Y194012D01*
X561848Y193923D01*
X561898Y193928D01*
G37*
G36*
X474898Y163528D02*
X474898Y163528D01*
X474989Y163527D01*
X475953Y163658D01*
X476001Y163674D01*
X476090Y163693D01*
X477001Y164035D01*
X477044Y164061D01*
X477128Y164100D01*
X477939Y164637D01*
X477975Y164672D01*
X478048Y164728D01*
X478720Y165432D01*
X478748Y165474D01*
X478806Y165545D01*
X479304Y166381D01*
X479305Y166384D01*
X479307Y166386D01*
X479313Y166405D01*
X479322Y166428D01*
X479362Y166510D01*
X479662Y167436D01*
X479669Y167486D01*
X479691Y167575D01*
X479777Y168544D01*
X479773Y168591D01*
X479776Y168666D01*
X479674Y169642D01*
X479660Y169690D01*
X479644Y169780D01*
X479328Y170709D01*
X479304Y170753D01*
X479267Y170838D01*
X478753Y171673D01*
X478719Y171710D01*
X478665Y171785D01*
X477977Y172485D01*
X477936Y172514D01*
X477867Y172574D01*
X477040Y173103D01*
X476994Y173122D01*
X476913Y173166D01*
X475990Y173498D01*
X475940Y173506D01*
X475851Y173531D01*
X474877Y173649D01*
X474827Y173646D01*
X474741Y173650D01*
X473739Y173555D01*
X473690Y173541D01*
X473600Y173525D01*
X472644Y173209D01*
X472599Y173185D01*
X472515Y173150D01*
X471654Y172628D01*
X471616Y172595D01*
X471541Y172542D01*
X470817Y171842D01*
X470788Y171801D01*
X470727Y171732D01*
X470177Y170889D01*
X470157Y170843D01*
X470113Y170762D01*
X469765Y169818D01*
X469756Y169768D01*
X469731Y169680D01*
X469601Y168682D01*
X469603Y168639D01*
X469602Y168513D01*
X469741Y167502D01*
X469757Y167454D01*
X469776Y167364D01*
X470138Y166409D01*
X470164Y166366D01*
X470203Y166282D01*
X470767Y165432D01*
X470802Y165395D01*
X470859Y165323D01*
X471599Y164619D01*
X471641Y164591D01*
X471712Y164533D01*
X472590Y164012D01*
X472637Y163994D01*
X472719Y163953D01*
X473691Y163640D01*
X473741Y163633D01*
X473830Y163612D01*
X474848Y163523D01*
X474898Y163528D01*
G37*
G36*
X621311Y77453D02*
X621311Y77453D01*
X621437Y77452D01*
X622448Y77591D01*
X622496Y77607D01*
X622586Y77626D01*
X623541Y77988D01*
X623584Y78014D01*
X623668Y78053D01*
X624518Y78617D01*
X624555Y78652D01*
X624627Y78709D01*
X625331Y79449D01*
X625359Y79491D01*
X625417Y79562D01*
X625938Y80440D01*
X625956Y80487D01*
X625997Y80569D01*
X626310Y81541D01*
X626317Y81591D01*
X626338Y81680D01*
X626427Y82698D01*
X626422Y82748D01*
X626423Y82839D01*
X626292Y83803D01*
X626276Y83851D01*
X626257Y83940D01*
X625915Y84851D01*
X625889Y84894D01*
X625850Y84978D01*
X625313Y85789D01*
X625278Y85825D01*
X625222Y85898D01*
X624518Y86570D01*
X624476Y86598D01*
X624405Y86656D01*
X623570Y87154D01*
X623522Y87172D01*
X623440Y87212D01*
X622515Y87512D01*
X622464Y87519D01*
X622375Y87541D01*
X621406Y87627D01*
X621359Y87623D01*
X621284Y87626D01*
X620308Y87524D01*
X620260Y87510D01*
X620170Y87494D01*
X619241Y87178D01*
X619197Y87154D01*
X619112Y87117D01*
X618277Y86603D01*
X618240Y86569D01*
X618165Y86515D01*
X617466Y85827D01*
X617436Y85786D01*
X617376Y85717D01*
X616847Y84890D01*
X616828Y84844D01*
X616784Y84763D01*
X616452Y83840D01*
X616444Y83790D01*
X616419Y83701D01*
X616301Y82727D01*
X616304Y82677D01*
X616300Y82591D01*
X616395Y81589D01*
X616409Y81540D01*
X616425Y81450D01*
X616741Y80494D01*
X616765Y80449D01*
X616801Y80365D01*
X617322Y79504D01*
X617355Y79466D01*
X617408Y79391D01*
X618108Y78667D01*
X618149Y78638D01*
X618218Y78577D01*
X619061Y78027D01*
X619107Y78007D01*
X619188Y77963D01*
X620132Y77615D01*
X620182Y77606D01*
X620270Y77581D01*
X621268Y77451D01*
X621311Y77453D01*
G37*
G36*
X545035Y77377D02*
X545035Y77377D01*
X545161Y77376D01*
X546172Y77515D01*
X546220Y77531D01*
X546310Y77550D01*
X547265Y77912D01*
X547308Y77938D01*
X547392Y77977D01*
X548242Y78541D01*
X548279Y78576D01*
X548351Y78633D01*
X549055Y79373D01*
X549083Y79415D01*
X549141Y79486D01*
X549662Y80364D01*
X549680Y80411D01*
X549721Y80493D01*
X550034Y81465D01*
X550041Y81515D01*
X550062Y81604D01*
X550151Y82622D01*
X550146Y82672D01*
X550147Y82763D01*
X550016Y83727D01*
X550000Y83775D01*
X549981Y83864D01*
X549639Y84775D01*
X549613Y84818D01*
X549574Y84902D01*
X549037Y85713D01*
X549002Y85749D01*
X548946Y85822D01*
X548242Y86494D01*
X548200Y86522D01*
X548129Y86580D01*
X547294Y87078D01*
X547246Y87096D01*
X547164Y87136D01*
X546239Y87436D01*
X546188Y87443D01*
X546099Y87465D01*
X545130Y87551D01*
X545083Y87547D01*
X545008Y87550D01*
X544032Y87448D01*
X543984Y87434D01*
X543894Y87418D01*
X542965Y87102D01*
X542921Y87078D01*
X542836Y87041D01*
X542001Y86527D01*
X541964Y86493D01*
X541889Y86439D01*
X541190Y85751D01*
X541160Y85710D01*
X541100Y85641D01*
X540571Y84814D01*
X540552Y84768D01*
X540508Y84687D01*
X540176Y83764D01*
X540168Y83714D01*
X540143Y83625D01*
X540025Y82651D01*
X540028Y82601D01*
X540024Y82515D01*
X540119Y81513D01*
X540133Y81464D01*
X540149Y81374D01*
X540465Y80418D01*
X540489Y80373D01*
X540525Y80289D01*
X541046Y79428D01*
X541079Y79390D01*
X541132Y79315D01*
X541832Y78591D01*
X541873Y78562D01*
X541942Y78501D01*
X542785Y77951D01*
X542831Y77931D01*
X542912Y77887D01*
X543856Y77539D01*
X543906Y77530D01*
X543994Y77505D01*
X544992Y77375D01*
X545035Y77377D01*
G37*
G36*
X604561Y270245D02*
X604561Y270245D01*
X604610Y270259D01*
X604700Y270275D01*
X605656Y270591D01*
X605701Y270615D01*
X605785Y270651D01*
X606646Y271172D01*
X606684Y271205D01*
X606759Y271258D01*
X607483Y271958D01*
X607512Y271999D01*
X607573Y272068D01*
X608123Y272911D01*
X608143Y272957D01*
X608187Y273038D01*
X608535Y273982D01*
X608544Y274032D01*
X608569Y274120D01*
X608699Y275118D01*
X608697Y275161D01*
X608698Y275287D01*
X608559Y276298D01*
X608543Y276346D01*
X608524Y276436D01*
X608162Y277391D01*
X608136Y277434D01*
X608098Y277518D01*
X607533Y278368D01*
X607498Y278405D01*
X607441Y278477D01*
X606702Y279181D01*
X606659Y279209D01*
X606588Y279267D01*
X605710Y279788D01*
X605663Y279806D01*
X605581Y279847D01*
X604609Y280160D01*
X604559Y280167D01*
X604470Y280188D01*
X603452Y280277D01*
X603402Y280272D01*
X603311Y280273D01*
X602347Y280142D01*
X602299Y280126D01*
X602210Y280107D01*
X601299Y279765D01*
X601256Y279739D01*
X601173Y279700D01*
X600361Y279163D01*
X600325Y279128D01*
X600252Y279072D01*
X599580Y278368D01*
X599553Y278326D01*
X599494Y278255D01*
X598996Y277420D01*
X598978Y277372D01*
X598938Y277290D01*
X598638Y276365D01*
X598631Y276314D01*
X598609Y276225D01*
X598523Y275256D01*
X598527Y275209D01*
X598524Y275134D01*
X598626Y274158D01*
X598640Y274110D01*
X598656Y274020D01*
X598972Y273091D01*
X598997Y273047D01*
X599033Y272962D01*
X599547Y272127D01*
X599581Y272090D01*
X599635Y272015D01*
X600323Y271316D01*
X600364Y271286D01*
X600433Y271226D01*
X601260Y270697D01*
X601306Y270678D01*
X601387Y270634D01*
X602310Y270302D01*
X602360Y270294D01*
X602449Y270269D01*
X603423Y270151D01*
X603473Y270154D01*
X603559Y270150D01*
X604561Y270245D01*
G37*
G36*
X604637Y193969D02*
X604637Y193969D01*
X604686Y193983D01*
X604776Y193999D01*
X605732Y194315D01*
X605777Y194339D01*
X605861Y194375D01*
X606722Y194896D01*
X606760Y194929D01*
X606835Y194982D01*
X607559Y195682D01*
X607588Y195723D01*
X607649Y195792D01*
X608199Y196635D01*
X608219Y196681D01*
X608263Y196762D01*
X608611Y197706D01*
X608620Y197756D01*
X608645Y197844D01*
X608775Y198842D01*
X608773Y198885D01*
X608774Y199011D01*
X608635Y200022D01*
X608619Y200070D01*
X608600Y200160D01*
X608238Y201115D01*
X608212Y201158D01*
X608174Y201242D01*
X607609Y202092D01*
X607574Y202129D01*
X607517Y202201D01*
X606778Y202905D01*
X606735Y202933D01*
X606664Y202991D01*
X605786Y203512D01*
X605739Y203530D01*
X605657Y203571D01*
X604685Y203884D01*
X604635Y203891D01*
X604546Y203912D01*
X603528Y204001D01*
X603478Y203996D01*
X603387Y203997D01*
X602423Y203866D01*
X602375Y203850D01*
X602286Y203831D01*
X601375Y203489D01*
X601332Y203463D01*
X601249Y203424D01*
X600437Y202887D01*
X600401Y202852D01*
X600328Y202796D01*
X599656Y202092D01*
X599629Y202050D01*
X599570Y201979D01*
X599072Y201144D01*
X599054Y201096D01*
X599014Y201014D01*
X598714Y200089D01*
X598707Y200038D01*
X598685Y199949D01*
X598599Y198980D01*
X598603Y198933D01*
X598600Y198858D01*
X598702Y197882D01*
X598716Y197834D01*
X598732Y197744D01*
X599048Y196815D01*
X599073Y196771D01*
X599109Y196686D01*
X599623Y195851D01*
X599657Y195814D01*
X599711Y195739D01*
X600399Y195040D01*
X600440Y195010D01*
X600509Y194950D01*
X601336Y194421D01*
X601382Y194402D01*
X601463Y194358D01*
X602386Y194026D01*
X602436Y194018D01*
X602525Y193993D01*
X603499Y193875D01*
X603549Y193878D01*
X603635Y193874D01*
X604637Y193969D01*
G37*
G36*
X258767Y61803D02*
X258767Y61803D01*
X258842Y61800D01*
X259818Y61902D01*
X259866Y61916D01*
X259956Y61932D01*
X260885Y62248D01*
X260929Y62273D01*
X261014Y62309D01*
X261849Y62823D01*
X261886Y62857D01*
X261961Y62911D01*
X262661Y63599D01*
X262690Y63640D01*
X262750Y63709D01*
X263279Y64536D01*
X263298Y64582D01*
X263342Y64663D01*
X263674Y65586D01*
X263682Y65636D01*
X263707Y65725D01*
X263825Y66699D01*
X263822Y66749D01*
X263826Y66835D01*
X263731Y67837D01*
X263717Y67886D01*
X263701Y67976D01*
X263385Y68932D01*
X263361Y68977D01*
X263326Y69061D01*
X262804Y69922D01*
X262771Y69960D01*
X262718Y70035D01*
X262018Y70759D01*
X261977Y70788D01*
X261908Y70849D01*
X261065Y71399D01*
X261019Y71419D01*
X260938Y71463D01*
X259994Y71811D01*
X259944Y71820D01*
X259856Y71845D01*
X258858Y71975D01*
X258815Y71973D01*
X258689Y71974D01*
X257678Y71835D01*
X257630Y71819D01*
X257540Y71800D01*
X256585Y71438D01*
X256542Y71412D01*
X256458Y71374D01*
X255608Y70809D01*
X255571Y70774D01*
X255499Y70717D01*
X254795Y69978D01*
X254767Y69935D01*
X254709Y69864D01*
X254188Y68986D01*
X254170Y68939D01*
X254129Y68857D01*
X253816Y67885D01*
X253809Y67835D01*
X253788Y67746D01*
X253699Y66728D01*
X253704Y66678D01*
X253703Y66587D01*
X253834Y65623D01*
X253850Y65575D01*
X253869Y65486D01*
X254211Y64575D01*
X254237Y64532D01*
X254276Y64449D01*
X254813Y63637D01*
X254848Y63601D01*
X254904Y63528D01*
X255608Y62856D01*
X255650Y62829D01*
X255721Y62770D01*
X256557Y62272D01*
X256604Y62254D01*
X256686Y62214D01*
X257612Y61914D01*
X257662Y61907D01*
X257751Y61885D01*
X258720Y61799D01*
X258767Y61803D01*
G37*
G36*
X182491Y61727D02*
X182491Y61727D01*
X182566Y61724D01*
X183542Y61826D01*
X183590Y61840D01*
X183680Y61856D01*
X184609Y62172D01*
X184653Y62197D01*
X184738Y62233D01*
X185573Y62747D01*
X185610Y62781D01*
X185685Y62835D01*
X186385Y63523D01*
X186414Y63564D01*
X186474Y63633D01*
X187003Y64460D01*
X187022Y64506D01*
X187066Y64587D01*
X187398Y65510D01*
X187406Y65560D01*
X187431Y65649D01*
X187549Y66623D01*
X187546Y66673D01*
X187550Y66759D01*
X187455Y67761D01*
X187441Y67810D01*
X187425Y67900D01*
X187109Y68856D01*
X187085Y68901D01*
X187050Y68985D01*
X186528Y69846D01*
X186495Y69884D01*
X186442Y69959D01*
X185742Y70683D01*
X185701Y70712D01*
X185632Y70773D01*
X184789Y71323D01*
X184743Y71343D01*
X184662Y71387D01*
X183718Y71735D01*
X183668Y71744D01*
X183580Y71769D01*
X182582Y71899D01*
X182539Y71897D01*
X182413Y71898D01*
X181402Y71759D01*
X181354Y71743D01*
X181264Y71724D01*
X180309Y71362D01*
X180266Y71336D01*
X180182Y71298D01*
X179332Y70733D01*
X179295Y70698D01*
X179223Y70641D01*
X178519Y69902D01*
X178491Y69859D01*
X178433Y69788D01*
X177912Y68910D01*
X177894Y68863D01*
X177853Y68781D01*
X177540Y67809D01*
X177533Y67759D01*
X177512Y67670D01*
X177423Y66652D01*
X177428Y66602D01*
X177427Y66511D01*
X177558Y65547D01*
X177574Y65499D01*
X177593Y65410D01*
X177935Y64499D01*
X177961Y64456D01*
X178000Y64373D01*
X178537Y63561D01*
X178572Y63525D01*
X178628Y63452D01*
X179332Y62780D01*
X179374Y62753D01*
X179445Y62694D01*
X180281Y62196D01*
X180328Y62178D01*
X180410Y62138D01*
X181336Y61838D01*
X181386Y61831D01*
X181475Y61809D01*
X182444Y61723D01*
X182491Y61727D01*
G37*
D10*
X525500Y130500D03*
X500100Y130500D03*
X474700Y130500D03*
X449300Y130500D03*
X216600Y471150D03*
X216600Y496550D03*
X157500Y401500D03*
X132100Y401500D03*
D11*
X216300Y534950D03*
X242300Y534950D03*
X216800Y429700D03*
X242800Y429700D03*
D12*
X408050Y292950D03*
X393550Y292950D03*
X408050Y304450D03*
D13*
X257950Y140550D03*
X248450Y162550D03*
X267450Y162550D03*
D14*
X445522Y356750D03*
X445522Y350250D03*
X445522Y343750D03*
X445522Y337250D03*
X445522Y330750D03*
X445522Y324250D03*
X445522Y317750D03*
X445522Y311250D03*
X445522Y304750D03*
X445522Y298250D03*
X445522Y291750D03*
X445522Y285250D03*
X503878Y285250D03*
X503878Y291750D03*
X503878Y298250D03*
X503878Y304750D03*
X503878Y311250D03*
X503878Y317750D03*
X503878Y324250D03*
X503878Y330750D03*
X503878Y337250D03*
X503878Y343750D03*
X503878Y350250D03*
X503878Y356750D03*
D15*
X489400Y564100D03*
X473400Y564100D03*
D16*
X437400Y483600D03*
X457400Y483600D03*
D15*
X439000Y402600D03*
X455000Y402600D03*
D17*
X355500Y300800D03*
X355500Y280800D03*
D16*
X356900Y244700D03*
X376900Y244700D03*
D18*
X350700Y392700D03*
X350700Y376700D03*
X384500Y392200D03*
X384500Y376200D03*
D15*
X439000Y428800D03*
X455000Y428800D03*
X439000Y454600D03*
X455000Y454600D03*
D18*
X383700Y348800D03*
X383700Y332800D03*
X350600Y348800D03*
X350600Y332800D03*
X173200Y492250D03*
X173200Y476250D03*
X286700Y493750D03*
X286700Y477750D03*
D15*
X562900Y308300D03*
X578900Y308300D03*
X562900Y334100D03*
X578900Y334100D03*
D19*
X182500Y111700D03*
X182500Y137100D03*
X182500Y162500D03*
X182500Y187900D03*
X182500Y213300D03*
X182500Y238700D03*
X182500Y264100D03*
X182500Y289500D03*
X182500Y314900D03*
X182500Y340300D03*
X106300Y340300D03*
X106300Y314900D03*
X106300Y289500D03*
X106300Y264100D03*
X106300Y238700D03*
X106300Y213300D03*
X106300Y187900D03*
X106300Y162500D03*
X106300Y137100D03*
X106300Y111700D03*
D20*
X472106Y517948D03*
X472106Y524298D03*
X472106Y530902D03*
X472106Y537252D03*
X426894Y537252D03*
X426894Y530902D03*
X426894Y524298D03*
X426894Y517948D03*
D21*
X380000Y281000D03*
X408000Y281000D03*
X260000Y335000D03*
X314200Y280800D03*
X410000Y470000D03*
X315000Y320000D03*
X305000Y460000D03*
X305000Y493750D03*
X216000Y112000D03*
X305000Y380000D03*
X232000Y137000D03*
X522500Y343500D03*
X220000Y350000D03*
X504000Y388500D03*
M02*
