G04 EAGLE Gerber RS-274X export*
G75*
%MOMM*%
%FSLAX34Y34*%
%LPD*%
%INSoldermask Bottom*%
%IPPOS*%
%AMOC8*
5,1,8,0,0,1.08239X$1,22.5*%
G01*
%ADD10C,2.082800*%
%ADD11C,1.908300*%
%ADD12C,0.959600*%

G36*
X623085Y72559D02*
X623085Y72559D01*
X623128Y72571D01*
X623194Y72580D01*
X624811Y73034D01*
X624852Y73053D01*
X624880Y73062D01*
X624890Y73064D01*
X624894Y73066D01*
X624915Y73073D01*
X626429Y73801D01*
X626465Y73827D01*
X626524Y73857D01*
X627889Y74838D01*
X627920Y74870D01*
X627973Y74910D01*
X629147Y76112D01*
X629172Y76149D01*
X629217Y76197D01*
X630164Y77585D01*
X630182Y77626D01*
X630218Y77682D01*
X630910Y79213D01*
X630921Y79256D01*
X630947Y79317D01*
X631362Y80946D01*
X631365Y80990D01*
X631380Y81055D01*
X631506Y82730D01*
X631502Y82777D01*
X631504Y82849D01*
X631299Y84685D01*
X631285Y84731D01*
X631273Y84806D01*
X630713Y86567D01*
X630690Y86609D01*
X630664Y86681D01*
X629771Y88298D01*
X629741Y88336D01*
X629701Y88401D01*
X628510Y89813D01*
X628473Y89844D01*
X628421Y89900D01*
X626977Y91053D01*
X626935Y91076D01*
X626873Y91120D01*
X625232Y91969D01*
X625186Y91984D01*
X625117Y92015D01*
X623342Y92528D01*
X623294Y92533D01*
X623219Y92551D01*
X621379Y92707D01*
X621335Y92703D01*
X621270Y92707D01*
X619439Y92547D01*
X619393Y92534D01*
X619317Y92524D01*
X617553Y92010D01*
X617509Y91989D01*
X617437Y91964D01*
X615807Y91115D01*
X615769Y91086D01*
X615703Y91047D01*
X614270Y89897D01*
X614238Y89861D01*
X614181Y89810D01*
X613000Y88402D01*
X612976Y88361D01*
X612930Y88300D01*
X612720Y87918D01*
X612046Y86688D01*
X612031Y86643D01*
X611997Y86574D01*
X611445Y84821D01*
X611439Y84774D01*
X611419Y84700D01*
X611220Y82873D01*
X611223Y82827D01*
X611217Y82758D01*
X611340Y81082D01*
X611351Y81039D01*
X611357Y80973D01*
X611769Y79343D01*
X611787Y79303D01*
X611805Y79239D01*
X612493Y77706D01*
X612518Y77669D01*
X612547Y77609D01*
X613491Y76219D01*
X613522Y76187D01*
X613560Y76133D01*
X614731Y74927D01*
X614768Y74901D01*
X614815Y74855D01*
X616177Y73871D01*
X616218Y73852D01*
X616272Y73815D01*
X617785Y73082D01*
X617828Y73070D01*
X617839Y73065D01*
X617866Y73052D01*
X617871Y73051D01*
X617888Y73043D01*
X619505Y72585D01*
X619550Y72580D01*
X619614Y72564D01*
X621286Y72393D01*
X621334Y72397D01*
X621413Y72393D01*
X623085Y72559D01*
G37*
G36*
X546809Y72483D02*
X546809Y72483D01*
X546852Y72495D01*
X546918Y72504D01*
X548535Y72958D01*
X548576Y72977D01*
X548604Y72986D01*
X548614Y72988D01*
X548618Y72990D01*
X548639Y72997D01*
X550153Y73725D01*
X550189Y73751D01*
X550248Y73781D01*
X551613Y74762D01*
X551644Y74794D01*
X551697Y74834D01*
X552871Y76036D01*
X552896Y76073D01*
X552941Y76121D01*
X553888Y77509D01*
X553906Y77550D01*
X553942Y77606D01*
X554634Y79137D01*
X554645Y79180D01*
X554671Y79241D01*
X555086Y80870D01*
X555089Y80914D01*
X555104Y80979D01*
X555230Y82654D01*
X555226Y82701D01*
X555228Y82773D01*
X555023Y84609D01*
X555009Y84655D01*
X554997Y84730D01*
X554437Y86491D01*
X554414Y86533D01*
X554388Y86605D01*
X553495Y88222D01*
X553465Y88260D01*
X553425Y88325D01*
X552234Y89737D01*
X552197Y89768D01*
X552145Y89824D01*
X550701Y90977D01*
X550659Y91000D01*
X550597Y91044D01*
X548956Y91893D01*
X548910Y91908D01*
X548841Y91939D01*
X547066Y92452D01*
X547018Y92457D01*
X546943Y92475D01*
X545103Y92631D01*
X545059Y92627D01*
X544994Y92631D01*
X543163Y92471D01*
X543117Y92458D01*
X543041Y92448D01*
X541277Y91934D01*
X541233Y91913D01*
X541161Y91888D01*
X539531Y91039D01*
X539493Y91010D01*
X539427Y90971D01*
X537994Y89821D01*
X537962Y89785D01*
X537905Y89734D01*
X536724Y88326D01*
X536700Y88285D01*
X536654Y88224D01*
X536444Y87842D01*
X535770Y86612D01*
X535755Y86567D01*
X535721Y86498D01*
X535169Y84745D01*
X535163Y84698D01*
X535143Y84624D01*
X534944Y82797D01*
X534947Y82751D01*
X534941Y82682D01*
X535064Y81006D01*
X535075Y80963D01*
X535081Y80897D01*
X535493Y79267D01*
X535511Y79227D01*
X535529Y79163D01*
X536217Y77630D01*
X536242Y77593D01*
X536271Y77533D01*
X537215Y76143D01*
X537246Y76111D01*
X537284Y76057D01*
X538455Y74851D01*
X538492Y74825D01*
X538539Y74779D01*
X539901Y73795D01*
X539942Y73776D01*
X539996Y73739D01*
X541509Y73006D01*
X541552Y72994D01*
X541563Y72989D01*
X541590Y72976D01*
X541595Y72975D01*
X541612Y72967D01*
X543229Y72509D01*
X543274Y72504D01*
X543338Y72488D01*
X545010Y72317D01*
X545058Y72321D01*
X545137Y72317D01*
X546809Y72483D01*
G37*
G36*
X182515Y56647D02*
X182515Y56647D01*
X182580Y56643D01*
X184411Y56803D01*
X184457Y56816D01*
X184533Y56826D01*
X186297Y57340D01*
X186341Y57361D01*
X186413Y57386D01*
X188043Y58235D01*
X188081Y58264D01*
X188147Y58303D01*
X189580Y59453D01*
X189612Y59489D01*
X189669Y59540D01*
X190850Y60948D01*
X190874Y60989D01*
X190920Y61050D01*
X191117Y61408D01*
X191117Y61409D01*
X191804Y62662D01*
X191819Y62707D01*
X191853Y62776D01*
X192405Y64529D01*
X192411Y64576D01*
X192431Y64650D01*
X192631Y66477D01*
X192627Y66523D01*
X192633Y66592D01*
X192510Y68268D01*
X192499Y68311D01*
X192493Y68377D01*
X192082Y70007D01*
X192063Y70047D01*
X192045Y70111D01*
X191357Y71644D01*
X191332Y71681D01*
X191303Y71741D01*
X190359Y73131D01*
X190328Y73163D01*
X190290Y73217D01*
X189119Y74423D01*
X189083Y74449D01*
X189035Y74495D01*
X187673Y75479D01*
X187632Y75498D01*
X187578Y75535D01*
X186065Y76268D01*
X186022Y76280D01*
X185962Y76307D01*
X184345Y76765D01*
X184300Y76770D01*
X184236Y76786D01*
X182564Y76957D01*
X182516Y76953D01*
X182437Y76957D01*
X180765Y76791D01*
X180722Y76779D01*
X180657Y76770D01*
X179039Y76316D01*
X178998Y76297D01*
X178935Y76277D01*
X177421Y75549D01*
X177385Y75523D01*
X177326Y75493D01*
X175961Y74512D01*
X175930Y74480D01*
X175877Y74440D01*
X174703Y73238D01*
X174678Y73201D01*
X174633Y73153D01*
X173686Y71765D01*
X173668Y71724D01*
X173632Y71668D01*
X172940Y70137D01*
X172929Y70094D01*
X172903Y70033D01*
X172488Y68404D01*
X172485Y68360D01*
X172470Y68295D01*
X172344Y66620D01*
X172348Y66573D01*
X172346Y66501D01*
X172551Y64666D01*
X172565Y64619D01*
X172577Y64544D01*
X173137Y62783D01*
X173160Y62741D01*
X173186Y62669D01*
X174079Y61052D01*
X174109Y61014D01*
X174149Y60949D01*
X175340Y59537D01*
X175377Y59506D01*
X175429Y59450D01*
X176873Y58297D01*
X176915Y58275D01*
X176977Y58230D01*
X178618Y57381D01*
X178664Y57367D01*
X178733Y57335D01*
X180508Y56822D01*
X180556Y56817D01*
X180631Y56800D01*
X182471Y56643D01*
X182515Y56647D01*
G37*
G36*
X561851Y265124D02*
X561851Y265124D01*
X561923Y265122D01*
X563759Y265327D01*
X563805Y265341D01*
X563880Y265353D01*
X565641Y265913D01*
X565683Y265936D01*
X565755Y265962D01*
X567372Y266855D01*
X567410Y266885D01*
X567475Y266925D01*
X568887Y268116D01*
X568918Y268153D01*
X568974Y268205D01*
X570127Y269649D01*
X570150Y269691D01*
X570194Y269753D01*
X571043Y271394D01*
X571058Y271440D01*
X571089Y271509D01*
X571602Y273284D01*
X571607Y273332D01*
X571625Y273407D01*
X571781Y275247D01*
X571777Y275291D01*
X571781Y275356D01*
X571621Y277187D01*
X571608Y277233D01*
X571598Y277309D01*
X571084Y279073D01*
X571063Y279117D01*
X571038Y279189D01*
X570189Y280819D01*
X570160Y280857D01*
X570121Y280923D01*
X568971Y282356D01*
X568935Y282388D01*
X568884Y282445D01*
X567476Y283626D01*
X567435Y283650D01*
X567374Y283696D01*
X565762Y284580D01*
X565717Y284595D01*
X565648Y284629D01*
X563895Y285181D01*
X563848Y285187D01*
X563774Y285207D01*
X561947Y285407D01*
X561901Y285403D01*
X561832Y285409D01*
X560156Y285286D01*
X560113Y285275D01*
X560047Y285269D01*
X558417Y284858D01*
X558377Y284839D01*
X558313Y284821D01*
X556780Y284133D01*
X556743Y284108D01*
X556683Y284079D01*
X555293Y283135D01*
X555261Y283104D01*
X555207Y283066D01*
X554001Y281895D01*
X553975Y281859D01*
X553929Y281811D01*
X552945Y280449D01*
X552926Y280408D01*
X552889Y280354D01*
X552156Y278841D01*
X552144Y278798D01*
X552117Y278738D01*
X551659Y277121D01*
X551654Y277076D01*
X551638Y277012D01*
X551467Y275340D01*
X551471Y275292D01*
X551467Y275213D01*
X551633Y273541D01*
X551645Y273498D01*
X551654Y273433D01*
X552108Y271815D01*
X552127Y271774D01*
X552147Y271711D01*
X552875Y270197D01*
X552901Y270161D01*
X552931Y270102D01*
X553912Y268737D01*
X553944Y268706D01*
X553984Y268653D01*
X555186Y267479D01*
X555223Y267454D01*
X555271Y267409D01*
X556659Y266462D01*
X556700Y266444D01*
X556756Y266408D01*
X558287Y265716D01*
X558330Y265705D01*
X558391Y265679D01*
X560020Y265264D01*
X560064Y265261D01*
X560129Y265246D01*
X561804Y265120D01*
X561851Y265124D01*
G37*
G36*
X474851Y234724D02*
X474851Y234724D01*
X474923Y234722D01*
X476759Y234927D01*
X476805Y234941D01*
X476880Y234953D01*
X478641Y235513D01*
X478683Y235536D01*
X478755Y235562D01*
X480372Y236455D01*
X480410Y236485D01*
X480475Y236525D01*
X481887Y237716D01*
X481918Y237753D01*
X481974Y237805D01*
X483127Y239249D01*
X483150Y239291D01*
X483194Y239353D01*
X484043Y240994D01*
X484058Y241040D01*
X484089Y241109D01*
X484602Y242884D01*
X484607Y242932D01*
X484625Y243007D01*
X484781Y244847D01*
X484777Y244891D01*
X484781Y244956D01*
X484621Y246787D01*
X484608Y246833D01*
X484598Y246909D01*
X484084Y248673D01*
X484063Y248717D01*
X484038Y248789D01*
X483189Y250419D01*
X483160Y250457D01*
X483121Y250523D01*
X481971Y251956D01*
X481935Y251988D01*
X481884Y252045D01*
X480476Y253226D01*
X480435Y253250D01*
X480374Y253296D01*
X478762Y254180D01*
X478717Y254195D01*
X478648Y254229D01*
X476895Y254781D01*
X476848Y254787D01*
X476774Y254807D01*
X474947Y255007D01*
X474901Y255003D01*
X474832Y255009D01*
X473156Y254886D01*
X473113Y254875D01*
X473047Y254869D01*
X471417Y254458D01*
X471377Y254439D01*
X471313Y254421D01*
X469780Y253733D01*
X469743Y253708D01*
X469683Y253679D01*
X468293Y252735D01*
X468261Y252704D01*
X468207Y252666D01*
X467001Y251495D01*
X466975Y251459D01*
X466929Y251411D01*
X465945Y250049D01*
X465926Y250008D01*
X465889Y249954D01*
X465156Y248441D01*
X465144Y248398D01*
X465117Y248338D01*
X464659Y246721D01*
X464654Y246676D01*
X464638Y246612D01*
X464467Y244940D01*
X464471Y244892D01*
X464467Y244813D01*
X464633Y243141D01*
X464645Y243098D01*
X464654Y243033D01*
X465108Y241415D01*
X465127Y241374D01*
X465147Y241311D01*
X465875Y239797D01*
X465901Y239761D01*
X465931Y239702D01*
X466912Y238337D01*
X466944Y238306D01*
X466984Y238253D01*
X468186Y237079D01*
X468223Y237054D01*
X468271Y237009D01*
X469659Y236062D01*
X469700Y236044D01*
X469756Y236008D01*
X471287Y235316D01*
X471330Y235305D01*
X471391Y235279D01*
X473020Y234864D01*
X473064Y234861D01*
X473129Y234846D01*
X474804Y234720D01*
X474851Y234724D01*
G37*
G36*
X561927Y188848D02*
X561927Y188848D01*
X561999Y188846D01*
X563835Y189051D01*
X563881Y189065D01*
X563956Y189077D01*
X565717Y189637D01*
X565759Y189660D01*
X565831Y189686D01*
X567448Y190579D01*
X567486Y190609D01*
X567551Y190649D01*
X568963Y191840D01*
X568994Y191877D01*
X569050Y191929D01*
X570203Y193373D01*
X570226Y193415D01*
X570270Y193477D01*
X571119Y195118D01*
X571134Y195164D01*
X571165Y195233D01*
X571678Y197008D01*
X571683Y197056D01*
X571701Y197131D01*
X571857Y198971D01*
X571853Y199015D01*
X571857Y199080D01*
X571697Y200911D01*
X571684Y200957D01*
X571674Y201033D01*
X571160Y202797D01*
X571139Y202841D01*
X571114Y202913D01*
X570265Y204543D01*
X570236Y204581D01*
X570197Y204647D01*
X569047Y206080D01*
X569011Y206112D01*
X568960Y206169D01*
X567552Y207350D01*
X567511Y207374D01*
X567450Y207420D01*
X565838Y208304D01*
X565793Y208319D01*
X565724Y208353D01*
X563971Y208905D01*
X563924Y208911D01*
X563850Y208931D01*
X562023Y209131D01*
X561977Y209127D01*
X561908Y209133D01*
X560232Y209010D01*
X560189Y208999D01*
X560123Y208993D01*
X558493Y208582D01*
X558453Y208563D01*
X558389Y208545D01*
X556856Y207857D01*
X556819Y207832D01*
X556759Y207803D01*
X555369Y206859D01*
X555337Y206828D01*
X555283Y206790D01*
X554077Y205619D01*
X554051Y205583D01*
X554005Y205535D01*
X553021Y204173D01*
X553002Y204132D01*
X552965Y204078D01*
X552232Y202565D01*
X552220Y202522D01*
X552193Y202462D01*
X551735Y200845D01*
X551730Y200800D01*
X551714Y200736D01*
X551543Y199064D01*
X551547Y199016D01*
X551543Y198937D01*
X551709Y197265D01*
X551721Y197222D01*
X551730Y197157D01*
X552184Y195539D01*
X552203Y195498D01*
X552223Y195435D01*
X552951Y193921D01*
X552977Y193885D01*
X553007Y193826D01*
X553988Y192461D01*
X554020Y192430D01*
X554060Y192377D01*
X555262Y191203D01*
X555299Y191178D01*
X555347Y191133D01*
X556735Y190186D01*
X556776Y190168D01*
X556832Y190132D01*
X558363Y189440D01*
X558406Y189429D01*
X558467Y189403D01*
X560096Y188988D01*
X560140Y188985D01*
X560205Y188970D01*
X561880Y188844D01*
X561927Y188848D01*
G37*
G36*
X474927Y158448D02*
X474927Y158448D01*
X474999Y158446D01*
X476835Y158651D01*
X476881Y158665D01*
X476956Y158677D01*
X478717Y159237D01*
X478759Y159260D01*
X478831Y159286D01*
X480448Y160179D01*
X480486Y160209D01*
X480551Y160249D01*
X481963Y161440D01*
X481994Y161477D01*
X482050Y161529D01*
X483203Y162973D01*
X483226Y163015D01*
X483270Y163077D01*
X484119Y164718D01*
X484134Y164764D01*
X484165Y164833D01*
X484678Y166608D01*
X484683Y166656D01*
X484701Y166731D01*
X484857Y168571D01*
X484853Y168615D01*
X484857Y168680D01*
X484697Y170511D01*
X484684Y170557D01*
X484674Y170633D01*
X484160Y172397D01*
X484139Y172441D01*
X484114Y172513D01*
X483265Y174143D01*
X483236Y174181D01*
X483197Y174247D01*
X482047Y175680D01*
X482011Y175712D01*
X481960Y175769D01*
X480552Y176950D01*
X480511Y176974D01*
X480450Y177020D01*
X478838Y177904D01*
X478793Y177919D01*
X478724Y177953D01*
X476971Y178505D01*
X476924Y178511D01*
X476850Y178531D01*
X475023Y178731D01*
X474977Y178727D01*
X474908Y178733D01*
X473232Y178610D01*
X473189Y178599D01*
X473123Y178593D01*
X471493Y178182D01*
X471453Y178163D01*
X471389Y178145D01*
X469856Y177457D01*
X469819Y177432D01*
X469759Y177403D01*
X468369Y176459D01*
X468337Y176428D01*
X468283Y176390D01*
X467077Y175219D01*
X467051Y175183D01*
X467005Y175135D01*
X466021Y173773D01*
X466002Y173732D01*
X465965Y173678D01*
X465232Y172165D01*
X465220Y172122D01*
X465193Y172062D01*
X464735Y170445D01*
X464730Y170400D01*
X464714Y170336D01*
X464543Y168664D01*
X464547Y168616D01*
X464543Y168537D01*
X464709Y166865D01*
X464721Y166822D01*
X464730Y166757D01*
X465184Y165139D01*
X465203Y165098D01*
X465223Y165035D01*
X465951Y163521D01*
X465977Y163485D01*
X466007Y163426D01*
X466988Y162061D01*
X467020Y162030D01*
X467060Y161977D01*
X468262Y160803D01*
X468299Y160778D01*
X468347Y160733D01*
X469735Y159786D01*
X469776Y159768D01*
X469832Y159732D01*
X471363Y159040D01*
X471406Y159029D01*
X471467Y159003D01*
X473096Y158588D01*
X473140Y158585D01*
X473205Y158570D01*
X474880Y158444D01*
X474927Y158448D01*
G37*
G36*
X605068Y265190D02*
X605068Y265190D01*
X605111Y265201D01*
X605177Y265207D01*
X606807Y265619D01*
X606847Y265637D01*
X606911Y265655D01*
X608444Y266343D01*
X608481Y266368D01*
X608541Y266397D01*
X609931Y267341D01*
X609963Y267372D01*
X610017Y267410D01*
X611223Y268581D01*
X611249Y268618D01*
X611295Y268665D01*
X612279Y270027D01*
X612298Y270068D01*
X612335Y270122D01*
X613068Y271635D01*
X613080Y271678D01*
X613107Y271738D01*
X613565Y273355D01*
X613570Y273400D01*
X613586Y273464D01*
X613757Y275136D01*
X613753Y275184D01*
X613757Y275263D01*
X613591Y276935D01*
X613579Y276978D01*
X613570Y277044D01*
X613116Y278661D01*
X613097Y278702D01*
X613077Y278765D01*
X612349Y280279D01*
X612323Y280315D01*
X612293Y280374D01*
X611312Y281739D01*
X611280Y281770D01*
X611240Y281823D01*
X610038Y282997D01*
X610001Y283022D01*
X609953Y283067D01*
X608565Y284014D01*
X608524Y284032D01*
X608468Y284068D01*
X606937Y284760D01*
X606894Y284771D01*
X606833Y284797D01*
X605204Y285212D01*
X605160Y285215D01*
X605095Y285230D01*
X603420Y285356D01*
X603373Y285352D01*
X603301Y285354D01*
X601466Y285149D01*
X601419Y285135D01*
X601344Y285123D01*
X599583Y284563D01*
X599541Y284540D01*
X599469Y284514D01*
X597852Y283621D01*
X597814Y283591D01*
X597749Y283551D01*
X596337Y282360D01*
X596306Y282323D01*
X596250Y282271D01*
X595097Y280827D01*
X595075Y280785D01*
X595030Y280723D01*
X594181Y279082D01*
X594167Y279036D01*
X594135Y278967D01*
X593622Y277192D01*
X593617Y277144D01*
X593600Y277069D01*
X593443Y275229D01*
X593447Y275185D01*
X593443Y275120D01*
X593603Y273289D01*
X593616Y273243D01*
X593624Y273182D01*
X593624Y273180D01*
X593626Y273167D01*
X594140Y271403D01*
X594161Y271359D01*
X594186Y271287D01*
X595035Y269657D01*
X595064Y269619D01*
X595103Y269553D01*
X596253Y268120D01*
X596289Y268088D01*
X596340Y268031D01*
X597748Y266850D01*
X597789Y266826D01*
X597850Y266780D01*
X599462Y265896D01*
X599507Y265881D01*
X599576Y265847D01*
X601329Y265295D01*
X601376Y265289D01*
X601450Y265269D01*
X603277Y265070D01*
X603323Y265073D01*
X603392Y265067D01*
X605068Y265190D01*
G37*
G36*
X605144Y188914D02*
X605144Y188914D01*
X605187Y188925D01*
X605253Y188931D01*
X606883Y189343D01*
X606923Y189361D01*
X606987Y189379D01*
X608520Y190067D01*
X608557Y190092D01*
X608617Y190121D01*
X610007Y191065D01*
X610039Y191096D01*
X610093Y191134D01*
X611299Y192305D01*
X611325Y192342D01*
X611371Y192389D01*
X612355Y193751D01*
X612374Y193792D01*
X612411Y193846D01*
X613144Y195359D01*
X613156Y195402D01*
X613183Y195462D01*
X613641Y197079D01*
X613646Y197124D01*
X613662Y197188D01*
X613833Y198860D01*
X613829Y198908D01*
X613833Y198987D01*
X613667Y200659D01*
X613655Y200702D01*
X613646Y200768D01*
X613192Y202385D01*
X613173Y202426D01*
X613153Y202489D01*
X612425Y204003D01*
X612399Y204039D01*
X612369Y204098D01*
X611388Y205463D01*
X611356Y205494D01*
X611316Y205547D01*
X610114Y206721D01*
X610077Y206746D01*
X610029Y206791D01*
X608641Y207738D01*
X608600Y207756D01*
X608544Y207792D01*
X607013Y208484D01*
X606970Y208495D01*
X606909Y208521D01*
X605280Y208936D01*
X605236Y208939D01*
X605171Y208954D01*
X603496Y209080D01*
X603449Y209076D01*
X603377Y209078D01*
X601542Y208873D01*
X601495Y208859D01*
X601420Y208847D01*
X599659Y208287D01*
X599617Y208264D01*
X599545Y208238D01*
X597928Y207345D01*
X597890Y207315D01*
X597825Y207275D01*
X596413Y206084D01*
X596382Y206047D01*
X596326Y205995D01*
X595173Y204551D01*
X595151Y204509D01*
X595106Y204447D01*
X594257Y202806D01*
X594243Y202760D01*
X594211Y202691D01*
X593698Y200916D01*
X593693Y200868D01*
X593676Y200793D01*
X593519Y198953D01*
X593523Y198909D01*
X593519Y198844D01*
X593679Y197013D01*
X593692Y196967D01*
X593700Y196906D01*
X593700Y196904D01*
X593702Y196891D01*
X594216Y195127D01*
X594237Y195083D01*
X594262Y195011D01*
X595111Y193381D01*
X595140Y193343D01*
X595179Y193277D01*
X596329Y191844D01*
X596365Y191812D01*
X596416Y191755D01*
X597824Y190574D01*
X597865Y190550D01*
X597926Y190504D01*
X599538Y189620D01*
X599583Y189605D01*
X599652Y189571D01*
X601405Y189019D01*
X601452Y189013D01*
X601526Y188993D01*
X603353Y188794D01*
X603399Y188797D01*
X603468Y188791D01*
X605144Y188914D01*
G37*
G36*
X258791Y56723D02*
X258791Y56723D01*
X258856Y56719D01*
X260687Y56879D01*
X260733Y56892D01*
X260809Y56902D01*
X262573Y57416D01*
X262617Y57437D01*
X262689Y57462D01*
X264319Y58311D01*
X264357Y58340D01*
X264423Y58379D01*
X265856Y59529D01*
X265888Y59565D01*
X265945Y59616D01*
X267126Y61024D01*
X267150Y61065D01*
X267196Y61126D01*
X267741Y62119D01*
X268080Y62738D01*
X268095Y62783D01*
X268129Y62852D01*
X268681Y64605D01*
X268687Y64652D01*
X268707Y64726D01*
X268907Y66553D01*
X268903Y66599D01*
X268909Y66668D01*
X268786Y68344D01*
X268775Y68387D01*
X268769Y68453D01*
X268358Y70083D01*
X268339Y70123D01*
X268321Y70187D01*
X267633Y71720D01*
X267608Y71757D01*
X267579Y71817D01*
X266635Y73207D01*
X266604Y73239D01*
X266566Y73293D01*
X265395Y74499D01*
X265359Y74525D01*
X265311Y74571D01*
X263949Y75555D01*
X263908Y75574D01*
X263854Y75611D01*
X262341Y76344D01*
X262298Y76356D01*
X262238Y76383D01*
X260621Y76841D01*
X260576Y76846D01*
X260512Y76862D01*
X258840Y77033D01*
X258792Y77029D01*
X258713Y77033D01*
X257041Y76867D01*
X256998Y76855D01*
X256933Y76846D01*
X255315Y76392D01*
X255274Y76373D01*
X255211Y76353D01*
X253697Y75625D01*
X253661Y75599D01*
X253602Y75569D01*
X252237Y74588D01*
X252206Y74556D01*
X252153Y74516D01*
X250979Y73314D01*
X250954Y73277D01*
X250909Y73229D01*
X249962Y71841D01*
X249944Y71800D01*
X249908Y71744D01*
X249216Y70213D01*
X249205Y70170D01*
X249179Y70109D01*
X248764Y68480D01*
X248761Y68436D01*
X248746Y68371D01*
X248620Y66696D01*
X248624Y66649D01*
X248622Y66577D01*
X248827Y64742D01*
X248841Y64695D01*
X248853Y64620D01*
X249413Y62859D01*
X249436Y62817D01*
X249462Y62745D01*
X250355Y61128D01*
X250385Y61090D01*
X250425Y61025D01*
X251616Y59613D01*
X251653Y59582D01*
X251705Y59526D01*
X253149Y58373D01*
X253191Y58351D01*
X253253Y58306D01*
X254894Y57457D01*
X254940Y57443D01*
X255009Y57411D01*
X256784Y56898D01*
X256832Y56893D01*
X256907Y56876D01*
X258747Y56719D01*
X258791Y56723D01*
G37*
D10*
X525500Y130500D03*
X500100Y130500D03*
X474700Y130500D03*
X449300Y130500D03*
X216600Y471150D03*
X216600Y496550D03*
X157500Y401500D03*
X132100Y401500D03*
D11*
X182500Y111700D03*
X182500Y137100D03*
X182500Y162500D03*
X182500Y187900D03*
X182500Y213300D03*
X182500Y238700D03*
X182500Y264100D03*
X182500Y289500D03*
X182500Y314900D03*
X182500Y340300D03*
X106300Y340300D03*
X106300Y314900D03*
X106300Y289500D03*
X106300Y264100D03*
X106300Y238700D03*
X106300Y213300D03*
X106300Y187900D03*
X106300Y162500D03*
X106300Y137100D03*
X106300Y111700D03*
D12*
X380000Y281000D03*
X408000Y281000D03*
X260000Y335000D03*
X314200Y280800D03*
X410000Y470000D03*
X315000Y320000D03*
X305000Y460000D03*
X305000Y493750D03*
X216000Y112000D03*
X305000Y380000D03*
X232000Y137000D03*
X522500Y343500D03*
X220000Y350000D03*
X504000Y388500D03*
M02*
