G04 EAGLE Gerber RS-274X export*
G75*
%MOMM*%
%FSLAX34Y34*%
%LPD*%
%INSilkscreen Top*%
%IPPOS*%
%AMOC8*
5,1,8,0,0,1.08239X$1,22.5*%
G01*
%ADD10C,0.203200*%
%ADD11C,0.127000*%
%ADD12C,0.101600*%
%ADD13C,0.200000*%
%ADD14C,0.025400*%


D10*
X176530Y49530D02*
X176530Y62230D01*
X182880Y68580D01*
X195580Y68580D02*
X201930Y62230D01*
X182880Y68580D02*
X176530Y74930D01*
X176530Y87630D01*
X182880Y93980D01*
X195580Y93980D02*
X201930Y87630D01*
X201930Y74930D01*
X195580Y68580D01*
X195580Y43180D02*
X182880Y43180D01*
X176530Y49530D01*
X195580Y43180D02*
X201930Y49530D01*
X201930Y62230D01*
X195580Y93980D02*
X182880Y93980D01*
D11*
X173553Y45424D02*
X169799Y45424D01*
X173553Y45423D02*
X173618Y45421D01*
X173682Y45415D01*
X173746Y45405D01*
X173810Y45392D01*
X173872Y45374D01*
X173933Y45353D01*
X173993Y45329D01*
X174051Y45300D01*
X174108Y45268D01*
X174162Y45233D01*
X174214Y45195D01*
X174264Y45153D01*
X174311Y45109D01*
X174355Y45062D01*
X174397Y45012D01*
X174435Y44960D01*
X174470Y44906D01*
X174502Y44849D01*
X174531Y44791D01*
X174555Y44731D01*
X174576Y44670D01*
X174594Y44608D01*
X174607Y44544D01*
X174617Y44480D01*
X174623Y44416D01*
X174625Y44351D01*
X174625Y43815D01*
X170871Y48372D02*
X169799Y49712D01*
X174625Y49712D01*
X174625Y48372D02*
X174625Y51053D01*
D10*
X30480Y68580D02*
X24130Y74930D01*
X24130Y87630D01*
X30480Y93980D01*
X43180Y93980D02*
X49530Y87630D01*
X49530Y74930D01*
X43180Y68580D01*
X24130Y36830D02*
X24130Y24130D01*
X24130Y36830D02*
X30480Y43180D01*
X43180Y43180D02*
X49530Y36830D01*
X30480Y43180D02*
X24130Y49530D01*
X24130Y62230D01*
X30480Y68580D01*
X43180Y68580D02*
X49530Y62230D01*
X49530Y49530D01*
X43180Y43180D01*
X43180Y17780D02*
X30480Y17780D01*
X24130Y24130D01*
X43180Y17780D02*
X49530Y24130D01*
X49530Y36830D01*
X43180Y93980D02*
X30480Y93980D01*
D11*
X21153Y20024D02*
X17399Y20024D01*
X21153Y20023D02*
X21218Y20021D01*
X21282Y20015D01*
X21346Y20005D01*
X21410Y19992D01*
X21472Y19974D01*
X21533Y19953D01*
X21593Y19929D01*
X21651Y19900D01*
X21708Y19868D01*
X21762Y19833D01*
X21814Y19795D01*
X21864Y19753D01*
X21911Y19709D01*
X21955Y19662D01*
X21997Y19612D01*
X22035Y19560D01*
X22070Y19506D01*
X22102Y19449D01*
X22131Y19391D01*
X22155Y19331D01*
X22176Y19270D01*
X22194Y19208D01*
X22207Y19144D01*
X22217Y19080D01*
X22223Y19016D01*
X22225Y18951D01*
X22225Y18415D01*
X17399Y24446D02*
X17401Y24514D01*
X17407Y24581D01*
X17416Y24648D01*
X17429Y24715D01*
X17446Y24780D01*
X17467Y24845D01*
X17491Y24908D01*
X17519Y24970D01*
X17550Y25030D01*
X17584Y25088D01*
X17622Y25144D01*
X17662Y25199D01*
X17706Y25250D01*
X17753Y25299D01*
X17802Y25346D01*
X17853Y25390D01*
X17908Y25430D01*
X17964Y25468D01*
X18022Y25502D01*
X18082Y25533D01*
X18144Y25561D01*
X18207Y25585D01*
X18272Y25606D01*
X18337Y25623D01*
X18404Y25636D01*
X18471Y25645D01*
X18538Y25651D01*
X18606Y25653D01*
X17399Y24446D02*
X17401Y24368D01*
X17407Y24290D01*
X17417Y24213D01*
X17430Y24136D01*
X17448Y24060D01*
X17469Y23985D01*
X17494Y23911D01*
X17523Y23839D01*
X17555Y23768D01*
X17591Y23699D01*
X17630Y23631D01*
X17673Y23566D01*
X17719Y23503D01*
X17768Y23442D01*
X17820Y23384D01*
X17875Y23329D01*
X17932Y23276D01*
X17992Y23227D01*
X18055Y23180D01*
X18120Y23137D01*
X18186Y23097D01*
X18255Y23060D01*
X18326Y23027D01*
X18398Y22997D01*
X18472Y22971D01*
X19544Y25251D02*
X19495Y25300D01*
X19443Y25347D01*
X19388Y25390D01*
X19331Y25431D01*
X19272Y25469D01*
X19211Y25503D01*
X19148Y25534D01*
X19084Y25562D01*
X19018Y25586D01*
X18952Y25606D01*
X18884Y25623D01*
X18815Y25636D01*
X18746Y25645D01*
X18676Y25651D01*
X18606Y25653D01*
X19544Y25251D02*
X22225Y22972D01*
X22225Y25653D01*
D12*
X148938Y49864D02*
X157376Y49864D01*
X157376Y49863D02*
X157489Y49865D01*
X157602Y49871D01*
X157715Y49881D01*
X157828Y49895D01*
X157940Y49912D01*
X158051Y49934D01*
X158161Y49959D01*
X158271Y49989D01*
X158379Y50022D01*
X158486Y50059D01*
X158592Y50099D01*
X158696Y50144D01*
X158799Y50192D01*
X158900Y50243D01*
X158999Y50298D01*
X159096Y50356D01*
X159191Y50418D01*
X159284Y50483D01*
X159374Y50551D01*
X159462Y50622D01*
X159548Y50697D01*
X159631Y50774D01*
X159711Y50854D01*
X159788Y50937D01*
X159863Y51023D01*
X159934Y51111D01*
X160002Y51201D01*
X160067Y51294D01*
X160129Y51389D01*
X160187Y51486D01*
X160242Y51585D01*
X160293Y51686D01*
X160341Y51789D01*
X160386Y51893D01*
X160426Y51999D01*
X160463Y52106D01*
X160496Y52214D01*
X160526Y52324D01*
X160551Y52434D01*
X160573Y52545D01*
X160590Y52657D01*
X160604Y52770D01*
X160614Y52883D01*
X160620Y52996D01*
X160622Y53109D01*
X160620Y53222D01*
X160614Y53335D01*
X160604Y53448D01*
X160590Y53561D01*
X160573Y53673D01*
X160551Y53784D01*
X160526Y53894D01*
X160496Y54004D01*
X160463Y54112D01*
X160426Y54219D01*
X160386Y54325D01*
X160341Y54429D01*
X160293Y54532D01*
X160242Y54633D01*
X160187Y54732D01*
X160129Y54829D01*
X160067Y54924D01*
X160002Y55017D01*
X159934Y55107D01*
X159863Y55195D01*
X159788Y55281D01*
X159711Y55364D01*
X159631Y55444D01*
X159548Y55521D01*
X159462Y55596D01*
X159374Y55667D01*
X159284Y55735D01*
X159191Y55800D01*
X159096Y55862D01*
X158999Y55920D01*
X158900Y55975D01*
X158799Y56026D01*
X158696Y56074D01*
X158592Y56119D01*
X158486Y56159D01*
X158379Y56196D01*
X158271Y56229D01*
X158161Y56259D01*
X158051Y56284D01*
X157940Y56306D01*
X157828Y56323D01*
X157715Y56337D01*
X157602Y56347D01*
X157489Y56353D01*
X157376Y56355D01*
X148938Y56355D01*
X148938Y64158D02*
X160622Y64158D01*
X154780Y64158D02*
X153806Y62536D01*
X153807Y62535D02*
X153760Y62462D01*
X153711Y62391D01*
X153658Y62322D01*
X153602Y62255D01*
X153543Y62191D01*
X153482Y62129D01*
X153418Y62071D01*
X153351Y62015D01*
X153282Y61963D01*
X153210Y61913D01*
X153136Y61867D01*
X153061Y61824D01*
X152983Y61785D01*
X152904Y61749D01*
X152823Y61717D01*
X152741Y61688D01*
X152658Y61663D01*
X152574Y61642D01*
X152489Y61625D01*
X152403Y61611D01*
X152317Y61602D01*
X152230Y61596D01*
X152143Y61594D01*
X152056Y61596D01*
X151969Y61602D01*
X151883Y61612D01*
X151797Y61625D01*
X151712Y61643D01*
X151628Y61664D01*
X151545Y61689D01*
X151462Y61718D01*
X151382Y61750D01*
X151303Y61786D01*
X151225Y61825D01*
X151150Y61868D01*
X151076Y61915D01*
X151005Y61964D01*
X150935Y62017D01*
X150869Y62072D01*
X150805Y62131D01*
X150743Y62192D01*
X150684Y62256D01*
X150629Y62323D01*
X150576Y62392D01*
X150526Y62464D01*
X150480Y62537D01*
X150437Y62613D01*
X150398Y62690D01*
X150362Y62769D01*
X150329Y62850D01*
X150301Y62932D01*
X150275Y63015D01*
X150254Y63099D01*
X150237Y63184D01*
X150236Y63185D02*
X150212Y63325D01*
X150192Y63467D01*
X150176Y63608D01*
X150165Y63750D01*
X150157Y63893D01*
X150153Y64035D01*
X150152Y64178D01*
X150156Y64321D01*
X150164Y64463D01*
X150176Y64605D01*
X150192Y64747D01*
X150211Y64888D01*
X150235Y65029D01*
X150262Y65169D01*
X150294Y65308D01*
X150329Y65446D01*
X150368Y65584D01*
X150411Y65720D01*
X150457Y65854D01*
X150508Y65988D01*
X150561Y66120D01*
X150619Y66250D01*
X150680Y66379D01*
X150745Y66506D01*
X150813Y66632D01*
X150885Y66755D01*
X154780Y64158D02*
X155754Y65781D01*
X155753Y65782D02*
X155800Y65855D01*
X155849Y65926D01*
X155902Y65996D01*
X155958Y66062D01*
X156017Y66126D01*
X156078Y66188D01*
X156142Y66246D01*
X156209Y66302D01*
X156278Y66354D01*
X156350Y66404D01*
X156424Y66450D01*
X156499Y66493D01*
X156577Y66532D01*
X156656Y66568D01*
X156737Y66600D01*
X156819Y66629D01*
X156902Y66654D01*
X156986Y66675D01*
X157071Y66692D01*
X157157Y66706D01*
X157244Y66715D01*
X157330Y66721D01*
X157417Y66723D01*
X157504Y66721D01*
X157591Y66715D01*
X157677Y66705D01*
X157763Y66692D01*
X157848Y66674D01*
X157932Y66653D01*
X158015Y66628D01*
X158098Y66599D01*
X158178Y66567D01*
X158257Y66531D01*
X158335Y66492D01*
X158410Y66449D01*
X158484Y66402D01*
X158555Y66353D01*
X158625Y66300D01*
X158691Y66245D01*
X158755Y66186D01*
X158817Y66125D01*
X158876Y66060D01*
X158931Y65994D01*
X158984Y65925D01*
X159034Y65853D01*
X159080Y65780D01*
X159123Y65704D01*
X159162Y65627D01*
X159198Y65548D01*
X159231Y65467D01*
X159259Y65385D01*
X159285Y65302D01*
X159306Y65218D01*
X159323Y65132D01*
X159324Y65132D02*
X159348Y64992D01*
X159368Y64850D01*
X159384Y64709D01*
X159395Y64567D01*
X159403Y64424D01*
X159407Y64282D01*
X159408Y64139D01*
X159404Y63996D01*
X159396Y63854D01*
X159384Y63712D01*
X159368Y63570D01*
X159349Y63429D01*
X159325Y63288D01*
X159298Y63148D01*
X159266Y63009D01*
X159231Y62871D01*
X159192Y62733D01*
X159149Y62597D01*
X159103Y62463D01*
X159052Y62329D01*
X158999Y62197D01*
X158941Y62067D01*
X158880Y61938D01*
X158815Y61811D01*
X158747Y61685D01*
X158675Y61562D01*
X157376Y71580D02*
X157263Y71582D01*
X157150Y71588D01*
X157037Y71598D01*
X156924Y71612D01*
X156812Y71629D01*
X156701Y71651D01*
X156591Y71676D01*
X156481Y71706D01*
X156373Y71739D01*
X156266Y71776D01*
X156160Y71816D01*
X156056Y71861D01*
X155953Y71909D01*
X155852Y71960D01*
X155753Y72015D01*
X155656Y72073D01*
X155561Y72135D01*
X155468Y72200D01*
X155378Y72268D01*
X155290Y72339D01*
X155204Y72414D01*
X155121Y72491D01*
X155041Y72571D01*
X154964Y72654D01*
X154889Y72740D01*
X154818Y72828D01*
X154750Y72918D01*
X154685Y73011D01*
X154623Y73106D01*
X154565Y73203D01*
X154510Y73302D01*
X154459Y73403D01*
X154411Y73506D01*
X154366Y73610D01*
X154326Y73716D01*
X154289Y73823D01*
X154256Y73931D01*
X154226Y74041D01*
X154201Y74151D01*
X154179Y74262D01*
X154162Y74374D01*
X154148Y74487D01*
X154138Y74600D01*
X154132Y74713D01*
X154130Y74826D01*
X154132Y74939D01*
X154138Y75052D01*
X154148Y75165D01*
X154162Y75278D01*
X154179Y75390D01*
X154201Y75501D01*
X154226Y75611D01*
X154256Y75721D01*
X154289Y75829D01*
X154326Y75936D01*
X154366Y76042D01*
X154411Y76146D01*
X154459Y76249D01*
X154510Y76350D01*
X154565Y76449D01*
X154623Y76546D01*
X154685Y76641D01*
X154750Y76734D01*
X154818Y76824D01*
X154889Y76912D01*
X154964Y76998D01*
X155041Y77081D01*
X155121Y77161D01*
X155204Y77238D01*
X155290Y77313D01*
X155378Y77384D01*
X155468Y77452D01*
X155561Y77517D01*
X155656Y77579D01*
X155753Y77637D01*
X155852Y77692D01*
X155953Y77743D01*
X156056Y77791D01*
X156160Y77836D01*
X156266Y77876D01*
X156373Y77913D01*
X156481Y77946D01*
X156591Y77976D01*
X156701Y78001D01*
X156812Y78023D01*
X156924Y78040D01*
X157037Y78054D01*
X157150Y78064D01*
X157263Y78070D01*
X157376Y78072D01*
X157489Y78070D01*
X157602Y78064D01*
X157715Y78054D01*
X157828Y78040D01*
X157940Y78023D01*
X158051Y78001D01*
X158161Y77976D01*
X158271Y77946D01*
X158379Y77913D01*
X158486Y77876D01*
X158592Y77836D01*
X158696Y77791D01*
X158799Y77743D01*
X158900Y77692D01*
X158999Y77637D01*
X159096Y77579D01*
X159191Y77517D01*
X159284Y77452D01*
X159374Y77384D01*
X159462Y77313D01*
X159548Y77238D01*
X159631Y77161D01*
X159711Y77081D01*
X159788Y76998D01*
X159863Y76912D01*
X159934Y76824D01*
X160002Y76734D01*
X160067Y76641D01*
X160129Y76546D01*
X160187Y76449D01*
X160242Y76350D01*
X160293Y76249D01*
X160341Y76146D01*
X160386Y76042D01*
X160426Y75936D01*
X160463Y75829D01*
X160496Y75721D01*
X160526Y75611D01*
X160551Y75501D01*
X160573Y75390D01*
X160590Y75278D01*
X160604Y75165D01*
X160614Y75052D01*
X160620Y74939D01*
X160622Y74826D01*
X160620Y74713D01*
X160614Y74600D01*
X160604Y74487D01*
X160590Y74374D01*
X160573Y74262D01*
X160551Y74151D01*
X160526Y74041D01*
X160496Y73931D01*
X160463Y73823D01*
X160426Y73716D01*
X160386Y73610D01*
X160341Y73506D01*
X160293Y73403D01*
X160242Y73302D01*
X160187Y73203D01*
X160129Y73106D01*
X160067Y73011D01*
X160002Y72918D01*
X159934Y72828D01*
X159863Y72740D01*
X159788Y72654D01*
X159711Y72571D01*
X159631Y72491D01*
X159548Y72414D01*
X159462Y72339D01*
X159374Y72268D01*
X159284Y72200D01*
X159191Y72135D01*
X159096Y72073D01*
X158999Y72015D01*
X158900Y71960D01*
X158799Y71909D01*
X158696Y71861D01*
X158592Y71816D01*
X158486Y71776D01*
X158379Y71739D01*
X158271Y71706D01*
X158161Y71676D01*
X158051Y71651D01*
X157940Y71629D01*
X157828Y71612D01*
X157715Y71598D01*
X157602Y71588D01*
X157489Y71582D01*
X157376Y71580D01*
X151534Y72230D02*
X151433Y72232D01*
X151333Y72238D01*
X151233Y72248D01*
X151133Y72261D01*
X151034Y72279D01*
X150935Y72300D01*
X150838Y72325D01*
X150741Y72354D01*
X150646Y72387D01*
X150552Y72423D01*
X150460Y72463D01*
X150369Y72506D01*
X150280Y72553D01*
X150193Y72603D01*
X150107Y72657D01*
X150024Y72714D01*
X149944Y72774D01*
X149865Y72837D01*
X149789Y72904D01*
X149716Y72973D01*
X149646Y73045D01*
X149578Y73119D01*
X149513Y73196D01*
X149452Y73276D01*
X149393Y73358D01*
X149338Y73442D01*
X149286Y73528D01*
X149237Y73616D01*
X149192Y73706D01*
X149150Y73798D01*
X149112Y73891D01*
X149078Y73986D01*
X149047Y74081D01*
X149020Y74178D01*
X148997Y74276D01*
X148977Y74375D01*
X148962Y74475D01*
X148950Y74575D01*
X148942Y74675D01*
X148938Y74776D01*
X148938Y74876D01*
X148942Y74977D01*
X148950Y75077D01*
X148962Y75177D01*
X148977Y75277D01*
X148997Y75376D01*
X149020Y75474D01*
X149047Y75571D01*
X149078Y75666D01*
X149112Y75761D01*
X149150Y75854D01*
X149192Y75946D01*
X149237Y76036D01*
X149286Y76124D01*
X149338Y76210D01*
X149393Y76294D01*
X149452Y76376D01*
X149513Y76456D01*
X149578Y76533D01*
X149646Y76607D01*
X149716Y76679D01*
X149789Y76748D01*
X149865Y76815D01*
X149944Y76878D01*
X150024Y76938D01*
X150107Y76995D01*
X150193Y77049D01*
X150280Y77099D01*
X150369Y77146D01*
X150460Y77189D01*
X150552Y77229D01*
X150646Y77265D01*
X150741Y77298D01*
X150838Y77327D01*
X150935Y77352D01*
X151034Y77373D01*
X151133Y77391D01*
X151233Y77404D01*
X151333Y77414D01*
X151433Y77420D01*
X151534Y77422D01*
X151635Y77420D01*
X151735Y77414D01*
X151835Y77404D01*
X151935Y77391D01*
X152034Y77373D01*
X152133Y77352D01*
X152230Y77327D01*
X152327Y77298D01*
X152422Y77265D01*
X152516Y77229D01*
X152608Y77189D01*
X152699Y77146D01*
X152788Y77099D01*
X152875Y77049D01*
X152961Y76995D01*
X153044Y76938D01*
X153124Y76878D01*
X153203Y76815D01*
X153279Y76748D01*
X153352Y76679D01*
X153422Y76607D01*
X153490Y76533D01*
X153555Y76456D01*
X153616Y76376D01*
X153675Y76294D01*
X153730Y76210D01*
X153782Y76124D01*
X153831Y76036D01*
X153876Y75946D01*
X153918Y75854D01*
X153956Y75761D01*
X153990Y75666D01*
X154021Y75571D01*
X154048Y75474D01*
X154071Y75376D01*
X154091Y75277D01*
X154106Y75177D01*
X154118Y75077D01*
X154126Y74977D01*
X154130Y74876D01*
X154130Y74776D01*
X154126Y74675D01*
X154118Y74575D01*
X154106Y74475D01*
X154091Y74375D01*
X154071Y74276D01*
X154048Y74178D01*
X154021Y74081D01*
X153990Y73986D01*
X153956Y73891D01*
X153918Y73798D01*
X153876Y73706D01*
X153831Y73616D01*
X153782Y73528D01*
X153730Y73442D01*
X153675Y73358D01*
X153616Y73276D01*
X153555Y73196D01*
X153490Y73119D01*
X153422Y73045D01*
X153352Y72973D01*
X153279Y72904D01*
X153203Y72837D01*
X153124Y72774D01*
X153044Y72714D01*
X152961Y72657D01*
X152875Y72603D01*
X152788Y72553D01*
X152699Y72506D01*
X152608Y72463D01*
X152516Y72423D01*
X152422Y72387D01*
X152327Y72354D01*
X152230Y72325D01*
X152133Y72300D01*
X152034Y72279D01*
X151935Y72261D01*
X151835Y72248D01*
X151735Y72238D01*
X151635Y72232D01*
X151534Y72230D01*
D11*
X81230Y67780D02*
X75730Y67780D01*
X94030Y67780D02*
X99530Y67780D01*
X81230Y43980D02*
X75730Y43980D01*
X94030Y43980D02*
X99530Y43980D01*
D13*
X70630Y63880D02*
X70632Y63943D01*
X70638Y64005D01*
X70648Y64067D01*
X70661Y64129D01*
X70679Y64189D01*
X70700Y64248D01*
X70725Y64306D01*
X70754Y64362D01*
X70786Y64416D01*
X70821Y64468D01*
X70859Y64517D01*
X70901Y64565D01*
X70945Y64609D01*
X70993Y64651D01*
X71042Y64689D01*
X71094Y64724D01*
X71148Y64756D01*
X71204Y64785D01*
X71262Y64810D01*
X71321Y64831D01*
X71381Y64849D01*
X71443Y64862D01*
X71505Y64872D01*
X71567Y64878D01*
X71630Y64880D01*
X71693Y64878D01*
X71755Y64872D01*
X71817Y64862D01*
X71879Y64849D01*
X71939Y64831D01*
X71998Y64810D01*
X72056Y64785D01*
X72112Y64756D01*
X72166Y64724D01*
X72218Y64689D01*
X72267Y64651D01*
X72315Y64609D01*
X72359Y64565D01*
X72401Y64517D01*
X72439Y64468D01*
X72474Y64416D01*
X72506Y64362D01*
X72535Y64306D01*
X72560Y64248D01*
X72581Y64189D01*
X72599Y64129D01*
X72612Y64067D01*
X72622Y64005D01*
X72628Y63943D01*
X72630Y63880D01*
X72628Y63817D01*
X72622Y63755D01*
X72612Y63693D01*
X72599Y63631D01*
X72581Y63571D01*
X72560Y63512D01*
X72535Y63454D01*
X72506Y63398D01*
X72474Y63344D01*
X72439Y63292D01*
X72401Y63243D01*
X72359Y63195D01*
X72315Y63151D01*
X72267Y63109D01*
X72218Y63071D01*
X72166Y63036D01*
X72112Y63004D01*
X72056Y62975D01*
X71998Y62950D01*
X71939Y62929D01*
X71879Y62911D01*
X71817Y62898D01*
X71755Y62888D01*
X71693Y62882D01*
X71630Y62880D01*
X71567Y62882D01*
X71505Y62888D01*
X71443Y62898D01*
X71381Y62911D01*
X71321Y62929D01*
X71262Y62950D01*
X71204Y62975D01*
X71148Y63004D01*
X71094Y63036D01*
X71042Y63071D01*
X70993Y63109D01*
X70945Y63151D01*
X70901Y63195D01*
X70859Y63243D01*
X70821Y63292D01*
X70786Y63344D01*
X70754Y63398D01*
X70725Y63454D01*
X70700Y63512D01*
X70679Y63571D01*
X70661Y63631D01*
X70648Y63693D01*
X70638Y63755D01*
X70632Y63817D01*
X70630Y63880D01*
D11*
X99530Y49480D02*
X99530Y43980D01*
X75730Y43980D02*
X75730Y49480D01*
X75730Y62280D02*
X75730Y67780D01*
X99530Y67780D02*
X99530Y62280D01*
D14*
X75757Y70065D02*
X75757Y72817D01*
X75757Y70065D02*
X75759Y70001D01*
X75765Y69937D01*
X75774Y69874D01*
X75788Y69812D01*
X75805Y69750D01*
X75826Y69690D01*
X75850Y69631D01*
X75878Y69573D01*
X75910Y69518D01*
X75944Y69464D01*
X75982Y69413D01*
X76023Y69363D01*
X76067Y69317D01*
X76113Y69273D01*
X76163Y69232D01*
X76214Y69194D01*
X76268Y69160D01*
X76323Y69128D01*
X76381Y69100D01*
X76440Y69076D01*
X76500Y69055D01*
X76562Y69038D01*
X76624Y69024D01*
X76687Y69015D01*
X76751Y69009D01*
X76815Y69007D01*
X76879Y69009D01*
X76943Y69015D01*
X77006Y69024D01*
X77068Y69038D01*
X77130Y69055D01*
X77190Y69076D01*
X77249Y69100D01*
X77307Y69128D01*
X77362Y69160D01*
X77416Y69194D01*
X77467Y69232D01*
X77517Y69273D01*
X77563Y69317D01*
X77607Y69363D01*
X77648Y69413D01*
X77686Y69464D01*
X77720Y69518D01*
X77752Y69573D01*
X77780Y69631D01*
X77804Y69690D01*
X77825Y69750D01*
X77842Y69812D01*
X77856Y69874D01*
X77865Y69937D01*
X77871Y70001D01*
X77873Y70065D01*
X77874Y70065D02*
X77874Y72817D01*
X79537Y71970D02*
X80595Y72817D01*
X80595Y69007D01*
X79537Y69007D02*
X81653Y69007D01*
M02*
